<svg width="233" height="322" xmlns="http://www.w3.org/2000/svg" xmlns:xlink="http://www.w3.org/1999/xlink" overflow="hidden"><defs><clipPath id="clip0"><rect x="426" y="112" width="233" height="322"/></clipPath><clipPath id="clip1"><rect x="425" y="112" width="233" height="321"/></clipPath><clipPath id="clip2"><path d="M363.465 227.182 549.576 58.8757 735.435 265.584 549.319 433.895Z"/></clipPath><clipPath id="clip3"><path d="M363.465 227.182 549.576 58.8757 735.435 265.584 549.319 433.895Z"/></clipPath><clipPath id="clip4"><rect x="425" y="112" width="233" height="323"/></clipPath><clipPath id="clip5"><path d="M363.465 227.182 549.576 58.8757 735.435 265.584 549.319 433.895Z"/></clipPath><clipPath id="clip6"><path d="M363.465 227.182 549.576 58.8757 735.435 265.584 549.319 433.895Z"/></clipPath><clipPath id="clip7"><rect x="419" y="109" width="243" height="324"/></clipPath><clipPath id="clip8"><path d="M363.465 227.182 549.576 58.8757 735.435 265.584 549.319 433.895Z"/></clipPath><clipPath id="clip9"><path d="M363.465 227.182 549.576 58.8757 735.435 265.584 549.319 433.895Z"/></clipPath><clipPath id="clip10"><rect x="574" y="188" width="36" height="82"/></clipPath><clipPath id="clip11"><rect x="495" y="272" width="93" height="35"/></clipPath></defs><g clip-path="url(#clip0)" transform="translate(-426 -112)"><g clip-path="url(#clip1)"><g clip-path="url(#clip2)"><g clip-path="url(#clip3)"><path d="M185.757 372.102 202.787 301.347 207.479 281.846C227.338 276.609 246.051 266.031 261.321 250.138 305.586 204.077 304.144 130.871 258.098 86.6289 212.053 42.3911 138.842 43.8716 94.5773 89.933 50.316 135.998 51.7576 209.205 97.7995 253.442 115.816 270.75 137.993 281.063 160.965 284.441L165.956 302.095 185.757 372.102" fill="#A6A6A6" transform="matrix(1 0 0 1.00288 363.461 58.8835)"/></g></g></g><g clip-path="url(#clip4)"><g clip-path="url(#clip5)"><g clip-path="url(#clip6)"><path d="M185.757 372.102 186.197 372.208 203.228 301.452 207.919 281.951 207.479 281.846 207.595 282.286C224.973 277.7 241.485 269.039 255.589 256.322 257.662 254.452 259.68 252.496 261.644 250.45 304.121 206.251 304.674 137.159 264.278 92.3564 262.408 90.2836 260.448 88.2654 258.406 86.3017 214.227 43.856 145.131 43.334 100.305 83.7574 98.2319 85.6237 96.2098 87.5757 94.25 89.6174 51.7771 133.82 51.2199 202.916 91.62 247.719 93.4863 249.788 95.4422 251.806 97.4839 253.77 115.57 271.147 137.837 281.499 160.903 284.889L160.965 284.441 160.533 284.566 165.52 302.216 185.796 373.895 186.197 372.208 185.757 372.102 186.193 371.978 166.393 301.97 161.32 284.036 161.031 283.993C138.149 280.63 116.057 270.36 98.1151 253.115 96.0851 251.167 94.1448 249.164 92.2941 247.111 52.2096 202.659 52.759 134.101 94.9007 90.2447 96.8488 88.2186 98.8553 86.2822 100.909 84.4276 145.384 44.3236 213.946 44.8379 257.783 86.9562 259.809 88.9005 261.749 90.907 263.604 92.9642 303.684 137.413 303.135 205.971 260.993 249.823 259.045 251.853 257.039 253.793 254.981 255.648 240.986 268.268 224.61 276.863 207.362 281.41L207.101 281.476 202.347 301.242 185.317 371.997 185.757 372.102 186.193 371.978 185.757 372.102" fill="#FFFFFF" transform="matrix(1 0 0 1.00288 363.461 58.8835)"/></g></g></g><g clip-path="url(#clip7)"><g clip-path="url(#clip8)"><g clip-path="url(#clip9)"><path d="M185.219 372.254C182.753 365.066 180.333 357.858 177.945 350.642L170.866 328.979 163.923 307.273 157.1 285.536 160.381 288.411C145.832 286.592 131.595 282.002 118.559 275.059 116.879 274.268 115.364 273.204 113.774 272.261L109.056 269.339 104.482 265.996 102.194 264.317C101.824 264.029 101.415 263.752 101.072 263.467L100.067 262.599 96.0384 259.139 95.0331 258.274 94.5266 257.845 94.2773 257.623 93.9928 257.37 93.8682 257.249 91.8811 255.301C90.5525 254.015 89.2238 252.718 87.9965 251.331 86.7458 249.959 85.4445 248.627 84.2951 247.17 79.5066 241.497 75.2169 235.387 71.5466 228.904 67.9153 222.409 64.884 215.571 62.4995 208.515 57.8202 194.376 55.7668 179.371 56.4916 164.507 57.302 149.643 60.8164 134.938 66.9218 121.395 69.9881 114.627 73.6779 108.16 77.9286 102.089 78.9417 100.539 80.095 99.0891 81.2132 97.6085 81.7781 96.8761 82.3158 96.1358 82.9119 95.4111L84.7354 93.2409 86.5666 91.0823C87.1744 90.3849 87.7783 89.7732 88.3823 89.1186L90.6499 86.6952 90.9694 86.3523 91.2187 86.1146 92.2161 85.1523C97.4878 79.9781 103.196 75.2441 109.332 71.1492 115.461 67.0465 121.983 63.5671 128.747 60.6956 142.294 54.9915 156.847 51.9174 171.376 51.5005 178.642 51.2823 185.913 51.7342 193.07 52.8291 200.232 53.8772 207.272 55.6266 214.083 57.9643 220.921 60.267 227.521 63.2087 233.805 66.7036 240.113 70.1596 246.079 74.1844 251.666 78.7352 262.821 87.7355 272.441 98.7151 279.917 111.043 287.383 123.374 292.732 137.081 295.471 151.396 296.835 158.557 297.556 165.863 297.583 173.192 297.599 180.52 296.893 187.865 295.545 195.104 294.139 202.332 292.031 209.438 289.303 216.296 286.541 223.149 283.105 229.738 279.056 235.921 277.05 239.042 274.856 241.991 272.538 244.91L268.907 249.227 265.295 253.123 265.069 253.361 264.866 253.579 264.745 253.696 264.243 254.179 263.245 255.133 261.247 257.046C259.91 258.321 258.605 259.626 257.152 260.767L252.893 264.301C251.471 265.474 249.92 266.487 248.444 267.582 245.514 269.838 242.268 271.615 239.139 273.559 237.565 274.502 235.886 275.281 234.265 276.154 232.629 276.999 231.012 277.876 229.301 278.561L224.24 280.759C222.534 281.441 220.788 282.017 219.062 282.645L216.471 283.568C215.594 283.849 214.706 284.079 213.826 284.332L208.515 285.781 211.441 282.797 205.46 305.227 199.296 327.615 196.133 338.79 192.946 349.956 189.677 361.107 186.306 372.235C186.217 372.535 185.897 372.71 185.597 372.617 185.41 372.562 185.278 372.418 185.219 372.254ZM185.212 371.97 187.273 360.531 189.439 349.118 191.675 337.722 193.947 326.329 198.642 303.591 203.516 280.895C203.824 279.458 204.891 278.374 206.208 277.977L206.442 277.907C219.522 273.968 232.021 268.092 242.829 259.832 244.173 258.8 245.588 257.853 246.881 256.754L250.742 253.442C252.071 252.375 253.248 251.151 254.455 249.963L256.267 248.179 257.179 247.283 257.627 246.842 257.74 246.729C257.608 246.873 257.767 246.698 257.767 246.698L257.989 246.453 261.543 242.502 264.683 238.637C266.713 235.968 268.727 233.217 270.57 230.381 274.256 224.708 277.471 218.719 280.147 212.497 282.859 206.286 284.979 199.815 286.529 193.191 289.713 179.971 290.554 166.097 288.863 152.444 287.188 138.788 282.949 125.346 276.216 113.186 269.526 101.002 260.428 90.0966 249.507 81.3612 244.08 77.0247 238.232 73.1519 232.087 69.8673 225.927 66.6179 219.456 63.9723 212.812 61.9307 206.158 59.9163 199.316 58.5682 192.423 57.8552 185.527 57.1656 178.588 57.1227 171.719 57.7033 157.973 58.8605 144.543 62.5814 132.258 68.5036 119.969 74.4064 108.763 82.4522 99.4086 92.2707L98.5164 93.1746 98.2943 93.4006C98.2358 93.4552 98.3839 93.2993 98.2748 93.424L98.1579 93.5487 97.7215 94.0474 95.9526 96.0267C95.3721 96.689 94.7526 97.3514 94.2032 98.0021L92.6564 99.9424 91.1057 101.871C90.5914 102.526 90.1083 103.235 89.6096 103.913 88.6238 105.288 87.5991 106.632 86.7069 108.066 82.9704 113.692 79.7521 119.653 77.1104 125.856 71.8427 138.266 68.8855 151.614 68.4101 165.041 67.8452 178.463 69.7076 191.979 73.9467 204.712 78.0884 217.469 84.5756 229.484 93.0422 239.95 94.0552 241.298 95.2163 242.521 96.2994 243.811 97.3748 245.112 98.5436 246.324 99.7164 247.54L101.466 249.363 101.575 249.48C101.294 249.231 101.567 249.476 101.536 249.449L101.781 249.671 102.268 250.123 103.246 251.015 107.158 254.607 108.14 255.504C108.467 255.792 108.791 256.018 109.118 256.279L111.07 257.795 114.966 260.845 119.198 263.643C120.62 264.551 121.976 265.587 123.491 266.351 135.141 273.263 148.1 277.989 161.554 280.467L161.807 280.517C163.326 280.794 164.472 281.94 164.83 283.346L170.406 305.438 175.857 327.564 181.171 349.73C182.924 357.125 184.635 364.532 186.302 371.95L185.212 371.97" fill="#FFFFFF" transform="matrix(1 0 0 1.00288 363.461 58.8835)"/></g></g></g><path d="M220.223 209.134C219.592 209.134 218.937 209.119 218.287 209.088L217.188 209.037 217.032 196.604 218.372 196.787C218.376 196.787 218.778 196.842 219.432 196.842 222.838 196.842 230.899 195.525 232.235 183.349 232.492 171.859 232.068 153.555 229.835 150.087L229.742 149.947 229.695 149.787C229.683 149.748 228.378 145.626 225.417 145.626 223.477 145.626 221.034 147.305 218.345 150.488L218.088 150.792 214.414 151.583 213.101 133.442 213.95 133.142C214.129 133.08 218.408 131.592 223.656 131.592 230.182 131.592 241.321 134.101 242.615 150.893 242.712 151.984 245.007 177.996 244.236 186.903 244.236 187.787 244.041 196.331 237.916 202.628 233.712 206.945 227.758 209.134 220.223 209.134Z" fill="#FFFFFF" transform="matrix(1 0 0 1.00288 363.461 58.8835)"/><g clip-path="url(#clip10)"><path d="M223.656 132.78C231.035 132.78 240.285 135.873 241.45 150.987 241.45 150.987 243.85 178 243.067 186.852 243.067 186.852 243.246 207.946 220.219 207.946 219.608 207.946 218.98 207.931 218.337 207.899L218.217 197.968C218.217 197.968 218.672 198.03 219.428 198.03 222.771 198.03 231.959 196.795 233.4 183.427 233.4 183.427 234.059 154.478 230.809 149.436 230.809 149.436 229.297 144.437 225.413 144.434 223.422 144.434 220.811 145.747 217.461 149.713L215.478 150.138 214.328 134.268C214.332 134.264 218.544 132.78 223.656 132.78M223.656 130.403 223.656 132.78 223.656 130.403C218.213 130.403 213.755 131.95 213.564 132.02L211.87 132.616 212.002 134.44 213.148 150.313 213.342 153.025 215.957 152.464 217.94 152.039 218.711 151.871 219.226 151.264C222.499 147.391 224.505 146.814 225.413 146.814 227.478 146.814 228.569 150.114 228.581 150.145L228.678 150.469 228.857 150.742C229.251 151.349 230.56 154.42 230.988 168.395 231.211 175.607 231.086 182.363 231.066 183.271 229.866 194.04 223.266 195.65 219.428 195.65 218.863 195.65 218.52 195.611 218.517 195.607L215.836 195.237 215.883 197.995 216.004 207.931 216.031 210.175 218.228 210.276C218.898 210.311 219.569 210.327 220.219 210.327 228.078 210.327 234.312 208.016 238.742 203.465 245.066 196.966 245.389 188.18 245.401 186.961 246.164 177.941 243.889 152.09 243.772 150.788 242.404 133.053 230.583 130.403 223.656 130.403Z" fill="#A6A6A6" transform="matrix(1 0 0 1.00288 363.461 58.8835)"/></g><path d="M175.113 228.238C166.249 228.238 144.734 227.155 136.435 217.102 136.259 216.884 136.162 216.611 136.162 216.331L136.325 138.749C136.325 138.157 136.758 137.654 137.335 137.572L214.394 126.803C214.449 126.795 214.5 126.791 214.554 126.791 214.823 126.791 215.088 126.889 215.298 127.068 215.552 127.282 215.704 127.594 215.719 127.929L219.615 214.079C219.627 214.359 219.541 214.632 219.378 214.854 216.549 218.649 206.894 227.548 178.428 228.175 178.436 228.175 177.185 228.238 175.113 228.238Z" fill="#FFFFFF" transform="matrix(1 0 0 1.00288 363.461 58.8835)"/><path d="M214.554 127.988 218.446 214.137C215.867 217.601 206.579 226.368 178.401 226.991 178.339 226.995 177.115 227.049 175.113 227.049 166.86 227.049 145.369 226.075 137.331 216.335L137.494 138.753 214.554 127.984M214.554 125.607C214.449 125.607 214.34 125.615 214.235 125.63L137.175 136.396C136.022 136.559 135.16 137.561 135.157 138.749L134.993 216.331C134.993 216.892 135.188 217.437 135.542 217.866 139.361 222.495 146.144 225.799 155.698 227.684 163.408 229.204 171.173 229.43 175.113 229.43 177.018 229.43 178.249 229.379 178.479 229.368 207.436 228.725 217.375 219.51 220.305 215.579 220.636 215.135 220.804 214.585 220.776 214.032L216.884 127.878C216.853 127.212 216.549 126.589 216.046 126.16 215.626 125.802 215.096 125.611 214.554 125.611Z" fill="#A6A6A6" transform="matrix(1 0 0 1.00288 363.461 58.8835)"/><path d="M177.341 245.338C168.61 245.338 146.978 244.462 134.658 236.35 134.568 236.295 134.486 236.221 134.416 236.143 134.073 235.746 131.163 231.869 135.254 218.244 135.398 217.753 135.835 217.414 136.337 217.402 136.337 217.402 136.692 217.391 136.699 217.391 137.015 217.391 137.315 217.519 137.537 217.749 138.987 219.269 140.841 220.64 143.046 221.828 153.146 227.275 168.524 227.864 174.664 227.864 176.854 227.864 178.257 227.794 178.413 227.786 204.478 227.209 214.605 219.904 218.322 215.598 218.548 215.341 218.867 215.197 219.198 215.197 219.249 215.197 219.304 215.201 219.354 215.205 219.74 215.259 220.075 215.501 220.247 215.859 220.854 217.11 226.052 228.269 221.162 234.117 221.139 234.148 221.111 234.176 221.08 234.207 220.656 234.62 210.327 244.341 180.38 245.295 180.345 245.295 179.239 245.338 177.341 245.338Z" fill="#FFFFFF" transform="matrix(1 0 0 1.00288 363.461 58.8835)"/><g clip-path="url(#clip11)"><path d="M219.198 216.381C219.709 217.433 224.692 228.055 220.274 233.342 220.274 233.342 210.186 243.152 180.345 244.103 180.345 244.103 179.235 244.146 177.337 244.146 169.369 244.146 147.476 243.375 135.289 235.352 135.289 235.352 132.351 231.97 136.368 218.591L136.699 218.579C138.313 220.266 140.288 221.684 142.497 222.876 152.647 228.351 167.667 229.048 174.664 229.048 176.819 229.048 178.214 228.986 178.471 228.97 205.11 228.382 215.462 220.706 219.198 216.381M219.198 214.005C218.532 214.005 217.893 214.293 217.445 214.811 215.805 216.713 212.587 219.479 206.575 221.86 199.296 224.751 189.821 226.34 178.42 226.593 178.397 226.593 178.374 226.593 178.35 226.593 178.198 226.601 176.823 226.671 174.664 226.671 168.61 226.671 153.457 226.099 143.592 220.776 141.496 219.643 139.739 218.345 138.367 216.919 137.931 216.459 137.327 216.202 136.699 216.202 136.676 216.202 136.657 216.202 136.633 216.202L136.302 216.21C135.301 216.237 134.428 216.915 134.136 217.893 130.053 231.495 132.647 235.902 133.544 236.93 133.684 237.09 133.844 237.23 134.023 237.351 146.604 245.631 168.508 246.527 177.341 246.527 179.262 246.527 180.388 246.48 180.435 246.48 210.802 245.514 221.447 235.489 221.887 235.064 221.941 235.005 222 234.947 222.05 234.885 227.31 228.592 222.339 217.488 221.291 215.326 220.944 214.616 220.274 214.129 219.502 214.024 219.401 214.009 219.3 214.005 219.198 214.005Z" fill="#A6A6A6" transform="matrix(1 0 0 1.00288 363.461 58.8835)"/></g><path d="M211.951 205.39C212.014 209.75 208.799 214.503 204.81 215.953 188.812 221.77 172.038 222.389 155.585 218.392 153.625 217.917 151.657 217.437 149.74 216.798 145.708 215.466 142.361 210.806 142.298 206.446L141.741 167.597C141.683 163.237 141.578 156.103 141.515 151.739L140.962 112.893C140.9 108.534 144.313 104.914 148.544 104.848L167.978 104.556C172.21 104.489 179.137 104.384 183.373 104.322L202.803 104.026C207.038 103.963 208.628 107.478 208.69 111.838L210.786 150.683C210.845 155.047 211.332 162.181 211.394 166.541Z" fill="#FFCD49" transform="matrix(1 0 0 1.00288 363.461 58.8835)"/><path d="M205.866 190.962C206.134 195.307 206.119 199.164 202.959 199.967 199.612 200.816 199.261 196.608 199.172 192.24 198.926 180.688 199.024 169.105 199.008 157.544 199 153.687 198.989 147.375 198.985 143.522L198.93 109.161C198.926 105.304 199.254 102.101 199.667 102.042L201.548 101.781C201.958 101.727 202.628 101.633 203.041 101.579L204.923 101.318C205.332 101.259 205.484 104.369 205.491 108.226L205.694 142.587C205.702 146.444 205.749 152.756 205.753 156.613 205.764 163.638 205.749 170.667 205.776 177.696 205.791 182.087 205.589 186.528 205.862 190.896 205.862 190.916 205.866 190.939 205.866 190.962Z" fill="#F89939" transform="matrix(1 0 0 1.00288 363.461 58.8835)"/><path d="M205.043 135.998C205.043 135.998 217.157 147.071 221.817 126.503 221.817 126.503 229.27 123.339 224.299 116.377 224.299 116.377 226.784 108.152 219.643 109.102 219.643 109.102 220.574 98.341 210.323 100.239 210.323 100.239 206.91 93.911 200.387 98.9761 200.387 98.9761 201.743 92.7421 198.833 89.368 198.833 89.368 187.343 77.4572 174.922 90.1161 174.922 90.1161 168.399 85.051 163.12 92.0135 163.12 92.0135 157.84 88.2147 152.873 94.5461 152.873 94.5461 147.593 85.6822 141.691 94.5461 141.691 94.5461 127.715 92.6447 129.581 106.885 129.581 106.885 118.711 112.897 124.302 120.811 124.302 120.811 117.514 125.841 122.435 131.253 122.435 131.253 118.294 137.338 126.164 142.326 126.164 142.326 127.407 148.973 132.375 147.071 132.375 147.071 130.824 157.198 137.342 158.783 137.342 158.783 138.585 180.298 151.63 178.401 151.63 178.401 161.565 178.717 163.432 164.791 163.432 164.791 174.922 157.833 169.33 148.338 169.33 148.338 180.193 151.942 183.918 141.5 183.918 141.5 191.449 146.401 194.555 140.709 194.555 140.709 204.112 146.44 205.043 135.998Z" fill="#FFFFFF" transform="matrix(1 0 0 1.00288 363.461 58.8835)"/><path d="M150.032 179.706C138.819 179.706 136.614 163.63 136.24 159.687 131.256 157.872 130.914 151.642 131.062 148.587 130.933 148.599 130.804 148.603 130.676 148.603 126.932 148.603 125.521 144.547 125.135 143.07 122.443 141.262 120.83 139.107 120.335 136.664 119.872 134.381 120.53 132.437 121.021 131.393 119.848 129.858 119.338 128.206 119.505 126.476 119.763 123.78 121.629 121.641 122.755 120.577 121.609 118.582 121.263 116.529 121.73 114.456 122.669 110.271 126.69 107.31 128.33 106.258 127.952 102.319 128.736 99.1943 130.66 96.954 133.415 93.7513 137.759 93.272 140.109 93.272 140.502 93.272 140.845 93.2837 141.122 93.2993 142.984 90.7239 145.03 89.4187 147.208 89.4187 149.814 89.4187 151.848 91.3239 152.951 92.6603 155.3 90.2408 157.661 89.6953 159.309 89.6953 160.798 89.6953 162.037 90.1239 162.832 90.5018 164.772 88.3004 167.117 87.1471 169.662 87.1471 171.875 87.1471 173.737 88.0082 174.77 88.6082 178.6 84.9497 182.734 83.099 187.07 83.099 194.337 83.099 199.448 88.3121 199.663 88.5342 199.678 88.5498 199.694 88.5654 199.706 88.581 201.724 90.9226 201.965 94.3318 201.841 96.6579 202.982 96.1046 204.108 95.8241 205.207 95.8241 208.172 95.8241 210.058 97.8345 210.876 98.9489 214.172 98.5047 216.728 99.28 218.474 101.224 220.328 103.289 220.745 106.157 220.815 107.836 223.048 107.863 224.24 108.861 224.852 109.702 226.352 111.775 225.865 114.849 225.561 116.151 227.034 118.399 227.501 120.55 226.948 122.556 226.219 125.206 223.901 126.737 222.818 127.325 220.282 137.919 215.594 140.163 212.084 140.163 209.583 140.163 207.33 139.041 205.889 138.106 204.806 142.715 201.7 143.467 199.799 143.467 197.898 143.467 196.043 142.758 194.948 142.248 193.74 143.826 192.026 144.652 189.93 144.652 187.818 144.652 185.749 143.81 184.495 143.179 182.434 147.675 178.584 150.13 173.535 150.13 172.751 150.13 172.027 150.067 171.392 149.986 172.116 152.012 172.221 154.065 171.715 156.118 170.488 161.082 166.003 164.484 164.503 165.5 162.438 179.102 152.908 179.585 151.704 179.589 151.135 179.667 150.578 179.706 150.036 179.706ZM132.371 145.883C132.636 145.883 132.897 145.976 133.107 146.152 133.431 146.417 133.586 146.838 133.524 147.258 133.508 147.344 132.219 156.317 137.611 157.626 138.11 157.747 138.476 158.187 138.503 158.709 138.515 158.896 139.715 177.329 150.032 177.329 150.492 177.329 150.975 177.294 151.458 177.224 151.525 177.213 151.595 177.209 151.661 177.213 152.592 177.213 160.634 176.858 162.271 164.632 162.317 164.273 162.524 163.958 162.828 163.771 162.882 163.739 168.247 160.424 169.455 155.526 169.989 153.348 169.611 151.135 168.325 148.953 168.076 148.525 168.111 147.987 168.415 147.597 168.719 147.212 169.225 147.056 169.689 147.208 169.701 147.215 171.372 147.753 173.535 147.753 178.12 147.753 181.241 145.513 182.819 141.094 182.94 140.755 183.205 140.491 183.54 140.374 183.875 140.257 184.245 140.304 184.545 140.498 184.569 140.514 187.316 142.275 189.93 142.275 191.566 142.275 192.743 141.574 193.53 140.132 193.682 139.852 193.939 139.645 194.243 139.559 194.547 139.478 194.87 139.52 195.143 139.684 195.163 139.696 197.531 141.091 199.799 141.091L199.807 141.091C200.715 141.091 203.415 141.071 203.878 135.893 203.917 135.445 204.202 135.059 204.615 134.892 205.024 134.728 205.491 134.814 205.819 135.114 205.85 135.141 208.807 137.787 212.084 137.787 217.02 137.787 219.483 131.506 220.675 126.238 220.761 125.864 221.014 125.556 221.365 125.408 221.388 125.397 224.077 124.212 224.704 121.902 225.086 120.495 224.634 118.874 223.352 117.082 223.138 116.778 223.071 116.388 223.18 116.03 223.453 115.118 223.944 112.453 222.97 111.113 222.413 110.345 221.349 110.077 219.791 110.283 219.436 110.33 219.085 110.209 218.828 109.96 218.575 109.71 218.443 109.356 218.474 108.997 218.478 108.962 218.774 105.07 216.744 102.822 215.766 101.735 214.41 101.209 212.602 101.209 211.963 101.209 211.266 101.275 210.529 101.411 210.034 101.505 209.54 101.263 209.298 100.815 209.244 100.714 207.825 98.2047 205.207 98.2047 203.945 98.2047 202.561 98.7813 201.093 99.9229 200.703 100.227 200.165 100.246 199.756 99.9775 199.343 99.7086 199.137 99.206 199.246 98.719 199.254 98.6644 200.426 93.0694 197.98 90.1823 197.641 89.8472 193.125 85.4796 187.07 85.4796 183.123 85.4796 179.313 87.3225 175.744 90.9577 175.331 91.3785 174.676 91.4213 174.209 91.0629 174.193 91.0473 172.175 89.5277 169.662 89.5277 167.55 89.5277 165.656 90.6109 164.039 92.7421 163.658 93.2448 162.952 93.3539 162.442 92.9876 162.438 92.9798 161.121 92.0759 159.313 92.0759 157.314 92.0759 155.456 93.1551 153.781 95.2903 153.543 95.5942 153.173 95.7578 152.791 95.7345 152.413 95.7072 152.07 95.4968 151.871 95.1617 151.852 95.1305 149.814 91.7993 147.208 91.7993 145.696 91.7993 144.165 92.9486 142.653 95.2124 142.404 95.5864 141.971 95.7851 141.535 95.7267 141.531 95.7267 140.966 95.6526 140.109 95.6526 138.157 95.6526 134.564 96.0267 132.418 98.5242 130.828 100.371 130.263 103.133 130.734 106.73 130.797 107.221 130.559 107.696 130.134 107.934 130.084 107.961 124.925 110.871 124.006 114.994 123.62 116.716 124.025 118.391 125.245 120.117 125.619 120.647 125.502 121.387 124.984 121.773 124.956 121.792 122.085 123.97 121.828 126.717 121.707 128.011 122.186 129.23 123.289 130.446 123.663 130.855 123.706 131.471 123.394 131.93 123.386 131.942 122.135 133.859 122.626 136.216 123.024 138.106 124.419 139.82 126.78 141.317 127.056 141.492 127.247 141.78 127.31 142.104 127.313 142.143 128.128 146.226 130.68 146.226 131.069 146.226 131.502 146.136 131.962 145.961 132.094 145.91 132.234 145.883 132.371 145.883Z" fill="#A6A6A6" transform="matrix(1 0 0 1.00288 363.461 58.8835)"/><path d="M166.147 206.107C167.889 206.107 167.889 203.356 166.147 203.356 164.406 203.356 164.406 206.107 166.147 206.107Z" fill="#F89939" transform="matrix(1 0 0 1.00288 363.461 58.8835)"/><path d="M173.928 186.287C175.67 186.287 175.67 183.532 173.928 183.532 172.186 183.532 172.186 186.287 173.928 186.287Z" fill="#F89939" transform="matrix(1 0 0 1.00288 363.461 58.8835)"/><path d="M184.047 160.915C185.788 160.915 185.788 158.164 184.047 158.164 182.301 158.164 182.301 160.915 184.047 160.915Z" fill="#F89939" transform="matrix(1 0 0 1.00288 363.461 58.8835)"/><path d="M155.253 188.664C156.995 188.664 156.995 185.909 155.253 185.909 153.512 185.909 153.512 188.664 155.253 188.664Z" fill="#F89939" transform="matrix(1 0 0 1.00288 363.461 58.8835)"/><path d="M191.827 205.71C193.569 205.71 193.569 202.959 191.827 202.959 190.086 202.959 190.086 205.71 191.827 205.71Z" fill="#F89939" transform="matrix(1 0 0 1.00288 363.461 58.8835)"/><path d="M186.299 174.286C186.466 173.749 186.501 173.184 186.182 172.681 185.874 172.202 185.399 171.89 184.822 171.89 184.249 171.89 183.774 172.202 183.466 172.681 183.147 173.184 183.182 173.749 183.349 174.286 183.556 174.953 184.124 175.432 184.822 175.432 185.523 175.432 186.092 174.953 186.299 174.286Z" fill="#F89939" transform="matrix(1 0 0 1.00288 363.461 58.8835)"/><path d="M168.286 174.407C168.427 174.528 168.563 174.653 168.699 174.777 169.081 175.128 169.514 175.342 170.04 175.342 170.538 175.342 171.025 175.14 171.376 174.777 171.731 174.419 171.933 173.924 171.933 173.414 171.933 172.88 171.719 172.44 171.376 172.05 171.255 171.91 171.134 171.77 171.01 171.629 170.312 170.831 168.995 170.908 168.286 171.629 167.577 172.354 167.503 173.694 168.286 174.407Z" fill="#F89939" transform="matrix(1 0 0 1.00288 363.461 58.8835)"/><path d="M175.876 200.96C177.618 200.96 177.618 198.206 175.876 198.206 174.131 198.206 174.131 200.96 175.876 200.96Z" fill="#F89939" transform="matrix(1 0 0 1.00288 363.461 58.8835)"/><path d="M186.069 192.291C185.932 191.917 185.73 191.41 185.34 191.231 184.982 191.068 184.705 191.013 184.319 191.103 184.039 191.165 183.789 191.375 183.583 191.574 183.127 192.01 183.108 192.868 183.583 193.304 184.078 193.752 184.592 193.9 185.239 193.783 185.527 193.733 185.854 193.511 186.061 193.304 185.78 193.425 185.496 193.546 185.212 193.662L185.601 193.662C186.135 193.662 186.618 193.288 186.762 192.766 186.926 192.147 186.56 191.399 185.921 191.259 186.182 191.317 186.092 191.348 185.983 191.297 185.858 191.243 185.722 191.177 185.586 191.134 185.897 191.449 186.205 191.765 186.513 192.081 186.388 191.609 186.131 191.356 185.761 191.071 185.866 191.157 185.971 191.239 186.077 191.321 186.057 191.305 186.038 191.29 186.018 191.274 185.808 191.06 185.558 190.912 185.274 190.83 184.791 190.694 184.405 190.814 183.969 191.005 183.801 191.075 183.653 191.243 183.509 191.368 183.221 191.617 183.088 191.964 182.963 192.314 182.737 192.961 183.002 193.756 183.458 194.224 184.093 194.87 185.021 194.94 185.796 194.531 185.827 194.516 185.862 194.496 185.893 194.473 185.562 194.566 185.231 194.656 184.9 194.75 185.823 194.777 186.595 194.142 186.973 193.324 186.548 193.655 186.127 193.986 185.702 194.317 186.302 194.107 186.805 193.791 187.132 193.226 187.265 192.992 187.319 192.79 187.397 192.56 187.323 192.743 187.245 192.926 187.167 193.113 187.171 193.109 187.171 193.109 187.171 193.105 186.899 193.382 186.626 193.659 186.357 193.935 185.215 193.269 184.074 192.603 182.932 191.936 182.936 191.968 182.928 192.007 182.924 192.042 182.854 192.618 183.209 193.296 183.595 193.69 184.019 194.126 184.608 194.372 185.212 194.372 185.815 194.372 186.404 194.126 186.828 193.69 187.214 193.296 187.565 192.618 187.499 192.042 187.471 191.8 187.475 191.547 187.401 191.317 187.164 190.538 186.599 189.918 185.812 189.7 185.41 189.591 185.009 189.591 184.604 189.7 184.218 189.809 183.883 190.008 183.602 190.296 183.104 190.697 182.975 191.379 182.928 191.975 182.874 192.681 183.197 193.261 183.637 193.764 183.454 193.059 183.271 192.357 183.088 191.656 183.073 191.765 183.053 191.874 183.022 191.979 182.897 192.4 182.854 192.852 183.002 193.277L183.002 192.213C182.998 192.229 182.991 192.244 182.983 192.264 183.049 192.104 183.115 191.948 183.182 191.788 183.174 191.808 183.166 191.827 183.158 191.843 184.331 192.003 185.504 192.155 186.68 192.314 186.564 191.987 186.427 191.621 186.158 191.387 186.006 191.255 185.843 191.075 185.675 191.001 185.936 191.652 186.193 192.303 186.454 192.949 186.462 192.918 186.466 192.891 186.474 192.86 186.236 193.175 185.999 193.491 185.761 193.803 186.131 193.522 186.384 193.269 186.513 192.798 186.205 193.113 185.893 193.429 185.586 193.744 185.722 193.698 185.854 193.635 185.983 193.577 186.088 193.53 186.182 193.561 185.921 193.62 186.439 193.507 186.801 192.961 186.801 192.439 186.801 191.773 186.256 191.216 185.601 191.216 185.367 191.216 185.118 191.196 184.892 191.259 184.682 191.317 184.514 191.422 184.358 191.578 184.234 191.699 184.647 191.368 184.491 191.469 184.327 191.574 184.802 191.36 184.596 191.422 184.838 191.352 185.095 191.403 185.282 191.574L185.282 193.304C185.305 193.285 185.325 193.265 185.344 193.246 185.173 193.417 184.962 193.503 184.705 193.503 184.502 193.448 184.3 193.39 184.101 193.335 183.98 193.211 183.856 193.082 183.735 192.957 183.68 192.751 183.626 192.544 183.571 192.342 183.579 192.459 183.595 192.388 183.61 192.131 183.602 192.186 183.587 192.24 183.571 192.291 183.345 193.117 183.98 193.959 184.818 193.959 185.609 193.959 186.365 193.105 186.069 192.291Z" fill="#F89939" transform="matrix(1 0 0 1.00288 363.461 58.8835)"/><path d="M152.016 197.804C151.536 198.03 151.108 198.622 151.003 199.137 150.893 199.655 150.944 199.978 151.03 200.504 151.123 200.843 151.291 201.135 151.532 201.385 151.899 201.759 152.401 201.969 152.92 201.969 153.27 201.969 153.601 201.876 153.905 201.697 154.307 201.455 154.723 200.991 154.805 200.504 154.821 200.419 154.833 200.329 154.864 200.247 154.794 200.407 154.727 200.571 154.661 200.734 154.665 200.719 154.673 200.707 154.681 200.691 154.575 200.832 154.47 200.968 154.365 201.108 154.373 201.097 154.385 201.089 154.392 201.081 154.256 201.186 154.12 201.295 153.983 201.4 153.991 201.397 153.995 201.397 154.003 201.393 153.839 201.463 153.679 201.533 153.52 201.599 153.531 201.595 153.543 201.591 153.559 201.587 153.379 201.615 153.2 201.638 153.021 201.661 153.025 201.661 153.033 201.661 153.04 201.661 153.597 201.607 154.069 201.471 154.478 201.054 154.988 200.532 155.191 199.752 155 199.039 154.86 198.525 154.521 198.077 154.065 197.804 153.749 197.617 153.407 197.524 153.04 197.52 152.674 197.524 152.331 197.617 152.016 197.804Z" fill="#F89939" transform="matrix(1 0 0 1.00288 363.461 58.8835)"/><path d="M193.772 147.453C194.033 147.453 194.033 147.044 193.772 147.044 193.511 147.044 193.511 147.453 193.772 147.453Z" fill="#F89939" transform="matrix(1 0 0 1.00288 363.461 58.8835)"/><path d="M192.996 150.609C194.738 150.609 194.738 147.854 192.996 147.854 191.251 147.854 191.251 150.609 192.996 150.609Z" fill="#F89939" transform="matrix(1 0 0 1.00288 363.461 58.8835)"/></g></svg>