<svg width="37" height="37" xmlns="http://www.w3.org/2000/svg" xmlns:xlink="http://www.w3.org/1999/xlink" overflow="hidden"><defs><clipPath id="clip0"><rect x="80" y="21" width="37" height="37"/></clipPath></defs><g clip-path="url(#clip0)" transform="translate(-80 -21)"><path d="M106.979 49.5208 103.125 49.5208 103.125 34.875 106.979 34.875 106.979 49.5208ZM100.042 48.75C100.042 49.174 99.6948 49.5208 99.2708 49.5208 98.8469 49.5208 98.5 49.174 98.5 48.75L98.5 35.6458C98.5 35.2219 98.8469 34.875 99.2708 34.875 99.6948 34.875 100.042 35.2219 100.042 35.6458L100.042 48.75ZM96.1875 48.75C96.1875 49.174 95.8406 49.5208 95.4167 49.5208 94.9927 49.5208 94.6458 49.174 94.6458 48.75L94.6458 35.6458C94.6458 35.2219 94.9927 34.875 95.4167 34.875 95.8406 34.875 96.1875 35.2219 96.1875 35.6458L96.1875 48.75ZM92.3333 48.75C92.3333 49.174 91.9865 49.5208 91.5625 49.5208 91.1385 49.5208 90.7917 49.174 90.7917 48.75L90.7917 35.6458C90.7917 35.2219 91.1385 34.875 91.5625 34.875 91.9865 34.875 92.3333 35.2219 92.3333 35.6458L92.3333 48.75ZM107.75 32.5625 103.125 32.5625 103.125 31.0208 87.7083 31.0208 87.7083 53.375C87.7083 54.2229 88.4021 54.9167 89.25 54.9167L101.583 54.9167C102.431 54.9167 103.125 54.2229 103.125 53.375L103.125 51.8333 107.75 51.8333C108.598 51.8333 109.292 51.1396 109.292 50.2917L109.292 34.1042C109.292 33.2562 108.598 32.5625 107.75 32.5625Z" fill="#FFFFFF"/><path d="M100.427 26.7812C99.7333 26.7812 99.1167 27.051 98.6542 27.475 98.076 27.051 97.3438 26.7812 96.5729 26.7812 96.5729 26.7812 96.5729 26.7812 96.5344 26.7812 96.3417 25.2781 95.0312 24.0833 93.4896 24.0833 91.9479 24.0833 90.6375 25.2781 90.4448 26.7812 90.4448 26.7812 90.4448 26.7812 90.4062 26.7812 88.9031 26.7812 87.7083 27.976 87.7083 29.4792L103.125 29.4792C103.125 27.976 101.93 26.7812 100.427 26.7812Z" fill="#FFFFFF"/></g></svg>