<svg width="232" height="324" xmlns="http://www.w3.org/2000/svg" xmlns:xlink="http://www.w3.org/1999/xlink" overflow="hidden"><defs><clipPath id="clip0"><rect x="17" y="47" width="232" height="324"/></clipPath><clipPath id="clip1"><rect x="14" y="50" width="234" height="321"/></clipPath><clipPath id="clip2"><path d="M-47.0635 164.566 139.522-3.4271 325.854 202.897 139.265 370.895Z"/></clipPath><clipPath id="clip3"><path d="M-47.0635 164.566 139.522-3.4271 325.854 202.897 139.265 370.895Z"/></clipPath><clipPath id="clip4"><rect x="14" y="50" width="234" height="321"/></clipPath><clipPath id="clip5"><path d="M-47.0635 164.566 139.522-3.4271 325.854 202.897 139.265 370.895Z"/></clipPath><clipPath id="clip6"><path d="M-47.0635 164.566 139.522-3.4271 325.854 202.897 139.265 370.895Z"/></clipPath><clipPath id="clip7"><path d="M-47.0635 164.566 139.522-3.4271 325.854 202.897 139.265 370.895Z"/></clipPath><clipPath id="clip8"><path d="M-47.0635 164.566 139.522-3.4271 325.854 202.897 139.265 370.895Z"/></clipPath><clipPath id="clip9"><rect x="51" y="154" width="163" height="87"/></clipPath><clipPath id="clip10"><rect x="51" y="91" width="164" height="60"/></clipPath><clipPath id="clip11"><rect x="51" y="154" width="158" height="84"/></clipPath><clipPath id="clip12"><rect x="51" y="94" width="158" height="58"/></clipPath><clipPath id="clip13"><rect x="55" y="154" width="159" height="84"/></clipPath><clipPath id="clip14"><rect x="55" y="93" width="159" height="58"/></clipPath><clipPath id="clip15"><rect x="53" y="154" width="159" height="84"/></clipPath><clipPath id="clip16"><rect x="53" y="93" width="159" height="58"/></clipPath><clipPath id="clip17"><rect x="173" y="155" width="36" height="19"/></clipPath><clipPath id="clip18"><rect x="133" y="155" width="36" height="19"/></clipPath><clipPath id="clip19"><rect x="94" y="155" width="37" height="19"/></clipPath><clipPath id="clip20"><rect x="54" y="155" width="36" height="19"/></clipPath></defs><g clip-path="url(#clip0)" transform="translate(-17 -47)"><g clip-path="url(#clip1)"><g clip-path="url(#clip2)"><g clip-path="url(#clip3)"><path d="M185.946 372.481 202.994 301.653 207.69 282.133C227.569 276.891 246.302 266.302 261.586 250.393 305.897 204.285 304.454 131.004 258.361 86.7171 212.268 42.4342 138.984 43.9163 94.6735 90.0244 50.3672 136.137 51.8103 209.417 97.8989 253.7 115.933 271.025 138.133 281.349 161.129 284.73L166.125 302.402 185.946 372.481" fill="#A6A6A6" transform="matrix(1.00153 0 0 1 -47.0674 -3.4193)"/></g></g></g><g clip-path="url(#clip4)"><g clip-path="url(#clip5)"><g clip-path="url(#clip6)"><path d="M185.946 372.481 186.387 372.586 203.434 301.759 208.13 282.238 207.69 282.133 207.807 282.573C225.202 277.983 241.731 269.313 255.849 256.583 257.924 254.71 259.944 252.753 261.91 250.705 304.43 206.461 304.984 137.299 264.547 92.4504 262.675 90.3755 260.713 88.3552 258.669 86.3895 214.445 43.9007 145.279 43.378 100.407 83.8426 98.3319 85.7108 96.3077 87.6648 94.3459 89.7085 51.8298 133.956 51.272 203.122 91.7132 247.971 93.5814 250.042 95.5393 252.062 97.583 254.028 115.688 271.423 137.977 281.786 161.067 285.179L161.129 284.73 160.696 284.855 165.688 302.523 185.985 374.275 186.387 372.586 185.946 372.481 186.383 372.356 166.562 302.277 161.484 284.325 161.195 284.282C138.289 280.916 116.175 270.635 98.2149 253.373 96.1829 251.423 94.2406 249.418 92.388 247.362 52.2627 202.865 52.8126 134.237 94.9972 90.3365 96.9473 88.3083 98.9559 86.3699 101.011 84.5135 145.532 44.3687 214.164 44.8835 258.045 87.0447 260.073 88.9909 262.016 90.9995 263.872 93.0588 303.993 137.552 303.443 206.18 261.259 250.077 259.309 252.109 257.3 254.051 255.241 255.908 241.231 268.541 224.839 277.144 207.573 281.696L207.311 281.762 202.553 301.548 185.505 372.376 185.946 372.481 186.383 372.356 185.946 372.481" fill="#FFFFFF" transform="matrix(1.00153 0 0 1 -47.0674 -3.4193)"/></g></g></g><g clip-path="url(#clip7)"><g clip-path="url(#clip8)"><path d="M185.408 372.633C182.939 365.437 180.517 358.222 178.126 350.999L171.039 329.313 164.089 307.585 157.26 285.826 160.544 288.705C145.981 286.883 131.729 282.289 118.679 275.339 116.998 274.547 115.481 273.482 113.89 272.538L109.167 269.613 104.588 266.267 102.298 264.586C101.928 264.297 101.518 264.02 101.175 263.736L100.169 262.866 96.1361 259.402 95.1298 258.537 94.6228 258.108 94.3732 257.885 94.0884 257.632 93.9636 257.511 91.9745 255.561C90.6446 254.274 89.3146 252.975 88.086 251.586 86.8341 250.214 85.5314 248.88 84.3809 247.421 79.5875 241.742 75.2934 235.627 71.6194 229.137 67.9844 222.635 64.9501 215.79 62.5631 208.727 57.879 194.573 55.8236 179.554 56.549 164.674 57.3603 149.795 60.8782 135.076 66.9899 121.519 70.0593 114.744 73.7528 108.27 78.0079 102.193 79.022 100.641 80.1764 99.1899 81.2958 97.7078 81.8613 96.9746 82.3996 96.2336 82.9963 95.5081L84.8216 93.3357 86.6547 91.175C87.2631 90.4769 87.8676 89.8645 88.4722 89.2093L90.7421 86.7834 91.0619 86.4402 91.3115 86.2022 92.31 85.2389C97.5869 80.0594 103.301 75.3207 109.444 71.2216 115.579 67.1147 122.107 63.6318 128.878 60.7573 142.439 55.0474 157.007 51.9702 171.55 51.5529 178.824 51.3344 186.102 51.7869 193.267 52.8828 200.435 53.932 207.483 55.6832 214.3 58.0233 221.145 60.3283 227.752 63.273 234.043 66.7714 240.358 70.2309 246.329 74.2598 251.922 78.8153 263.088 87.8247 272.718 98.8155 280.202 111.156 287.675 123.5 293.03 137.221 295.772 151.55 297.137 158.719 297.858 166.032 297.886 173.368 297.901 180.704 297.195 188.056 295.846 195.303 294.438 202.537 292.328 209.651 289.598 216.516 286.832 223.376 283.393 229.971 279.34 236.161 277.332 239.285 275.136 242.238 272.815 245.159L269.18 249.48 265.565 253.38 265.338 253.618 265.136 253.837 265.015 253.954 264.512 254.437 263.513 255.393 261.512 257.308C260.175 258.583 258.868 259.89 257.413 261.033L253.15 264.57C251.727 265.744 250.174 266.758 248.696 267.854 245.763 270.112 242.514 271.891 239.383 273.837 237.807 274.781 236.126 275.561 234.503 276.435 232.865 277.281 231.247 278.158 229.535 278.845L224.468 281.045C222.76 281.727 221.013 282.304 219.285 282.932L216.691 283.857C215.814 284.137 214.924 284.368 214.043 284.621L208.727 286.072 211.656 283.084 205.669 305.538 199.499 327.948 196.332 339.134 193.142 350.312 189.87 361.475 186.496 372.613C186.406 372.914 186.086 373.089 185.786 372.996 185.599 372.941 185.466 372.797 185.408 372.633ZM185.4 372.348 187.463 360.897 189.632 349.474 191.87 338.066 194.144 326.661 198.844 303.9 203.723 281.181C204.031 279.742 205.1 278.658 206.418 278.26L206.652 278.19C219.745 274.247 232.257 268.365 243.076 260.097 244.422 259.063 245.837 258.115 247.132 257.015L250.997 253.7C252.327 252.632 253.505 251.407 254.714 250.217L256.528 248.431 257.441 247.534 257.889 247.093 258.002 246.98C257.87 247.125 258.03 246.949 258.03 246.949L258.252 246.703 261.809 242.749 264.952 238.88C266.984 236.208 269.001 233.454 270.846 230.615 274.535 224.936 277.753 218.942 280.432 212.713 283.147 206.496 285.268 200.018 286.821 193.388 290.007 180.154 290.85 166.266 289.157 152.599 287.48 138.929 283.237 125.473 276.497 113.301 269.8 101.105 260.693 90.1882 249.761 81.444 244.328 77.1031 238.474 73.2263 232.323 69.9384 226.157 66.6856 219.679 64.0374 213.029 61.9937 206.367 59.9773 199.519 58.6278 192.619 57.9141 185.716 57.2238 178.77 57.1808 171.894 57.762 158.134 58.9203 144.69 62.645 132.392 68.5733 120.091 74.4821 108.874 82.5361 99.5097 92.3646L98.6166 93.2694 98.3943 93.4956C98.3358 93.5502 98.484 93.3942 98.3748 93.519L98.2578 93.6438 97.8209 94.1431 96.0503 96.1244C95.4691 96.7874 94.849 97.4504 94.2991 98.1018L92.7507 100.044 91.1984 101.975C90.6836 102.63 90.2 103.34 89.7007 104.018 88.714 105.395 87.6882 106.741 86.7951 108.176 83.0548 113.808 79.8332 119.775 77.1889 125.984 71.9158 138.406 68.9556 151.769 68.4797 165.209 67.9142 178.645 69.7785 192.175 74.0219 204.92 78.1678 217.69 84.6617 229.718 93.1368 240.194 94.1509 241.543 95.3131 242.768 96.3974 244.059 97.4738 245.362 98.6439 246.575 99.8178 247.791L101.569 249.617 101.678 249.734C101.397 249.484 101.67 249.73 101.639 249.703L101.885 249.925 102.372 250.377 103.351 251.27 107.267 254.866 108.25 255.763C108.578 256.052 108.901 256.278 109.229 256.54L111.183 258.057 115.083 261.111 119.319 263.911C120.742 264.82 122.1 265.857 123.617 266.622 135.278 273.541 148.251 278.272 161.718 280.752L161.971 280.803C163.493 281.08 164.639 282.226 164.998 283.634L170.579 305.748 176.036 327.898 181.355 350.086C183.111 357.489 184.823 364.903 186.492 372.329L185.4 372.348" fill="#FFFFFF" transform="matrix(1.00153 0 0 1 -47.0674 -3.4193)"/></g></g><path d="M177.167 199.667 170.712 199.667 161.23 190.189C161.835 189.585 162.237 188.781 162.237 187.974 162.237 186.157 160.825 184.948 159.21 184.948 157.595 184.948 156.184 186.359 156.184 187.974 156.184 188.781 156.589 189.585 157.194 190.189L147.911 199.468 141.055 199.468 141.055 218.22 177.167 218.22ZM151.141 199.667 159.007 191.804 166.878 199.667Z" fill="#A6A6A6" transform="matrix(1.00153 0 0 1 -47.0674 -3.4193)"/><g clip-path="url(#clip9)"><path d="M111.191 177.085 111.191 243.427 247.378 243.427 247.378 177.085C255.046 174.261 260.494 166.8 260.494 158.13L219.94 158.13C219.94 169.421 229.02 178.497 240.319 178.497 240.72 178.497 241.126 178.497 241.528 178.497L241.528 237.378 202.791 237.378 202.791 178.091C212.475 176.679 220.143 168.212 220.143 158.13L179.386 158.13C179.386 168.212 186.851 176.679 196.738 178.091L196.738 237.175 117.244 237.175 117.244 178.294C117.65 178.294 118.051 178.294 118.457 178.294 129.756 178.294 138.832 169.218 138.832 157.927L98.2812 157.927C98.2812 166.8 103.527 174.058 111.191 177.085Z" fill="#A6A6A6" transform="matrix(1.00153 0 0 1 -47.0674 -3.4193)"/></g><path d="M159.007 178.497C170.306 178.497 179.386 169.421 179.386 158.13L138.832 158.13C138.832 169.421 147.911 178.497 159.007 178.497Z" fill="#A6A6A6" transform="matrix(1.00153 0 0 1 -47.0674 -3.4193)"/><g clip-path="url(#clip10)"><path d="M246.571 95.2156 112.404 95.2156 98.2812 153.492 260.693 153.492Z" fill="#A6A6A6" transform="matrix(1.00153 0 0 1 -47.0674 -3.4193)"/></g><path d="M207.229 192.206 211.668 192.206 211.668 209.55 207.229 209.55Z" fill="#A6A6A6" transform="matrix(1.00153 0 0 1 -47.0674 -3.4193)"/><path d="M174.643 198.848 168.391 198.848 159.214 189.663C159.799 189.074 160.189 188.294 160.189 187.51 160.189 185.751 158.82 184.581 157.26 184.581 155.696 184.581 154.331 185.95 154.331 187.51 154.331 188.294 154.721 189.074 155.306 189.663L146.324 198.653 139.682 198.653 139.682 216.832 174.643 216.832ZM149.448 198.848 157.065 191.227 164.682 198.848Z" fill="#A6A6A6" transform="matrix(1.00153 0 0 1 -47.0674 -3.4193)"/><g clip-path="url(#clip11)"><path d="M110.777 176.956 110.777 241.263 242.608 241.263 242.608 176.956C250.03 174.222 255.303 166.987 255.303 158.586L216.048 158.586C216.048 169.53 224.835 178.325 235.771 178.325 236.165 178.325 236.555 178.325 236.945 178.325L236.945 235.401 199.445 235.401 199.445 177.935C208.821 176.566 216.243 168.356 216.243 158.586L176.788 158.586C176.788 168.356 184.015 176.566 193.586 177.935L193.586 235.202 116.636 235.202 116.636 178.13C117.026 178.13 117.416 178.13 117.806 178.13 128.746 178.13 137.533 169.335 137.533 158.387L98.2773 158.387C98.2773 166.987 103.355 174.027 110.777 176.956Z" fill="#A6A6A6" transform="matrix(1.00153 0 0 1 -47.0674 -3.4193)"/></g><path d="M157.065 178.325C168.001 178.325 176.788 169.53 176.788 158.586L137.533 158.586C137.533 169.53 146.324 178.325 157.065 178.325Z" fill="#A6A6A6" transform="matrix(1.00153 0 0 1 -47.0674 -3.4193)"/><g clip-path="url(#clip12)"><path d="M241.828 97.6025 111.947 97.6025 98.2773 154.089 255.498 154.089Z" fill="#A6A6A6" transform="matrix(1.00153 0 0 1 -47.0674 -3.4193)"/></g><path d="M203.743 191.617 208.041 191.617 208.041 208.427 203.743 208.427Z" fill="#A6A6A6" transform="matrix(1.00153 0 0 1 -47.0674 -3.4193)"/><path d="M179.409 198.594 173.134 198.594 163.914 189.366C164.503 188.778 164.897 187.994 164.897 187.206 164.897 185.439 163.524 184.261 161.952 184.261 160.384 184.261 159.011 185.634 159.011 187.206 159.011 187.994 159.405 188.778 159.994 189.366L150.973 198.399 144.304 198.399 144.304 216.656 179.409 216.656ZM154.109 198.594 161.757 190.938 169.405 198.594Z" fill="#A6A6A6" transform="matrix(1.00153 0 0 1 -47.0674 -3.4193)"/><g clip-path="url(#clip13)"><path d="M115.278 176.605 115.278 241.2 247.655 241.2 247.655 176.605C255.104 173.855 260.401 166.589 260.401 158.149L220.981 158.149C220.981 169.144 229.808 177.978 240.791 177.978 241.181 177.978 241.575 177.978 241.968 177.978L241.968 235.311 204.312 235.311 204.312 177.584C213.727 176.211 221.18 167.966 221.18 158.149L181.566 158.149C181.566 167.966 188.82 176.211 198.431 177.584L198.431 235.112 121.164 235.112 121.164 177.783C121.554 177.783 121.948 177.783 122.338 177.783 133.321 177.783 142.147 168.945 142.147 157.95L102.727 157.95C102.727 166.589 107.829 173.66 115.278 176.605Z" fill="#A6A6A6" transform="matrix(1.00153 0 0 1 -47.0674 -3.4193)"/></g><path d="M161.757 177.978C172.74 177.978 181.566 169.144 181.566 158.149L142.147 158.149C142.147 169.144 150.973 177.978 161.757 177.978Z" fill="#A6A6A6" transform="matrix(1.00153 0 0 1 -47.0674 -3.4193)"/><g clip-path="url(#clip14)"><path d="M246.871 96.8888 116.456 96.8888 102.727 153.633 260.596 153.633Z" fill="#A6A6A6" transform="matrix(1.00153 0 0 1 -47.0674 -3.4193)"/></g><path d="M208.63 191.328 212.943 191.328 212.943 208.216 208.63 208.216Z" fill="#A6A6A6" transform="matrix(1.00153 0 0 1 -47.0674 -3.4193)"/><path d="M176.671 198.594 170.396 198.594 161.18 189.366C161.769 188.778 162.159 187.994 162.159 187.206 162.159 185.439 160.786 184.261 159.218 184.261 157.65 184.261 156.277 185.634 156.277 187.206 156.277 187.994 156.667 188.778 157.256 189.366L148.235 198.399 141.566 198.399 141.566 216.656 176.671 216.656ZM151.375 198.594 159.023 190.938 166.671 198.594Z" fill="#F8F8F8" transform="matrix(1.00153 0 0 1 -47.0674 -3.4193)"/><g clip-path="url(#clip15)"><path d="M112.544 176.605 112.544 241.2 244.917 241.2 244.917 176.605C252.37 173.855 257.667 166.589 257.667 158.149L218.247 158.149C218.247 169.144 227.07 177.978 238.053 177.978 238.447 177.978 238.837 177.978 239.231 177.978L239.231 235.311 201.578 235.311 201.578 177.584C210.989 176.211 218.442 167.966 218.442 158.149L178.828 158.149C178.828 167.966 186.086 176.211 195.693 177.584L195.693 235.112 118.426 235.112 118.426 177.783C118.82 177.783 119.21 177.783 119.604 177.783 130.587 177.783 139.409 168.945 139.409 157.95L99.9934 157.95C99.9934 166.589 105.091 173.66 112.544 176.605Z" fill="#F8F8F8" transform="matrix(1.00153 0 0 1 -47.0674 -3.4193)"/></g><path d="M159.023 177.978C170.002 177.978 178.828 169.144 178.828 158.149L139.409 158.149C139.409 169.144 148.235 177.978 159.023 177.978Z" fill="#F8F8F8" transform="matrix(1.00153 0 0 1 -47.0674 -3.4193)"/><g clip-path="url(#clip16)"><path d="M244.133 96.8888 113.718 96.8888 99.9934 153.633 257.862 153.633Z" fill="#F8F8F8" transform="matrix(1.00153 0 0 1 -47.0674 -3.4193)"/></g><path d="M205.892 191.328 210.205 191.328 210.205 208.216 205.892 208.216Z" fill="#F8F8F8" transform="matrix(1.00153 0 0 1 -47.0674 -3.4193)"/><g clip-path="url(#clip17)"><path d="M237.92 176.507C247.612 176.507 255.471 168.649 255.471 158.953L220.369 158.953C220.369 168.649 228.224 176.507 237.92 176.507Z" fill="#76D6FF" transform="matrix(1.00153 0 0 1 -47.0674 -3.4193)"/></g><g clip-path="url(#clip18)"><path d="M198.122 176.507C207.814 176.507 215.673 168.649 215.673 158.953L180.572 158.953C180.572 168.649 188.427 176.507 198.122 176.507Z" fill="#76D6FF" transform="matrix(1.00153 0 0 1 -47.0674 -3.4193)"/></g><g clip-path="url(#clip19)"><path d="M159.276 176.507C168.972 176.507 176.831 168.649 176.831 158.953L141.726 158.953C141.726 168.649 149.584 176.507 159.276 176.507Z" fill="#76D6FF" transform="matrix(1.00153 0 0 1 -47.0674 -3.4193)"/></g><g clip-path="url(#clip20)"><path d="M119.21 176.507C128.906 176.507 136.761 168.649 136.761 158.953L101.659 158.953C101.659 168.649 109.518 176.507 119.21 176.507Z" fill="#76D6FF" transform="matrix(1.00153 0 0 1 -47.0674 -3.4193)"/></g></g></svg>