<svg width="54" height="54" xmlns="http://www.w3.org/2000/svg" xmlns:xlink="http://www.w3.org/1999/xlink" overflow="hidden"><defs><clipPath id="clip0"><rect x="25" y="101" width="54" height="54"/></clipPath><clipPath id="clip1"><path d="M25.7302 113.245 66.9205 101.59 78.5757 142.78 37.3854 154.435Z" fill-rule="evenodd" clip-rule="evenodd"/></clipPath><clipPath id="clip2"><path d="M25.7302 113.245 66.9205 101.59 78.5757 142.78 37.3854 154.435Z" fill-rule="evenodd" clip-rule="evenodd"/></clipPath><clipPath id="clip3"><path d="M25.7302 113.245 66.9205 101.59 78.5757 142.78 37.3854 154.435Z" fill-rule="evenodd" clip-rule="evenodd"/></clipPath></defs><g clip-path="url(#clip0)" transform="translate(-25 -101)"><g clip-path="url(#clip1)"><g clip-path="url(#clip2)"><g clip-path="url(#clip3)"><path d="M48.7988 139.048C48.726 138.791 49.1316 138.259 49.9039 138.04 50.6762 137.822 51.3004 138.062 51.3732 138.32 51.5073 138.794 52.0002 139.069 52.4741 138.935 52.9481 138.801 53.2236 138.308 53.0895 137.834 52.715 136.511 51.1023 135.847 49.4183 136.324 47.7342 136.8 46.7081 138.21 47.0825 139.534 47.2166 140.008 47.7095 140.283 48.1835 140.149 48.6574 140.015 48.9329 139.522 48.7988 139.048Z" fill="#F2F2F2"/><path d="M47.2127 115.39C47.858 115.75 48.0895 116.564 47.7297 117.21 47.7292 117.21 47.7288 117.211 47.7283 117.212 47.488 117.642 47.6416 118.185 48.0715 118.426 48.5014 118.666 49.0448 118.512 49.2852 118.082 50.1263 116.578 49.5883 114.676 48.0835 113.835 48.0834 113.835 48.0834 113.835 48.0833 113.835L48.0833 113.835C47.4385 113.474 47.208 112.659 47.5682 112.015 47.816 111.589 47.6717 111.043 47.246 110.795 46.8203 110.548 46.2744 110.692 46.0266 111.117 46.0214 111.126 46.0164 111.135 46.0115 111.145 45.1741 112.649 45.7112 114.547 47.2127 115.39Z" fill="#F2F2F2"/><path d="M53.4859 115.021C52.8412 114.66 52.6106 113.845 52.9709 113.201 53.2112 112.771 53.0574 112.227 52.6274 111.987 52.1974 111.746 51.6539 111.9 51.4136 112.33 50.5725 113.835 51.1105 115.737 52.6152 116.578 52.6153 116.578 52.6154 116.578 52.6155 116.578 53.259 116.939 53.4892 117.753 53.1305 118.398 52.8903 118.828 53.0442 119.371 53.4741 119.612 53.9041 119.852 54.4475 119.698 54.6877 119.268 55.5247 117.763 54.9874 115.864 53.4859 115.021Z" fill="#F2F2F2"/><path d="M43.6356 119.119C44.2803 119.479 44.5109 120.294 44.1506 120.939 43.9102 121.369 44.0639 121.912 44.4938 122.153 44.9237 122.393 45.4671 122.239 45.7075 121.81 46.5486 120.305 46.0106 118.403 44.5058 117.562 44.5057 117.562 44.5056 117.562 44.5055 117.562L44.5055 117.562C43.8611 117.201 43.6306 116.387 43.9906 115.742 44.231 115.312 44.0773 114.769 43.6474 114.528 43.2175 114.288 42.6741 114.442 42.4338 114.872 41.595 116.377 42.1326 118.277 43.6357 119.119Z" fill="#F2F2F2"/><path d="M73.3993 131.037C72.8872 129.228 70.976 127.969 68.1764 127.319L68.3075 127.782C75.5708 140.857 47.7494 144.704 47.1815 144.836 47.6316 145.487 47.7298 146.319 47.4437 147.057 50.7227 147.002 53.98 146.514 57.1307 145.604 67.5407 142.659 74.8658 136.22 73.46 131.252 73.4523 131.224 73.4394 131.2 73.4292 131.174 73.4183 131.129 73.4121 131.082 73.3993 131.037Z" fill="#F2F2F2"/><path d="M35.7022 141.936C36.3367 144.178 38.6476 145.737 41.9455 146.51 41.732 145.756 41.4776 145.021 41.8545 144.025 40.3649 143.748 39.159 142.655 38.7379 141.2 37.7006 137.67 40.3493 133.792 40.3493 133.792L38.8758 135.136C36.336 137.366 35.0716 139.707 35.6415 141.721Z" fill="#F2F2F2"/><path d="M52.9463 127.492C54.8083 125.919 57.279 125.268 59.6741 125.719 60.3153 125.831 60.9421 126.014 61.543 126.264 62.3781 125.853 63.3052 125.665 64.2344 125.718 61.8878 124.068 58.9679 123.452 56.1546 124.012L55.2785 123.266 55.219 123.219C51.6182 120.64 46.6088 121.469 44.0299 125.069 44.0048 125.104 43.9799 125.14 43.9553 125.175 44.6969 125.061 45.454 125.099 46.1804 125.287 48.3335 123.175 51.6894 122.906 54.1518 124.647L54.1518 124.647C53.6551 124.864 53.1781 125.123 52.7262 125.422 51.0777 124.518 49.0477 124.69 47.5755 125.86 48.1129 126.172 48.5945 126.571 49.0007 127.041 49.6565 126.644 50.4446 126.527 51.1873 126.718 50.2599 127.691 49.5942 128.884 49.2525 130.185 48.8204 130.255 48.3926 130.35 47.971 130.469 42.8432 131.92 39.4185 135.867 40.34 140.275 40.7669 141.988 42.1706 142.923 43.386 142.687 45.4022 142.125 45.9771 140.881 45.7226 139.678 45.3162 137.862 46.6652 135.936 49.1027 135.246 50.5516 134.836 53.7697 135.187 54.3069 137.249 54.6517 139.657 52.4219 140.239 50.6829 140.592 46.6495 141.423 44.3021 142.739 43.7052 144.513 43.4111 145.367 43.5907 146.312 44.1771 146.999 44.5013 147.37 45.0649 147.408 45.4359 147.084 45.8069 146.76 45.8448 146.196 45.5207 145.825 45.3519 145.62 45.3059 145.34 45.3999 145.091 45.534 144.692 46.3381 143.314 51.0466 142.349 53.3348 141.878 54.8781 140.965 55.646 139.632 56.1594 138.756 56.2911 137.707 56.0104 136.732L56.0092 136.727C55.6507 135.588 53.8051 132.256 48.6182 133.536 45.4251 134.439 43.4973 137.109 43.9099 139.704L43.8889 139.71C43.8898 141.285 42.522 141.364 42.0597 139.796 41.309 136.939 44.2145 133.394 48.4601 132.193 52.7057 130.991 57.2384 132.992 58.1385 136.174 58.2345 136.513 58.7451 138.7 57.554 139.119 57.0843 139.268 56.8243 139.77 56.9734 140.24 57.1224 140.71 57.624 140.969 58.0937 140.82 58.1122 140.815 58.1306 140.81 58.1495 140.805 60.3823 140.015 60.0669 136.462 59.7776 135.451 59.3871 134.398 58.7673 133.444 57.963 132.66 58.054 132.614 58.1507 132.581 58.2505 132.562 58.3449 132.545 58.4405 132.537 58.5362 132.538 58.4 131.955 58.3593 131.353 58.4155 130.757 58.2494 130.762 58.0839 130.779 57.9205 130.809 57.3914 130.91 56.9004 131.155 56.5015 131.517 55.9747 131.19 55.4168 130.915 54.836 130.698 55.7051 129.351 57.311 128.675 58.8819 128.994 59.1462 128.411 59.5081 127.878 59.952 127.417 59.7097 127.343 59.4632 127.283 59.2138 127.239 56.5689 126.784 54.0642 128.075 53.0874 130.215 52.4559 130.099 51.8153 130.039 51.1732 130.036 51.5219 129.108 52.0843 128.275 52.8148 127.605Z" fill="#F2F2F2"/><path d="M67.6146 130.247C68.1845 132.261 67.0137 134.356 64.9995 134.926 62.9853 135.496 60.8904 134.325 60.3205 132.311 59.7505 130.297 60.9214 128.202 62.9356 127.632 64.9498 127.062 67.0447 128.233 67.6146 130.247Z" fill="#F2F2F2"/><path d="M47.488 128.759C47.6506 128.713 47.8137 128.672 47.9763 128.632 46.8392 126.875 44.4927 126.372 42.7351 127.509 41.0878 128.575 40.5262 130.722 41.4406 132.458 43.0714 130.684 45.1663 129.403 47.488 128.759Z" fill="#F2F2F2"/></g></g></g></g></svg>