<svg width="234" height="322" xmlns="http://www.w3.org/2000/svg" xmlns:xlink="http://www.w3.org/1999/xlink" overflow="hidden"><defs><clipPath id="clip0"><rect x="64" y="53" width="234" height="322"/></clipPath><clipPath id="clip1"><rect x="61" y="53" width="235" height="321"/></clipPath><clipPath id="clip2"><path d="M-0.102486 168.182 186.805-0.124311 373.458 206.584 186.547 374.895Z"/></clipPath><clipPath id="clip3"><path d="M-0.102486 168.182 186.805-0.124311 373.458 206.584 186.547 374.895Z"/></clipPath><clipPath id="clip4"><rect x="61" y="53" width="235" height="323"/></clipPath><clipPath id="clip5"><path d="M-0.102486 168.182 186.805-0.124311 373.458 206.584 186.547 374.895Z"/></clipPath><clipPath id="clip6"><path d="M-0.102486 168.182 186.805-0.124311 373.458 206.584 186.547 374.895Z"/></clipPath><clipPath id="clip7"><rect x="55" y="50" width="245" height="324"/></clipPath><clipPath id="clip8"><path d="M-0.102486 168.182 186.805-0.124311 373.458 206.584 186.547 374.895Z"/></clipPath><clipPath id="clip9"><path d="M-0.102486 168.182 186.805-0.124311 373.458 206.584 186.547 374.895Z"/></clipPath><clipPath id="clip10"><rect x="146" y="61" width="23" height="60"/></clipPath><clipPath id="clip11"><rect x="167" y="77" width="17" height="44"/></clipPath><clipPath id="clip12"><rect x="192" y="151" width="74" height="102"/></clipPath><clipPath id="clip13"><path d="M201.858 152.001 270.208 158.358 260.825 258.987 192.475 252.63Z"/></clipPath><clipPath id="clip14"><path d="M111.497 79.8537 276.32 95.1787 261.048 258.991 96.2252 243.666Z"/></clipPath><clipPath id="clip15"><rect x="108" y="134" width="167" height="124"/></clipPath><clipPath id="clip16"><rect x="113" y="138" width="156" height="116"/></clipPath><clipPath id="clip17"><rect x="168" y="89" width="5" height="26"/></clipPath><clipPath id="clip18"><path d="M170.954 90.3765 187.74 92.0293 185.161 118.151 168.375 116.494Z"/></clipPath><clipPath id="clip19"><path d="M130.248 67.9124 225.887 77.3333 214.41 193.502 118.767 184.077Z"/></clipPath><clipPath id="clip20"><rect x="169" y="89" width="14" height="27"/></clipPath><clipPath id="clip21"><path d="M170.954 90.3765 187.74 92.0293 185.161 118.151 168.375 116.494Z"/></clipPath><clipPath id="clip22"><path d="M130.248 67.9124 225.887 77.3333 214.41 193.502 118.767 184.077Z"/></clipPath><clipPath id="clip23"><rect x="149" y="73" width="17" height="37"/></clipPath><clipPath id="clip24"><path d="M151.389 72.3513 166.407 75.2546 159.403 111.403 144.381 108.499Z"/></clipPath><clipPath id="clip25"><path d="M131.958 68.5923 210.521 83.7807 191.962 179.541 113.395 164.356Z"/></clipPath><clipPath id="clip26"><rect x="161" y="85" width="7" height="27"/></clipPath><clipPath id="clip27"><path d="M151.389 72.3513 166.407 75.2546 159.403 111.403 144.381 108.499Z"/></clipPath><clipPath id="clip28"><path d="M131.958 68.5923 210.521 83.7807 191.962 179.541 113.395 164.356Z"/></clipPath><clipPath id="clip29"><rect x="173" y="138" width="5" height="36"/></clipPath><clipPath id="clip30"><rect x="164" y="170" width="27" height="28"/></clipPath><clipPath id="clip31"><rect x="166" y="173" width="23" height="23"/></clipPath></defs><g clip-path="url(#clip0)" transform="translate(-64 -53)"><g clip-path="url(#clip1)"><g clip-path="url(#clip2)"><g clip-path="url(#clip3)"><path d="M186.292 373.174 203.372 302.215 208.076 282.658C227.993 277.406 246.76 266.798 262.074 250.859 306.466 204.665 305.021 131.248 258.842 86.8785 212.664 42.5132 139.242 43.998 94.8498 90.1921 50.461 136.39 51.9067 209.807 98.0812 254.173 116.149 271.53 138.391 281.873 161.429 285.26L166.434 302.965 186.292 373.174" fill="#A6A6A6" transform="matrix(1.00139 0 0 1 -0.106399 -0.116496)"/></g></g></g><g clip-path="url(#clip4)"><g clip-path="url(#clip5)"><g clip-path="url(#clip6)"><path d="M186.292 373.174 186.734 373.28 203.813 302.32 208.518 282.764 208.076 282.658 208.194 283.1C225.621 278.501 242.181 269.814 256.326 257.06 258.404 255.185 260.429 253.223 262.398 251.172 304.997 206.845 305.552 137.554 265.039 92.6225 263.164 90.5437 261.198 88.5197 259.151 86.5503 214.844 43.9824 145.549 43.4588 100.594 83.9987 98.515 85.8704 96.487 87.8281 94.5215 89.8756 51.9263 134.206 51.3675 203.501 91.884 248.433 93.7557 250.507 95.7172 252.532 97.7647 254.501 115.903 271.928 138.234 282.31 161.367 285.71L161.429 285.26 160.995 285.385 165.997 303.086 186.331 374.972 186.734 373.28 186.292 373.174 186.73 373.049 166.872 302.84 161.785 284.854 161.495 284.811C138.547 281.439 116.392 271.139 98.3977 253.844 96.362 251.891 94.416 249.882 92.56 247.823 52.36 203.243 52.911 134.487 95.1741 90.5047 97.1278 88.4728 99.1402 86.5308 101.199 84.6708 145.803 44.4513 214.563 44.9671 258.526 87.2068 260.557 89.1566 262.503 91.1689 264.363 93.2321 304.559 137.808 304.008 206.564 261.745 250.543 259.792 252.578 257.779 254.524 255.716 256.384 241.681 269.041 225.257 277.66 207.959 282.22L207.697 282.287 202.93 302.109 185.851 373.069 186.292 373.174 186.73 373.049 186.292 373.174" fill="#FFFFFF" transform="matrix(1.00139 0 0 1 -0.106399 -0.116496)"/></g></g></g><g clip-path="url(#clip7)"><g clip-path="url(#clip8)"><g clip-path="url(#clip9)"><path d="M185.753 373.327C183.28 366.118 180.853 358.889 178.458 351.652L171.358 329.927 164.395 308.158 157.553 286.358 160.843 289.242C146.252 287.417 131.975 282.814 118.9 275.851 117.216 275.058 115.696 273.991 114.102 273.046L109.37 270.115 104.783 266.763 102.489 265.078C102.118 264.789 101.707 264.512 101.364 264.227L100.355 263.355 96.3151 259.885 95.3069 259.018 94.799 258.588 94.5489 258.365 94.2636 258.111 94.1386 257.99 92.1458 256.037C90.8134 254.747 89.4809 253.446 88.2501 252.055 86.9958 250.679 85.6907 249.343 84.538 247.882 79.7357 242.192 75.4336 236.066 71.7528 229.563 68.111 223.05 65.071 216.192 62.6796 209.116 57.9868 194.936 55.9275 179.888 56.6543 164.981 57.4671 150.074 60.9916 135.327 67.1146 121.745 70.1898 114.958 73.8901 108.471 78.1532 102.383 79.1691 100.828 80.3257 99.3746 81.4472 97.8898 82.0137 97.1552 82.553 96.4128 83.1508 95.686L84.9795 93.5095 86.816 91.3448C87.4256 90.6453 88.0312 90.0319 88.6369 89.3754L90.911 86.945 91.2315 86.6011 91.4815 86.3628 92.4818 85.3976C97.7686 80.2085 103.493 75.4609 109.647 71.3542 115.794 67.2396 122.335 63.7503 129.118 60.8705 142.704 55.1499 157.299 52.067 171.87 51.6489 179.157 51.43 186.449 51.8833 193.627 52.9813 200.808 54.0324 207.869 55.7869 214.699 58.1313 221.557 60.4406 228.176 63.3908 234.479 66.8958 240.805 70.3617 246.788 74.3981 252.391 78.962 263.578 87.9883 273.225 98.9995 280.724 111.363 288.211 123.73 293.576 137.476 296.323 151.832 297.69 159.014 298.413 166.341 298.44 173.691 298.456 181.041 297.749 188.406 296.397 195.666 294.986 202.915 292.872 210.042 290.137 216.919 287.367 223.792 283.92 230.4 279.86 236.601 277.848 239.731 275.648 242.689 273.323 245.615L269.681 249.945 266.059 253.852 265.833 254.091 265.629 254.309 265.508 254.427 265.004 254.911 264.004 255.869 261.999 257.787C260.659 259.065 259.35 260.374 257.893 261.519L253.622 265.063C252.196 266.239 250.64 267.255 249.159 268.353 246.221 270.615 242.966 272.397 239.828 274.347 238.25 275.293 236.566 276.074 234.94 276.949 233.299 277.797 231.677 278.676 229.962 279.364L224.886 281.568C223.175 282.252 221.424 282.83 219.693 283.459L217.095 284.385C216.216 284.667 215.325 284.897 214.442 285.151L209.116 286.605 212.05 283.612 206.052 306.107 199.871 328.559 196.698 339.766 193.501 350.964 190.223 362.148 186.843 373.307C186.753 373.608 186.433 373.784 186.132 373.69 185.944 373.636 185.812 373.491 185.753 373.327ZM185.745 373.042 187.812 361.569 189.985 350.124 192.228 338.695 194.506 327.27 199.214 304.466 204.102 281.705C204.411 280.263 205.482 279.177 206.803 278.778L207.037 278.708C220.154 274.757 232.689 268.865 243.529 260.581 244.877 259.545 246.295 258.596 247.593 257.494L251.465 254.173C252.797 253.102 253.977 251.875 255.189 250.683L257.006 248.894 257.92 247.995 258.369 247.553 258.483 247.44C258.35 247.585 258.51 247.409 258.51 247.409L258.733 247.163 262.296 243.201 265.446 239.324C267.482 236.648 269.502 233.889 271.35 231.044 275.046 225.355 278.27 219.349 280.954 213.109 283.674 206.881 285.8 200.39 287.355 193.748 290.547 180.49 291.391 166.575 289.695 152.883 288.015 139.188 283.764 125.707 277.012 113.512 270.303 101.293 261.179 90.3562 250.226 81.5956 244.783 77.2466 238.918 73.3626 232.756 70.0686 226.578 66.8098 220.088 64.1566 213.426 62.1091 206.752 60.089 199.89 58.737 192.978 58.0219 186.062 57.3303 179.102 57.2873 172.214 57.8695 158.428 59.0301 144.959 62.7617 132.639 68.701 120.315 74.6208 109.077 82.6897 99.695 92.5366L98.8002 93.4431 98.5775 93.6697C98.5189 93.7244 98.6674 93.5681 98.558 93.6932L98.4407 93.8182 98.0031 94.3184 96.2291 96.3033C95.6469 96.9676 95.0256 97.6319 94.4747 98.2844L92.9234 100.23 91.3682 102.165C90.8524 102.821 90.3679 103.532 89.8678 104.212 88.8792 105.591 87.8515 106.939 86.9567 108.377 83.2094 114.02 79.9819 119.998 77.3326 126.219 72.0497 138.664 69.084 152.051 68.6072 165.516 68.0407 178.977 69.9084 192.532 74.1598 205.302 78.3134 218.095 84.8193 230.146 93.3102 240.641 94.3262 241.993 95.4906 243.22 96.5769 244.513 97.6553 245.819 98.8276 247.034 100.004 248.253L101.758 250.082 101.868 250.199C101.586 249.949 101.86 250.195 101.828 250.168L102.075 250.39 102.563 250.844 103.544 251.738 107.467 255.341 108.452 256.24C108.78 256.529 109.104 256.756 109.432 257.017L111.39 258.537 115.298 261.597 119.541 264.402C120.967 265.313 122.327 266.352 123.847 267.118 135.53 274.05 148.527 278.79 162.019 281.275L162.273 281.326C163.797 281.603 164.946 282.752 165.305 284.162L170.897 306.318 176.363 328.508 181.693 350.738C183.452 358.154 185.167 365.582 186.839 373.022L185.745 373.042" fill="#FFFFFF" transform="matrix(1.00139 0 0 1 -0.106399 -0.116496)"/></g></g></g><g clip-path="url(#clip10)"><path d="M156.068 121.311C151.918 106.982 158.971 99.3004 158.971 99.3004 178.059 78.329 158.971 62.1326 158.971 62.1326 170.588 74.8006 156.068 87.0505 156.068 87.0505 134.284 103.661 156.068 121.311 156.068 121.311Z" fill="#A6A6A6" transform="matrix(1.00139 0 0 1 -0.106399 -0.116496)"/></g><g clip-path="url(#clip11)"><path d="M174.738 121.311C171.628 110.722 176.813 105.322 176.813 105.322 190.712 90.1647 176.813 78.329 176.813 78.329 185.112 87.4647 174.738 96.3932 174.738 96.3932 158.557 108.643 174.738 121.311 174.738 121.311Z" fill="#A6A6A6" transform="matrix(1.00139 0 0 1 -0.106399 -0.116496)"/></g><g clip-path="url(#clip12)"><g clip-path="url(#clip13)"><g clip-path="url(#clip14)"><path d="M249.519 159.44C249.519 159.44 240.864 157.947 230.001 160.995 231.404 148.87 231.509 140.637 231.509 140.637L112.547 129.564C112.547 129.564 100.359 199.367 125.785 236.73L127.317 242.954C127.317 242.954 127.68 246.713 131.728 247.088L190.958 252.602C195.01 252.981 196.057 249.355 196.057 249.355L198.714 243.521C202.684 239.531 206.173 234.94 209.241 229.962 221.991 228.118 254.263 220.221 263.285 187.152 263.281 187.148 269.674 163.383 249.511 159.44ZM249.265 198.542C249.265 198.542 236.667 214.66 214.215 220.838 220.42 207.998 224.402 193.63 226.957 180.646 228.794 179.966 230.701 178.692 231.525 176.32 231.525 176.32 235.53 163.836 248.491 167.704 248.491 167.704 266.571 175.773 249.265 198.542Z" fill="#A6A6A6" transform="matrix(1.00139 0 0 1 -0.106399 -0.116496)"/></g></g></g><g clip-path="url(#clip15)"><path d="M256.037 153.208C256.037 153.208 246.76 152.481 235.604 156.771 235.89 143.814 235.194 135.101 235.194 135.101L108.639 135.101C108.639 135.101 102.645 210.104 133.127 247.108L135.355 253.54C135.355 253.54 136.105 257.474 140.415 257.474L203.423 257.474C207.732 257.474 208.483 253.54 208.483 253.54L210.71 247.108C214.504 242.501 217.736 237.304 220.483 231.736 233.748 228.532 267.005 217.005 273.272 181.15 273.272 181.15 277.68 155.392 256.029 153.208ZM259.608 194.576C259.608 194.576 247.905 212.859 224.832 221.6 230.114 207.412 232.904 191.829 234.323 177.848 236.194 176.949 238.078 175.418 238.715 172.827 238.715 172.827 241.712 159.233 255.767 162.046 255.763 162.046 275.625 168.795 259.608 194.576Z" fill="#A6A6A6" transform="matrix(1.00139 0 0 1 -0.106399 -0.116496)"/></g><g clip-path="url(#clip16)"><path d="M251.305 156.67C251.305 156.67 242.693 155.998 232.334 159.979 232.603 147.952 231.955 139.86 231.955 139.86L114.461 139.86C114.461 139.86 108.893 209.487 137.195 243.834L139.262 249.8C139.262 249.8 139.958 253.458 143.959 253.458L202.457 253.458C206.459 253.458 207.154 249.8 207.154 249.8L209.225 243.834C212.75 239.555 215.747 234.733 218.294 229.563 230.615 226.59 261.491 215.891 267.31 182.611 267.306 182.607 271.401 158.698 251.297 156.67ZM254.618 195.072C254.618 195.072 243.755 212.039 222.335 220.154 227.239 206.986 229.829 192.521 231.146 179.544 232.885 178.708 234.631 177.286 235.225 174.882 235.225 174.882 238.008 162.265 251.055 164.875 251.051 164.875 269.494 171.139 254.618 195.072Z" fill="#FFFFFF" transform="matrix(1.00139 0 0 1 -0.106399 -0.116496)"/></g><g clip-path="url(#clip17)"><g clip-path="url(#clip18)"><g clip-path="url(#clip19)"><path d="M160.175 114.129C158.209 103.599 163.809 98.6087 163.809 98.6087 178.974 84.9717 166.431 72.0458 166.431 72.0458 173.867 81.92 162.59 89.645 162.59 89.645 145.799 99.9764 160.175 114.129 160.175 114.129Z" fill="#FFCC00" transform="matrix(1.00139 0 0 1 -0.106399 -0.116496)"/></g></g></g><g clip-path="url(#clip20)"><g clip-path="url(#clip21)"><g clip-path="url(#clip22)"><path d="M173.562 115.45C172.077 107.662 176.176 104.173 176.176 104.173 187.214 94.3262 178.083 84.8818 178.083 84.8818 183.389 91.9973 175.32 97.6436 175.32 97.6436 162.851 105.255 173.562 115.45 173.562 115.45Z" fill="#FFCC00" transform="matrix(1.00139 0 0 1 -0.106399 -0.116496)"/></g></g></g><g clip-path="url(#clip23)"><g clip-path="url(#clip24)"><g clip-path="url(#clip25)"><path d="M153.169 109.374C152.36 100.461 157.393 96.7371 157.393 96.7371 171.026 86.562 161.628 74.8436 161.628 74.8436 167.028 83.6314 157.076 89.1918 157.076 89.1918 142.353 96.4909 153.169 109.374 153.169 109.374Z" fill="#FFCC00" transform="matrix(1.00139 0 0 1 -0.106399 -0.116496)"/></g></g></g><g clip-path="url(#clip26)"><g clip-path="url(#clip27)"><g clip-path="url(#clip28)"><path d="M164.168 111.499C163.543 104.908 167.212 102.321 167.212 102.321 177.129 94.9748 170.291 86.4175 170.291 86.4175 174.136 92.7476 167.009 96.823 167.009 96.823 156.08 102.196 164.168 111.499 164.168 111.499Z" fill="#FFCC00" transform="matrix(1.00139 0 0 1 -0.106399 -0.116496)"/></g></g></g><g clip-path="url(#clip29)"><path d="M173.183 307.767 173.183 140.571C173.183 139.473 174.042 138.586 175.097 138.586 176.156 138.586 177.012 139.473 177.012 140.571L177.012 307.767C177.012 308.865 176.156 309.756 175.097 309.756 174.042 309.756 173.183 308.865 173.183 307.767Z" fill="#A6A6A6" transform="matrix(1.00139 0 0 1 -0.106399 -0.116496)"/></g><g clip-path="url(#clip30)"><path d="M166.423 171.061 188.617 171.061C188.914 171.061 189.195 171.116 189.469 171.229 189.739 171.342 189.981 171.502 190.188 171.71 190.395 171.917 190.555 172.159 190.669 172.429 190.782 172.702 190.841 172.983 190.841 173.28L190.841 195.475C190.841 195.772 190.782 196.053 190.669 196.327 190.555 196.596 190.395 196.838 190.188 197.046 189.981 197.253 189.739 197.417 189.469 197.526 189.195 197.64 188.914 197.698 188.617 197.698L166.423 197.698C166.126 197.698 165.844 197.64 165.571 197.526 165.301 197.417 165.059 197.253 164.852 197.046 164.645 196.838 164.485 196.596 164.371 196.327 164.258 196.053 164.203 195.772 164.203 195.475L164.203 173.28C164.203 172.983 164.258 172.702 164.371 172.429 164.485 172.159 164.645 171.917 164.852 171.71 165.059 171.502 165.301 171.342 165.571 171.229 165.844 171.116 166.126 171.061 166.423 171.061Z" fill="#A6A6A6" transform="matrix(1.00139 0 0 1 -0.106399 -0.116496)"/></g><g clip-path="url(#clip31)"><path d="M168.193 173.191 186.8 173.191C187.046 173.191 187.285 173.237 187.511 173.331 187.742 173.425 187.941 173.562 188.117 173.734 188.289 173.909 188.426 174.113 188.519 174.339 188.613 174.566 188.66 174.804 188.66 175.05L188.66 193.658C188.66 193.904 188.613 194.142 188.519 194.369 188.426 194.6 188.289 194.799 188.117 194.975 187.941 195.147 187.742 195.283 187.511 195.377 187.285 195.471 187.046 195.518 186.8 195.518L168.193 195.518C167.947 195.518 167.708 195.471 167.482 195.377 167.255 195.283 167.052 195.147 166.876 194.975 166.704 194.799 166.567 194.6 166.474 194.369 166.38 194.142 166.333 193.904 166.333 193.658L166.333 175.05C166.333 174.804 166.38 174.566 166.474 174.339 166.567 174.113 166.704 173.909 166.876 173.734 167.052 173.562 167.255 173.425 167.482 173.331 167.708 173.237 167.947 173.191 168.193 173.191Z" fill="#FFCC00" transform="matrix(1.00139 0 0 1 -0.106399 -0.116496)"/></g></g></svg>