<svg xmlns="http://www.w3.org/2000/svg" width="375" viewBox="0 0 375 375" height="375" version="1.0"><defs><clipPath id="a"><path d="M 0 244 L 125 244 L 125 359.203125 L 0 359.203125 Z M 0 244"/></clipPath><clipPath id="b"><path d="M 105 264 L 318 264 L 318 359.203125 L 105 359.203125 Z M 105 264"/></clipPath><clipPath id="c"><path d="M 64 171 L 375 171 L 375 359.203125 L 64 359.203125 Z M 64 171"/></clipPath><clipPath id="d"><path d="M 187 15.703125 L 329 15.703125 L 329 235 L 187 235 Z M 187 15.703125"/></clipPath></defs><path fill="#FFF" d="M 207.679688 314.84375 L 182.035156 299.464844 L 175.097656 309.878906 L 200.742188 325.257812 Z M 207.679688 314.84375"/><path fill="#FFF" d="M 238.257812 239.242188 C 238.054688 238.929688 237.773438 238.699219 237.570312 238.371094 C 230.464844 226.332031 216.628906 202.238281 203.601562 176.164062 C 202.289062 173.511719 199.574219 171.839844 196.621094 171.839844 L 135.773438 171.839844 Z M 238.257812 239.242188"/><path fill="#FFF" d="M 367.839844 324.464844 L 340.367188 223.785156 L 299.714844 279.667969 Z M 367.839844 324.464844"/><path fill="#FFF" d="M 286.65625 271.078125 L 335.105469 204.488281 L 327.765625 177.601562 C 326.828125 174.199219 322.4375 171.839844 318.910156 171.839844 C 315.957031 171.839844 313.238281 173.511719 311.929688 176.164062 C 298.902344 202.238281 285.050781 226.332031 277.957031 238.371094 C 273.757812 245.488281 266.027344 249.90625 257.78125 249.90625 C 256.375 249.90625 255.015625 249.609375 253.65625 249.363281 Z M 286.65625 271.078125"/><g clip-path="url(#a)"><path fill="#FFF" d="M 124.230469 308.210938 L 28.898438 244.675781 L 0.351562 349.351562 C -0.289062 351.691406 0.210938 354.207031 1.679688 356.144531 C 3.160156 358.078125 5.457031 359.203125 7.878906 359.203125 L 85.96875 359.203125 Z M 124.230469 308.210938"/></g><g clip-path="url(#b)"><path fill="#FFF" d="M 317.878906 359.203125 L 176.285156 264.835938 L 105.492188 359.203125 Z M 173.179688 284.617188 C 175.472656 281.152344 180.082031 280.089844 183.6875 282.257812 L 222.734375 305.679688 C 224.5625 306.773438 225.875 308.582031 226.324219 310.660156 C 226.792969 312.753906 226.386719 314.921875 225.203125 316.703125 L 209.582031 340.125 C 208.101562 342.355469 205.632812 343.589844 203.101562 343.589844 C 201.742188 343.589844 200.355469 343.230469 199.089844 342.480469 L 160.042969 319.0625 C 158.214844 317.96875 156.90625 316.15625 156.453125 314.078125 C 155.984375 311.988281 156.390625 309.816406 157.574219 308.039062 Z M 173.179688 284.617188"/></g><g clip-path="url(#c)"><path fill="#FFF" d="M 374.054688 347.242188 L 107.378906 171.839844 L 64.914062 171.839844 L 346.039062 359.203125 L 367.105469 359.203125 C 369.542969 359.203125 371.839844 358.0625 373.304688 356.144531 C 374.773438 354.207031 375.273438 351.691406 374.632812 349.351562 Z M 374.054688 347.242188"/></g><path fill="#FFF" d="M 33.226562 228.796875 L 133.617188 295.703125 L 163.277344 256.167969 L 46.921875 178.617188 Z M 33.226562 228.796875"/><g clip-path="url(#d)"><path fill="#FFF" d="M 257.765625 15.703125 C 219.015625 15.703125 187.484375 47.226562 187.484375 85.964844 C 187.484375 121.546875 244.535156 219.414062 251.035156 230.453125 C 252.4375 232.828125 254.984375 234.292969 257.765625 234.292969 C 260.546875 234.292969 263.089844 232.828125 264.496094 230.453125 C 271.007812 219.414062 328.046875 121.546875 328.046875 85.964844 C 328.046875 47.226562 296.511719 15.703125 257.765625 15.703125 Z M 257.765625 109.386719 C 244.847656 109.386719 234.339844 98.878906 234.339844 85.964844 C 234.339844 73.050781 244.847656 62.542969 257.765625 62.542969 C 270.679688 62.542969 281.191406 73.050781 281.191406 85.964844 C 281.191406 98.878906 270.679688 109.386719 257.765625 109.386719 Z M 257.765625 109.386719"/></g></svg>