<svg xmlns="http://www.w3.org/2000/svg" width="375" viewBox="0 0 375 375" height="375" version="1.0"><defs><clipPath id="a"><path d="M 46 45.703125 L 329 45.703125 L 329 329.203125 L 46 329.203125 Z M 46 45.703125"/></clipPath></defs><g clip-path="url(#a)"><path d="M 187.503906 45.703125 C 0.148438 51.632812 0.105469 323.246094 187.5 329.203125 C 374.851562 323.273438 374.894531 51.660156 187.503906 45.703125 Z M 187.503906 45.703125"/></g><path fill="#FFF" d="M 201.824219 187.453125 L 244.796875 144.492188 C 254.226562 135.34375 239.632812 120.746094 230.476562 130.171875 L 187.503906 173.136719 L 144.527344 130.171875 C 135.375 120.746094 120.777344 135.34375 130.207031 144.492188 L 173.179688 187.453125 L 130.207031 230.414062 C 120.777344 239.5625 135.375 254.160156 144.527344 244.734375 L 187.503906 201.769531 L 230.476562 244.734375 C 239.628906 254.160156 254.226562 239.5625 244.796875 230.414062 Z M 201.824219 187.453125"/></svg>