<svg xmlns="http://www.w3.org/2000/svg" width="375" viewBox="0 0 375 375" height="375" version="1.0"><path fill="#FFF" d="M 187.5 0 C 84.042969 0 0 84.042969 0 187.5 C 0 290.957031 84.042969 375 187.5 375 C 290.957031 375 375 290.957031 375 187.5 C 375 84.042969 290.957031 0 187.5 0 Z M 187.5 16.304688 C 282.144531 16.304688 358.695312 92.855469 358.695312 187.5 C 358.695312 282.144531 282.144531 358.695312 187.5 358.695312 C 92.855469 358.695312 16.304688 282.144531 16.304688 187.5 C 16.304688 92.855469 92.855469 16.304688 187.5 16.304688 Z M 81.523438 122.28125 C 80.980469 122.273438 80.445312 122.320312 79.914062 122.417969 C 79.382812 122.519531 78.867188 122.667969 78.367188 122.871094 C 77.867188 123.070312 77.390625 123.320312 76.9375 123.617188 C 76.484375 123.914062 76.066406 124.25 75.683594 124.628906 C 75.296875 125.007812 74.953125 125.421875 74.652344 125.871094 C 74.347656 126.316406 74.09375 126.789062 73.886719 127.289062 C 73.675781 127.785156 73.519531 128.300781 73.414062 128.832031 C 73.304688 129.359375 73.253906 129.894531 73.253906 130.433594 C 73.253906 130.976562 73.304688 131.511719 73.414062 132.039062 C 73.519531 132.570312 73.675781 133.082031 73.886719 133.582031 C 74.09375 134.078125 74.347656 134.554688 74.652344 135 C 74.953125 135.449219 75.296875 135.863281 75.683594 136.242188 C 76.066406 136.621094 76.484375 136.957031 76.9375 137.253906 C 77.390625 137.550781 77.867188 137.796875 78.367188 138 C 78.867188 138.203125 79.382812 138.351562 79.914062 138.449219 C 80.445312 138.550781 80.980469 138.59375 81.523438 138.585938 L 293.476562 138.585938 C 294.019531 138.59375 294.554688 138.550781 295.085938 138.449219 C 295.617188 138.351562 296.132812 138.203125 296.632812 138 C 297.132812 137.796875 297.609375 137.550781 298.0625 137.253906 C 298.515625 136.957031 298.933594 136.621094 299.316406 136.242188 C 299.703125 135.863281 300.046875 135.449219 300.347656 135 C 300.652344 134.554688 300.90625 134.078125 301.113281 133.582031 C 301.324219 133.082031 301.480469 132.570312 301.585938 132.039062 C 301.695312 131.511719 301.746094 130.976562 301.746094 130.433594 C 301.746094 129.894531 301.695312 129.359375 301.585938 128.832031 C 301.480469 128.300781 301.324219 127.785156 301.113281 127.289062 C 300.90625 126.789062 300.652344 126.316406 300.347656 125.871094 C 300.046875 125.421875 299.703125 125.007812 299.316406 124.628906 C 298.933594 124.25 298.515625 123.914062 298.0625 123.617188 C 297.609375 123.320312 297.132812 123.070312 296.632812 122.871094 C 296.132812 122.667969 295.617188 122.519531 295.085938 122.417969 C 294.554688 122.320312 294.019531 122.273438 293.476562 122.28125 Z M 105.976562 187.5 C 105.4375 187.492188 104.902344 187.539062 104.371094 187.636719 C 103.839844 187.734375 103.324219 187.886719 102.824219 188.085938 C 102.320312 188.289062 101.84375 188.539062 101.394531 188.832031 C 100.941406 189.128906 100.523438 189.46875 100.140625 189.847656 C 99.753906 190.226562 99.410156 190.640625 99.109375 191.085938 C 98.804688 191.535156 98.550781 192.007812 98.339844 192.503906 C 98.132812 193.003906 97.976562 193.519531 97.871094 194.046875 C 97.761719 194.578125 97.710938 195.113281 97.710938 195.652344 C 97.710938 196.191406 97.761719 196.726562 97.871094 197.257812 C 97.976562 197.785156 98.132812 198.300781 98.339844 198.800781 C 98.550781 199.296875 98.804688 199.769531 99.109375 200.21875 C 99.410156 200.664062 99.753906 201.078125 100.140625 201.457031 C 100.523438 201.835938 100.941406 202.175781 101.394531 202.472656 C 101.84375 202.765625 102.320312 203.015625 102.824219 203.21875 C 103.324219 203.417969 103.839844 203.570312 104.371094 203.667969 C 104.902344 203.765625 105.4375 203.8125 105.976562 203.804688 L 269.023438 203.804688 C 269.5625 203.8125 270.097656 203.765625 270.628906 203.667969 C 271.160156 203.570312 271.675781 203.417969 272.175781 203.21875 C 272.679688 203.015625 273.15625 202.765625 273.605469 202.472656 C 274.058594 202.175781 274.476562 201.835938 274.859375 201.457031 C 275.246094 201.078125 275.589844 200.664062 275.890625 200.21875 C 276.195312 199.769531 276.449219 199.296875 276.660156 198.800781 C 276.867188 198.300781 277.023438 197.785156 277.128906 197.257812 C 277.238281 196.726562 277.289062 196.191406 277.289062 195.652344 C 277.289062 195.113281 277.238281 194.578125 277.128906 194.046875 C 277.023438 193.519531 276.867188 193.003906 276.660156 192.503906 C 276.449219 192.007812 276.195312 191.535156 275.890625 191.085938 C 275.589844 190.640625 275.246094 190.226562 274.859375 189.847656 C 274.476562 189.46875 274.058594 189.128906 273.605469 188.832031 C 273.15625 188.539062 272.679688 188.289062 272.175781 188.085938 C 271.675781 187.886719 271.160156 187.734375 270.628906 187.636719 C 270.097656 187.539062 269.5625 187.492188 269.023438 187.5 Z M 122.28125 252.71875 C 121.742188 252.710938 121.207031 252.753906 120.675781 252.855469 C 120.144531 252.953125 119.628906 253.101562 119.128906 253.304688 C 118.625 253.507812 118.148438 253.753906 117.699219 254.050781 C 117.246094 254.347656 116.828125 254.683594 116.441406 255.0625 C 116.058594 255.441406 115.714844 255.855469 115.410156 256.304688 C 115.109375 256.75 114.855469 257.226562 114.644531 257.722656 C 114.4375 258.222656 114.28125 258.734375 114.171875 259.265625 C 114.066406 259.792969 114.015625 260.328125 114.015625 260.871094 C 114.015625 261.410156 114.066406 261.945312 114.171875 262.472656 C 114.28125 263.003906 114.4375 263.519531 114.644531 264.015625 C 114.855469 264.515625 115.109375 264.988281 115.410156 265.433594 C 115.714844 265.882812 116.058594 266.296875 116.441406 266.675781 C 116.828125 267.054688 117.246094 267.394531 117.699219 267.6875 C 118.148438 267.984375 118.625 268.234375 119.128906 268.433594 C 119.628906 268.636719 120.144531 268.785156 120.675781 268.886719 C 121.207031 268.984375 121.742188 269.03125 122.28125 269.023438 L 252.71875 269.023438 C 253.257812 269.03125 253.792969 268.984375 254.324219 268.886719 C 254.855469 268.785156 255.371094 268.636719 255.871094 268.433594 C 256.375 268.234375 256.851562 267.984375 257.300781 267.6875 C 257.753906 267.394531 258.171875 267.054688 258.558594 266.675781 C 258.941406 266.296875 259.285156 265.882812 259.589844 265.433594 C 259.890625 264.988281 260.144531 264.515625 260.355469 264.015625 C 260.5625 263.519531 260.71875 263.003906 260.828125 262.472656 C 260.933594 261.945312 260.988281 261.410156 260.984375 260.871094 C 260.988281 260.328125 260.933594 259.792969 260.828125 259.265625 C 260.71875 258.734375 260.5625 258.222656 260.355469 257.722656 C 260.144531 257.226562 259.890625 256.75 259.589844 256.304688 C 259.285156 255.855469 258.941406 255.441406 258.558594 255.0625 C 258.171875 254.683594 257.753906 254.347656 257.300781 254.050781 C 256.851562 253.753906 256.375 253.507812 255.871094 253.304688 C 255.371094 253.101562 254.855469 252.953125 254.324219 252.855469 C 253.792969 252.753906 253.257812 252.710938 252.71875 252.71875 Z M 122.28125 252.71875"/></svg>