<svg xmlns="http://www.w3.org/2000/svg" width="375" viewBox="0 0 375 375" height="375" version="1.0"><path fill="#FFF" d="M 375.082031 187.5 C 375.082031 184.429688 375.007812 181.363281 374.855469 178.296875 C 374.703125 175.230469 374.480469 172.171875 374.179688 169.113281 C 373.875 166.058594 373.5 163.015625 373.050781 159.976562 C 372.601562 156.941406 372.074219 153.917969 371.476562 150.90625 C 370.878906 147.898438 370.203125 144.902344 369.457031 141.925781 C 368.710938 138.949219 367.894531 135.988281 367.003906 133.050781 C 366.113281 130.113281 365.148438 127.199219 364.113281 124.3125 C 363.082031 121.421875 361.976562 118.558594 360.800781 115.722656 C 359.625 112.886719 358.382812 110.078125 357.070312 107.304688 C 355.757812 104.53125 354.378906 101.789062 352.929688 99.082031 C 351.484375 96.375 349.96875 93.703125 348.390625 91.070312 C 346.8125 88.4375 345.171875 85.847656 343.464844 83.292969 C 341.761719 80.742188 339.992188 78.234375 338.164062 75.765625 C 336.335938 73.300781 334.449219 70.882812 332.5 68.507812 C 330.554688 66.136719 328.546875 63.8125 326.488281 61.539062 C 324.425781 59.265625 322.308594 57.042969 320.136719 54.871094 C 317.96875 52.699219 315.746094 50.585938 313.46875 48.523438 C 311.195312 46.460938 308.871094 44.457031 306.5 42.511719 C 304.125 40.5625 301.707031 38.675781 299.242188 36.847656 C 296.773438 35.015625 294.265625 33.25 291.714844 31.546875 C 289.160156 29.839844 286.566406 28.199219 283.933594 26.621094 C 281.300781 25.042969 278.632812 23.527344 275.921875 22.082031 C 273.214844 20.636719 270.476562 19.253906 267.699219 17.941406 C 264.925781 16.628906 262.121094 15.386719 259.28125 14.210938 C 256.445312 13.039062 253.582031 11.933594 250.691406 10.898438 C 247.804688 9.863281 244.890625 8.902344 241.949219 8.011719 C 239.011719 7.121094 236.054688 6.300781 233.078125 5.554688 C 230.101562 4.808594 227.105469 4.136719 224.09375 3.539062 C 221.082031 2.941406 218.058594 2.414062 215.023438 1.964844 C 211.988281 1.515625 208.941406 1.140625 205.886719 0.839844 C 202.832031 0.535156 199.769531 0.3125 196.703125 0.160156 C 193.636719 0.0117188 190.570312 -0.0664062 187.5 -0.0664062 C 184.429688 -0.0664062 181.363281 0.0117188 178.296875 0.160156 C 175.230469 0.3125 172.167969 0.539062 169.113281 0.839844 C 166.058594 1.140625 163.011719 1.515625 159.976562 1.964844 C 156.9375 2.417969 153.914062 2.941406 150.90625 3.539062 C 147.894531 4.140625 144.898438 4.8125 141.921875 5.558594 C 138.941406 6.304688 135.984375 7.121094 133.046875 8.011719 C 130.109375 8.90625 127.195312 9.867188 124.304688 10.902344 C 121.414062 11.9375 118.550781 13.039062 115.714844 14.214844 C 112.878906 15.390625 110.074219 16.632812 107.296875 17.945312 C 104.523438 19.257812 101.78125 20.640625 99.074219 22.085938 C 96.367188 23.53125 93.695312 25.046875 91.0625 26.625 C 88.429688 28.203125 85.835938 29.84375 83.285156 31.550781 C 80.730469 33.253906 78.222656 35.023438 75.757812 36.851562 C 73.292969 38.679688 70.871094 40.566406 68.5 42.515625 C 66.125 44.464844 63.800781 46.46875 61.527344 48.53125 C 59.253906 50.589844 57.03125 52.707031 54.859375 54.878906 C 52.6875 57.046875 50.574219 59.269531 48.511719 61.546875 C 46.449219 63.820312 44.445312 66.144531 42.496094 68.519531 C 40.550781 70.890625 38.660156 73.308594 36.832031 75.777344 C 35.003906 78.242188 33.238281 80.75 31.53125 83.304688 C 29.824219 85.855469 28.183594 88.449219 26.605469 91.082031 C 25.027344 93.714844 23.515625 96.386719 22.066406 99.09375 C 20.621094 101.800781 19.242188 104.542969 17.929688 107.316406 C 16.617188 110.089844 15.371094 112.898438 14.195312 115.734375 C 13.023438 118.570312 11.917969 121.433594 10.882812 124.324219 C 9.847656 127.214844 8.886719 130.128906 7.996094 133.066406 C 7.105469 136.003906 6.285156 138.960938 5.539062 141.9375 C 4.792969 144.917969 4.121094 147.910156 3.523438 150.921875 C 2.925781 153.933594 2.398438 156.957031 1.949219 159.992188 C 1.5 163.03125 1.121094 166.074219 0.820312 169.128906 C 0.519531 172.183594 0.296875 175.246094 0.144531 178.3125 C -0.0078125 181.378906 -0.0820312 184.445312 -0.0820312 187.515625 C -0.0820312 190.585938 -0.0078125 193.65625 0.144531 196.71875 C 0.296875 199.785156 0.519531 202.847656 0.820312 205.902344 C 1.125 208.957031 1.5 212.003906 1.949219 215.039062 C 2.398438 218.078125 2.925781 221.101562 3.523438 224.113281 C 4.121094 227.121094 4.796875 230.117188 5.542969 233.09375 C 6.289062 236.074219 7.105469 239.03125 7.996094 241.96875 C 8.886719 244.90625 9.851562 247.820312 10.886719 250.710938 C 11.917969 253.601562 13.023438 256.464844 14.199219 259.300781 C 15.375 262.136719 16.617188 264.941406 17.929688 267.71875 C 19.242188 270.492188 20.621094 273.234375 22.070312 275.941406 C 23.515625 278.648438 25.03125 281.320312 26.609375 283.953125 C 28.1875 286.585938 29.828125 289.179688 31.535156 291.730469 C 33.238281 294.285156 35.007812 296.792969 36.835938 299.257812 C 38.664062 301.726562 40.550781 304.144531 42.5 306.515625 C 44.445312 308.890625 46.453125 311.214844 48.511719 313.488281 C 50.574219 315.761719 52.691406 317.984375 54.863281 320.15625 C 57.03125 322.328125 59.253906 324.445312 61.53125 326.503906 C 63.804688 328.566406 66.128906 330.570312 68.5 332.519531 C 70.875 334.464844 73.292969 336.355469 75.757812 338.183594 C 78.226562 340.011719 80.734375 341.777344 83.285156 343.484375 C 85.839844 345.191406 88.433594 346.832031 91.066406 348.410156 C 93.699219 349.988281 96.367188 351.5 99.074219 352.949219 C 101.785156 354.394531 104.523438 355.777344 107.300781 357.089844 C 110.074219 358.402344 112.878906 359.644531 115.71875 360.820312 C 118.554688 361.992188 121.417969 363.097656 124.308594 364.132812 C 127.195312 365.167969 130.109375 366.128906 133.050781 367.019531 C 135.988281 367.910156 138.945312 368.730469 141.921875 369.476562 C 144.898438 370.222656 147.894531 370.894531 150.90625 371.492188 C 153.917969 372.09375 156.941406 372.617188 159.976562 373.066406 C 163.011719 373.519531 166.058594 373.894531 169.113281 374.195312 C 172.167969 374.496094 175.230469 374.722656 178.296875 374.871094 C 181.363281 375.023438 184.429688 375.097656 187.5 375.097656 C 190.570312 375.09375 193.636719 375.015625 196.703125 374.863281 C 199.765625 374.707031 202.828125 374.480469 205.878906 374.175781 C 208.933594 373.871094 211.980469 373.492188 215.015625 373.039062 C 218.050781 372.585938 221.074219 372.058594 224.082031 371.457031 C 227.09375 370.855469 230.085938 370.183594 233.0625 369.433594 C 236.039062 368.6875 238.996094 367.867188 241.929688 366.972656 C 244.867188 366.078125 247.78125 365.113281 250.667969 364.078125 C 253.558594 363.042969 256.421875 361.9375 259.253906 360.761719 C 262.089844 359.585938 264.894531 358.339844 267.667969 357.027344 C 270.441406 355.710938 273.183594 354.332031 275.886719 352.882812 C 278.59375 351.4375 281.261719 349.921875 283.894531 348.34375 C 286.527344 346.765625 289.117188 345.121094 291.667969 343.417969 C 294.222656 341.710938 296.730469 339.941406 299.195312 338.113281 C 301.660156 336.285156 304.078125 334.398438 306.449219 332.449219 C 308.820312 330.503906 311.144531 328.496094 313.417969 326.4375 C 315.691406 324.375 317.914062 322.257812 320.082031 320.089844 C 322.253906 317.917969 324.371094 315.695312 326.429688 313.421875 C 328.492188 311.148438 330.496094 308.824219 332.445312 306.453125 C 334.390625 304.082031 336.277344 301.660156 338.105469 299.195312 C 339.9375 296.730469 341.703125 294.222656 343.410156 291.671875 C 345.113281 289.121094 346.757812 286.527344 348.335938 283.898438 C 349.914062 281.265625 351.425781 278.597656 352.875 275.890625 C 354.324219 273.183594 355.703125 270.445312 357.015625 267.667969 C 358.332031 264.894531 359.574219 262.089844 360.75 259.257812 C 361.925781 256.421875 363.03125 253.558594 364.066406 250.671875 C 365.105469 247.78125 366.066406 244.867188 366.960938 241.933594 C 367.851562 238.996094 368.671875 236.039062 369.421875 233.0625 C 370.167969 230.085938 370.84375 227.09375 371.445312 224.082031 C 372.046875 221.074219 372.574219 218.050781 373.027344 215.015625 C 373.480469 211.980469 373.855469 208.933594 374.160156 205.878906 C 374.464844 202.828125 374.691406 199.765625 374.847656 196.703125 C 375 193.636719 375.078125 190.570312 375.082031 187.5 Z M 375.082031 187.5"/><path fill="#D9D9D9" d="M 81.601562 220.011719 C 81.601562 218.929688 81.804688 217.886719 82.21875 216.886719 C 82.632812 215.886719 83.21875 215.003906 83.984375 214.238281 L 181.808594 116.414062 C 182.1875 116.035156 182.601562 115.695312 183.046875 115.398438 C 183.488281 115.101562 183.960938 114.851562 184.453125 114.648438 C 184.949219 114.441406 185.457031 114.289062 185.984375 114.183594 C 186.507812 114.078125 187.039062 114.027344 187.574219 114.027344 C 188.109375 114.027344 188.636719 114.078125 189.164062 114.183594 C 189.6875 114.289062 190.199219 114.441406 190.691406 114.648438 C 191.1875 114.851562 191.65625 115.101562 192.101562 115.398438 C 192.546875 115.695312 192.957031 116.035156 193.335938 116.414062 L 291.164062 214.238281 C 291.53125 214.621094 291.859375 215.03125 292.144531 215.476562 C 292.433594 215.921875 292.675781 216.390625 292.871094 216.882812 C 293.066406 217.371094 293.214844 217.878906 293.3125 218.398438 C 293.410156 218.917969 293.457031 219.445312 293.449219 219.972656 C 293.445312 220.503906 293.390625 221.027344 293.285156 221.546875 C 293.175781 222.0625 293.023438 222.566406 292.816406 223.054688 C 292.613281 223.542969 292.363281 224.007812 292.066406 224.445312 C 291.773438 224.886719 291.4375 225.292969 291.0625 225.667969 C 290.6875 226.042969 290.28125 226.375 289.84375 226.671875 C 289.402344 226.964844 288.941406 227.214844 288.453125 227.421875 C 287.964844 227.625 287.460938 227.78125 286.941406 227.886719 C 286.421875 227.992188 285.898438 228.050781 285.371094 228.054688 C 284.839844 228.058594 284.316406 228.011719 283.796875 227.914062 C 283.277344 227.816406 282.769531 227.671875 282.277344 227.472656 C 281.785156 227.277344 281.316406 227.035156 280.875 226.75 C 280.429688 226.460938 280.015625 226.132812 279.636719 225.765625 L 187.582031 133.695312 L 95.527344 225.75 C 94.957031 226.320312 94.316406 226.796875 93.605469 227.179688 C 92.894531 227.558594 92.140625 227.828125 91.351562 227.988281 C 90.558594 228.144531 89.761719 228.183594 88.957031 228.105469 C 88.152344 228.027344 87.378906 227.832031 86.632812 227.523438 C 85.886719 227.214844 85.203125 226.804688 84.578125 226.292969 C 83.957031 225.777344 83.421875 225.1875 82.972656 224.515625 C 82.523438 223.84375 82.183594 223.121094 81.949219 222.347656 C 81.71875 221.574219 81.601562 220.785156 81.601562 219.976562 Z M 81.601562 220.011719"/></svg>