<svg xmlns="http://www.w3.org/2000/svg" width="375" viewBox="0 0 375 375" height="375" version="1.0"><path fill="#FFF" d="M -0.0820312 187.5 C -0.0820312 190.570312 -0.0078125 193.636719 0.144531 196.703125 C 0.296875 199.769531 0.519531 202.828125 0.820312 205.882812 C 1.125 208.941406 1.5 211.984375 1.949219 215.023438 C 2.398438 218.058594 2.925781 221.082031 3.523438 224.09375 C 4.121094 227.101562 4.796875 230.097656 5.542969 233.074219 C 6.289062 236.050781 7.105469 239.011719 7.996094 241.949219 C 8.886719 244.886719 9.851562 247.800781 10.886719 250.6875 C 11.917969 253.578125 13.023438 256.441406 14.199219 259.277344 C 15.375 262.113281 16.617188 264.921875 17.929688 267.695312 C 19.242188 270.46875 20.621094 273.210938 22.070312 275.917969 C 23.515625 278.625 25.03125 281.296875 26.609375 283.929688 C 28.1875 286.5625 29.828125 289.152344 31.535156 291.707031 C 33.238281 294.257812 35.007812 296.765625 36.835938 299.234375 C 38.664062 301.699219 40.550781 304.117188 42.5 306.492188 C 44.445312 308.863281 46.453125 311.1875 48.511719 313.460938 C 50.574219 315.734375 52.691406 317.957031 54.863281 320.128906 C 57.03125 322.300781 59.253906 324.414062 61.53125 326.476562 C 63.804688 328.539062 66.128906 330.542969 68.5 332.488281 C 70.875 334.4375 73.292969 336.324219 75.757812 338.152344 C 78.226562 339.984375 80.734375 341.75 83.285156 343.453125 C 85.839844 345.160156 88.433594 346.800781 91.066406 348.378906 C 93.699219 349.957031 96.367188 351.472656 99.078125 352.917969 C 101.785156 354.363281 104.523438 355.746094 107.300781 357.058594 C 110.074219 358.371094 112.878906 359.613281 115.71875 360.789062 C 118.554688 361.960938 121.417969 363.066406 124.308594 364.101562 C 127.195312 365.136719 130.109375 366.097656 133.050781 366.988281 C 135.988281 367.878906 138.945312 368.699219 141.921875 369.445312 C 144.898438 370.191406 147.894531 370.863281 150.90625 371.460938 C 153.917969 372.058594 156.941406 372.585938 159.976562 373.035156 C 163.011719 373.484375 166.058594 373.859375 169.113281 374.160156 C 172.167969 374.464844 175.230469 374.6875 178.296875 374.839844 C 181.363281 374.988281 184.429688 375.066406 187.5 375.066406 C 190.570312 375.066406 193.636719 374.988281 196.703125 374.839844 C 199.769531 374.6875 202.832031 374.460938 205.886719 374.160156 C 208.941406 373.859375 211.988281 373.484375 215.023438 373.035156 C 218.0625 372.582031 221.085938 372.058594 224.09375 371.460938 C 227.105469 370.859375 230.101562 370.1875 233.078125 369.441406 C 236.058594 368.695312 239.015625 367.878906 241.953125 366.988281 C 244.890625 366.09375 247.804688 365.132812 250.695312 364.097656 C 253.585938 363.0625 256.449219 361.960938 259.285156 360.785156 C 262.121094 359.609375 264.925781 358.367188 267.703125 357.054688 C 270.476562 355.742188 273.21875 354.359375 275.925781 352.914062 C 278.632812 351.46875 281.304688 349.953125 283.9375 348.375 C 286.570312 346.796875 289.164062 345.15625 291.714844 343.449219 C 294.269531 341.746094 296.777344 339.976562 299.242188 338.148438 C 301.707031 336.320312 304.128906 334.433594 306.5 332.484375 C 308.875 330.535156 311.199219 328.53125 313.472656 326.46875 C 315.746094 324.410156 317.96875 322.292969 320.140625 320.121094 C 322.3125 317.953125 324.425781 315.730469 326.488281 313.453125 C 328.550781 311.179688 330.554688 308.855469 332.503906 306.480469 C 334.449219 304.109375 336.339844 301.691406 338.167969 299.222656 C 339.996094 296.757812 341.761719 294.25 343.46875 291.695312 C 345.175781 289.144531 346.816406 286.550781 348.394531 283.917969 C 349.972656 281.285156 351.484375 278.613281 352.933594 275.90625 C 354.378906 273.199219 355.757812 270.457031 357.070312 267.683594 C 358.382812 264.910156 359.628906 262.101562 360.804688 259.265625 C 361.976562 256.429688 363.082031 253.566406 364.117188 250.675781 C 365.152344 247.785156 366.113281 244.871094 367.003906 241.933594 C 367.894531 238.996094 368.714844 236.039062 369.460938 233.0625 C 370.207031 230.082031 370.878906 227.089844 371.476562 224.078125 C 372.074219 221.066406 372.601562 218.042969 373.050781 215.007812 C 373.5 211.96875 373.878906 208.925781 374.179688 205.871094 C 374.480469 202.816406 374.703125 199.753906 374.855469 196.6875 C 375.007812 193.621094 375.082031 190.554688 375.082031 187.484375 C 375.082031 184.414062 375.007812 181.34375 374.855469 178.28125 C 374.703125 175.214844 374.480469 172.152344 374.179688 169.097656 C 373.875 166.042969 373.5 162.996094 373.050781 159.960938 C 372.601562 156.921875 372.074219 153.898438 371.476562 150.886719 C 370.878906 147.878906 370.203125 144.882812 369.457031 141.90625 C 368.710938 138.925781 367.894531 135.96875 367.003906 133.03125 C 366.113281 130.09375 365.148438 127.179688 364.113281 124.289062 C 363.082031 121.398438 361.976562 118.535156 360.800781 115.699219 C 359.625 112.863281 358.382812 110.058594 357.070312 107.28125 C 355.757812 104.507812 354.378906 101.765625 352.929688 99.058594 C 351.484375 96.351562 349.96875 93.679688 348.390625 91.046875 C 346.8125 88.414062 345.171875 85.820312 343.464844 83.269531 C 341.761719 80.714844 339.992188 78.207031 338.164062 75.742188 C 336.335938 73.273438 334.449219 70.855469 332.5 68.484375 C 330.554688 66.109375 328.546875 63.785156 326.488281 61.511719 C 324.425781 59.238281 322.308594 57.015625 320.136719 54.84375 C 317.96875 52.671875 315.746094 50.554688 313.46875 48.496094 C 311.195312 46.433594 308.871094 44.429688 306.5 42.480469 C 304.125 40.535156 301.707031 38.644531 299.242188 36.816406 C 296.773438 34.988281 294.265625 33.222656 291.714844 31.515625 C 289.160156 29.808594 286.566406 28.167969 283.933594 26.589844 C 281.300781 25.011719 278.632812 23.5 275.921875 22.050781 C 273.214844 20.605469 270.476562 19.222656 267.699219 17.910156 C 264.925781 16.597656 262.121094 15.355469 259.28125 14.179688 C 256.445312 13.007812 253.582031 11.902344 250.691406 10.867188 C 247.804688 9.832031 244.890625 8.871094 241.949219 7.980469 C 239.011719 7.089844 236.054688 6.269531 233.078125 5.523438 C 230.101562 4.777344 227.105469 4.105469 224.09375 3.507812 C 221.082031 2.90625 218.058594 2.382812 215.023438 1.933594 C 211.988281 1.480469 208.941406 1.105469 205.886719 0.804688 C 202.832031 0.503906 199.769531 0.277344 196.703125 0.128906 C 193.636719 -0.0234375 190.570312 -0.0976562 187.5 -0.0976562 C 184.429688 -0.09375 181.363281 -0.015625 178.296875 0.136719 C 175.234375 0.292969 172.171875 0.519531 169.121094 0.824219 C 166.066406 1.128906 163.019531 1.507812 159.984375 1.960938 C 156.949219 2.414062 153.925781 2.941406 150.917969 3.542969 C 147.90625 4.144531 144.914062 4.816406 141.9375 5.566406 C 138.960938 6.3125 136.003906 7.132812 133.070312 8.027344 C 130.132812 8.921875 127.21875 9.886719 124.332031 10.921875 C 121.441406 11.957031 118.578125 13.0625 115.746094 14.238281 C 112.910156 15.414062 110.105469 16.660156 107.332031 17.972656 C 104.558594 19.289062 101.816406 20.667969 99.113281 22.117188 C 96.40625 23.5625 93.738281 25.078125 91.105469 26.65625 C 88.472656 28.234375 85.882812 29.878906 83.332031 31.582031 C 80.777344 33.289062 78.269531 35.058594 75.804688 36.886719 C 73.339844 38.714844 70.921875 40.601562 68.550781 42.550781 C 66.179688 44.496094 63.855469 46.503906 61.582031 48.5625 C 59.308594 50.625 57.085938 52.742188 54.917969 54.910156 C 52.746094 57.082031 50.628906 59.304688 48.570312 61.578125 C 46.507812 63.851562 44.503906 66.175781 42.554688 68.546875 C 40.609375 70.917969 38.722656 73.339844 36.894531 75.804688 C 35.0625 78.269531 33.296875 80.777344 31.589844 83.328125 C 29.886719 85.878906 28.242188 88.472656 26.664062 91.101562 C 25.085938 93.734375 23.574219 96.402344 22.125 99.109375 C 20.675781 101.816406 19.296875 104.554688 17.984375 107.332031 C 16.667969 110.105469 15.425781 112.910156 14.25 115.742188 C 13.074219 118.578125 11.96875 121.441406 10.933594 124.328125 C 9.894531 127.21875 8.933594 130.132812 8.039062 133.066406 C 7.148438 136.003906 6.328125 138.960938 5.578125 141.9375 C 4.832031 144.914062 4.15625 147.90625 3.554688 150.917969 C 2.953125 153.925781 2.425781 156.949219 1.972656 159.984375 C 1.519531 163.019531 1.144531 166.066406 0.839844 169.121094 C 0.535156 172.171875 0.308594 175.234375 0.152344 178.296875 C 0 181.363281 -0.078125 184.429688 -0.0820312 187.5 Z M -0.0820312 187.5"/><path fill="#D9D9D9" d="M 293.398438 154.988281 C 293.398438 156.070312 293.195312 157.113281 292.78125 158.113281 C 292.367188 159.113281 291.78125 159.996094 291.015625 160.761719 L 193.191406 258.585938 C 192.8125 258.964844 192.398438 259.304688 191.953125 259.601562 C 191.511719 259.898438 191.039062 260.148438 190.546875 260.351562 C 190.050781 260.558594 189.542969 260.710938 189.015625 260.816406 C 188.492188 260.921875 187.960938 260.972656 187.425781 260.972656 C 186.890625 260.972656 186.363281 260.921875 185.835938 260.816406 C 185.3125 260.710938 184.800781 260.558594 184.308594 260.351562 C 183.8125 260.148438 183.34375 259.898438 182.898438 259.601562 C 182.453125 259.304688 182.042969 258.964844 181.664062 258.585938 L 83.835938 160.761719 C 83.46875 160.378906 83.140625 159.96875 82.855469 159.523438 C 82.566406 159.078125 82.324219 158.609375 82.128906 158.117188 C 81.933594 157.628906 81.785156 157.121094 81.6875 156.601562 C 81.589844 156.082031 81.542969 155.554688 81.550781 155.027344 C 81.554688 154.496094 81.609375 153.972656 81.714844 153.453125 C 81.824219 152.9375 81.976562 152.433594 82.183594 151.945312 C 82.386719 151.457031 82.636719 150.992188 82.933594 150.554688 C 83.226562 150.113281 83.5625 149.707031 83.9375 149.332031 C 84.3125 148.957031 84.71875 148.625 85.15625 148.328125 C 85.597656 148.035156 86.058594 147.785156 86.546875 147.578125 C 87.035156 147.375 87.539062 147.21875 88.058594 147.113281 C 88.578125 147.007812 89.101562 146.949219 89.628906 146.945312 C 90.160156 146.941406 90.683594 146.988281 91.203125 147.085938 C 91.722656 147.183594 92.230469 147.328125 92.722656 147.527344 C 93.214844 147.722656 93.683594 147.964844 94.125 148.25 C 94.570312 148.539062 94.984375 148.867188 95.363281 149.234375 L 187.417969 241.304688 L 279.472656 149.25 C 280.042969 148.679688 280.683594 148.203125 281.394531 147.820312 C 282.105469 147.441406 282.859375 147.171875 283.648438 147.011719 C 284.441406 146.855469 285.238281 146.816406 286.042969 146.894531 C 286.847656 146.972656 287.621094 147.167969 288.367188 147.476562 C 289.113281 147.785156 289.796875 148.195312 290.421875 148.707031 C 291.042969 149.222656 291.578125 149.8125 292.027344 150.484375 C 292.476562 151.15625 292.816406 151.878906 293.050781 152.652344 C 293.28125 153.425781 293.398438 154.214844 293.398438 155.023438 Z M 293.398438 154.988281"/></svg>