<svg xmlns="http://www.w3.org/2000/svg" width="375" viewBox="0 0 375 375" height="375" version="1.0"><path fill="#FFF" d="M 30.40625 157.046875 C 13.582031 157.046875 0 170.644531 0 187.488281 C 0 204.332031 13.582031 217.929688 30.40625 217.929688 C 47.230469 217.929688 60.8125 204.332031 60.8125 187.488281 C 60.8125 170.644531 47.230469 157.046875 30.40625 157.046875 Z M 30.40625 35.285156 C 13.582031 35.285156 0 48.882812 0 65.726562 C 0 82.570312 13.582031 96.167969 30.40625 96.167969 C 47.230469 96.167969 60.8125 82.570312 60.8125 65.726562 C 60.8125 48.882812 47.230469 35.285156 30.40625 35.285156 Z M 30.40625 282.160156 C 15.507812 282.160156 3.34375 294.234375 3.34375 309.25 C 3.34375 324.269531 15.507812 336.34375 30.40625 336.34375 C 45.304688 336.34375 57.464844 324.269531 57.464844 309.25 C 57.464844 294.234375 45.304688 282.160156 30.40625 282.160156 Z M 91.214844 329.542969 L 375 329.542969 L 375 288.957031 L 91.214844 288.957031 Z M 91.214844 207.78125 L 375 207.78125 L 375 167.195312 L 91.214844 167.195312 Z M 91.214844 45.433594 L 91.214844 86.019531 L 375 86.019531 L 375 45.433594 Z M 91.214844 45.433594"/></svg>