<svg xmlns="http://www.w3.org/2000/svg" width="375" viewBox="0 0 375 375" height="375" version="1.0"><defs><clipPath id="a"><path d="M 0.378906 289.347656 L 93.980469 289.347656 L 93.980469 371.492188 L 0.378906 371.492188 Z M 0.378906 289.347656"/></clipPath><clipPath id="b"><path d="M 0 3.28125 L 94 3.28125 L 94 86 L 0 86 Z M 0 3.28125"/></clipPath><clipPath id="c"><path d="M 175.199219 143.222656 L 374.625 143.222656 L 374.625 225.949219 L 175.199219 225.949219 Z M 175.199219 143.222656"/></clipPath><clipPath id="d"><path d="M 175.199219 3.28125 L 374.625 3.28125 L 374.625 85.234375 L 175.199219 85.234375 Z M 175.199219 3.28125"/></clipPath><clipPath id="e"><path d="M 175.199219 289.347656 L 374.625 289.347656 L 374.625 371.492188 L 175.199219 371.492188 Z M 175.199219 289.347656"/></clipPath></defs><g clip-path="url(#a)"><path fill="#FFF" d="M 93.941406 313.046875 C 93.941406 300.183594 83.414062 289.667969 70.550781 289.667969 L 23.769531 289.667969 C 10.90625 289.667969 0.378906 300.183594 0.378906 313.046875 L 0.378906 348.113281 C 0.378906 360.976562 10.90625 371.492188 23.769531 371.492188 L 70.550781 371.492188 C 83.414062 371.492188 93.941406 360.976562 93.941406 348.113281 L 93.941406 313.046875"/></g><path fill="#FFF" d="M 93.941406 166.933594 C 93.941406 154.070312 83.414062 143.554688 70.550781 143.554688 L 23.769531 143.554688 C 10.90625 143.554688 0.378906 154.070312 0.378906 166.933594 L 0.378906 202 C 0.378906 214.859375 10.90625 225.375 23.769531 225.375 L 70.550781 225.375 C 83.414062 225.375 93.941406 214.859375 93.941406 202 L 93.941406 166.933594"/><g clip-path="url(#b)"><path fill="#FFF" d="M 93.941406 26.660156 C 93.941406 13.796875 83.414062 3.28125 70.550781 3.28125 L 23.769531 3.28125 C 10.90625 3.28125 0.378906 13.796875 0.378906 26.660156 L 0.378906 61.730469 C 0.378906 74.59375 10.90625 85.109375 23.769531 85.109375 L 70.550781 85.109375 C 83.414062 85.109375 93.941406 74.59375 93.941406 61.730469 L 93.941406 26.660156"/></g><g clip-path="url(#c)"><path fill="#FFF" d="M 175.808594 202 C 175.808594 214.859375 186.335938 225.375 199.199219 225.375 L 351.234375 225.375 C 364.097656 225.375 374.625 214.859375 374.625 202 L 374.625 166.933594 C 374.625 154.070312 364.097656 143.554688 351.234375 143.554688 L 199.199219 143.554688 C 186.335938 143.554688 175.808594 154.070312 175.808594 166.933594 L 175.808594 202"/></g><g clip-path="url(#d)"><path fill="#FFF" d="M 199.199219 3.28125 C 186.335938 3.28125 175.808594 13.796875 175.808594 26.660156 L 175.808594 61.730469 C 175.808594 74.59375 186.335938 85.109375 199.199219 85.109375 L 351.234375 85.109375 C 364.097656 85.109375 374.625 74.59375 374.625 61.730469 L 374.625 26.660156 C 374.625 13.796875 364.097656 3.28125 351.234375 3.28125 L 199.199219 3.28125"/></g><g clip-path="url(#e)"><path fill="#FFF" d="M 175.808594 348.113281 C 175.808594 360.976562 186.335938 371.492188 199.199219 371.492188 L 351.234375 371.492188 C 364.097656 371.492188 374.625 360.976562 374.625 348.113281 L 374.625 313.046875 C 374.625 300.183594 364.097656 289.667969 351.234375 289.667969 L 199.199219 289.667969 C 186.335938 289.667969 175.808594 300.183594 175.808594 313.046875 L 175.808594 348.113281"/></g></svg>