<svg xmlns="http://www.w3.org/2000/svg" width="375" viewBox="0 0 375 375" height="375" version="1.0"><path fill="#FFC107" d="M 372.988281 144.394531 C 372.722656 143.578125 372.339844 142.820312 371.835938 142.125 C 371.335938 141.429688 370.734375 140.828125 370.039062 140.320312 C 369.347656 139.816406 368.589844 139.429688 367.773438 139.164062 C 366.957031 138.898438 366.117188 138.765625 365.257812 138.765625 L 233.246094 138.765625 L 194.433594 14.625 C 194.105469 13.871094 193.675781 13.179688 193.144531 12.550781 C 192.617188 11.921875 192.007812 11.378906 191.320312 10.929688 C 190.632812 10.476562 189.894531 10.132812 189.105469 9.898438 C 188.316406 9.664062 187.511719 9.546875 186.6875 9.546875 C 185.867188 9.546875 185.058594 9.664062 184.273438 9.898438 C 183.484375 10.132812 182.746094 10.476562 182.058594 10.929688 C 181.371094 11.378906 180.761719 11.921875 180.230469 12.550781 C 179.699219 13.179688 179.273438 13.871094 178.945312 14.625 L 140.128906 138.765625 L 8.117188 138.765625 C 7.257812 138.761719 6.417969 138.894531 5.597656 139.160156 C 4.78125 139.429688 4.023438 139.8125 3.328125 140.320312 C 2.632812 140.828125 2.03125 141.429688 1.527344 142.125 C 1.023438 142.824219 0.640625 143.582031 0.378906 144.398438 C 0.117188 145.21875 -0.0117188 146.058594 -0.0078125 146.917969 C -0.00390625 147.777344 0.132812 148.617188 0.402344 149.433594 C 0.675781 150.25 1.066406 151.003906 1.574219 151.695312 C 2.085938 152.390625 2.691406 152.984375 3.394531 153.484375 L 112.011719 231.011719 L 65.453125 355.007812 C 65.148438 355.820312 64.976562 356.664062 64.9375 357.535156 C 64.902344 358.402344 65.003906 359.257812 65.242188 360.09375 C 65.480469 360.933594 65.84375 361.710938 66.332031 362.429688 C 66.824219 363.152344 67.414062 363.777344 68.105469 364.308594 C 68.792969 364.839844 69.550781 365.246094 70.375 365.535156 C 71.195312 365.820312 72.042969 365.972656 72.914062 365.984375 C 73.785156 366 74.636719 365.878906 75.46875 365.617188 C 76.296875 365.359375 77.066406 364.976562 77.777344 364.46875 L 186.6875 286.679688 L 295.601562 364.453125 C 296.308594 364.960938 297.078125 365.34375 297.910156 365.601562 C 298.742188 365.863281 299.59375 365.984375 300.464844 365.96875 C 301.335938 365.953125 302.179688 365.804688 303.003906 365.515625 C 303.824219 365.230469 304.582031 364.820312 305.273438 364.292969 C 305.964844 363.761719 306.554688 363.136719 307.042969 362.414062 C 307.53125 361.695312 307.894531 360.917969 308.132812 360.078125 C 308.375 359.242188 308.472656 358.386719 308.4375 357.515625 C 308.402344 356.648438 308.230469 355.804688 307.921875 354.992188 L 261.363281 231.011719 L 369.933594 153.484375 C 370.640625 152.988281 371.25 152.394531 371.761719 151.703125 C 372.277344 151.011719 372.671875 150.257812 372.945312 149.4375 C 373.222656 148.621094 373.363281 147.78125 373.367188 146.921875 C 373.375 146.058594 373.25 145.21875 372.988281 144.394531 Z M 372.988281 144.394531"/></svg>