<svg xmlns="http://www.w3.org/2000/svg" width="375" viewBox="0 0 375 375" height="375" version="1.0"><defs><clipPath id="a"><path d="M 228 0 L 374.992188 0 L 374.992188 146.929688 L 228 146.929688 Z M 228 0"/></clipPath><clipPath id="b"><path d="M 0 228 L 146.929688 228 L 146.929688 374.992188 L 0 374.992188 Z M 0 228"/></clipPath><clipPath id="c"><path d="M 228 228 L 374.992188 228 L 374.992188 374.992188 L 228 374.992188 Z M 228 228"/></clipPath></defs><g clip-path="url(#a)"><path fill="#FFF" d="M 228.507812 123.046875 C 228.507812 135.9375 239.058594 146.480469 251.949219 146.480469 L 351.554688 146.480469 C 364.445312 146.480469 374.992188 135.9375 374.992188 123.046875 L 374.992188 23.4375 C 374.992188 10.542969 364.445312 0 351.554688 0 L 251.949219 0 C 239.058594 0 228.507812 10.542969 228.507812 23.4375 L 228.507812 123.046875"/></g><path fill="#FFF" d="M 123.046875 146.480469 C 135.933594 146.480469 146.480469 135.9375 146.480469 123.046875 L 146.480469 23.4375 C 146.480469 10.542969 135.933594 0 123.046875 0 L 23.4375 0 C 10.546875 0 0 10.542969 0 23.4375 L 0 123.046875 C 0 135.9375 10.546875 146.480469 23.4375 146.480469 L 123.046875 146.480469"/><g clip-path="url(#b)"><path fill="#FFF" d="M 146.480469 251.949219 C 146.480469 239.050781 135.933594 228.511719 123.046875 228.511719 L 23.4375 228.511719 C 10.546875 228.511719 0 239.050781 0 251.949219 L 0 351.554688 C 0 364.449219 10.546875 374.992188 23.4375 374.992188 L 123.046875 374.992188 C 135.933594 374.992188 146.480469 364.449219 146.480469 351.554688 L 146.480469 251.949219"/></g><g clip-path="url(#c)"><path fill="#FFF" d="M 251.949219 228.511719 C 239.058594 228.511719 228.507812 239.050781 228.507812 251.949219 L 228.507812 351.554688 C 228.507812 364.449219 239.058594 374.992188 251.949219 374.992188 L 351.554688 374.992188 C 364.445312 374.992188 374.992188 364.449219 374.992188 351.554688 L 374.992188 251.949219 C 374.992188 239.050781 364.445312 228.511719 351.554688 228.511719 L 251.949219 228.511719"/></g></svg>