<svg xmlns="http://www.w3.org/2000/svg" width="375" viewBox="0 0 375 375" height="375" version="1.0"><defs><clipPath id="a"><path d="M 0 1.40625 L 269 1.40625 L 269 270 L 0 270 Z M 0 1.40625"/></clipPath><clipPath id="b"><path d="M 258 259 L 375 259 L 375 374.90625 L 258 374.90625 Z M 258 259"/></clipPath></defs><g clip-path="url(#a)"><path d="M 134.625 1.429688 C 60.570312 1.429688 0.324219 61.644531 0.324219 135.664062 C 0.324219 209.683594 60.570312 269.898438 134.625 269.898438 C 208.683594 269.898438 268.925781 209.683594 268.925781 135.664062 C 268.925781 61.644531 208.683594 1.429688 134.625 1.429688 Z M 134.625 248.804688 C 72.210938 248.804688 21.429688 198.046875 21.429688 135.664062 C 21.429688 73.28125 72.210938 22.527344 134.625 22.527344 C 197.042969 22.527344 247.820312 73.28125 247.820312 135.664062 C 247.820312 198.046875 197.042969 248.804688 134.625 248.804688 Z M 134.625 248.804688"/></g><path d="M 269.175781 251.335938 L 245.46875 227.644531 C 239.582031 234.71875 233.027344 241.226562 225.90625 247.066406 L 249.984375 271.132812 C 251.507812 266.753906 254.015625 262.648438 257.507812 259.160156 L 258.183594 258.488281 C 261.355469 255.316406 265.09375 252.90625 269.175781 251.335938 Z M 269.175781 251.335938"/><g clip-path="url(#b)"><path d="M 296.210938 265.433594 C 292.082031 261.308594 286.5625 259.035156 280.671875 259.035156 C 274.78125 259.035156 269.261719 261.308594 265.132812 265.433594 L 264.460938 266.105469 C 260.332031 270.234375 258.058594 275.75 258.058594 281.636719 C 258.058594 287.527344 260.332031 293.042969 264.460938 297.171875 L 335.890625 368.566406 C 340.019531 372.691406 345.539062 374.964844 351.429688 374.964844 C 357.320312 374.964844 362.839844 372.691406 366.96875 368.566406 L 367.644531 367.890625 C 376.210938 359.328125 376.210938 345.390625 367.644531 336.828125 Z M 296.210938 265.433594"/></g></svg>