<svg xmlns="http://www.w3.org/2000/svg" width="375" viewBox="0 0 375 375" height="375" version="1.0"><path fill="#FFF" d="M 272.632812 292.078125 C 271.238281 292.078125 269.789062 292.042969 268.34375 291.976562 L 265.90625 291.859375 L 265.570312 264.28125 L 268.539062 264.691406 C 268.542969 264.691406 269.429688 264.804688 270.878906 264.804688 C 278.429688 264.804688 296.285156 261.886719 299.242188 234.882812 C 299.816406 209.390625 298.875 168.796875 293.925781 161.105469 L 293.722656 160.792969 L 293.617188 160.433594 C 293.589844 160.347656 290.703125 151.207031 284.136719 151.207031 C 279.84375 151.207031 274.429688 154.9375 268.476562 161.992188 L 267.90625 162.667969 L 259.761719 164.417969 L 256.859375 124.183594 L 258.738281 123.519531 C 259.136719 123.378906 268.617188 120.082031 280.242188 120.082031 C 294.695312 120.082031 319.371094 125.644531 322.234375 162.894531 C 322.449219 165.316406 327.53125 223.011719 325.828125 242.761719 C 325.820312 244.722656 325.390625 263.679688 311.824219 277.640625 C 302.515625 287.21875 289.332031 292.074219 272.632812 292.074219 Z M 272.632812 292.078125"/><path fill="#A6A6A6" d="M 280.238281 122.71875 C 296.582031 122.71875 317.074219 129.578125 319.652344 163.101562 C 319.652344 163.101562 324.96875 223.019531 323.238281 242.644531 C 323.238281 242.644531 323.636719 289.4375 272.628906 289.4375 C 271.277344 289.4375 269.886719 289.40625 268.457031 289.339844 L 268.1875 267.304688 C 268.1875 267.304688 269.199219 267.441406 270.875 267.441406 C 278.277344 267.441406 298.632812 264.707031 301.820312 235.054688 C 301.820312 235.054688 303.28125 170.839844 296.082031 159.660156 C 296.082031 159.660156 292.738281 148.570312 284.128906 148.566406 C 279.722656 148.566406 273.9375 151.472656 266.511719 160.269531 L 262.121094 161.214844 L 259.582031 126.011719 C 259.582031 126.011719 268.917969 122.71875 280.238281 122.71875 M 280.242188 117.441406 L 280.242188 122.71875 L 280.238281 117.441406 C 268.183594 117.441406 258.308594 120.878906 257.890625 121.027344 L 254.132812 122.351562 L 254.425781 126.398438 L 256.964844 161.601562 L 257.398438 167.621094 L 263.1875 166.375 L 267.582031 165.433594 L 269.289062 165.0625 L 270.429688 163.710938 C 277.679688 155.125 282.125 153.84375 284.128906 153.84375 C 288.703125 153.84375 291.125 161.164062 291.148438 161.238281 L 291.367188 161.953125 L 291.761719 162.554688 C 292.628906 163.902344 295.535156 170.710938 296.484375 201.714844 C 296.972656 217.710938 296.699219 232.695312 296.65625 234.707031 C 293.996094 258.59375 279.375 262.167969 270.875 262.167969 C 269.625 262.167969 268.863281 262.074219 268.855469 262.074219 L 262.914062 261.25 L 263.015625 267.371094 L 263.285156 289.40625 L 263.347656 294.378906 L 268.214844 294.609375 C 269.703125 294.679688 271.1875 294.71875 272.628906 294.71875 C 290.039062 294.71875 303.839844 289.597656 313.652344 279.5 C 327.664062 265.082031 328.378906 245.601562 328.40625 242.890625 C 330.09375 222.882812 325.058594 165.542969 324.800781 162.660156 C 321.769531 123.316406 295.582031 117.445312 280.238281 117.445312 Z M 280.242188 117.441406"/><path fill="#FFF" d="M 172.714844 334.449219 C 153.078125 334.449219 105.417969 332.042969 87.042969 309.742188 C 86.648438 309.265625 86.433594 308.664062 86.4375 308.039062 L 86.796875 135.953125 C 86.800781 134.636719 87.753906 133.523438 89.03125 133.34375 L 259.726562 109.460938 C 259.84375 109.445312 259.960938 109.4375 260.074219 109.4375 C 260.675781 109.4375 261.261719 109.648438 261.730469 110.046875 C 262.289062 110.519531 262.625 111.214844 262.660156 111.953125 L 271.285156 303.042969 C 271.3125 303.660156 271.125 304.269531 270.761719 304.761719 C 264.496094 313.179688 243.113281 332.914062 180.054688 334.308594 C 180.074219 334.308594 177.300781 334.445312 172.714844 334.445312 Z M 172.714844 334.449219"/><path fill="#A6A6A6" d="M 260.078125 112.082031 L 268.703125 303.175781 C 262.988281 310.851562 242.410156 330.300781 180 331.679688 C 179.863281 331.6875 177.152344 331.8125 172.714844 331.8125 C 154.433594 331.8125 106.828125 329.65625 89.019531 308.046875 L 89.382812 135.964844 L 260.074219 112.082031 M 260.074219 106.804688 C 259.839844 106.804688 259.605469 106.820312 259.375 106.851562 L 88.679688 130.738281 C 86.121094 131.097656 84.214844 133.320312 84.210938 135.953125 L 83.847656 308.039062 C 83.847656 309.285156 84.277344 310.492188 85.0625 311.445312 C 93.523438 321.710938 108.542969 329.035156 129.707031 333.214844 C 146.789062 336.589844 163.984375 337.089844 172.714844 337.089844 C 176.929688 337.089844 179.660156 336.976562 180.167969 336.953125 C 244.308594 335.527344 266.324219 315.089844 272.816406 306.367188 C 273.550781 305.382812 273.921875 304.167969 273.863281 302.9375 L 265.242188 111.84375 C 265.175781 110.363281 264.5 108.980469 263.386719 108.03125 C 262.453125 107.238281 261.277344 106.808594 260.074219 106.808594 Z M 260.074219 106.804688"/><path fill="#FFF" d="M 177.648438 372.375 C 158.3125 372.375 110.390625 370.433594 83.101562 352.445312 C 82.90625 352.316406 82.726562 352.15625 82.570312 351.980469 C 81.804688 351.097656 75.359375 342.503906 84.421875 312.277344 C 84.746094 311.195312 85.714844 310.441406 86.824219 310.410156 C 86.824219 310.410156 87.605469 310.390625 87.628906 310.390625 C 88.324219 310.390625 88.992188 310.675781 89.480469 311.183594 C 92.695312 314.550781 96.800781 317.589844 101.683594 320.226562 C 124.054688 332.308594 158.117188 333.617188 171.722656 333.617188 C 176.566406 333.617188 179.679688 333.460938 180.019531 333.441406 C 237.761719 332.167969 260.1875 315.960938 268.429688 306.414062 C 268.921875 305.839844 269.632812 305.519531 270.367188 305.519531 C 270.480469 305.519531 270.59375 305.527344 270.707031 305.542969 C 271.5625 305.65625 272.304688 306.199219 272.683594 306.988281 C 274.035156 309.765625 285.542969 334.519531 274.71875 347.484375 C 274.660156 347.554688 274.601562 347.621094 274.535156 347.683594 C 273.59375 348.601562 250.714844 370.164062 184.386719 372.28125 C 184.300781 372.28125 181.855469 372.378906 177.652344 372.378906 C 177.648438 372.375 177.648438 372.375 177.648438 372.375 Z M 177.648438 372.375"/><path fill="#A6A6A6" d="M 270.363281 308.152344 C 271.492188 310.480469 282.53125 334.042969 272.746094 345.769531 C 272.746094 345.769531 250.402344 367.53125 184.300781 369.636719 C 184.300781 369.636719 181.847656 369.734375 177.644531 369.734375 C 159.992188 369.734375 111.5 368.023438 84.5 350.226562 C 84.5 350.226562 77.988281 342.730469 86.890625 313.046875 L 87.625 313.023438 C 91.199219 316.765625 95.578125 319.914062 100.46875 322.554688 C 122.953125 334.699219 156.21875 336.25 171.71875 336.25 C 176.492188 336.25 179.582031 336.101562 180.148438 336.074219 C 239.160156 334.769531 262.089844 317.738281 270.363281 308.152344 M 270.363281 302.875 C 268.886719 302.875 267.472656 303.519531 266.480469 304.664062 C 262.84375 308.882812 255.714844 315.015625 242.40625 320.304688 C 226.28125 326.710938 205.296875 330.242188 180.035156 330.796875 C 179.984375 330.800781 179.9375 330.800781 179.882812 330.804688 C 179.550781 330.820312 176.5 330.972656 171.71875 330.972656 C 158.304688 330.972656 124.746094 329.699219 102.890625 317.894531 C 98.246094 315.382812 94.355469 312.507812 91.324219 309.339844 C 90.351562 308.320312 89.015625 307.75 87.625 307.75 C 87.578125 307.75 87.53125 307.75 87.480469 307.75 L 86.75 307.769531 C 84.527344 307.832031 82.59375 309.335938 81.945312 311.5 C 72.902344 341.671875 78.652344 351.445312 80.632812 353.722656 C 80.945312 354.082031 81.300781 354.398438 81.695312 354.65625 C 109.5625 373.027344 158.082031 375.011719 177.644531 375.011719 C 181.898438 375.011719 184.398438 374.914062 184.5 374.910156 C 251.769531 372.765625 275.347656 350.53125 276.316406 349.585938 C 276.445312 349.460938 276.566406 349.328125 276.683594 349.191406 C 288.335938 335.234375 277.324219 310.609375 275 305.8125 C 274.234375 304.234375 272.75 303.152344 271.042969 302.921875 C 270.816406 302.886719 270.589844 302.875 270.363281 302.875 Z M 270.363281 302.875"/><path fill="#FFCD49" d="M 254.3125 283.769531 C 254.449219 293.4375 247.328125 303.980469 238.488281 307.199219 C 203.054688 320.101562 165.90625 321.476562 129.457031 312.613281 C 125.117188 311.558594 120.753906 310.488281 116.507812 309.078125 C 107.582031 306.117188 100.164062 295.78125 100.027344 286.109375 L 98.796875 199.941406 C 98.660156 190.269531 98.433594 174.441406 98.296875 164.769531 L 97.066406 78.605469 C 96.929688 68.933594 104.488281 60.902344 113.863281 60.761719 L 156.910156 60.105469 C 166.285156 59.964844 181.632812 59.730469 191.007812 59.589844 L 234.050781 58.9375 C 243.429688 58.792969 246.953125 66.59375 247.089844 76.261719 L 251.730469 162.429688 C 251.867188 172.101562 252.945312 187.925781 253.082031 197.597656 L 254.3125 283.765625 Z M 254.3125 283.769531"/><path fill="#F89939" d="M 240.835938 251.769531 C 241.429688 261.40625 241.394531 269.957031 234.398438 271.738281 C 226.984375 273.625 226.207031 264.292969 226.003906 254.601562 C 225.460938 228.980469 225.679688 203.285156 225.640625 177.644531 C 225.625 169.089844 225.601562 155.09375 225.589844 146.539062 L 225.472656 70.320312 C 225.457031 61.769531 226.191406 54.667969 227.097656 54.539062 L 231.265625 53.960938 C 232.175781 53.839844 233.660156 53.632812 234.570312 53.503906 L 238.742188 52.929688 C 239.648438 52.800781 239.988281 59.699219 240.003906 68.253906 L 240.453125 144.46875 C 240.464844 153.023438 240.570312 167.019531 240.582031 175.574219 C 240.605469 191.164062 240.570312 206.753906 240.628906 222.34375 C 240.667969 232.085938 240.21875 241.9375 240.824219 251.617188 C 240.828125 251.667969 240.828125 251.71875 240.835938 251.769531 Z M 240.835938 251.769531"/><path fill="#FFF" d="M 239.015625 129.851562 C 239.015625 129.851562 265.84375 154.417969 276.160156 108.796875 C 276.160156 108.796875 292.671875 101.777344 281.664062 86.335938 C 281.664062 86.335938 287.167969 68.085938 271.34375 70.191406 C 271.34375 70.191406 273.410156 46.332031 250.707031 50.539062 C 250.707031 50.539062 243.140625 36.5 228.695312 47.730469 C 228.695312 47.730469 231.707031 33.910156 225.257812 26.421875 C 225.257812 26.421875 199.800781 0.00390625 172.289062 28.078125 C 172.289062 28.078125 157.839844 16.847656 146.148438 32.292969 C 146.148438 32.292969 134.453125 23.867188 123.445312 37.90625 C 123.445312 37.90625 111.753906 18.25 98.683594 37.90625 C 98.683594 37.90625 67.726562 33.695312 71.855469 65.28125 C 71.855469 65.28125 47.777344 78.613281 60.160156 96.164062 C 60.160156 96.164062 45.132812 107.320312 56.035156 119.324219 C 56.035156 119.324219 46.855469 132.824219 64.289062 143.890625 C 64.289062 143.890625 67.039062 158.628906 78.046875 154.417969 C 78.046875 154.417969 74.609375 176.878906 89.054688 180.386719 C 89.054688 180.386719 91.804688 228.113281 120.695312 223.902344 C 120.695312 223.902344 142.707031 224.605469 146.835938 193.722656 C 146.835938 193.722656 172.289062 178.28125 159.90625 157.222656 C 159.90625 157.222656 183.96875 165.21875 192.222656 142.058594 C 192.222656 142.058594 208.902344 152.933594 215.777344 140.296875 C 215.777344 140.296875 236.949219 153.011719 239.015625 129.851562 Z M 239.015625 129.851562"/><path fill="#A6A6A6" d="M 117.164062 226.804688 C 92.320312 226.804688 87.433594 191.144531 86.609375 182.398438 C 75.570312 178.367188 74.808594 164.550781 75.136719 157.777344 C 74.851562 157.800781 74.566406 157.8125 74.285156 157.8125 C 65.988281 157.8125 62.867188 148.808594 62.007812 145.535156 C 56.046875 141.527344 52.472656 136.753906 51.375 131.332031 C 50.347656 126.261719 51.804688 121.957031 52.898438 119.640625 C 50.300781 116.234375 49.171875 112.574219 49.539062 108.726562 C 50.109375 102.753906 54.246094 98.007812 56.742188 95.648438 C 54.203125 91.226562 53.4375 86.667969 54.464844 82.070312 C 56.546875 72.792969 65.457031 66.222656 69.085938 63.886719 C 68.25 55.15625 69.984375 48.21875 74.246094 43.25 C 80.347656 36.144531 89.976562 35.082031 95.175781 35.082031 C 96.050781 35.082031 96.808594 35.109375 97.417969 35.148438 C 101.550781 29.429688 106.078125 26.53125 110.902344 26.53125 C 116.675781 26.53125 121.175781 30.765625 123.621094 33.726562 C 128.828125 28.359375 134.054688 27.148438 137.710938 27.148438 C 141.007812 27.148438 143.753906 28.105469 145.515625 28.9375 C 149.808594 24.058594 155 21.496094 160.640625 21.496094 C 165.542969 21.496094 169.667969 23.40625 171.949219 24.734375 C 180.4375 16.625 189.597656 12.519531 199.203125 12.519531 C 215.292969 12.519531 226.617188 24.078125 227.09375 24.570312 C 227.128906 24.605469 227.160156 24.644531 227.191406 24.679688 C 231.660156 29.871094 232.191406 37.429688 231.914062 42.597656 C 234.445312 41.363281 236.941406 40.738281 239.371094 40.738281 C 245.9375 40.738281 250.117188 45.199219 251.929688 47.671875 C 259.234375 46.6875 264.894531 48.410156 268.757812 52.71875 C 272.871094 57.300781 273.789062 63.664062 273.945312 67.386719 C 278.894531 67.445312 281.535156 69.660156 282.882812 71.523438 C 286.214844 76.125 285.132812 82.941406 284.464844 85.832031 C 287.722656 90.8125 288.753906 95.585938 287.53125 100.035156 C 285.914062 105.914062 280.78125 109.3125 278.386719 110.617188 C 272.761719 134.113281 262.386719 139.09375 254.601562 139.09375 C 249.066406 139.09375 244.074219 136.597656 240.886719 134.53125 C 238.480469 144.757812 231.601562 146.417969 227.394531 146.417969 L 227.390625 146.417969 C 223.183594 146.417969 219.074219 144.847656 216.652344 143.714844 C 213.976562 147.210938 210.179688 149.046875 205.53125 149.046875 C 200.859375 149.046875 196.273438 147.183594 193.496094 145.785156 C 188.925781 155.75 180.40625 161.195312 169.21875 161.195312 C 167.480469 161.195312 165.875 161.0625 164.472656 160.878906 C 166.070312 165.371094 166.3125 169.925781 165.1875 174.480469 C 162.464844 185.488281 152.53125 193.035156 149.214844 195.296875 C 144.636719 225.460938 123.53125 226.527344 120.855469 226.542969 C 119.605469 226.714844 118.363281 226.804688 117.164062 226.804688 Z M 78.035156 151.78125 C 78.621094 151.78125 79.203125 151.984375 79.667969 152.371094 C 80.382812 152.964844 80.734375 153.898438 80.589844 154.824219 C 80.5625 155.023438 77.703125 174.917969 89.640625 177.824219 C 90.75 178.089844 91.558594 179.070312 91.625 180.230469 C 91.648438 180.644531 94.308594 221.53125 117.160156 221.53125 C 118.179688 221.53125 119.246094 221.453125 120.320312 221.292969 C 120.46875 221.273438 120.621094 221.261719 120.769531 221.269531 C 122.828125 221.269531 140.640625 220.484375 144.265625 193.367188 C 144.371094 192.570312 144.828125 191.867188 145.503906 191.457031 C 145.621094 191.386719 157.507812 184.027344 160.179688 173.167969 C 161.367188 168.332031 160.527344 163.425781 157.679688 158.585938 C 157.125 157.640625 157.203125 156.445312 157.875 155.582031 C 158.546875 154.722656 159.671875 154.378906 160.699219 154.71875 C 160.730469 154.730469 164.425781 155.921875 169.21875 155.921875 C 179.371094 155.921875 186.289062 150.953125 189.78125 141.15625 C 190.046875 140.40625 190.636719 139.816406 191.382812 139.558594 C 192.125 139.304688 192.941406 139.40625 193.601562 139.835938 C 193.660156 139.875 199.746094 143.773438 205.53125 143.773438 C 209.15625 143.773438 211.765625 142.21875 213.507812 139.019531 C 213.847656 138.398438 214.414062 137.941406 215.085938 137.753906 C 215.757812 137.566406 216.476562 137.664062 217.078125 138.027344 C 217.128906 138.054688 222.371094 141.144531 227.394531 141.144531 L 227.414062 141.144531 C 229.417969 141.144531 235.40625 141.105469 236.429688 129.617188 C 236.519531 128.621094 237.152344 127.765625 238.058594 127.402344 C 238.96875 127.035156 240.007812 127.226562 240.734375 127.890625 C 240.796875 127.949219 247.34375 133.824219 254.605469 133.824219 C 265.542969 133.824219 270.992188 119.890625 273.636719 108.207031 C 273.824219 107.378906 274.390625 106.691406 275.160156 106.363281 C 275.210938 106.339844 281.171875 103.707031 282.5625 98.585938 C 283.410156 95.46875 282.402344 91.867188 279.566406 87.890625 C 279.085938 87.21875 278.945312 86.355469 279.1875 85.566406 C 279.789062 83.542969 280.882812 77.628906 278.722656 74.65625 C 277.488281 72.957031 275.128906 72.351562 271.671875 72.8125 C 270.894531 72.917969 270.113281 72.65625 269.546875 72.101562 C 268.984375 71.546875 268.695312 70.761719 268.761719 69.964844 C 268.769531 69.882812 269.421875 61.25 264.933594 56.269531 C 262.757812 53.855469 259.753906 52.683594 255.75 52.683594 C 254.335938 52.683594 252.792969 52.839844 251.164062 53.140625 C 250.070312 53.34375 248.972656 52.8125 248.4375 51.816406 C 248.3125 51.589844 245.175781 46.019531 239.371094 46.019531 C 236.578125 46.019531 233.511719 47.304688 230.257812 49.835938 C 229.394531 50.507812 228.210938 50.554688 227.296875 49.960938 C 226.382812 49.363281 225.929688 48.246094 226.164062 47.164062 C 226.191406 47.042969 228.78125 34.632812 223.363281 28.230469 C 222.617188 27.484375 212.613281 17.796875 199.203125 17.796875 C 190.453125 17.796875 182.011719 21.886719 174.109375 29.949219 C 173.191406 30.882812 171.742188 30.980469 170.714844 30.179688 C 170.675781 30.152344 166.207031 26.777344 160.640625 26.777344 C 155.960938 26.777344 151.769531 29.175781 148.1875 33.90625 C 147.339844 35.023438 145.78125 35.265625 144.648438 34.449219 C 144.632812 34.4375 141.71875 32.425781 137.710938 32.425781 C 133.292969 32.425781 129.167969 34.828125 125.460938 39.558594 C 124.933594 40.230469 124.113281 40.597656 123.273438 40.542969 C 122.429688 40.488281 121.667969 40.015625 121.230469 39.277344 C 121.1875 39.207031 116.675781 31.8125 110.90625 31.8125 C 107.554688 31.8125 104.160156 34.363281 100.816406 39.390625 C 100.265625 40.21875 99.304688 40.65625 98.335938 40.523438 C 98.328125 40.523438 97.078125 40.359375 95.175781 40.359375 C 90.855469 40.359375 82.894531 41.191406 78.140625 46.730469 C 74.621094 50.828125 73.367188 56.953125 74.410156 64.933594 C 74.550781 66.019531 74.023438 67.078125 73.082031 67.601562 C 72.96875 67.664062 61.542969 74.121094 59.503906 83.265625 C 58.65625 87.085938 59.554688 90.796875 62.253906 94.625 C 63.082031 95.800781 62.824219 97.445312 61.675781 98.296875 C 61.617188 98.34375 55.253906 103.175781 54.6875 109.261719 C 54.417969 112.136719 55.476562 114.839844 57.921875 117.535156 C 58.75 118.441406 58.84375 119.8125 58.152344 120.832031 C 58.132812 120.859375 55.367188 125.113281 56.457031 130.335938 C 57.328125 134.527344 60.425781 138.335938 65.648438 141.652344 C 66.261719 142.042969 66.6875 142.675781 66.824219 143.398438 C 66.839844 143.484375 68.636719 152.539062 74.289062 152.539062 C 75.152344 152.539062 76.109375 152.339844 77.132812 151.949219 C 77.421875 151.835938 77.730469 151.78125 78.035156 151.78125 Z M 78.035156 151.78125"/><path fill="#F89939" d="M 152.855469 285.363281 C 156.714844 285.363281 156.714844 279.253906 152.855469 279.253906 C 148.992188 279.253906 148.992188 285.363281 152.855469 285.363281 Z M 152.855469 285.363281"/><path fill="#F89939" d="M 170.089844 241.398438 C 173.949219 241.398438 173.949219 235.289062 170.089844 235.289062 C 166.230469 235.289062 166.230469 241.398438 170.089844 241.398438 Z M 170.089844 241.398438"/><path fill="#F89939" d="M 192.5 185.121094 C 196.359375 185.121094 196.359375 179.015625 192.5 179.015625 C 188.636719 179.015625 188.636719 185.121094 192.5 185.121094 Z M 192.5 185.121094"/><path fill="#F89939" d="M 128.722656 246.667969 C 132.582031 246.667969 132.582031 240.558594 128.722656 240.558594 C 124.863281 240.558594 124.863281 246.667969 128.722656 246.667969 Z M 128.722656 246.667969"/><path fill="#F89939" d="M 209.738281 284.480469 C 213.597656 284.480469 213.597656 278.375 209.738281 278.375 C 205.878906 278.375 205.878906 284.480469 209.738281 284.480469 Z M 209.738281 284.480469"/><path fill="#F89939" d="M 197.492188 214.78125 C 197.859375 213.585938 197.9375 212.332031 197.226562 211.21875 C 196.546875 210.15625 195.496094 209.460938 194.222656 209.460938 C 192.949219 209.460938 191.894531 210.15625 191.214844 211.21875 C 190.507812 212.332031 190.585938 213.585938 190.957031 214.78125 C 191.410156 216.257812 192.675781 217.320312 194.222656 217.320312 C 195.769531 217.320312 197.035156 216.253906 197.492188 214.78125 Z M 197.492188 214.78125"/><path fill="#F89939" d="M 157.59375 215.042969 C 157.898438 215.320312 158.203125 215.59375 158.507812 215.871094 C 159.355469 216.640625 160.308594 217.125 161.472656 217.125 C 162.582031 217.125 163.65625 216.667969 164.4375 215.871094 C 165.222656 215.070312 165.667969 213.976562 165.667969 212.847656 C 165.667969 211.660156 165.195312 210.683594 164.4375 209.820312 C 164.167969 209.507812 163.898438 209.199219 163.628906 208.886719 C 162.082031 207.113281 159.167969 207.285156 157.59375 208.886719 C 156.023438 210.492188 155.855469 213.464844 157.59375 215.042969 Z M 157.59375 215.042969"/><path fill="#F89939" d="M 174.402344 273.941406 C 178.261719 273.941406 178.261719 267.832031 174.402344 267.832031 C 170.539062 267.832031 170.539062 273.941406 174.402344 273.941406 Z M 174.402344 273.941406"/><path fill="#F89939" d="M 196.980469 254.714844 C 196.679688 253.882812 196.234375 252.761719 195.371094 252.367188 C 194.570312 252 193.960938 251.882812 193.109375 252.078125 C 192.484375 252.21875 191.929688 252.6875 191.476562 253.121094 C 190.464844 254.097656 190.417969 256 191.476562 256.964844 C 192.566406 257.957031 193.707031 258.28125 195.144531 258.023438 C 195.785156 257.910156 196.507812 257.417969 196.96875 256.964844 C 196.339844 257.230469 195.710938 257.496094 195.082031 257.761719 L 195.945312 257.761719 C 197.128906 257.761719 198.199219 256.929688 198.511719 255.765625 C 198.882812 254.398438 198.074219 252.738281 196.652344 252.421875 C 197.230469 252.550781 197.03125 252.621094 196.792969 252.515625 C 196.511719 252.390625 196.214844 252.246094 195.914062 252.148438 C 196.601562 252.847656 197.285156 253.546875 197.96875 254.246094 C 197.6875 253.203125 197.117188 252.640625 196.300781 252.011719 C 196.53125 252.195312 196.765625 252.378906 196.996094 252.5625 C 196.953125 252.527344 196.914062 252.492188 196.871094 252.457031 C 196.402344 251.984375 195.851562 251.65625 195.214844 251.472656 C 194.152344 251.175781 193.300781 251.4375 192.328125 251.859375 C 191.957031 252.019531 191.628906 252.386719 191.308594 252.664062 C 190.675781 253.21875 190.375 253.988281 190.105469 254.765625 C 189.605469 256.199219 190.1875 257.964844 191.203125 259 C 192.609375 260.4375 194.65625 260.589844 196.375 259.683594 C 196.449219 259.644531 196.519531 259.605469 196.589844 259.558594 C 195.855469 259.757812 195.125 259.964844 194.390625 260.164062 C 196.433594 260.234375 198.140625 258.816406 198.984375 257.007812 C 198.042969 257.742188 197.109375 258.476562 196.171875 259.210938 C 197.496094 258.742188 198.613281 258.042969 199.335938 256.785156 C 199.628906 256.269531 199.746094 255.816406 199.925781 255.308594 C 199.757812 255.71875 199.585938 256.128906 199.417969 256.535156 C 199.417969 256.53125 199.421875 256.527344 199.425781 256.519531 C 198.820312 257.136719 198.21875 257.75 197.617188 258.363281 C 197.617188 258.363281 197.617188 258.363281 197.621094 258.363281 C 195.09375 256.882812 192.566406 255.40625 190.039062 253.925781 C 190.042969 254 190.023438 254.085938 190.015625 254.164062 C 189.863281 255.445312 190.644531 256.945312 191.5 257.816406 C 192.445312 258.785156 193.742188 259.332031 195.082031 259.332031 C 196.417969 259.332031 197.71875 258.785156 198.664062 257.816406 C 199.515625 256.949219 200.300781 255.441406 200.148438 254.164062 C 200.085938 253.628906 200.09375 253.066406 199.933594 252.558594 C 199.402344 250.828125 198.15625 249.457031 196.414062 248.96875 C 195.523438 248.722656 194.628906 248.722656 193.738281 248.96875 C 192.882812 249.210938 192.140625 249.652344 191.515625 250.289062 C 190.417969 251.179688 190.132812 252.695312 190.023438 254.015625 C 189.902344 255.578125 190.625 256.863281 191.59375 257.980469 C 191.191406 256.421875 190.785156 254.863281 190.382812 253.308594 C 190.347656 253.550781 190.296875 253.785156 190.230469 254.023438 C 189.953125 254.957031 189.855469 255.960938 190.191406 256.902344 L 190.191406 254.539062 C 190.175781 254.578125 190.164062 254.613281 190.148438 254.65625 C 190.292969 254.304688 190.4375 253.953125 190.585938 253.601562 C 190.566406 253.644531 190.550781 253.683594 190.535156 253.722656 C 193.132812 254.070312 195.734375 254.417969 198.332031 254.765625 C 198.082031 254.039062 197.773438 253.230469 197.175781 252.707031 C 196.84375 252.417969 196.480469 252.019531 196.109375 251.859375 C 196.6875 253.296875 197.257812 254.738281 197.835938 256.179688 C 197.847656 256.109375 197.863281 256.042969 197.878906 255.976562 C 197.351562 256.675781 196.824219 257.371094 196.296875 258.074219 C 197.113281 257.445312 197.683594 256.882812 197.964844 255.839844 C 197.28125 256.539062 196.597656 257.238281 195.910156 257.933594 C 196.210938 257.839844 196.507812 257.695312 196.789062 257.570312 C 197.027344 257.464844 197.226562 257.535156 196.652344 257.664062 C 197.800781 257.410156 198.605469 256.199219 198.605469 255.042969 C 198.605469 253.5625 197.394531 252.324219 195.945312 252.324219 C 195.429688 252.324219 194.875 252.28125 194.375 252.421875 C 193.90625 252.554688 193.539062 252.789062 193.191406 253.128906 C 192.917969 253.398438 193.832031 252.664062 193.480469 252.890625 C 193.121094 253.125 194.175781 252.652344 193.722656 252.785156 C 194.257812 252.632812 194.828125 252.746094 195.242188 253.121094 L 195.242188 256.960938 C 195.285156 256.921875 195.332031 256.875 195.378906 256.832031 C 195 257.210938 194.527344 257.398438 193.964844 257.402344 C 193.515625 257.277344 193.066406 257.15625 192.621094 257.03125 C 192.351562 256.753906 192.082031 256.472656 191.808594 256.195312 C 191.6875 255.738281 191.566406 255.28125 191.445312 254.824219 C 191.46875 255.085938 191.5 254.929688 191.535156 254.363281 C 191.519531 254.480469 191.480469 254.597656 191.449219 254.714844 C 190.945312 256.546875 192.355469 258.414062 194.214844 258.414062 C 195.960938 258.414062 197.640625 256.523438 196.980469 254.714844 Z M 196.980469 254.714844"/><path fill="#F89939" d="M 121.554688 266.945312 C 120.488281 267.441406 119.542969 268.757812 119.308594 269.898438 C 119.070312 271.050781 119.175781 271.765625 119.371094 272.933594 C 119.574219 273.683594 119.945312 274.332031 120.484375 274.886719 C 121.292969 275.710938 122.40625 276.179688 123.550781 276.179688 C 124.332031 276.179688 125.0625 275.976562 125.742188 275.578125 C 126.628906 275.042969 127.550781 274.011719 127.734375 272.933594 C 127.765625 272.738281 127.792969 272.542969 127.855469 272.359375 C 127.707031 272.71875 127.558594 273.078125 127.410156 273.441406 C 127.421875 273.410156 127.4375 273.378906 127.457031 273.351562 C 127.222656 273.65625 126.992188 273.960938 126.757812 274.269531 C 126.773438 274.246094 126.796875 274.226562 126.820312 274.210938 C 126.515625 274.449219 126.214844 274.683594 125.914062 274.921875 C 125.925781 274.914062 125.9375 274.910156 125.949219 274.902344 C 125.59375 275.054688 125.238281 275.210938 124.882812 275.363281 C 124.910156 275.347656 124.9375 275.339844 124.96875 275.335938 C 124.566406 275.390625 124.171875 275.445312 123.773438 275.503906 C 123.789062 275.5 123.808594 275.5 123.824219 275.496094 C 125.058594 275.378906 126.101562 275.074219 127.003906 274.152344 C 128.140625 272.996094 128.589844 271.265625 128.160156 269.6875 C 127.851562 268.539062 127.101562 267.542969 126.09375 266.945312 C 125.394531 266.527344 124.636719 266.320312 123.824219 266.316406 C 123.011719 266.320312 122.253906 266.527344 121.554688 266.945312 Z M 121.554688 266.945312"/><path fill="#F89939" d="M 214.046875 155.265625 C 214.621094 155.265625 214.621094 154.351562 214.046875 154.351562 C 213.46875 154.351562 213.46875 155.265625 214.046875 155.265625 Z M 214.046875 155.265625"/><path fill="#F89939" d="M 212.320312 162.257812 C 216.179688 162.257812 216.179688 156.148438 212.320312 156.148438 C 208.460938 156.148438 208.460938 162.257812 212.320312 162.257812 Z M 212.320312 162.257812"/></svg>