<svg xmlns="http://www.w3.org/2000/svg" width="375" viewBox="0 0 375 375" height="375" version="1.0"><defs><clipPath id="a"><path d="M 103 1 L 145 1 L 145 112.5 L 103 112.5 Z M 103 1"/></clipPath><clipPath id="b"><path d="M 144 32 L 174 32 L 174 112.5 L 144 112.5 Z M 144 32"/></clipPath><clipPath id="c"><path d="M 191 173 L 330 173 L 330 366 L 191 366 Z M 191 173"/></clipPath><clipPath id="d"><path d="M 209.539062 173.464844 L 340.222656 185.632812 L 322.285156 378.296875 L 191.601562 366.132812 Z M 209.539062 173.464844"/></clipPath><clipPath id="e"><path d="M 36.773438 35.324219 L 351.910156 64.664062 L 322.707031 378.308594 L 7.570312 348.96875 Z M 36.773438 35.324219"/></clipPath><clipPath id="f"><path d="M 41 149 L 336 149 L 336 367.328125 L 41 367.328125 Z M 41 149"/></clipPath><clipPath id="g"><path d="M 145 55 L 152 55 L 152 101 L 145 101 Z M 145 55"/></clipPath><clipPath id="h"><path d="M 150.457031 55.476562 L 182.550781 58.640625 L 177.617188 108.648438 L 145.523438 105.480469 Z M 150.457031 55.476562"/></clipPath><clipPath id="i"><path d="M 72.625 12.460938 L 255.488281 30.503906 L 233.539062 252.925781 L 50.675781 234.878906 Z M 72.625 12.460938"/></clipPath><clipPath id="j"><path d="M 147 55 L 172 55 L 172 104 L 147 104 Z M 147 55"/></clipPath><clipPath id="k"><path d="M 150.457031 55.476562 L 182.550781 58.640625 L 177.617188 108.648438 L 145.523438 105.480469 Z M 150.457031 55.476562"/></clipPath><clipPath id="l"><path d="M 72.625 12.460938 L 255.488281 30.503906 L 233.539062 252.925781 L 50.675781 234.878906 Z M 72.625 12.460938"/></clipPath><clipPath id="m"><path d="M 109 25 L 139 25 L 139 92 L 109 92 Z M 109 25"/></clipPath><clipPath id="n"><path d="M 113.046875 20.960938 L 141.761719 26.519531 L 128.367188 95.734375 L 99.648438 90.175781 Z M 113.046875 20.960938"/></clipPath><clipPath id="o"><path d="M 75.894531 13.769531 L 226.105469 42.84375 L 190.617188 226.191406 L 40.40625 197.117188 Z M 75.894531 13.769531"/></clipPath><clipPath id="p"><path d="M 132 47 L 142 47 L 142 96 L 132 96 Z M 132 47"/></clipPath><clipPath id="q"><path d="M 113.046875 20.960938 L 141.761719 26.519531 L 128.367188 95.734375 L 99.648438 90.175781 Z M 113.046875 20.960938"/></clipPath><clipPath id="r"><path d="M 75.894531 13.769531 L 226.105469 42.84375 L 190.617188 226.191406 L 40.40625 197.117188 Z M 75.894531 13.769531"/></clipPath><clipPath id="s"><path d="M 154.890625 147.578125 L 162.390625 147.578125 L 162.390625 215.078125 L 154.890625 215.078125 Z M 154.890625 147.578125"/></clipPath><clipPath id="t"><path d="M 137.777344 209.730469 L 188.777344 209.730469 L 188.777344 260.730469 L 137.777344 260.730469 Z M 137.777344 209.730469"/></clipPath><clipPath id="u"><path d="M 141.855469 213.808594 L 184.605469 213.808594 L 184.605469 256.558594 L 141.855469 256.558594 Z M 141.855469 213.808594"/></clipPath></defs><g clip-path="url(#a)"><path fill="#A6A6A6" d="M 122.203125 114.476562 C 114.257812 87.046875 127.761719 72.339844 127.761719 72.339844 C 164.304688 32.183594 127.761719 1.175781 127.761719 1.175781 C 150.007812 25.425781 122.203125 48.882812 122.203125 48.882812 C 80.496094 80.6875 122.203125 114.476562 122.203125 114.476562 Z M 122.203125 114.476562"/></g><g clip-path="url(#b)"><path fill="#A6A6A6" d="M 157.949219 114.476562 C 151.992188 94.203125 161.921875 83.867188 161.921875 83.867188 C 188.535156 54.847656 161.921875 32.183594 161.921875 32.183594 C 177.808594 49.675781 157.949219 66.773438 157.949219 66.773438 C 126.96875 90.226562 157.949219 114.476562 157.949219 114.476562 Z M 157.949219 114.476562"/></g><g clip-path="url(#c)"><g clip-path="url(#d)"><g clip-path="url(#e)"><path fill="#A6A6A6" d="M 301.125 187.484375 C 301.125 187.484375 284.554688 184.628906 263.753906 190.457031 C 266.441406 167.246094 266.644531 151.480469 266.644531 151.480469 L 38.875 130.277344 C 38.875 130.277344 15.546875 263.925781 64.21875 335.460938 L 67.15625 347.378906 C 67.15625 347.378906 67.847656 354.574219 75.605469 355.296875 L 189.003906 365.855469 C 196.761719 366.578125 198.769531 359.632812 198.769531 359.632812 L 203.855469 348.464844 C 211.457031 340.828125 218.136719 332.039062 224.011719 322.503906 C 248.425781 318.972656 310.207031 303.855469 327.480469 240.539062 C 327.476562 240.53125 339.714844 195.03125 301.113281 187.480469 Z M 300.636719 262.347656 C 300.636719 262.347656 276.523438 293.207031 233.535156 305.035156 C 245.414062 280.449219 253.039062 252.945312 257.925781 228.085938 C 261.449219 226.78125 265.09375 224.34375 266.671875 219.804688 C 266.671875 219.804688 274.339844 195.902344 299.164062 203.304688 C 299.15625 203.304688 333.777344 218.753906 300.636719 262.351562 Z M 300.636719 262.347656"/></g></g></g><path fill="#A6A6A6" d="M 313.601562 175.546875 C 313.601562 175.546875 295.847656 174.160156 274.484375 182.371094 C 275.035156 157.566406 273.703125 140.878906 273.703125 140.878906 L 31.398438 140.878906 C 31.398438 140.878906 19.917969 284.488281 78.277344 355.332031 L 82.546875 367.644531 C 82.546875 367.644531 83.980469 375.183594 92.234375 375.183594 L 212.867188 375.183594 C 221.121094 375.183594 222.554688 367.644531 222.554688 367.644531 L 226.824219 355.332031 C 234.089844 346.511719 240.273438 336.5625 245.53125 325.902344 C 270.933594 319.765625 334.609375 297.699219 346.609375 229.050781 C 346.605469 229.046875 355.046875 179.730469 313.59375 175.546875 Z M 320.441406 254.753906 C 320.441406 254.753906 298.039062 289.757812 253.859375 306.496094 C 263.976562 279.328125 269.316406 249.5 272.03125 222.730469 C 275.617188 221.003906 279.222656 218.070312 280.441406 213.113281 C 280.441406 213.113281 286.183594 187.085938 313.089844 192.46875 C 313.082031 192.46875 351.113281 205.394531 320.441406 254.757812 Z M 320.441406 254.753906"/><g clip-path="url(#f)"><path fill="#FFF" d="M 304.542969 182.179688 C 304.542969 182.179688 288.058594 180.890625 268.226562 188.511719 C 268.738281 165.488281 267.5 149.996094 267.5 149.996094 L 42.542969 149.996094 C 42.542969 149.996094 31.882812 283.300781 86.066406 349.0625 L 90.027344 360.492188 C 90.027344 360.492188 91.359375 367.492188 99.023438 367.492188 L 211.019531 367.492188 C 218.683594 367.492188 220.015625 360.492188 220.015625 360.492188 L 223.976562 349.0625 C 230.722656 340.875 236.464844 331.640625 241.347656 321.746094 C 264.929688 316.046875 324.046875 295.5625 335.1875 231.84375 C 335.183594 231.835938 343.019531 186.058594 304.535156 182.179688 Z M 310.894531 255.703125 C 310.894531 255.703125 290.09375 288.191406 249.078125 303.730469 C 258.46875 278.511719 263.425781 250.824219 265.949219 225.976562 C 269.277344 224.371094 272.625 221.648438 273.757812 217.046875 C 273.757812 217.046875 279.085938 192.886719 304.066406 197.886719 C 304.0625 197.886719 339.371094 209.882812 310.894531 255.703125 Z M 310.894531 255.703125"/></g><g clip-path="url(#g)"><g clip-path="url(#h)"><g clip-path="url(#i)"><path fill="#FC0" d="M 130.0625 100.730469 C 126.300781 80.566406 137.023438 71.011719 137.023438 71.011719 C 166.058594 44.902344 142.039062 20.15625 142.039062 20.15625 C 156.28125 39.058594 134.6875 53.855469 134.6875 53.855469 C 102.539062 73.632812 130.0625 100.730469 130.0625 100.730469 Z M 130.0625 100.730469"/></g></g></g><g clip-path="url(#j)"><g clip-path="url(#k)"><g clip-path="url(#l)"><path fill="#FC0" d="M 155.699219 103.261719 C 152.855469 88.351562 160.707031 81.664062 160.707031 81.664062 C 181.835938 62.808594 164.347656 44.734375 164.347656 44.734375 C 174.507812 58.359375 159.0625 69.167969 159.0625 69.167969 C 135.191406 83.738281 155.699219 103.261719 155.699219 103.261719 Z M 155.699219 103.261719"/></g></g></g><g clip-path="url(#m)"><g clip-path="url(#n)"><g clip-path="url(#o)"><path fill="#FC0" d="M 116.65625 91.621094 C 115.105469 74.554688 124.734375 67.429688 124.734375 67.429688 C 150.839844 47.945312 132.851562 25.511719 132.851562 25.511719 C 143.1875 42.332031 124.136719 52.980469 124.136719 52.980469 C 95.941406 66.960938 116.65625 91.621094 116.65625 91.621094 Z M 116.65625 91.621094"/></g></g></g><g clip-path="url(#p)"><g clip-path="url(#q)"><g clip-path="url(#r)"><path fill="#FC0" d="M 137.714844 95.695312 C 136.515625 83.074219 143.542969 78.117188 143.542969 78.117188 C 162.527344 64.054688 149.4375 47.671875 149.4375 47.671875 C 156.800781 59.789062 143.152344 67.59375 143.152344 67.59375 C 122.226562 77.878906 137.714844 95.695312 137.714844 95.695312 Z M 137.714844 95.695312"/></g></g></g><g clip-path="url(#s)"><path fill="#A6A6A6" d="M 154.976562 471.476562 L 154.976562 151.355469 C 154.976562 149.253906 156.617188 147.550781 158.640625 147.550781 C 160.664062 147.550781 162.304688 149.253906 162.304688 151.355469 L 162.304688 471.476562 C 162.304688 473.578125 160.664062 475.277344 158.640625 475.277344 C 156.617188 475.28125 154.976562 473.578125 154.976562 471.476562 Z M 154.976562 471.476562"/></g><g clip-path="url(#t)"><path fill="#A6A6A6" d="M 142.027344 209.730469 L 184.527344 209.730469 C 184.804688 209.730469 185.082031 209.757812 185.355469 209.8125 C 185.628906 209.867188 185.894531 209.945312 186.152344 210.054688 C 186.410156 210.160156 186.65625 210.289062 186.886719 210.445312 C 187.121094 210.601562 187.335938 210.777344 187.53125 210.972656 C 187.730469 211.171875 187.90625 211.386719 188.058594 211.617188 C 188.214844 211.851562 188.347656 212.09375 188.453125 212.351562 C 188.558594 212.609375 188.640625 212.875 188.695312 213.148438 C 188.75 213.425781 188.777344 213.699219 188.777344 213.980469 L 188.777344 256.480469 C 188.777344 256.757812 188.75 257.035156 188.695312 257.308594 C 188.640625 257.582031 188.558594 257.847656 188.453125 258.105469 C 188.347656 258.363281 188.214844 258.609375 188.058594 258.839844 C 187.90625 259.074219 187.730469 259.289062 187.53125 259.484375 C 187.335938 259.683594 187.121094 259.859375 186.886719 260.011719 C 186.65625 260.167969 186.410156 260.300781 186.152344 260.40625 C 185.894531 260.511719 185.628906 260.59375 185.355469 260.648438 C 185.082031 260.703125 184.804688 260.730469 184.527344 260.730469 L 142.027344 260.730469 C 141.746094 260.730469 141.472656 260.703125 141.199219 260.648438 C 140.921875 260.59375 140.65625 260.511719 140.398438 260.40625 C 140.140625 260.300781 139.898438 260.167969 139.664062 260.011719 C 139.433594 259.859375 139.21875 259.683594 139.019531 259.484375 C 138.824219 259.289062 138.648438 259.074219 138.492188 258.839844 C 138.335938 258.609375 138.207031 258.363281 138.101562 258.105469 C 137.992188 257.847656 137.914062 257.582031 137.859375 257.308594 C 137.804688 257.035156 137.777344 256.757812 137.777344 256.480469 L 137.777344 213.980469 C 137.777344 213.699219 137.804688 213.425781 137.859375 213.148438 C 137.914062 212.875 137.992188 212.609375 138.101562 212.351562 C 138.207031 212.09375 138.335938 211.851562 138.492188 211.617188 C 138.648438 211.386719 138.824219 211.171875 139.019531 210.972656 C 139.21875 210.777344 139.433594 210.601562 139.664062 210.445312 C 139.898438 210.289062 140.140625 210.160156 140.398438 210.054688 C 140.65625 209.945312 140.921875 209.867188 141.199219 209.8125 C 141.472656 209.757812 141.746094 209.730469 142.027344 209.730469 Z M 142.027344 209.730469"/></g><g clip-path="url(#u)"><path fill="#FC0" d="M 145.417969 213.808594 L 181.042969 213.808594 C 181.515625 213.808594 181.972656 213.898438 182.40625 214.082031 C 182.84375 214.261719 183.230469 214.519531 183.5625 214.851562 C 183.898438 215.1875 184.15625 215.570312 184.335938 216.007812 C 184.515625 216.445312 184.605469 216.898438 184.605469 217.371094 L 184.605469 252.996094 C 184.605469 253.46875 184.515625 253.925781 184.335938 254.359375 C 184.15625 254.796875 183.898438 255.183594 183.5625 255.515625 C 183.230469 255.851562 182.84375 256.109375 182.40625 256.289062 C 181.972656 256.46875 181.515625 256.558594 181.042969 256.558594 L 145.417969 256.558594 C 144.945312 256.558594 144.492188 256.46875 144.054688 256.289062 C 143.621094 256.109375 143.234375 255.851562 142.898438 255.515625 C 142.566406 255.183594 142.308594 254.796875 142.128906 254.359375 C 141.945312 253.925781 141.855469 253.46875 141.855469 252.996094 L 141.855469 217.371094 C 141.855469 216.898438 141.945312 216.445312 142.128906 216.007812 C 142.308594 215.570312 142.566406 215.1875 142.898438 214.851562 C 143.234375 214.519531 143.621094 214.261719 144.054688 214.082031 C 144.492188 213.898438 144.945312 213.808594 145.417969 213.808594 Z M 145.417969 213.808594"/></g></svg>