<svg xmlns="http://www.w3.org/2000/svg" width="375" viewBox="0 0 375 375" height="375" version="1.0"><defs><clipPath id="a"><path d="M 0 161 L 375 161 L 375 358.40625 L 0 358.40625 Z M 0 161"/></clipPath><clipPath id="b"><path d="M 0 16.40625 L 375 16.40625 L 375 151 L 0 151 Z M 0 16.40625"/></clipPath><clipPath id="c"><path d="M 0 162 L 363 162 L 363 353.414062 L 0 353.414062 Z M 0 162"/></clipPath><clipPath id="d"><path d="M 0 21.914062 L 363 21.914062 L 363 153 L 0 153 Z M 0 21.914062"/></clipPath><clipPath id="e"><path d="M 10.269531 161 L 374.769531 161 L 374.769531 353.269531 L 10.269531 353.269531 Z M 10.269531 161"/></clipPath><clipPath id="f"><path d="M 10.269531 20.269531 L 374.769531 20.269531 L 374.769531 152 L 10.269531 152 Z M 10.269531 20.269531"/></clipPath><clipPath id="g"><path d="M 4 161 L 368 161 L 368 353.269531 L 4 353.269531 Z M 4 161"/></clipPath><clipPath id="h"><path d="M 4 20.269531 L 368.453125 20.269531 L 368.453125 152 L 4 152 Z M 4 20.269531"/></clipPath><clipPath id="i"><path d="M 281.832031 163.484375 L 362.832031 163.484375 L 362.832031 203.984375 L 281.832031 203.984375 Z M 281.832031 163.484375"/></clipPath><clipPath id="j"><path d="M 189.996094 163.484375 L 270.996094 163.484375 L 270.996094 203.984375 L 189.996094 203.984375 Z M 189.996094 163.484375"/></clipPath><clipPath id="k"><path d="M 100.367188 163.484375 L 181.367188 163.484375 L 181.367188 203.984375 L 100.367188 203.984375 Z M 100.367188 163.484375"/></clipPath><clipPath id="l"><path d="M 7.910156 163.484375 L 88.910156 163.484375 L 88.910156 203.984375 L 7.910156 203.984375 Z M 7.910156 163.484375"/></clipPath></defs><path fill="#A6A6A6" d="M 182.144531 257.433594 L 167.25 257.433594 L 145.367188 235.566406 C 146.761719 234.167969 147.695312 232.308594 147.695312 230.445312 C 147.695312 226.257812 144.4375 223.46875 140.710938 223.46875 C 136.988281 223.46875 133.726562 226.722656 133.726562 230.445312 C 133.726562 232.308594 134.660156 234.167969 136.054688 235.566406 L 114.640625 256.96875 L 98.8125 256.96875 L 98.8125 300.242188 L 182.144531 300.242188 Z M 122.089844 257.433594 L 140.246094 239.289062 L 158.402344 257.433594 Z M 122.089844 257.433594"/><g clip-path="url(#a)"><path fill="#A6A6A6" d="M 29.90625 205.320312 L 29.90625 358.40625 L 344.160156 358.40625 L 344.160156 205.320312 C 361.851562 198.804688 374.421875 181.589844 374.421875 161.582031 L 280.84375 161.582031 C 280.84375 187.640625 301.796875 208.578125 327.867188 208.578125 C 328.796875 208.578125 329.730469 208.578125 330.660156 208.578125 L 330.660156 344.445312 L 241.273438 344.445312 L 241.273438 207.648438 C 263.621094 204.390625 281.3125 184.847656 281.3125 161.582031 L 187.265625 161.582031 C 187.265625 184.847656 204.492188 204.390625 227.304688 207.648438 L 227.304688 343.980469 L 43.875 343.980469 L 43.875 208.113281 C 44.804688 208.113281 45.738281 208.113281 46.667969 208.113281 C 72.738281 208.113281 93.6875 187.171875 93.6875 161.117188 L 0.113281 161.117188 C 0.113281 181.589844 12.214844 198.339844 29.90625 205.320312 Z M 29.90625 205.320312"/></g><path fill="#A6A6A6" d="M 140.246094 208.578125 C 166.316406 208.578125 187.265625 187.640625 187.265625 161.582031 L 93.6875 161.582031 C 93.6875 187.640625 114.640625 208.578125 140.246094 208.578125 Z M 140.246094 208.578125"/><g clip-path="url(#b)"><path fill="#A6A6A6" d="M 342.300781 16.40625 L 32.699219 16.40625 L 0.113281 150.878906 L 374.886719 150.878906 Z M 342.300781 16.40625"/></g><path fill="#A6A6A6" d="M 251.515625 240.21875 L 261.757812 240.21875 L 261.757812 280.234375 L 251.515625 280.234375 Z M 251.515625 240.21875"/><path fill="#A6A6A6" d="M 176.316406 255.542969 L 161.894531 255.542969 L 140.714844 234.34375 C 142.066406 232.992188 142.96875 231.1875 142.96875 229.382812 C 142.96875 225.324219 139.8125 222.617188 136.207031 222.617188 C 132.601562 222.617188 129.445312 225.773438 129.445312 229.382812 C 129.445312 231.1875 130.347656 232.992188 131.699219 234.34375 L 110.96875 255.089844 L 95.644531 255.089844 L 95.644531 297.035156 L 176.316406 297.035156 Z M 118.179688 255.542969 L 135.757812 237.953125 L 153.332031 255.542969 Z M 118.179688 255.542969"/><g clip-path="url(#c)"><path fill="#A6A6A6" d="M 28.945312 205.027344 L 28.945312 353.414062 L 333.152344 353.414062 L 333.152344 205.027344 C 350.277344 198.714844 362.445312 182.027344 362.445312 162.632812 L 271.859375 162.632812 C 271.859375 187.890625 292.140625 208.183594 317.378906 208.183594 C 318.28125 208.183594 319.179688 208.183594 320.082031 208.183594 L 320.082031 339.882812 L 233.554688 339.882812 L 233.554688 207.28125 C 255.183594 204.125 272.3125 185.183594 272.3125 162.632812 L 181.273438 162.632812 C 181.273438 185.183594 197.949219 204.125 220.03125 207.28125 L 220.03125 339.433594 L 42.464844 339.433594 L 42.464844 207.734375 C 43.367188 207.734375 44.269531 207.734375 45.171875 207.734375 C 70.410156 207.734375 90.6875 187.4375 90.6875 162.179688 L 0.101562 162.179688 C 0.101562 182.027344 11.820312 198.261719 28.945312 205.027344 Z M 28.945312 205.027344"/></g><path fill="#A6A6A6" d="M 135.757812 208.183594 C 160.996094 208.183594 181.273438 187.890625 181.273438 162.632812 L 90.6875 162.632812 C 90.6875 187.890625 110.96875 208.183594 135.757812 208.183594 Z M 135.757812 208.183594"/><g clip-path="url(#d)"><path fill="#A6A6A6" d="M 331.351562 21.914062 L 31.648438 21.914062 L 0.101562 152.257812 L 362.898438 152.257812 Z M 331.351562 21.914062"/></g><path fill="#A6A6A6" d="M 243.46875 238.855469 L 253.382812 238.855469 L 253.382812 277.640625 L 243.46875 277.640625 Z M 243.46875 238.855469"/><path fill="#A6A6A6" d="M 187.316406 254.957031 L 172.832031 254.957031 L 151.566406 233.660156 C 152.921875 232.300781 153.828125 230.488281 153.828125 228.675781 C 153.828125 224.601562 150.660156 221.882812 147.039062 221.882812 C 143.417969 221.882812 140.25 225.054688 140.25 228.675781 C 140.25 230.488281 141.15625 232.300781 142.515625 233.660156 L 121.699219 254.503906 L 106.3125 254.503906 L 106.3125 296.636719 L 187.316406 296.636719 Z M 128.9375 254.957031 L 146.585938 237.285156 L 164.234375 254.957031 Z M 128.9375 254.957031"/><g clip-path="url(#e)"><path fill="#A6A6A6" d="M 39.335938 204.210938 L 39.335938 353.269531 L 344.796875 353.269531 L 344.796875 204.210938 C 361.992188 197.871094 374.210938 181.105469 374.210938 161.625 L 283.25 161.625 C 283.25 186.996094 303.613281 207.382812 328.957031 207.382812 C 329.863281 207.382812 330.765625 207.382812 331.671875 207.382812 L 331.671875 339.675781 L 244.785156 339.675781 L 244.785156 206.476562 C 266.507812 203.304688 283.703125 184.277344 283.703125 161.625 L 192.292969 161.625 C 192.292969 184.277344 209.035156 203.304688 231.210938 206.476562 L 231.210938 339.222656 L 52.914062 339.222656 L 52.914062 206.929688 C 53.820312 206.929688 54.722656 206.929688 55.628906 206.929688 C 80.96875 206.929688 101.335938 186.542969 101.335938 161.171875 L 10.375 161.171875 C 10.375 181.105469 22.140625 197.417969 39.335938 204.210938 Z M 39.335938 204.210938"/></g><path fill="#A6A6A6" d="M 146.585938 207.382812 C 171.929688 207.382812 192.292969 186.996094 192.292969 161.625 L 101.335938 161.625 C 101.335938 186.996094 121.699219 207.382812 146.585938 207.382812 Z M 146.585938 207.382812"/><g clip-path="url(#f)"><path fill="#A6A6A6" d="M 342.984375 20.269531 L 42.054688 20.269531 L 10.375 151.203125 L 374.664062 151.203125 Z M 342.984375 20.269531"/></g><path fill="#A6A6A6" d="M 254.742188 238.191406 L 264.699219 238.191406 L 264.699219 277.15625 L 254.742188 277.15625 Z M 254.742188 238.191406"/><path fill="#F8F8F8" d="M 181 254.957031 L 166.519531 254.957031 L 145.25 233.660156 C 146.609375 232.300781 147.511719 230.488281 147.511719 228.675781 C 147.511719 224.601562 144.347656 221.882812 140.726562 221.882812 C 137.105469 221.882812 133.9375 225.054688 133.9375 228.675781 C 133.9375 230.488281 134.84375 232.300781 136.199219 233.660156 L 115.382812 254.503906 L 99.996094 254.503906 L 99.996094 296.636719 L 181 296.636719 Z M 122.625 254.957031 L 140.273438 237.285156 L 157.921875 254.957031 Z M 122.625 254.957031"/><g clip-path="url(#g)"><path fill="#F8F8F8" d="M 33.023438 204.210938 L 33.023438 353.269531 L 338.480469 353.269531 L 338.480469 204.210938 C 355.675781 197.871094 367.894531 181.105469 367.894531 161.625 L 276.9375 161.625 C 276.9375 186.996094 297.300781 207.382812 322.644531 207.382812 C 323.546875 207.382812 324.453125 207.382812 325.359375 207.382812 L 325.359375 339.675781 L 238.472656 339.675781 L 238.472656 206.476562 C 260.195312 203.304688 277.390625 184.277344 277.390625 161.625 L 185.980469 161.625 C 185.980469 184.277344 202.722656 203.304688 224.894531 206.476562 L 224.894531 339.222656 L 46.597656 339.222656 L 46.597656 206.929688 C 47.503906 206.929688 48.410156 206.929688 49.316406 206.929688 C 74.65625 206.929688 95.019531 186.542969 95.019531 161.171875 L 4.0625 161.171875 C 4.0625 181.105469 15.828125 197.417969 33.023438 204.210938 Z M 33.023438 204.210938"/></g><path fill="#F8F8F8" d="M 140.273438 207.382812 C 165.613281 207.382812 185.980469 186.996094 185.980469 161.625 L 95.019531 161.625 C 95.019531 186.996094 115.382812 207.382812 140.273438 207.382812 Z M 140.273438 207.382812"/><g clip-path="url(#h)"><path fill="#F8F8F8" d="M 336.671875 20.269531 L 35.738281 20.269531 L 4.0625 151.203125 L 368.347656 151.203125 Z M 336.671875 20.269531"/></g><path fill="#F8F8F8" d="M 248.429688 238.191406 L 258.382812 238.191406 L 258.382812 277.15625 L 248.429688 277.15625 Z M 248.429688 238.191406"/><g clip-path="url(#i)"><path fill="#76D6FF" d="M 322.328125 203.984375 C 344.699219 203.984375 362.832031 185.851562 362.832031 163.484375 L 281.832031 163.484375 C 281.832031 185.851562 299.964844 203.984375 322.328125 203.984375 Z M 322.328125 203.984375"/></g><g clip-path="url(#j)"><path fill="#76D6FF" d="M 230.496094 203.984375 C 252.863281 203.984375 270.996094 185.851562 270.996094 163.484375 L 189.996094 163.484375 C 189.996094 185.851562 208.128906 203.984375 230.496094 203.984375 Z M 230.496094 203.984375"/></g><g clip-path="url(#k)"><path fill="#76D6FF" d="M 140.863281 203.984375 C 163.234375 203.984375 181.367188 185.851562 181.367188 163.484375 L 100.367188 163.484375 C 100.367188 185.851562 118.5 203.984375 140.863281 203.984375 Z M 140.863281 203.984375"/></g><g clip-path="url(#l)"><path fill="#76D6FF" d="M 48.410156 203.984375 C 70.777344 203.984375 88.910156 185.851562 88.910156 163.484375 L 7.910156 163.484375 C 7.910156 185.851562 26.042969 203.984375 48.410156 203.984375 Z M 48.410156 203.984375"/></g></svg>