<svg xmlns="http://www.w3.org/2000/svg" width="375" viewBox="0 0 375 375" height="375" version="1.0"><defs><clipPath id="a"><path d="M 103 35.15625 L 270 35.15625 L 270 163 L 103 163 Z M 103 35.15625"/></clipPath><clipPath id="b"><path d="M 82 298 L 290 298 L 290 337.40625 L 82 337.40625 Z M 82 298"/></clipPath><clipPath id="c"><path d="M 148.042969 215 L 226.792969 215 L 226.792969 293.746094 L 148.042969 293.746094 Z M 148.042969 215"/></clipPath></defs><path fill="#FFF" d="M 289.835938 318.628906 L 85.15625 318.628906 L 85.15625 109.175781 L 289.835938 109.175781 L 289.835938 318.628906"/><path fill="#A6A6A6" d="M 289.835938 318.628906 L 289.449219 292.449219 L 289.160156 266.269531 L 288.578125 213.902344 L 287.871094 109.175781 L 289.835938 111.140625 L 264.253906 111.3125 L 238.667969 111.402344 L 187.496094 111.578125 L 85.15625 111.707031 L 87.691406 109.175781 L 87.546875 213.902344 L 87.367188 266.269531 L 87.261719 292.449219 L 87.082031 318.628906 L 85.15625 316.707031 L 187.496094 317.40625 L 238.667969 317.96875 L 264.253906 318.257812 Z M 289.835938 318.628906 L 264.253906 319.007812 L 238.667969 319.296875 L 187.496094 319.851562 L 85.15625 320.558594 L 83.246094 320.570312 L 83.230469 318.628906 L 83.054688 292.449219 L 82.945312 266.269531 L 82.765625 213.902344 L 82.621094 109.175781 L 82.621094 106.636719 L 85.15625 106.636719 L 187.496094 106.769531 L 238.667969 106.945312 L 264.253906 107.035156 L 289.835938 107.207031 L 291.816406 107.222656 L 291.804688 109.175781 L 291.09375 213.902344 L 290.515625 266.269531 L 290.226562 292.449219 L 289.835938 318.628906"/><path fill="#A6A6A6" d="M 128.320312 225.855469 C 147.09375 216.328125 148.003906 213.902344 157.691406 202.402344 C 178.882812 210.574219 197.503906 211.054688 218.097656 203.914062 C 224.152344 208.453125 233.523438 218.203125 244.894531 224.496094 C 267.296875 236.90625 289.835938 232.671875 289.835938 232.671875 C 269.457031 224.84375 250.363281 208.429688 239.683594 189.804688 C 239.277344 189.101562 238.886719 188.382812 238.496094 187.667969 C 232.542969 188.53125 226.582031 189.359375 220.605469 189.910156 C 204.09375 191.4375 188.015625 189.703125 171.519531 189.347656 C 162.929688 189.164062 154.210938 189.039062 145.671875 190.167969 C 143.941406 190.398438 142.105469 190.730469 140.355469 191.21875 C 141.996094 190.964844 137.613281 193.6875 139.785156 191.511719 C 133.582031 197.273438 128.628906 204.097656 123.183594 210.554688 C 112.945312 222.671875 99.929688 231.644531 85.15625 233.902344 C 85.15625 233.902344 112.1875 234.054688 128.320312 225.855469"/><path fill="#FFF" d="M 167.515625 150.339844 C 167.515625 195.808594 130.640625 232.671875 85.15625 232.671875 C 39.675781 232.671875 2.804688 195.808594 2.804688 150.339844 C 2.804688 104.871094 39.675781 68.011719 85.15625 68.011719 C 130.640625 68.011719 167.515625 104.871094 167.515625 150.339844"/><path fill="#FFF" d="M 372.195312 150.339844 C 372.195312 195.808594 335.320312 232.671875 289.835938 232.671875 C 244.355469 232.671875 207.480469 195.808594 207.480469 150.339844 C 207.480469 104.871094 244.355469 68.011719 289.835938 68.011719 C 335.320312 68.011719 372.195312 104.871094 372.195312 150.339844"/><path fill="#FFF" d="M 118.539062 75.050781 C 108.332031 70.527344 97.042969 68.011719 85.15625 68.011719 C 39.675781 68.011719 2.804688 104.871094 2.804688 150.339844 C 2.804688 195.808594 39.675781 232.671875 85.15625 232.671875 C 85.15625 232.671875 103.183594 234.109375 124.277344 222.804688"/><path fill="#A6A6A6" d="M 118.539062 75.050781 C 107.171875 70.542969 94.953125 68.550781 82.90625 69.175781 C 76.867188 69.507812 70.945312 70.429688 65.144531 72.015625 C 59.359375 73.605469 53.792969 75.882812 48.515625 78.660156 C 43.246094 81.464844 38.269531 84.8125 33.765625 88.707031 C 29.265625 92.601562 25.148438 96.933594 21.578125 101.675781 C 17.984375 106.402344 14.960938 111.550781 12.535156 116.957031 C 10.085938 122.347656 8.21875 128.003906 7.007812 133.796875 C 5.777344 139.578125 5.265625 145.554688 5.359375 151.414062 C 5.414062 152.929688 5.410156 154.5 5.550781 155.917969 C 5.648438 157.367188 5.746094 158.820312 5.960938 160.296875 L 6.234375 162.5 L 6.617188 164.683594 C 6.84375 166.144531 7.183594 167.585938 7.511719 169.03125 C 8.875 174.789062 10.859375 180.40625 13.5 185.710938 C 16.128906 191.015625 19.277344 196.074219 22.976562 200.722656 C 26.648438 205.382812 30.90625 209.582031 35.535156 213.3125 C 40.15625 217.050781 45.175781 220.320312 50.527344 222.964844 C 55.882812 225.597656 61.53125 227.640625 67.339844 229.085938 C 73.152344 230.53125 79.136719 231.300781 85.15625 231.457031 L 85.230469 231.460938 L 85.253906 231.460938 C 86.019531 231.527344 86.871094 231.566406 87.695312 231.574219 C 88.523438 231.597656 89.359375 231.574219 90.195312 231.558594 C 91.867188 231.496094 93.539062 231.40625 95.203125 231.21875 C 96.039062 231.136719 96.875 231.050781 97.707031 230.917969 C 98.539062 230.800781 99.375 230.707031 100.203125 230.542969 L 102.6875 230.097656 L 105.160156 229.570312 C 105.988281 229.402344 106.796875 229.164062 107.617188 228.964844 C 108.433594 228.753906 109.257812 228.550781 110.058594 228.289062 L 112.484375 227.554688 L 114.882812 226.722656 C 115.683594 226.445312 116.488281 226.179688 117.265625 225.847656 L 119.628906 224.902344 C 120.425781 224.605469 121.179688 224.214844 121.957031 223.871094 L 124.277344 222.804688 L 122.039062 224.039062 C 121.289062 224.4375 120.558594 224.882812 119.789062 225.238281 L 117.484375 226.363281 C 116.726562 226.75 115.9375 227.070312 115.15625 227.410156 C 114.367188 227.75 113.582031 228.089844 112.792969 228.40625 L 110.382812 229.296875 C 109.585938 229.609375 108.769531 229.867188 107.960938 230.125 C 107.136719 230.378906 106.332031 230.675781 105.503906 230.890625 L 103.027344 231.578125 C 102.195312 231.792969 101.355469 231.980469 100.519531 232.171875 C 99.683594 232.378906 98.835938 232.519531 97.992188 232.683594 C 97.152344 232.859375 96.300781 232.988281 95.449219 233.121094 C 93.75 233.394531 92.035156 233.578125 90.3125 233.726562 C 89.445312 233.785156 88.585938 233.847656 87.71875 233.867188 C 86.835938 233.902344 85.992188 233.914062 85.0625 233.878906 L 85.15625 233.882812 C 78.960938 234.015625 72.738281 233.429688 66.644531 232.179688 C 60.539062 230.945312 54.582031 228.972656 48.898438 226.371094 C 37.546875 221.148438 27.363281 213.324219 19.398438 203.625 C 15.417969 198.769531 11.925781 193.5 9.125 187.875 C 6.296875 182.253906 4.148438 176.300781 2.667969 170.191406 C 2.308594 168.660156 1.941406 167.128906 1.6875 165.574219 L 1.265625 163.253906 L 0.964844 160.917969 C 0.730469 159.371094 0.613281 157.777344 0.492188 156.183594 C 0.332031 154.558594 0.34375 153.078125 0.300781 151.539062 C 0.238281 145.195312 0.816406 138.9375 2.15625 132.773438 C 3.480469 126.628906 5.488281 120.628906 8.136719 114.929688 C 10.804688 109.238281 14.101562 103.847656 17.976562 98.917969 C 21.851562 93.988281 26.230469 89.453125 31.089844 85.5 C 35.941406 81.542969 41.253906 78.179688 46.847656 75.410156 C 52.4375 72.628906 58.347656 70.511719 64.402344 69.09375 C 70.445312 67.695312 76.683594 66.949219 82.851562 66.953125 C 89.035156 66.949219 95.21875 67.582031 101.214844 68.964844 C 107.21875 70.308594 113.046875 72.382812 118.539062 75.050781"/><path fill="#FFF" d="M 252.160156 77.109375 C 263.453125 71.292969 276.265625 68.011719 289.835938 68.011719 C 335.320312 68.011719 372.195312 104.871094 372.195312 150.339844 C 372.195312 195.808594 335.320312 232.671875 289.835938 232.671875 C 267.097656 232.671875 246.503906 223.453125 231.605469 208.554688"/><path fill="#A6A6A6" d="M 252.160156 77.109375 C 252.160156 77.109375 253.417969 76.453125 255.773438 75.226562 C 256.953125 74.609375 258.472656 73.988281 260.234375 73.179688 C 261.113281 72.769531 262.101562 72.449219 263.132812 72.042969 C 264.175781 71.664062 265.273438 71.207031 266.472656 70.875 C 271.203125 69.292969 277.152344 67.882812 284.113281 67.253906 C 285.851562 67.085938 287.65625 67.042969 289.511719 66.925781 C 290.492188 66.894531 291.375 66.921875 292.332031 66.917969 C 293.277344 66.917969 294.226562 66.910156 295.222656 66.980469 C 296.210938 67.035156 297.210938 67.085938 298.222656 67.144531 C 299.226562 67.25 300.246094 67.359375 301.269531 67.464844 C 302.300781 67.5625 303.332031 67.722656 304.378906 67.898438 C 305.417969 68.078125 306.484375 68.199219 307.539062 68.445312 C 316.019531 70.097656 325 73.289062 333.585938 78.355469 C 342.144531 83.425781 350.324219 90.339844 357.007812 98.972656 C 363.703125 107.570312 369.003906 117.796875 371.90625 128.921875 C 373.371094 134.472656 374.273438 140.222656 374.578125 146.027344 L 374.695312 150.449219 L 374.59375 154.691406 L 374.269531 159.113281 L 373.714844 163.457031 C 371.910156 174.996094 367.621094 186.117188 361.417969 195.777344 C 355.253906 205.476562 347.101562 213.601562 338.109375 219.765625 C 329.121094 225.960938 319.207031 230.046875 309.5 232.234375 C 299.792969 234.492188 290.226562 234.667969 281.675781 233.726562 C 277.378906 233.191406 273.304688 232.441406 269.511719 231.394531 C 265.734375 230.3125 262.195312 229.132812 258.996094 227.71875 C 252.546875 225.015625 247.34375 221.800781 243.304688 218.886719 C 239.238281 215.984375 236.410156 213.261719 234.460938 211.460938 C 232.597656 209.5625 231.605469 208.554688 231.605469 208.554688 C 231.605469 208.554688 232.65625 209.496094 234.644531 211.257812 C 236.703125 212.933594 239.714844 215.394531 243.875 218.050781 C 248.019531 220.703125 253.308594 223.550781 259.714844 225.917969 C 266.097656 228.320312 273.632812 230.136719 281.949219 230.828125 C 282.980469 230.882812 284.027344 230.945312 285.074219 231.003906 C 286.128906 231.070312 287.246094 231.035156 288.34375 231.058594 C 288.878906 231.058594 289.421875 231.0625 289.96875 231.0625 C 290.511719 231.039062 291.0625 231.015625 291.613281 230.988281 C 292.714844 230.925781 293.828125 230.925781 294.945312 230.796875 C 299.417969 230.46875 304.011719 229.722656 308.617188 228.550781 C 317.835938 226.21875 327.117188 222.066406 335.554688 216.101562 C 344.007812 210.148438 351.484375 202.277344 357.285156 193.148438 C 363.082031 184.015625 367.054688 173.535156 368.703125 162.675781 L 369.25 158.597656 L 369.570312 154.554688 L 369.691406 150.320312 L 369.601562 146.273438 C 369.34375 140.808594 368.523438 135.390625 367.167969 130.15625 C 364.460938 119.683594 359.714844 109.917969 353.472656 101.679688 C 347.238281 93.4375 339.683594 86.632812 331.625 81.578125 C 323.535156 76.5625 315.050781 73.179688 306.929688 71.28125 C 302.867188 70.363281 298.875 69.703125 295.109375 69.414062 C 294.175781 69.296875 293.214844 69.269531 292.269531 69.222656 C 291.34375 69.183594 290.367188 69.113281 289.519531 69.105469 C 287.707031 69.136719 285.945312 69.09375 284.242188 69.179688 C 277.425781 69.507812 271.507812 70.535156 266.757812 71.835938 C 265.550781 72.101562 264.445312 72.488281 263.394531 72.804688 C 262.351562 73.144531 261.34375 73.398438 260.453125 73.742188 C 258.664062 74.425781 257.109375 74.933594 255.894531 75.472656 C 253.457031 76.539062 252.160156 77.109375 252.160156 77.109375"/><path fill="#FFF" d="M 269.851562 120.066406 C 269.851562 165.539062 232.984375 202.402344 187.496094 202.402344 C 142.011719 202.402344 105.144531 165.539062 105.144531 120.066406 C 105.144531 74.597656 142.011719 37.738281 187.496094 37.738281 C 232.984375 37.738281 269.851562 74.597656 269.851562 120.066406"/><path fill="#FFF" d="M 116.773438 162.277344 C 109.386719 149.933594 105.144531 135.496094 105.144531 120.066406 C 105.144531 74.597656 142.011719 37.738281 187.496094 37.738281 C 232.984375 37.738281 269.851562 74.597656 269.851562 120.066406"/><g clip-path="url(#a)"><path fill="#A6A6A6" d="M 116.773438 162.277344 C 116.773438 162.277344 116.160156 161.265625 115.003906 159.371094 C 114.714844 158.890625 114.394531 158.363281 114.042969 157.78125 C 113.707031 157.183594 113.375 156.515625 112.992188 155.800781 C 112.246094 154.367188 111.347656 152.726562 110.570312 150.792969 C 110.15625 149.835938 109.726562 148.824219 109.269531 147.761719 C 108.886719 146.675781 108.480469 145.539062 108.058594 144.351562 C 107.855469 143.753906 107.636719 143.148438 107.417969 142.53125 C 107.246094 141.894531 107.070312 141.257812 106.890625 140.601562 C 106.550781 139.28125 106.113281 137.933594 105.816406 136.5 C 104.476562 130.820312 103.71875 124.199219 103.773438 117.003906 C 103.753906 116.125 103.792969 115.210938 103.859375 114.273438 C 103.90625 113.347656 103.957031 112.40625 104.015625 111.460938 C 104.238281 109.59375 104.347656 107.667969 104.695312 105.746094 C 105.226562 101.871094 106.210938 97.9375 107.40625 93.957031 C 108.59375 89.960938 110.222656 85.988281 112.121094 82.039062 C 114.011719 78.089844 116.316406 74.230469 118.972656 70.527344 C 124.261719 63.113281 130.898438 56.207031 138.765625 50.703125 C 146.597656 45.167969 155.511719 40.832031 164.933594 38.261719 C 169.640625 36.976562 174.460938 36.117188 179.296875 35.644531 C 184.140625 35.175781 188.992188 35.195312 193.738281 35.539062 C 203.394531 36.195312 212.585938 38.753906 220.949219 42.386719 C 225.125 44.214844 229.066406 46.390625 232.726562 48.792969 C 234.578125 49.96875 236.304688 51.277344 238.023438 52.546875 C 239.6875 53.894531 241.34375 55.199219 242.867188 56.617188 C 245.957031 59.40625 248.789062 62.308594 251.253906 65.34375 C 252.53125 66.820312 253.632812 68.402344 254.777344 69.894531 C 255.816406 71.464844 256.917969 72.949219 257.824219 74.511719 C 259.765625 77.5625 261.324219 80.660156 262.730469 83.628906 C 263.375 85.140625 264.007812 86.605469 264.570312 88.054688 C 265.085938 89.523438 265.660156 90.917969 266.074219 92.320312 C 267.867188 97.882812 268.816406 102.890625 269.324219 107.023438 C 269.820312 111.167969 269.898438 114.441406 269.910156 116.664062 C 269.875 118.882812 269.851562 120.066406 269.851562 120.066406 C 269.851562 120.066406 269.777344 118.886719 269.628906 116.671875 C 269.460938 114.460938 269.066406 111.234375 268.332031 107.1875 C 267.558594 103.136719 266.265625 98.296875 264.242188 92.96875 C 262.210938 87.636719 259.300781 81.871094 255.382812 76.101562 C 254.441406 74.628906 253.3125 73.246094 252.25 71.777344 C 251.085938 70.390625 249.96875 68.917969 248.675781 67.558594 C 246.195312 64.742188 243.414062 62.035156 240.378906 59.472656 C 238.878906 58.160156 237.253906 56.964844 235.636719 55.730469 C 233.953125 54.574219 232.277344 53.378906 230.484375 52.320312 C 226.921875 50.167969 223.179688 48.125 219.179688 46.492188 C 215.191406 44.832031 211.011719 43.464844 206.695312 42.433594 C 202.398438 41.394531 197.894531 40.753906 193.449219 40.433594 C 188.902344 40.128906 184.324219 40.136719 179.773438 40.609375 C 175.226562 41.078125 170.699219 41.925781 166.28125 43.148438 C 157.40625 45.507812 148.996094 49.53125 141.582031 54.707031 C 137.886719 57.308594 134.386719 60.140625 131.214844 63.246094 C 128.035156 66.347656 125.15625 69.667969 122.582031 73.136719 C 119.988281 76.597656 117.765625 80.234375 115.839844 83.921875 C 113.914062 87.609375 112.242188 91.347656 110.992188 95.121094 C 109.726562 98.886719 108.699219 102.628906 108.023438 106.320312 C 107.605469 108.152344 107.429688 109.988281 107.132812 111.777344 C 107.042969 112.671875 106.953125 113.558594 106.867188 114.433594 C 106.769531 115.304688 106.695312 116.179688 106.667969 117.078125 C 106.347656 124.074219 106.714844 130.5 107.710938 136.125 C 107.925781 137.53125 108.277344 138.871094 108.539062 140.175781 C 108.679688 140.832031 108.8125 141.472656 108.949219 142.101562 C 109.121094 142.722656 109.296875 143.328125 109.457031 143.925781 C 109.792969 145.117188 110.113281 146.261719 110.421875 147.359375 C 110.796875 148.429688 111.164062 149.453125 111.503906 150.417969 C 112.148438 152.378906 112.917969 154.046875 113.53125 155.53125 C 113.847656 156.265625 114.128906 156.953125 114.410156 157.578125 C 114.714844 158.1875 114.996094 158.738281 115.242188 159.234375 C 116.238281 161.21875 116.773438 162.277344 116.773438 162.277344"/></g><path fill="#FFF" d="M 289.835938 318.628906 C 289.835938 321.710938 285.222656 324.601562 277.113281 327.117188 C 265.550781 330.703125 246.882812 333.523438 224.371094 335.015625 C 212.929688 335.773438 200.496094 336.1875 187.496094 336.1875 C 130.976562 336.1875 85.15625 328.328125 85.15625 318.628906 C 85.15625 308.9375 130.976562 301.078125 187.496094 301.078125 C 244.015625 301.078125 289.835938 308.9375 289.835938 318.628906"/><g clip-path="url(#b)"><path fill="#A6A6A6" d="M 224.371094 335.015625 C 224.371094 335.015625 218.820312 335.46875 209.109375 336.265625 C 206.6875 336.484375 203.992188 336.566406 201.058594 336.703125 C 198.121094 336.820312 194.941406 336.953125 191.546875 337.085938 C 184.75 337.394531 177.089844 337.449219 168.722656 337.34375 C 160.355469 337.234375 151.289062 336.9375 141.710938 336.230469 C 132.132812 335.523438 122.027344 334.539062 111.648438 332.683594 C 106.457031 331.742188 101.1875 330.632812 95.902344 328.953125 C 93.257812 328.085938 90.609375 327.121094 87.976562 325.621094 C 87.320312 325.238281 86.664062 324.820312 86.019531 324.308594 C 85.375 323.804688 84.734375 323.230469 84.144531 322.46875 C 83.554688 321.714844 83 320.746094 82.792969 319.542969 C 82.742188 319.253906 82.726562 318.941406 82.710938 318.636719 L 82.738281 318.199219 C 82.75 318.085938 82.738281 318.089844 82.765625 317.882812 C 82.824219 317.546875 82.902344 317.113281 83.003906 316.867188 C 83.097656 316.601562 83.191406 316.316406 83.316406 316.089844 C 84.316406 314.136719 85.714844 313.121094 87.003906 312.207031 C 88.320312 311.335938 89.660156 310.652344 91.003906 310.054688 C 93.695312 308.855469 96.410156 307.96875 99.144531 307.175781 C 104.617188 305.617188 110.144531 304.503906 115.691406 303.554688 C 126.792969 301.742188 137.941406 300.65625 148.921875 299.914062 C 159.90625 299.152344 170.734375 298.925781 181.199219 298.878906 C 191.667969 298.832031 201.789062 299.148438 211.371094 299.664062 C 220.953125 300.164062 229.992188 300.953125 238.3125 301.929688 C 254.945312 303.863281 268.71875 306.632812 277.976562 309.890625 C 282.597656 311.507812 286.089844 313.328125 288.027344 315.148438 C 289.007812 316.046875 289.519531 316.96875 289.703125 317.621094 C 289.789062 317.949219 289.828125 318.199219 289.828125 318.375 C 289.832031 318.542969 289.835938 318.628906 289.835938 318.628906 C 289.835938 318.628906 289.828125 318.546875 289.808594 318.375 C 289.796875 318.207031 289.742188 317.957031 289.632812 317.636719 C 289.410156 317.015625 288.855469 316.164062 287.84375 315.359375 C 285.851562 313.707031 282.296875 312.203125 277.671875 310.855469 C 268.363281 308.171875 254.597656 306.15625 238.03125 304.828125 C 229.742188 304.171875 220.738281 303.730469 211.214844 303.445312 C 201.6875 303.1875 191.636719 303.175781 181.246094 303.34375 C 170.855469 303.519531 160.128906 304.042969 149.261719 304.800781 C 138.398438 305.59375 127.382812 306.726562 116.527344 308.554688 C 111.101562 309.453125 105.703125 310.519531 100.507812 311.96875 C 97.917969 312.699219 95.367188 313.53125 93.011719 314.5625 C 91.835938 315.078125 90.710938 315.652344 89.734375 316.292969 C 88.777344 316.921875 87.953125 317.699219 87.722656 318.222656 L 87.652344 318.386719 L 87.632812 318.363281 L 87.613281 318.554688 L 87.605469 318.6875 C 87.605469 318.648438 87.585938 318.953125 87.597656 318.636719 L 87.613281 318.742188 C 87.632812 318.894531 87.742188 319.160156 87.992188 319.484375 C 88.484375 320.136719 89.433594 320.84375 90.441406 321.453125 C 92.503906 322.6875 94.933594 323.648438 97.375 324.484375 C 102.300781 326.132812 107.414062 327.308594 112.464844 328.304688 C 122.597656 330.242188 132.5625 331.523438 142.03125 332.46875 C 151.507812 333.386719 160.5 334.023438 168.8125 334.445312 C 172.96875 334.660156 176.957031 334.796875 180.75 334.929688 C 184.542969 335.066406 188.148438 335.15625 191.527344 335.160156 C 194.910156 335.1875 198.074219 335.214844 201.003906 335.242188 C 203.933594 335.273438 206.628906 335.347656 209.0625 335.257812 C 218.800781 335.101562 224.371094 335.015625 224.371094 335.015625"/></g><g clip-path="url(#c)"><path fill="#FF5050" d="M 187.429688 289.226562 C 168.289062 289.226562 152.71875 273.597656 152.71875 254.382812 C 152.71875 235.171875 168.289062 219.539062 187.429688 219.539062 C 206.574219 219.539062 222.144531 235.171875 222.144531 254.382812 C 222.144531 273.597656 206.574219 289.226562 187.429688 289.226562 Z M 224.375 259.71875 C 224.628906 257.925781 226.804688 256.242188 226.804688 254.382812 C 226.804688 252.523438 224.628906 250.839844 224.375 249.050781 C 224.117188 247.214844 225.726562 244.988281 225.21875 243.246094 C 224.699219 241.476562 222.144531 240.476562 221.386719 238.820312 C 220.625 237.144531 221.542969 234.550781 220.558594 233.015625 C 219.566406 231.472656 216.832031 231.234375 215.636719 229.851562 C 214.441406 228.46875 214.59375 225.71875 213.214844 224.515625 C 211.839844 223.316406 209.148438 223.859375 207.609375 222.867188 C 206.078125 221.878906 205.460938 219.191406 203.789062 218.425781 C 202.140625 217.671875 199.714844 218.953125 197.949219 218.429688 C 196.214844 217.921875 194.863281 215.523438 193.035156 215.261719 C 191.25 215.007812 189.285156 216.921875 187.429688 216.921875 C 185.578125 216.921875 183.609375 215.007812 181.828125 215.261719 C 180 215.523438 178.648438 217.921875 176.914062 218.429688 C 175.148438 218.953125 172.71875 217.671875 171.070312 218.425781 C 169.402344 219.191406 168.78125 221.878906 167.253906 222.867188 C 165.714844 223.859375 163.023438 223.316406 161.648438 224.515625 C 160.269531 225.71875 160.421875 228.46875 159.226562 229.851562 C 158.03125 231.234375 155.296875 231.472656 154.304688 233.015625 C 153.320312 234.550781 154.238281 237.144531 153.476562 238.820312 C 152.71875 240.476562 150.160156 241.476562 149.644531 243.246094 C 149.136719 244.988281 150.746094 247.214844 150.488281 249.050781 C 150.230469 250.839844 148.058594 252.523438 148.058594 254.382812 C 148.058594 256.242188 150.230469 257.925781 150.488281 259.71875 C 150.746094 261.550781 149.136719 263.777344 149.644531 265.519531 C 150.160156 267.292969 152.71875 268.292969 153.476562 269.945312 C 154.238281 271.621094 153.320312 274.214844 154.304688 275.75 C 155.296875 277.296875 158.03125 277.53125 159.226562 278.914062 C 160.421875 280.296875 160.265625 283.050781 161.648438 284.25 C 163.023438 285.449219 165.714844 284.90625 167.253906 285.902344 C 168.78125 286.890625 169.402344 289.574219 171.070312 290.339844 C 172.722656 291.097656 175.148438 289.816406 176.914062 290.335938 C 178.648438 290.84375 180 293.242188 181.828125 293.503906 C 183.609375 293.761719 185.578125 291.84375 187.429688 291.84375 C 189.285156 291.84375 191.25 293.761719 193.035156 293.503906 C 194.863281 293.242188 196.214844 290.84375 197.949219 290.335938 C 199.714844 289.816406 202.140625 291.097656 203.789062 290.339844 C 205.457031 289.574219 206.078125 286.890625 207.609375 285.902344 C 209.148438 284.90625 211.839844 285.449219 213.214844 284.25 C 214.59375 283.050781 214.441406 280.296875 215.636719 278.914062 C 216.832031 277.53125 219.566406 277.296875 220.558594 275.753906 C 221.542969 274.214844 220.625 271.621094 221.386719 269.945312 C 222.144531 268.292969 224.699219 267.292969 225.21875 265.519531 C 225.726562 263.777344 224.117188 261.550781 224.375 259.71875"/></g><path fill="#FF5050" d="M 202.347656 232.664062 L 202.851562 234.367188 L 201.414062 233.335938 L 199.953125 234.339844 L 200.488281 232.644531 L 199.085938 231.566406 L 200.855469 231.550781 L 201.445312 229.875 L 202.003906 231.5625 L 203.773438 231.609375 Z M 201.710938 277.671875 L 201.121094 279.347656 L 200.558594 277.660156 L 198.789062 277.613281 L 200.214844 276.558594 L 199.710938 274.855469 L 201.152344 275.890625 L 202.609375 274.882812 L 202.074219 276.578125 L 203.480469 277.65625 Z M 196.125 230.984375 L 196.800781 233.285156 L 194.859375 231.890625 L 192.890625 233.25 L 193.609375 230.964844 L 191.714844 229.503906 L 194.105469 229.484375 L 194.902344 227.226562 L 195.65625 229.5 L 198.046875 229.5625 Z M 195.363281 279.738281 L 194.566406 282 L 193.808594 279.722656 L 191.421875 279.660156 L 193.34375 278.238281 L 192.664062 275.9375 L 194.609375 277.332031 L 196.578125 275.976562 L 195.855469 278.261719 L 197.75 279.722656 Z M 188.863281 228.5 L 189.664062 231.21875 L 187.367188 229.570312 L 185.039062 231.175781 L 185.890625 228.472656 L 183.648438 226.746094 L 186.472656 226.722656 L 187.417969 224.050781 L 188.3125 226.742188 L 191.136719 226.816406 Z M 188.015625 282.5 L 187.074219 285.171875 L 186.179688 282.484375 L 183.355469 282.40625 L 185.628906 280.722656 L 184.828125 278.003906 L 187.125 279.652344 L 189.453125 278.050781 L 188.597656 280.75 L 190.839844 282.476562 Z M 181.148438 230.984375 L 181.828125 233.285156 L 179.882812 231.890625 L 177.914062 233.25 L 178.636719 230.964844 L 176.738281 229.503906 L 179.128906 229.484375 L 179.925781 227.226562 L 180.683594 229.5 L 183.070312 229.5625 Z M 180.386719 279.738281 L 179.589844 282 L 178.835938 279.722656 L 176.445312 279.660156 L 178.367188 278.238281 L 177.691406 275.9375 L 179.632812 277.332031 L 181.601562 275.976562 L 180.878906 278.261719 L 182.777344 279.722656 Z M 174.277344 232.664062 L 174.78125 234.367188 L 173.339844 233.335938 L 171.878906 234.339844 L 172.414062 232.644531 L 171.011719 231.566406 L 172.78125 231.550781 L 173.371094 229.875 L 173.929688 231.5625 L 175.703125 231.609375 Z M 173.636719 277.671875 L 173.046875 279.347656 L 172.488281 277.660156 L 170.71875 277.613281 L 172.140625 276.558594 L 171.636719 274.855469 L 173.078125 275.890625 L 174.539062 274.882812 L 174.003906 276.578125 L 175.40625 277.65625 Z M 187.429688 221 C 169.09375 221 154.171875 235.976562 154.171875 254.382812 C 154.171875 272.789062 169.09375 287.765625 187.429688 287.765625 C 205.769531 287.765625 220.6875 272.789062 220.6875 254.382812 C 220.6875 235.976562 205.769531 221 187.429688 221"/></svg>