<svg width="200" height="375" xmlns="http://www.w3.org/2000/svg" xmlns:xlink="http://www.w3.org/1999/xlink" overflow="hidden"><defs><clipPath id="clip0"><rect x="98" y="36" width="200" height="375"/></clipPath><clipPath id="clip1"><rect x="107" y="72" width="187" height="339"/></clipPath></defs><g clip-path="url(#clip0)" transform="translate(-98 -36)"><g clip-path="url(#clip1)"><path d="M273.629 46.3398C272.934 43.043 272.574 41.3867 271.832 38.0898 271.602 37.0312 270.66 36.2734 269.574 36.2734L105.16 36.2734C104.074 36.2734 103.141 37.0234 102.898 38.0781 102.16 41.3867 101.801 43.0352 101.094 46.3672 92.293 89.9531 92.2383 138.355 100.93 175.824 101.754 179.391 102.605 182.984 103.457 186.586 109.5 212.242 115.746 238.766 117.07 264.145 118.367 289.141 114.84 311.879 111.109 335.949 110.102 342.469 109.055 349.211 108.082 356.121 107.5 360.297 108.961 364.75 112.09 368.363 115.609 372.41 120.688 374.82 125.676 374.82L249.039 374.82C254.035 374.82 259.117 372.402 262.625 368.363 265.762 364.762 267.227 360.297 266.633 356.121 265.66 349.211 264.613 342.469 263.605 335.949 259.875 311.879 256.352 289.141 257.645 264.145 258.848 241.055 264.41 216.871 269.789 193.496 271.129 187.672 272.508 181.652 273.797 175.797 282.754 134.898 282.68 86.5078 273.629 46.3398ZM269.289 174.809C268.012 180.633 266.633 186.645 265.301 192.449 259.875 216.02 254.27 240.398 253.047 263.895 251.723 289.363 255.285 312.332 259.051 336.645 260.062 343.145 261.105 349.879 262.07 356.75 262.469 359.594 261.402 362.715 259.145 365.309 256.5 368.355 252.723 370.168 249.047 370.168L125.676 370.168C122.004 370.168 118.227 368.355 115.578 365.309 113.32 362.715 112.258 359.594 112.656 356.75 113.617 349.879 114.664 343.145 115.672 336.645 119.438 312.332 123.004 289.363 121.68 263.895 120.336 238.109 114.043 211.371 107.945 185.512 107.094 181.91 106.25 178.328 105.426 174.77 96.875 137.91 96.9492 90.25 105.621 47.3047 106.176 44.6719 106.52 43.0977 107.008 40.9023L267.715 40.9023C268.207 43.1094 268.539 44.6836 269.105 47.3047 269.105 47.3125 269.105 47.3203 269.113 47.332 278.027 86.8867 278.09 134.539 269.289 174.809Z" fill="#D9D9D9" transform="matrix(1.00001 0 0 1 12.897 36)"/></g><path d="M267.816 120.406C267.309 138.648 265.273 156.699 261.68 173.141 260.414 178.945 259.062 184.82 257.703 190.719 252.203 214.613 246.52 239.324 245.273 263.496 244.152 285.086 246.391 304.699 249.352 324.715 250.297 331.094 245.375 336.828 238.934 336.828L135.793 336.828C129.352 336.828 124.426 331.094 125.371 324.715 128.332 304.691 130.574 285.074 129.453 263.496 128.082 237 121.699 209.91 115.523 183.715 114.684 180.133 113.84 176.566 113.016 173.02 109.332 157.137 107.324 139.148 106.945 120.406 106.832 114.848 106.844 109.227 107.02 103.559L119.262 103.559 119.262 147.578C119.262 151.34 122.336 154.414 126.094 154.414 129.852 154.414 132.926 151.34 132.926 147.578L132.926 103.559 140.273 103.559 140.273 192.246C140.273 196.293 143.578 199.602 147.621 199.602 151.664 199.602 154.969 196.293 154.969 192.246L154.969 103.559 267.871 103.559C268.004 109.172 267.973 114.801 267.816 120.406Z" fill="#FFCC00" transform="matrix(1.00001 0 0 1 12.897 36)"/><path d="M113.949 36.2812C113.848 35.4414 113.793 34.5859 113.793 33.7188 113.793 20.9922 124.105 10.6836 136.812 10.6836 140.125 10.6836 143.27 11.3984 146.121 12.6641 147.816 8.52734 151.867 5.60938 156.609 5.60938 159.57 5.60938 162.234 6.76562 164.262 8.62891 166.242 6.375 169.121 4.93359 172.352 4.93359 175.117 4.93359 177.609 5.99609 179.523 7.70312 183.086 3.125 188.629 0.179688 194.867 0.179688 201.336 0.179688 207.059 3.35938 210.602 8.21875 212.953 6.39453 215.867 5.25781 219.07 5.25781 224.715 5.25781 229.555 8.64453 231.723 13.4883 233.52 12.7773 235.469 12.3711 237.516 12.3711 244.41 12.3711 250.262 16.8164 252.391 22.9922 252.785 22.9453 253.184 22.8711 253.602 22.8711 259.773 22.8711 264.773 27.8711 264.773 34.0508 264.773 34.8203 264.68 35.5586 264.523 36.2734L113.949 36.2734ZM261.488 48.9258C261.469 48.8516 261.457 48.7773 261.441 48.7031L113.285 48.7031C113.273 48.75 113.266 48.793 113.258 48.8398 109.656 66.6602 107.594 85.2852 107.02 103.566L119.262 103.566 119.262 147.586C119.262 151.348 122.336 154.422 126.094 154.422 129.852 154.422 132.922 151.348 132.922 147.586L132.922 103.566 140.273 103.566 140.273 192.254C140.273 196.305 143.578 199.609 147.621 199.609 151.664 199.609 154.969 196.305 154.969 192.254L154.969 103.566 267.871 103.566C267.418 84.5547 265.289 65.8008 261.488 48.9258Z" fill="#F9F2CC" transform="matrix(1.00001 0 0 1 12.897 36)"/></g></svg>