<svg width="375" height="223" xmlns="http://www.w3.org/2000/svg" xmlns:xlink="http://www.w3.org/1999/xlink" overflow="hidden"><defs><clipPath id="clip0"><rect x="513" y="158" width="375" height="223"/></clipPath><clipPath id="clip1"><rect x="520" y="166" width="368" height="155"/></clipPath><clipPath id="clip2"><rect x="513" y="166" width="375" height="200"/></clipPath><clipPath id="clip3"><rect x="635" y="166" width="14" height="26"/></clipPath><clipPath id="clip4"><rect x="635" y="338" width="14" height="28"/></clipPath><clipPath id="clip5"><rect x="634" y="169" width="205" height="194"/></clipPath><clipPath id="clip6"><rect x="614" y="169" width="21" height="194"/></clipPath></defs><g clip-path="url(#clip0)" transform="translate(-513 -158)"><g clip-path="url(#clip1)"><path d="M314.465-28.6992 297.27-58.4883C296.895-59.1406 296.457-59.75 295.961-60.3164 295.465-60.8828 294.918-61.3945 294.32-61.8555 293.727-62.3125 293.09-62.707 292.414-63.043 291.738-63.375 291.039-63.6367 290.309-63.832 289.582-64.0273 288.844-64.1484 288.094-64.1992 287.344-64.25 286.594-64.2227 285.848-64.125 285.102-64.0273 284.371-63.8555 283.66-63.6172 282.945-63.375 282.262-63.0625 281.613-62.6875L13.5664 92.1211C12.9141 92.5 12.3047 92.9336 11.7383 93.4297 11.1719 93.9297 10.6602 94.4766 10.2031 95.0703 9.74609 95.668 9.35156 96.3047 9.01562 96.9805 8.68359 97.6562 8.42188 98.3594 8.22656 99.0859 8.03125 99.8125 7.91016 100.551 7.85938 101.305 7.80859 102.055 7.83594 102.805 7.93359 103.551 8.03125 104.297 8.19922 105.027 8.44141 105.738 8.68359 106.453 8.99219 107.133 9.37109 107.785L26.5664 137.578C27.7852 136.875 29.0352 136.23 30.3164 135.648 31.6016 135.066 32.9102 134.551 34.2422 134.098 35.5742 133.645 36.9258 133.258 38.2969 132.938 39.6719 132.617 41.0547 132.363 42.4492 132.18 43.8477 131.996 45.2461 131.879 46.6562 131.836 48.0625 131.789 49.4688 131.809 50.875 131.902 52.2812 131.992 53.6758 132.156 55.0664 132.383 56.457 132.613 57.832 132.91 59.1914 133.273 60.5508 133.637 61.8906 134.07 63.207 134.566 64.5273 135.059 65.8164 135.621 67.0781 136.242 68.3438 136.867 69.5742 137.551 70.7695 138.293 71.9648 139.035 73.1211 139.836 74.2383 140.695 75.3555 141.551 76.4297 142.461 77.457 143.426 78.4844 144.387 79.4609 145.398 80.3906 146.457 81.3203 147.516 82.1953 148.617 83.0156 149.766 83.8359 150.91 84.5977 152.09 85.3008 153.312 86.0039 154.531 86.6484 155.781 87.2266 157.066 87.8086 158.348 88.3281 159.656 88.7773 160.992 89.2305 162.324 89.6172 163.68 89.9375 165.051 90.2578 166.422 90.5078 167.805 90.6914 169.203 90.875 170.602 90.9922 172.004 91.0352 173.41 91.082 174.816 91.0586 176.227 90.9688 177.629 90.875 179.035 90.7148 180.434 90.4844 181.824 90.2539 183.215 89.957 184.59 89.5938 185.949 89.2305 187.309 88.7969 188.648 88.3008 189.969 87.8047 191.285 87.2461 192.578 86.6211 193.84 86 195.102 85.3164 196.332 84.5703 197.527 83.8281 198.727 83.0273 199.883 82.1719 201 81.3125 202.117 80.4023 203.188 79.4375 204.219 78.4766 205.246 77.4648 206.223 76.4062 207.152 75.3477 208.078 74.2461 208.953 73.1016 209.773 71.957 210.594 70.7734 211.355 69.5547 212.062L83.8789 236.883C84.1602 237.371 84.4648 237.844 84.793 238.301 85.1211 238.762 85.4727 239.199 85.8438 239.625 86.2148 240.047 86.6055 240.453 87.0156 240.836 87.4297 241.223 87.8555 241.586 88.3047 241.93 88.75 242.273 89.2148 242.594 89.6914 242.891 90.168 243.188 90.6602 243.461 91.168 243.711 91.6719 243.957 92.1875 244.184 92.7148 244.383 93.2422 244.578 93.7773 244.75 94.3203 244.898 94.8672 245.043 95.4141 245.16 95.9727 245.254 96.5273 245.344 97.0859 245.41 97.6484 245.445 98.2109 245.484 98.7734 245.492 99.3359 245.473 99.8984 245.457 100.457 245.41 101.016 245.336 101.574 245.262 102.129 245.16 102.676 245.035 103.227 244.906 103.766 244.75 104.301 244.57 104.832 244.391 105.355 244.184 105.867 243.949 106.383 243.719 106.883 243.461 107.371 243.18L365.488 94.1094C365.977 93.8242 366.449 93.5195 366.906 93.1914 367.367 92.8633 367.805 92.5156 368.23 92.1445 368.652 91.7734 369.059 91.3828 369.441 90.9688 369.828 90.5586 370.191 90.1289 370.535 89.6836 370.875 89.2344 371.195 88.7734 371.492 88.293 371.793 87.8164 372.066 87.3242 372.312 86.8203 372.562 86.3125 372.785 85.7969 372.984 85.2695 373.184 84.7422 373.355 84.207 373.5 83.6641 373.648 83.1211 373.766 82.5703 373.859 82.0117 373.949 81.457 374.012 80.8984 374.051 80.3359 374.086 79.7734 374.098 79.2109 374.078 78.6484 374.059 78.0859 374.016 77.5234 373.941 76.9648 373.867 76.4062 373.766 75.8555 373.637 75.3047 373.512 74.7578 373.355 74.2148 373.176 73.6836 372.992 73.1484 372.785 72.625 372.555 72.1133 372.32 71.6016 372.066 71.0977 371.785 70.6133L357.453 45.7852C356.234 46.4883 354.984 47.1289 353.703 47.7109 352.418 48.293 351.109 48.8086 349.777 49.2617 348.445 49.7148 347.094 50.1016 345.723 50.4219 344.352 50.7422 342.969 50.9922 341.57 51.1758 340.176 51.3594 338.773 51.4766 337.367 51.5234 335.961 51.5664 334.555 51.543 333.148 51.4531 331.742 51.3594 330.348 51.1992 328.957 50.9688 327.57 50.7422 326.195 50.4453 324.836 50.0781 323.473 49.7148 322.137 49.2852 320.816 48.7891 319.5 48.293 318.211 47.7344 316.945 47.1094 315.684 46.4883 314.457 45.8047 313.262 45.0586 312.062 44.3164 310.906 43.5156 309.789 42.6602 308.676 41.8008 307.602 40.8906 306.574 39.9297 305.547 38.9648 304.57 37.9531 303.641 36.8945 302.711 35.8359 301.84 34.7344 301.02 33.5898 300.199 32.4453 299.438 31.2617 298.73 30.043 298.027 28.8242 297.387 27.5742 296.805 26.2891 296.223 25.0078 295.707 23.6992 295.254 22.3672 294.801 21.0312 294.414 19.6797 294.094 18.3086 293.777 16.9375 293.523 15.5508 293.34 14.1562 293.156 12.7578 293.043 11.3594 292.996 9.94922 292.949 8.54297 292.973 7.13672 293.066 5.73047 293.156 4.32422 293.316 2.92969 293.547 1.53906 293.777 0.148438 294.074-1.22656 294.438-2.58594 294.801-3.94531 295.23-5.28516 295.727-6.60547 296.223-7.92188 296.781-9.21484 297.406-10.4766 298.027-11.7383 298.711-12.9688 299.453-14.1641 300.199-15.3594 301-16.5156 301.855-17.6328 302.715-18.75 303.621-19.8242 304.586-20.8516 305.547-21.8789 306.559-22.8594 307.617-23.7891 308.676-24.7148 309.777-25.5898 310.922-26.4102 312.066-27.2305 313.246-27.9922 314.465-28.6992Z" fill="#404040" transform="matrix(1 0 0 1.00269 513 74.2739)"/></g><g clip-path="url(#clip2)"><path d="M374.133 142.305 374.133 103.602C374.133 102.754 374.051 101.914 373.887 101.086 373.719 100.254 373.477 99.4492 373.152 98.6641 372.828 97.8828 372.43 97.1406 371.961 96.4336 371.488 95.7305 370.953 95.0781 370.355 94.4805 369.758 93.8789 369.105 93.3477 368.402 92.875 367.699 92.4062 366.953 92.0078 366.172 91.6836 365.391 91.3594 364.582 91.1133 363.754 90.9492 362.922 90.7852 362.082 90.6992 361.238 90.6992L13.0312 90.6992C12.1836 90.6992 11.3438 90.7852 10.5117 90.9492 9.68359 91.1133 8.875 91.3594 8.09375 91.6836 7.3125 92.0078 6.57031 92.4062 5.86328 92.875 5.16016 93.3477 4.50781 93.8789 3.91016 94.4805 3.3125 95.0781 2.77734 95.7305 2.30469 96.4336 1.83594 97.1406 1.4375 97.8828 1.11328 98.6641 0.789062 99.4492 0.546875 100.254 0.378906 101.086 0.214844 101.914 0.132812 102.754 0.132812 103.602L0.132812 142.305C1.71484 142.305 3.29688 142.383 4.875 142.539 6.44922 142.691 8.01562 142.926 9.56641 143.234 11.1211 143.543 12.6562 143.926 14.1719 144.387 15.6875 144.848 17.1758 145.379 18.6406 145.988 20.1055 146.594 21.5352 147.27 22.9297 148.016 24.3281 148.762 25.6836 149.578 27 150.457 28.3203 151.336 29.5898 152.281 30.8125 153.285 32.0391 154.289 33.2109 155.355 34.3281 156.473 35.4492 157.594 36.5117 158.766 37.5156 159.992 38.5234 161.215 39.4648 162.488 40.3438 163.805 41.2227 165.121 42.0391 166.48 42.7852 167.879 43.5312 169.273 44.207 170.703 44.8125 172.168 45.418 173.633 45.9531 175.121 46.4141 176.641 46.8711 178.156 47.2578 179.691 47.5664 181.246 47.875 182.797 48.1055 184.363 48.2617 185.941 48.418 187.516 48.4961 189.098 48.4961 190.684 48.4961 192.266 48.418 193.848 48.2617 195.426 48.1055 197 47.875 198.566 47.5664 200.121 47.2578 201.676 46.8711 203.211 46.4141 204.727 45.9531 206.242 45.418 207.73 44.8125 209.195 44.207 210.66 43.5312 212.09 42.7852 213.488 42.0391 214.887 41.2227 216.242 40.3438 217.559 39.4648 218.879 38.5234 220.148 37.5156 221.371 36.5117 222.598 35.4492 223.77 34.3281 224.891 33.2109 226.012 32.0391 227.074 30.8125 228.078 29.5898 229.086 28.3203 230.027 27 230.906 25.6836 231.789 24.3281 232.602 22.9297 233.348 21.5352 234.094 20.1055 234.77 18.6406 235.379 17.1758 235.984 15.6875 236.516 14.1719 236.977 12.6562 237.438 11.1211 237.82 9.56641 238.129 8.01562 238.441 6.44922 238.672 4.875 238.828 3.29688 238.984 1.71484 239.059 0.132812 239.059L0.132812 271.312C0.132812 271.945 0.164062 272.578 0.226562 273.211 0.289062 273.84 0.382812 274.465 0.503906 275.086 0.628906 275.711 0.78125 276.324 0.964844 276.93 1.14844 277.535 1.36328 278.133 1.60547 278.719 1.84766 279.305 2.11719 279.875 2.41797 280.434 2.71484 280.992 3.04297 281.535 3.39453 282.062 3.74609 282.59 4.12109 283.098 4.52344 283.59 4.92578 284.078 5.35156 284.547 5.80078 284.996 6.24609 285.445 6.71484 285.867 7.20703 286.27 7.69531 286.672 8.20312 287.051 8.73047 287.402 9.25781 287.754 9.80078 288.078 10.3594 288.379 10.918 288.676 11.4883 288.949 12.0742 289.191 12.6602 289.434 13.2578 289.645 13.8633 289.832 14.4688 290.016 15.082 290.168 15.7031 290.293 16.3242 290.414 16.9492 290.508 17.582 290.57 18.2109 290.633 18.8438 290.664 19.4766 290.664L354.789 290.664C355.422 290.664 356.055 290.633 356.684 290.57 357.316 290.508 357.941 290.414 358.562 290.293 359.184 290.168 359.797 290.016 360.402 289.832 361.012 289.645 361.605 289.434 362.191 289.191 362.777 288.949 363.348 288.676 363.906 288.379 364.465 288.078 365.008 287.754 365.535 287.402 366.062 287.051 366.57 286.672 367.062 286.27 367.551 285.867 368.02 285.445 368.469 284.996 368.914 284.547 369.34 284.078 369.742 283.59 370.145 283.098 370.52 282.59 370.871 282.062 371.227 281.535 371.551 280.992 371.848 280.434 372.148 279.875 372.418 279.305 372.66 278.719 372.902 278.133 373.117 277.535 373.301 276.93 373.484 276.324 373.637 275.711 373.762 275.086 373.887 274.465 373.977 273.84 374.039 273.211 374.102 272.578 374.133 271.945 374.133 271.312L374.133 239.059C372.551 239.059 370.969 238.984 369.395 238.828 367.816 238.672 366.25 238.441 364.699 238.129 363.145 237.82 361.609 237.438 360.094 236.977 358.578 236.516 357.09 235.984 355.625 235.379 354.164 234.77 352.73 234.094 351.336 233.348 349.938 232.602 348.582 231.789 347.266 230.906 345.949 230.027 344.676 229.086 343.453 228.078 342.227 227.074 341.055 226.012 339.938 224.891 338.816 223.77 337.754 222.598 336.75 221.371 335.742 220.148 334.801 218.879 333.922 217.559 333.043 216.242 332.227 214.887 331.48 213.488 330.734 212.09 330.059 210.66 329.453 209.195 328.848 207.73 328.312 206.242 327.852 204.727 327.395 203.211 327.008 201.676 326.699 200.121 326.391 198.566 326.16 197 326.004 195.426 325.848 193.848 325.77 192.266 325.77 190.684 325.77 189.098 325.848 187.516 326.004 185.941 326.16 184.363 326.391 182.797 326.699 181.246 327.008 179.691 327.395 178.156 327.852 176.641 328.312 175.121 328.848 173.633 329.453 172.168 330.059 170.703 330.734 169.273 331.48 167.879 332.227 166.48 333.043 165.121 333.922 163.805 334.801 162.488 335.742 161.215 336.75 159.992 337.754 158.766 338.816 157.594 339.938 156.473 341.055 155.355 342.227 154.289 343.453 153.285 344.676 152.281 345.949 151.336 347.266 150.457 348.582 149.578 349.938 148.762 351.336 148.016 352.73 147.27 354.164 146.594 355.625 145.988 357.09 145.379 358.578 144.848 360.094 144.387 361.609 143.926 363.145 143.543 364.699 143.234 366.25 142.926 367.816 142.691 369.395 142.539 370.969 142.383 372.551 142.305 374.133 142.305Z" fill="#404040" transform="matrix(1 0 0 1.00269 513 74.2739)"/></g><path d="M219.375 155.207C219.375 155.84 219.344 156.473 219.281 157.102 219.219 157.734 219.125 158.359 219.004 158.98 218.879 159.602 218.727 160.215 218.543 160.824 218.359 161.43 218.145 162.023 217.902 162.609 217.66 163.195 217.391 163.77 217.09 164.328 216.793 164.887 216.465 165.43 216.113 165.957 215.762 166.484 215.387 166.992 214.984 167.48 214.582 167.973 214.156 168.441 213.707 168.887 213.262 169.336 212.793 169.762 212.301 170.164 211.812 170.566 211.305 170.941 210.777 171.297 210.25 171.648 209.707 171.973 209.148 172.27 208.59 172.57 208.02 172.84 207.434 173.082 206.848 173.324 206.25 173.539 205.645 173.723 205.039 173.906 204.426 174.062 203.805 174.184 203.184 174.309 202.555 174.402 201.926 174.465 201.297 174.523 200.664 174.555 200.031 174.555 199.395 174.555 198.766 174.523 198.133 174.465 197.504 174.402 196.879 174.309 196.254 174.184 195.633 174.062 195.02 173.906 194.414 173.723 193.809 173.539 193.211 173.324 192.625 173.082 192.043 172.84 191.469 172.57 190.91 172.27 190.352 171.973 189.809 171.648 189.281 171.297 188.754 170.941 188.246 170.566 187.758 170.164 187.266 169.762 186.797 169.336 186.352 168.887 185.902 168.441 185.477 167.973 185.074 167.48 184.676 166.992 184.297 166.484 183.945 165.957 183.594 165.43 183.27 164.887 182.969 164.328 182.672 163.77 182.398 163.195 182.156 162.609 181.914 162.023 181.703 161.43 181.52 160.824 181.332 160.215 181.18 159.602 181.055 158.98 180.934 158.359 180.84 157.734 180.777 157.102 180.715 156.473 180.684 155.84 180.684 155.207 180.684 154.57 180.715 153.938 180.777 153.309 180.84 152.676 180.934 152.051 181.055 151.43 181.18 150.809 181.332 150.195 181.52 149.586 181.703 148.98 181.914 148.387 182.156 147.801 182.398 147.215 182.672 146.641 182.969 146.082 183.27 145.523 183.594 144.98 183.945 144.453 184.297 143.926 184.676 143.418 185.074 142.93 185.477 142.438 185.902 141.969 186.352 141.523 186.797 141.074 187.266 140.648 187.758 140.246 188.246 139.844 188.754 139.469 189.281 139.113 189.809 138.762 190.352 138.438 190.91 138.141 191.469 137.84 192.043 137.57 192.625 137.328 193.211 137.086 193.809 136.871 194.414 136.688 195.02 136.504 195.633 136.348 196.254 136.227 196.879 136.102 197.504 136.008 198.133 135.945 198.766 135.887 199.395 135.855 200.031 135.855 200.664 135.855 201.297 135.887 201.926 135.945 202.555 136.008 203.184 136.102 203.805 136.227 204.426 136.348 205.039 136.504 205.645 136.688 206.25 136.871 206.848 137.086 207.434 137.328 208.02 137.57 208.59 137.84 209.148 138.141 209.707 138.438 210.25 138.762 210.777 139.113 211.305 139.469 211.812 139.844 212.301 140.246 212.793 140.648 213.262 141.074 213.707 141.523 214.156 141.969 214.582 142.438 214.984 142.93 215.387 143.418 215.762 143.926 216.113 144.453 216.465 144.98 216.793 145.523 217.09 146.082 217.391 146.641 217.66 147.215 217.902 147.801 218.145 148.387 218.359 148.98 218.543 149.586 218.727 150.195 218.879 150.809 219.004 151.43 219.125 152.051 219.219 152.676 219.281 153.309 219.344 153.938 219.375 154.57 219.375 155.207Z" fill="#404040" transform="matrix(1 0 0 1.00269 513 74.2739)"/><path d="M296.754 232.609C296.754 233.242 296.723 233.875 296.66 234.508 296.598 235.137 296.504 235.762 296.383 236.387 296.258 237.008 296.105 237.621 295.922 238.227 295.738 238.832 295.523 239.43 295.281 240.016 295.039 240.602 294.77 241.172 294.469 241.73 294.172 242.289 293.844 242.832 293.492 243.359 293.141 243.887 292.766 244.395 292.363 244.887 291.961 245.375 291.535 245.844 291.086 246.293 290.641 246.742 290.172 247.168 289.68 247.57 289.191 247.969 288.684 248.348 288.156 248.699 287.629 249.051 287.086 249.379 286.527 249.676 285.969 249.977 285.398 250.246 284.812 250.488 284.227 250.73 283.629 250.945 283.023 251.129 282.418 251.312 281.805 251.465 281.184 251.59 280.562 251.715 279.938 251.805 279.305 251.867 278.676 251.93 278.043 251.961 277.41 251.961 276.777 251.961 276.145 251.93 275.512 251.867 274.883 251.805 274.258 251.715 273.637 251.59 273.012 251.465 272.398 251.312 271.793 251.129 271.188 250.945 270.59 250.73 270.008 250.488 269.422 250.246 268.848 249.977 268.289 249.676 267.73 249.379 267.188 249.051 266.66 248.699 266.133 248.348 265.625 247.969 265.137 247.57 264.648 247.168 264.18 246.742 263.73 246.293 263.281 245.844 262.855 245.375 262.457 244.887 262.055 244.395 261.676 243.887 261.324 243.359 260.973 242.832 260.648 242.289 260.348 241.73 260.051 241.172 259.777 240.602 259.535 240.016 259.293 239.43 259.082 238.832 258.898 238.227 258.715 237.621 258.559 237.008 258.438 236.387 258.312 235.762 258.219 235.137 258.156 234.508 258.094 233.875 258.062 233.242 258.062 232.609 258.062 231.977 258.094 231.344 258.156 230.715 258.219 230.082 258.312 229.457 258.438 228.836 258.559 228.215 258.715 227.598 258.898 226.992 259.082 226.387 259.293 225.789 259.535 225.203 259.777 224.617 260.051 224.047 260.348 223.488 260.648 222.93 260.973 222.387 261.324 221.859 261.676 221.332 262.055 220.824 262.457 220.332 262.855 219.844 263.281 219.375 263.73 218.926 264.18 218.477 264.648 218.055 265.137 217.652 265.625 217.25 266.133 216.871 266.66 216.52 267.188 216.168 267.73 215.844 268.289 215.543 268.848 215.246 269.422 214.973 270.008 214.73 270.59 214.488 271.188 214.277 271.793 214.094 272.398 213.906 273.012 213.754 273.637 213.629 274.258 213.508 274.883 213.414 275.512 213.352 276.145 213.289 276.777 213.258 277.41 213.258 278.043 213.258 278.676 213.289 279.305 213.352 279.938 213.414 280.562 213.508 281.184 213.629 281.805 213.754 282.418 213.906 283.023 214.094 283.629 214.277 284.227 214.488 284.812 214.73 285.398 214.973 285.969 215.246 286.527 215.543 287.086 215.844 287.629 216.168 288.156 216.52 288.684 216.871 289.191 217.25 289.68 217.652 290.172 218.055 290.641 218.477 291.086 218.926 291.535 219.375 291.961 219.844 292.363 220.332 292.766 220.824 293.141 221.332 293.492 221.859 293.844 222.387 294.172 222.93 294.469 223.488 294.77 224.047 295.039 224.617 295.281 225.203 295.523 225.789 295.738 226.387 295.922 226.992 296.105 227.598 296.258 228.215 296.383 228.836 296.504 229.457 296.598 230.082 296.66 230.715 296.723 231.344 296.754 231.977 296.754 232.609Z" fill="#404040" transform="matrix(1 0 0 1.00269 513 74.2739)"/><path d="M190.355 242.285C189.723 241.652 189.156 240.961 188.66 240.215 188.164 239.469 187.742 238.684 187.402 237.855 187.059 237.023 186.805 236.172 186.629 235.293 186.457 234.41 186.371 233.523 186.375 232.625 186.379 231.73 186.469 230.844 186.645 229.965 186.824 229.086 187.086 228.234 187.434 227.406 187.781 226.578 188.203 225.793 188.707 225.051 189.207 224.309 189.777 223.621 190.414 222.992L268.293 146.086C268.895 145.5 269.547 144.98 270.25 144.52 270.953 144.062 271.691 143.68 272.473 143.367 273.25 143.055 274.051 142.82 274.875 142.664 275.699 142.508 276.531 142.434 277.371 142.438 278.211 142.445 279.039 142.531 279.863 142.699 280.684 142.867 281.48 143.113 282.254 143.438 283.027 143.762 283.766 144.156 284.461 144.625 285.156 145.094 285.801 145.625 286.395 146.215 286.988 146.809 287.52 147.457 287.984 148.152 288.453 148.848 288.848 149.586 289.172 150.359 289.496 151.133 289.742 151.93 289.91 152.754 290.078 153.574 290.168 154.406 290.172 155.246 290.18 156.082 290.102 156.914 289.949 157.738 289.793 158.566 289.559 159.367 289.246 160.145 288.934 160.922 288.547 161.664 288.09 162.367 287.633 163.07 287.113 163.727 286.527 164.328L209.645 242.227C209.016 242.867 208.328 243.438 207.586 243.938 206.844 244.441 206.059 244.863 205.23 245.211 204.406 245.559 203.555 245.82 202.676 246 201.797 246.176 200.91 246.266 200.012 246.27 199.117 246.273 198.23 246.188 197.348 246.016 196.469 245.84 195.617 245.582 194.789 245.242 193.957 244.898 193.172 244.48 192.426 243.984 191.68 243.484 190.992 242.918 190.355 242.285Z" fill="#404040" transform="matrix(1 0 0 1.00269 513 74.2739)"/><g clip-path="url(#clip3)"><path d="M129.098 116.504C129.523 116.504 129.941 116.461 130.355 116.379 130.773 116.297 131.176 116.172 131.566 116.012 131.957 115.848 132.328 115.652 132.68 115.414 133.031 115.18 133.359 114.914 133.656 114.613 133.957 114.312 134.227 113.988 134.461 113.637 134.695 113.285 134.895 112.91 135.055 112.52 135.219 112.129 135.34 111.727 135.422 111.312 135.504 110.895 135.547 110.477 135.547 110.051L135.547 90.6992 122.648 90.6992 122.648 110.051C122.648 110.477 122.691 110.895 122.773 111.312 122.855 111.727 122.98 112.129 123.141 112.52 123.305 112.91 123.5 113.285 123.738 113.637 123.973 113.988 124.238 114.312 124.539 114.613 124.84 114.914 125.164 115.18 125.516 115.414 125.867 115.652 126.238 115.848 126.629 116.012 127.023 116.172 127.426 116.297 127.84 116.379 128.254 116.461 128.676 116.504 129.098 116.504Z" fill="#404040" transform="matrix(1 0 0 1.00269 513 74.2739)"/></g><path d="M129.098 181.008C129.523 181.008 129.941 180.965 130.355 180.883 130.773 180.801 131.176 180.68 131.566 180.516 131.957 180.355 132.328 180.156 132.68 179.918 133.031 179.684 133.359 179.418 133.656 179.117 133.957 178.816 134.227 178.492 134.461 178.141 134.695 177.789 134.895 177.418 135.055 177.023 135.219 176.633 135.34 176.23 135.422 175.816 135.504 175.398 135.547 174.98 135.547 174.555L135.547 142.305C135.547 141.879 135.504 141.461 135.422 141.047 135.34 140.629 135.219 140.227 135.055 139.836 134.895 139.445 134.695 139.074 134.461 138.719 134.227 138.367 133.957 138.043 133.656 137.742 133.359 137.445 133.031 137.176 132.68 136.941 132.328 136.707 131.957 136.508 131.566 136.344 131.176 136.184 130.773 136.059 130.355 135.977 129.941 135.895 129.523 135.855 129.098 135.855 128.676 135.855 128.254 135.895 127.84 135.977 127.426 136.059 127.023 136.184 126.629 136.344 126.238 136.508 125.867 136.707 125.516 136.941 125.164 137.176 124.84 137.445 124.539 137.742 124.238 138.043 123.973 138.367 123.738 138.719 123.5 139.074 123.305 139.445 123.141 139.836 122.98 140.227 122.855 140.629 122.773 141.047 122.691 141.461 122.648 141.879 122.648 142.305L122.648 174.555C122.648 174.98 122.691 175.398 122.773 175.816 122.855 176.23 122.98 176.633 123.141 177.023 123.305 177.418 123.5 177.789 123.738 178.141 123.973 178.492 124.238 178.816 124.539 179.117 124.84 179.418 125.164 179.684 125.516 179.918 125.867 180.156 126.238 180.355 126.629 180.516 127.023 180.68 127.426 180.801 127.84 180.883 128.254 180.965 128.676 181.008 129.098 181.008Z" fill="#404040" transform="matrix(1 0 0 1.00269 513 74.2739)"/><path d="M129.098 245.512C129.523 245.512 129.941 245.469 130.355 245.387 130.773 245.305 131.176 245.184 131.566 245.02 131.957 244.859 132.328 244.66 132.68 244.422 133.031 244.188 133.359 243.922 133.656 243.621 133.957 243.32 134.227 242.996 134.461 242.645 134.695 242.293 134.895 241.922 135.055 241.527 135.219 241.137 135.34 240.734 135.422 240.32 135.504 239.902 135.547 239.484 135.547 239.059L135.547 206.809C135.547 206.387 135.504 205.965 135.422 205.551 135.34 205.133 135.219 204.73 135.055 204.34 134.895 203.949 134.695 203.578 134.461 203.227 134.227 202.871 133.957 202.547 133.656 202.246 133.359 201.949 133.031 201.68 132.68 201.445 132.328 201.211 131.957 201.012 131.566 200.848 131.176 200.688 130.773 200.566 130.355 200.48 129.941 200.398 129.523 200.359 129.098 200.359 128.676 200.359 128.254 200.398 127.84 200.48 127.426 200.566 127.023 200.688 126.629 200.848 126.238 201.012 125.867 201.211 125.516 201.445 125.164 201.68 124.84 201.949 124.539 202.246 124.238 202.547 123.973 202.871 123.738 203.227 123.5 203.578 123.305 203.949 123.141 204.34 122.98 204.73 122.855 205.133 122.773 205.551 122.691 205.965 122.648 206.387 122.648 206.809L122.648 239.059C122.648 239.484 122.691 239.902 122.773 240.32 122.855 240.734 122.98 241.137 123.141 241.527 123.305 241.922 123.5 242.293 123.738 242.645 123.973 242.996 124.238 243.32 124.539 243.621 124.84 243.922 125.164 244.188 125.516 244.422 125.867 244.66 126.238 244.859 126.629 245.02 127.023 245.184 127.426 245.305 127.84 245.387 128.254 245.469 128.676 245.512 129.098 245.512Z" fill="#404040" transform="matrix(1 0 0 1.00269 513 74.2739)"/><g clip-path="url(#clip4)"><path d="M129.098 264.863C128.676 264.863 128.254 264.902 127.84 264.984 127.426 265.07 127.023 265.191 126.629 265.352 126.238 265.516 125.867 265.715 125.516 265.949 125.164 266.184 124.84 266.453 124.539 266.75 124.238 267.051 123.973 267.375 123.738 267.73 123.5 268.082 123.305 268.453 123.141 268.844 122.98 269.234 122.855 269.637 122.773 270.055 122.691 270.469 122.648 270.891 122.648 271.312L122.648 290.664 135.547 290.664 135.547 271.312C135.547 270.891 135.504 270.469 135.422 270.055 135.34 269.637 135.219 269.234 135.055 268.844 134.895 268.453 134.695 268.082 134.461 267.73 134.227 267.375 133.957 267.051 133.656 266.75 133.359 266.453 133.031 266.184 132.68 265.949 132.328 265.715 131.957 265.516 131.566 265.352 131.176 265.191 130.773 265.07 130.355 264.984 129.941 264.902 129.523 264.863 129.098 264.863Z" fill="#404040" transform="matrix(1 0 0 1.00269 513 74.2739)"/></g><g clip-path="url(#clip5)"><path d="M142.586 287.219 355.5 287.219C355.848 287.219 356.191 287.184 356.531 287.117 356.875 287.047 357.203 286.949 357.523 286.816 357.848 286.68 358.152 286.52 358.441 286.324 358.73 286.133 358.996 285.91 359.242 285.664 359.488 285.418 359.707 285.152 359.902 284.863 360.094 284.574 360.258 284.27 360.391 283.945 360.523 283.625 360.625 283.293 360.691 282.953 360.758 282.609 360.793 282.266 360.793 281.918L360.793 100.547C360.793 100.199 360.758 99.8555 360.691 99.5156 360.625 99.1719 360.523 98.8398 360.391 98.5195 360.258 98.1992 360.094 97.8945 359.902 97.6016 359.707 97.3125 359.488 97.0469 359.242 96.8008 358.996 96.5547 358.73 96.3359 358.441 96.1406 358.152 95.9492 357.848 95.7852 357.523 95.6523 357.203 95.5195 356.875 95.418 356.531 95.3477 356.191 95.2812 355.848 95.2461 355.5 95.2461L142.586 95.2461C141.895 95.2461 141.199 95.2812 140.512 95.3477 139.82 95.418 139.137 95.5195 138.453 95.6562 137.773 95.7891 137.102 95.957 136.438 96.1602 135.773 96.3633 135.121 96.5938 134.48 96.8633 133.84 97.1289 133.215 97.4219 132.602 97.75 131.992 98.0781 131.398 98.4336 130.82 98.8203 130.242 99.207 129.688 99.6211 129.152 100.059 128.617 100.5 128.102 100.965 127.613 101.457 127.121 101.949 126.656 102.461 126.215 103 125.777 103.535 125.363 104.094 124.977 104.672 124.594 105.25 124.234 105.844 123.91 106.457 123.582 107.066 123.285 107.695 123.02 108.336 122.754 108.98 122.523 109.633 122.32 110.297 122.121 110.961 121.949 111.633 121.816 112.316 121.68 112.996 121.578 113.684 121.512 114.375 121.441 115.062 121.41 115.758 121.41 116.453L121.41 266.016C121.41 266.707 121.441 267.402 121.512 268.094 121.578 268.785 121.68 269.469 121.816 270.152 121.949 270.832 122.117 271.504 122.32 272.168 122.523 272.836 122.754 273.488 123.02 274.129 123.285 274.77 123.582 275.398 123.91 276.012 124.234 276.621 124.594 277.219 124.977 277.793 125.363 278.371 125.777 278.93 126.215 279.465 126.656 280.004 127.121 280.516 127.609 281.008 128.102 281.5 128.613 281.965 129.152 282.406 129.688 282.848 130.242 283.258 130.82 283.645 131.398 284.031 131.992 284.387 132.602 284.715 133.215 285.043 133.84 285.34 134.48 285.605 135.121 285.871 135.773 286.105 136.438 286.305 137.102 286.508 137.773 286.676 138.453 286.812 139.137 286.945 139.82 287.047 140.512 287.117 141.199 287.184 141.895 287.219 142.586 287.219Z" fill="#404040" transform="matrix(1 0 0 1.00269 513 74.2739)"/></g><g clip-path="url(#clip6)"><path d="M100.23 287.219-9.82031 287.219C-10.168 287.219-10.5117 287.184-10.8516 287.117-11.1914 287.047-11.5234 286.949-11.8438 286.816-12.1641 286.68-12.4727 286.52-12.7617 286.324-13.0508 286.133-13.3164 285.91-13.5625 285.664-13.8086 285.418-14.0273 285.152-14.2188 284.863-14.4141 284.574-14.5781 284.27-14.7109 283.945-14.8438 283.625-14.9414 283.293-15.0117 282.953-15.0781 282.609-15.1133 282.266-15.1133 281.918L-15.1133 100.547C-15.1133 100.199-15.0781 99.8555-15.0117 99.5156-14.9414 99.1719-14.8438 98.8398-14.7109 98.5195-14.5781 98.1992-14.4141 97.8945-14.2188 97.6016-14.0273 97.3125-13.8086 97.0469-13.5625 96.8008-13.3164 96.5547-13.0508 96.3359-12.7617 96.1406-12.4727 95.9492-12.1641 95.7852-11.8438 95.6523-11.5234 95.5195-11.1914 95.418-10.8516 95.3477-10.5117 95.2812-10.168 95.2461-9.82031 95.2461L100.23 95.2461C100.922 95.2461 101.617 95.2812 102.305 95.3477 102.996 95.418 103.68 95.5195 104.363 95.6562 105.043 95.7891 105.715 95.957 106.379 96.1602 107.043 96.3633 107.695 96.5938 108.336 96.8633 108.977 97.1289 109.602 97.4219 110.215 97.75 110.824 98.0781 111.418 98.4336 111.996 98.8203 112.574 99.207 113.129 99.6211 113.664 100.059 114.203 100.5 114.715 100.965 115.203 101.457 115.695 101.949 116.16 102.461 116.602 103 117.039 103.535 117.453 104.094 117.84 104.672 118.223 105.25 118.582 105.844 118.906 106.457 119.234 107.066 119.531 107.695 119.797 108.336 120.062 108.977 120.293 109.633 120.496 110.297 120.699 110.961 120.867 111.633 121 112.316 121.137 112.996 121.238 113.684 121.305 114.375 121.375 115.062 121.406 115.758 121.406 116.453L121.406 266.016C121.406 266.707 121.375 267.402 121.305 268.094 121.238 268.785 121.137 269.469 121 270.152 120.867 270.832 120.699 271.504 120.496 272.168 120.297 272.836 120.062 273.488 119.797 274.129 119.531 274.77 119.234 275.398 118.906 276.012 118.582 276.621 118.227 277.219 117.84 277.793 117.453 278.371 117.043 278.93 116.602 279.465 116.16 280.004 115.695 280.516 115.207 281.008 114.715 281.5 114.203 281.965 113.664 282.406 113.129 282.848 112.574 283.258 111.996 283.645 111.422 284.031 110.824 284.387 110.215 284.715 109.602 285.043 108.977 285.34 108.336 285.605 107.695 285.871 107.043 286.105 106.379 286.305 105.715 286.508 105.043 286.676 104.363 286.812 103.684 286.945 102.996 287.047 102.309 287.117 101.617 287.184 100.926 287.219 100.23 287.219Z" fill="#404040" transform="matrix(1 0 0 1.00269 513 74.2739)"/></g><path d="M121.41 133.996C121.035 133.996 120.668 133.957 120.301 133.887 119.938 133.812 119.582 133.707 119.238 133.562 118.895 133.422 118.566 133.246 118.258 133.039 117.949 132.832 117.66 132.598 117.398 132.332 117.133 132.07 116.898 131.781 116.691 131.473 116.484 131.16 116.312 130.836 116.168 130.488 116.027 130.145 115.918 129.789 115.844 129.426 115.773 129.059 115.734 128.688 115.734 128.316L115.734 115.566C115.734 115.195 115.773 114.824 115.844 114.461 115.918 114.094 116.027 113.738 116.168 113.395 116.309 113.051 116.484 112.723 116.691 112.414 116.898 112.102 117.133 111.816 117.398 111.551 117.66 111.289 117.949 111.051 118.258 110.844 118.566 110.637 118.895 110.465 119.238 110.32 119.582 110.18 119.938 110.07 120.301 109.996 120.668 109.926 121.035 109.887 121.41 109.887 121.781 109.887 122.148 109.926 122.516 109.996 122.879 110.07 123.234 110.18 123.578 110.32 123.922 110.465 124.25 110.637 124.559 110.844 124.871 111.051 125.156 111.289 125.418 111.551 125.684 111.816 125.918 112.102 126.125 112.414 126.332 112.723 126.508 113.051 126.648 113.395 126.793 113.738 126.898 114.094 126.973 114.461 127.043 114.824 127.082 115.195 127.082 115.566L127.082 128.316C127.082 128.688 127.043 129.059 126.973 129.422 126.898 129.789 126.793 130.145 126.648 130.488 126.508 130.832 126.332 131.16 126.125 131.473 125.918 131.781 125.684 132.066 125.418 132.332 125.156 132.594 124.871 132.832 124.559 133.039 124.25 133.246 123.922 133.422 123.578 133.562 123.234 133.707 122.879 133.812 122.516 133.887 122.148 133.957 121.781 133.996 121.41 133.996Z" fill="#FFCC00" transform="matrix(1 0 0 1.00269 513 74.2739)"/><path d="M121.41 168.262C121.035 168.262 120.668 168.227 120.301 168.152 119.938 168.082 119.582 167.973 119.238 167.832 118.895 167.688 118.566 167.512 118.258 167.305 117.949 167.098 117.66 166.863 117.398 166.598 117.133 166.336 116.898 166.051 116.691 165.738 116.484 165.43 116.309 165.102 116.168 164.758 116.027 164.414 115.918 164.059 115.844 163.691 115.773 163.324 115.734 162.957 115.734 162.582L115.734 149.836C115.734 149.461 115.773 149.094 115.844 148.727 115.918 148.359 116.027 148.008 116.168 147.66 116.309 147.316 116.484 146.988 116.691 146.68 116.898 146.371 117.133 146.082 117.398 145.82 117.66 145.555 117.949 145.32 118.258 145.113 118.566 144.906 118.895 144.73 119.238 144.59 119.582 144.445 119.938 144.336 120.301 144.266 120.668 144.191 121.035 144.156 121.41 144.156 121.781 144.156 122.148 144.191 122.516 144.266 122.879 144.336 123.234 144.445 123.578 144.59 123.922 144.73 124.25 144.906 124.559 145.113 124.871 145.32 125.156 145.555 125.418 145.82 125.684 146.082 125.918 146.371 126.125 146.68 126.332 146.988 126.508 147.316 126.648 147.66 126.793 148.008 126.898 148.359 126.973 148.727 127.043 149.094 127.082 149.461 127.082 149.836L127.082 162.582C127.082 162.957 127.043 163.324 126.973 163.691 126.898 164.059 126.793 164.41 126.648 164.758 126.508 165.102 126.332 165.43 126.125 165.738 125.918 166.047 125.684 166.336 125.418 166.598 125.156 166.863 124.871 167.098 124.559 167.305 124.25 167.512 123.922 167.688 123.578 167.832 123.234 167.973 122.879 168.082 122.516 168.152 122.148 168.227 121.781 168.262 121.41 168.262Z" fill="#FFCC00" transform="matrix(1 0 0 1.00269 513 74.2739)"/><path d="M121.41 202.527C121.035 202.527 120.668 202.492 120.301 202.422 119.938 202.348 119.582 202.238 119.238 202.098 118.895 201.953 118.566 201.781 118.258 201.574 117.949 201.367 117.66 201.129 117.398 200.867 117.133 200.602 116.898 200.316 116.691 200.004 116.484 199.695 116.312 199.367 116.168 199.023 116.027 198.68 115.918 198.324 115.844 197.957 115.773 197.594 115.734 197.223 115.734 196.852L115.734 184.102C115.734 183.73 115.773 183.359 115.844 182.992 115.918 182.629 116.027 182.273 116.168 181.93 116.309 181.582 116.484 181.258 116.691 180.945 116.898 180.637 117.133 180.348 117.398 180.086 117.66 179.82 117.949 179.586 118.258 179.379 118.566 179.172 118.895 178.996 119.238 178.855 119.582 178.711 119.938 178.605 120.301 178.531 120.668 178.457 121.035 178.422 121.41 178.422 121.781 178.422 122.148 178.457 122.516 178.531 122.879 178.605 123.234 178.711 123.578 178.855 123.922 178.996 124.25 179.172 124.559 179.379 124.871 179.586 125.156 179.82 125.418 180.086 125.684 180.348 125.918 180.637 126.125 180.945 126.332 181.258 126.508 181.582 126.648 181.93 126.793 182.273 126.898 182.629 126.973 182.992 127.043 183.359 127.082 183.73 127.082 184.102L127.082 196.852C127.082 197.223 127.043 197.594 126.973 197.957 126.898 198.324 126.793 198.68 126.648 199.023 126.508 199.367 126.332 199.695 126.125 200.004 125.918 200.316 125.684 200.602 125.418 200.867 125.156 201.129 124.871 201.363 124.559 201.57 124.25 201.777 123.922 201.953 123.578 202.098 123.234 202.238 122.879 202.348 122.516 202.422 122.148 202.492 121.781 202.527 121.41 202.527Z" fill="#FFCC00" transform="matrix(1 0 0 1.00269 513 74.2739)"/><path d="M121.41 236.797C121.035 236.797 120.668 236.762 120.301 236.688 119.938 236.613 119.582 236.508 119.238 236.363 118.895 236.223 118.566 236.047 118.258 235.84 117.949 235.633 117.66 235.398 117.398 235.133 117.133 234.871 116.898 234.582 116.691 234.273 116.484 233.961 116.309 233.637 116.168 233.289 116.027 232.945 115.918 232.59 115.844 232.227 115.773 231.859 115.734 231.488 115.734 231.117L115.734 218.367C115.734 217.996 115.773 217.625 115.844 217.262 115.918 216.895 116.027 216.539 116.168 216.195 116.309 215.852 116.484 215.523 116.691 215.215 116.898 214.902 117.133 214.617 117.398 214.352 117.66 214.09 117.949 213.855 118.258 213.648 118.566 213.441 118.895 213.266 119.238 213.121 119.582 212.98 119.938 212.871 120.301 212.797 120.668 212.727 121.035 212.691 121.41 212.691 121.781 212.691 122.148 212.727 122.516 212.797 122.879 212.871 123.234 212.98 123.578 213.121 123.922 213.266 124.25 213.441 124.559 213.648 124.871 213.855 125.156 214.09 125.418 214.352 125.684 214.617 125.918 214.902 126.125 215.215 126.332 215.523 126.508 215.852 126.648 216.195 126.793 216.539 126.898 216.895 126.973 217.262 127.043 217.625 127.082 217.996 127.082 218.367L127.082 231.117C127.082 231.488 127.043 231.859 126.973 232.227 126.898 232.59 126.793 232.945 126.648 233.289 126.508 233.637 126.332 233.961 126.125 234.273 125.918 234.582 125.684 234.871 125.418 235.133 125.156 235.398 124.871 235.633 124.559 235.84 124.25 236.047 123.922 236.223 123.578 236.363 123.234 236.508 122.879 236.613 122.516 236.688 122.148 236.762 121.781 236.797 121.41 236.797Z" fill="#FFCC00" transform="matrix(1 0 0 1.00269 513 74.2739)"/><path d="M121.41 271.062C121.035 271.062 120.668 271.027 120.301 270.953 119.938 270.883 119.582 270.773 119.238 270.633 118.895 270.488 118.566 270.312 118.258 270.105 117.949 269.898 117.66 269.664 117.398 269.402 117.133 269.137 116.898 268.852 116.691 268.539 116.484 268.23 116.309 267.902 116.168 267.559 116.027 267.215 115.918 266.859 115.844 266.492 115.773 266.125 115.734 265.758 115.734 265.383L115.734 252.637C115.734 252.262 115.773 251.895 115.844 251.527 115.918 251.164 116.027 250.809 116.168 250.465 116.309 250.117 116.484 249.793 116.691 249.48 116.898 249.172 117.133 248.883 117.398 248.621 117.66 248.355 117.949 248.121 118.258 247.914 118.566 247.707 118.895 247.531 119.238 247.391 119.582 247.246 119.938 247.141 120.301 247.066 120.668 246.992 121.035 246.957 121.41 246.957 121.781 246.957 122.148 246.992 122.516 247.066 122.879 247.141 123.234 247.246 123.578 247.391 123.922 247.531 124.25 247.707 124.559 247.914 124.871 248.121 125.156 248.355 125.418 248.621 125.684 248.883 125.918 249.172 126.125 249.48 126.332 249.793 126.508 250.117 126.648 250.465 126.793 250.809 126.898 251.164 126.973 251.527 127.043 251.895 127.082 252.262 127.082 252.637L127.082 265.383C127.082 265.758 127.043 266.125 126.973 266.492 126.898 266.859 126.793 267.215 126.648 267.559 126.508 267.902 126.332 268.23 126.125 268.539 125.918 268.852 125.684 269.137 125.418 269.398 125.156 269.664 124.871 269.898 124.559 270.105 124.25 270.312 123.922 270.488 123.578 270.633 123.234 270.773 122.879 270.883 122.516 270.953 122.148 271.027 121.781 271.062 121.41 271.062Z" fill="#FFCC00" transform="matrix(1 0 0 1.00269 513 74.2739)"/><path d="M254.238 118.5C252.887 118.496 251.551 118.633 250.227 118.902 248.906 119.172 247.621 119.57 246.379 120.098 245.137 120.629 243.961 121.273 242.848 122.043 241.738 122.809 240.715 123.68 239.777 124.652 239.203 124.055 238.59 123.496 237.949 122.977 237.305 122.457 236.629 121.977 235.926 121.539 235.223 121.105 234.496 120.711 233.742 120.363 232.992 120.016 232.223 119.719 231.434 119.465 230.645 119.215 229.844 119.012 229.027 118.859 228.215 118.703 227.395 118.602 226.57 118.551 225.742 118.5 224.918 118.496 224.09 118.547 223.266 118.598 222.445 118.699 221.629 118.852 220.816 119.004 220.016 119.203 219.227 119.453 218.438 119.707 217.668 120.004 216.914 120.348 216.16 120.695 215.434 121.086 214.73 121.523 214.023 121.957 213.352 122.434 212.703 122.953 212.059 123.473 211.449 124.031 210.871 124.625 210.297 125.219 209.758 125.848 209.258 126.508 208.758 127.172 208.301 127.859 207.887 128.578 207.473 129.297 207.105 130.035 206.781 130.797 206.461 131.562 206.184 132.344 205.957 133.141 205.73 133.938 205.555 134.746 205.426 135.562 205.297 136.383 205.223 137.207 205.195 138.035 205.172 138.863 205.195 139.691 205.273 140.516 205.348 141.34 205.477 142.16 205.652 142.969 205.828 143.777 206.055 144.574 206.328 145.355 206.605 146.137 206.926 146.898 207.297 147.641 207.664 148.383 208.078 149.098 208.535 149.789 208.992 150.48 209.488 151.141 210.027 151.77 210.566 152.402 211.141 152.996 211.754 153.555 212.367 154.109 213.008 154.629 213.684 155.109 214.359 155.586 215.062 156.023 215.793 156.414 216.523 156.809 217.273 157.152 218.043 157.453 218.816 157.75 219.605 158.004 220.406 158.203 221.211 158.406 222.023 158.559 222.844 158.66 223.664 158.762 224.488 158.812 225.316 158.812L254.238 158.812C254.895 158.809 255.551 158.773 256.203 158.707 256.859 158.641 257.508 158.539 258.152 158.41 258.797 158.277 259.434 158.117 260.062 157.922 260.688 157.73 261.309 157.508 261.914 157.254 262.52 157 263.113 156.715 263.691 156.402 264.27 156.09 264.832 155.75 265.379 155.383 265.926 155.016 266.449 154.625 266.957 154.207 267.465 153.785 267.949 153.344 268.414 152.879 268.879 152.41 269.32 151.922 269.734 151.414 270.152 150.902 270.543 150.375 270.906 149.828 271.27 149.277 271.605 148.715 271.918 148.133 272.227 147.551 272.504 146.957 272.758 146.348 273.008 145.738 273.227 145.121 273.418 144.492 273.609 143.859 273.77 143.223 273.895 142.578 274.023 141.93 274.121 141.281 274.184 140.625 274.25 139.969 274.281 139.312 274.281 138.656 274.281 137.996 274.25 137.34 274.184 136.684 274.121 136.031 274.023 135.379 273.895 134.734 273.77 134.086 273.609 133.449 273.418 132.82 273.227 132.191 273.008 131.57 272.758 130.961 272.504 130.352 272.227 129.758 271.918 129.176 271.605 128.598 271.27 128.031 270.906 127.484 270.543 126.938 270.152 126.406 269.734 125.898 269.32 125.387 268.879 124.898 268.414 124.434 267.949 123.965 267.465 123.523 266.957 123.105 266.449 122.688 265.926 122.293 265.379 121.926 264.832 121.559 264.27 121.219 263.691 120.906 263.113 120.594 262.52 120.312 261.914 120.059 261.309 119.805 260.688 119.582 260.062 119.387 259.434 119.195 258.797 119.031 258.152 118.902 257.508 118.77 256.859 118.672 256.203 118.605 255.551 118.535 254.895 118.5 254.238 118.5ZM216.531 138.656C216.531 138.078 216.59 137.504 216.703 136.938 216.812 136.371 216.98 135.824 217.203 135.289 217.422 134.754 217.691 134.25 218.016 133.77 218.336 133.289 218.699 132.844 219.105 132.434 219.516 132.027 219.957 131.66 220.438 131.34 220.918 131.02 221.426 130.75 221.957 130.527 222.488 130.309 223.039 130.141 223.605 130.027 224.172 129.914 224.742 129.859 225.32 129.859 225.895 129.859 226.469 129.914 227.035 130.027 227.598 130.141 228.148 130.309 228.684 130.527 229.215 130.75 229.723 131.02 230.199 131.34 230.68 131.66 231.125 132.027 231.531 132.434 231.941 132.844 232.305 133.289 232.625 133.77 232.945 134.25 233.215 134.754 233.438 135.289 233.656 135.824 233.824 136.371 233.938 136.938 234.051 137.504 234.105 138.078 234.105 138.656L234.105 147.453 225.32 147.453C224.742 147.453 224.172 147.395 223.605 147.281 223.039 147.168 222.492 147 221.957 146.781 221.426 146.559 220.918 146.289 220.441 145.969 219.961 145.645 219.516 145.281 219.109 144.871 218.699 144.465 218.336 144.02 218.016 143.539 217.695 143.059 217.426 142.555 217.203 142.02 216.98 141.488 216.816 140.938 216.703 140.371 216.59 139.805 216.531 139.234 216.531 138.656ZM254.238 147.453 245.449 147.453 245.449 138.656C245.449 138.078 245.504 137.504 245.617 136.938 245.73 136.371 245.898 135.82 246.117 135.289 246.34 134.754 246.609 134.246 246.93 133.766 247.25 133.285 247.613 132.844 248.023 132.434 248.43 132.027 248.875 131.66 249.355 131.34 249.836 131.02 250.34 130.746 250.875 130.527 251.406 130.305 251.957 130.141 252.523 130.027 253.086 129.914 253.66 129.855 254.234 129.855 254.812 129.855 255.383 129.914 255.949 130.027 256.516 130.141 257.066 130.305 257.598 130.527 258.133 130.746 258.637 131.02 259.117 131.34 259.598 131.66 260.039 132.027 260.449 132.434 260.855 132.844 261.223 133.285 261.543 133.766 261.863 134.246 262.133 134.754 262.355 135.289 262.574 135.82 262.742 136.371 262.855 136.938 262.965 137.504 263.023 138.078 263.023 138.656 263.023 139.23 262.965 139.805 262.855 140.371 262.742 140.938 262.574 141.488 262.355 142.02 262.133 142.555 261.863 143.062 261.543 143.543 261.223 144.023 260.855 144.465 260.449 144.875 260.043 145.285 259.598 145.648 259.117 145.969 258.637 146.289 258.133 146.562 257.598 146.781 257.066 147.004 256.516 147.172 255.949 147.281 255.383 147.395 254.812 147.453 254.238 147.453Z" fill="#FFFFFF" transform="matrix(1 0 0 1.00269 513 74.2739)"/><path d="M278.184 259.531 201.371 259.531C200.379 259.531 199.395 259.434 198.422 259.238 197.445 259.043 196.5 258.758 195.582 258.375 194.664 257.996 193.793 257.531 192.969 256.977 192.141 256.426 191.379 255.797 190.676 255.094 189.973 254.391 189.344 253.625 188.793 252.797 188.242 251.973 187.777 251.098 187.395 250.18 187.016 249.262 186.73 248.312 186.535 247.34 186.34 246.363 186.246 245.379 186.246 244.383L186.246 190.996 195.152 187.207 284.781 187.207 293.309 190.996 293.309 244.383C293.309 245.379 293.215 246.363 293.02 247.34 292.824 248.312 292.539 249.262 292.16 250.18 291.777 251.098 291.312 251.973 290.762 252.797 290.211 253.625 289.582 254.391 288.879 255.094 288.176 255.797 287.414 256.426 286.586 256.977 285.762 257.531 284.891 257.996 283.973 258.375 283.055 258.758 282.109 259.043 281.133 259.238 280.16 259.434 279.176 259.531 278.184 259.531Z" fill="#FFCC00" transform="matrix(1 0 0 1.00269 513 74.2739)"/><path d="M299.555 190.996 180 190.996C179.66 190.996 179.328 190.961 178.996 190.898 178.664 190.832 178.344 190.734 178.031 190.605 177.723 190.473 177.426 190.316 177.145 190.129 176.863 189.941 176.605 189.727 176.367 189.488 176.125 189.25 175.914 188.988 175.727 188.707 175.539 188.43 175.379 188.133 175.25 187.82 175.121 187.508 175.023 187.184 174.957 186.855 174.895 186.523 174.859 186.188 174.859 185.852L174.859 158.277C174.859 157.938 174.895 157.605 174.957 157.273 175.023 156.941 175.121 156.621 175.25 156.309 175.379 155.996 175.539 155.699 175.727 155.418 175.914 155.137 176.125 154.879 176.367 154.637 176.605 154.398 176.863 154.188 177.145 154 177.426 153.812 177.723 153.652 178.031 153.523 178.344 153.395 178.664 153.297 178.996 153.23 179.328 153.164 179.66 153.133 180 153.133L227.676 153.133 239.777 160.48 251.879 153.133 299.555 153.133C299.895 153.133 300.227 153.164 300.559 153.23 300.891 153.297 301.211 153.395 301.523 153.523 301.836 153.652 302.133 153.812 302.41 154 302.691 154.188 302.953 154.398 303.191 154.637 303.43 154.879 303.641 155.137 303.828 155.418 304.016 155.699 304.176 155.996 304.305 156.309 304.434 156.621 304.531 156.941 304.598 157.273 304.664 157.605 304.695 157.938 304.695 158.277L304.695 185.852C304.695 186.188 304.664 186.523 304.598 186.855 304.531 187.184 304.434 187.508 304.305 187.82 304.176 188.133 304.016 188.43 303.828 188.707 303.641 188.988 303.43 189.25 303.191 189.488 302.953 189.727 302.691 189.941 302.41 190.129 302.133 190.316 301.836 190.473 301.523 190.605 301.211 190.734 300.891 190.832 300.559 190.898 300.227 190.961 299.895 190.996 299.555 190.996Z" fill="#FFCC00" transform="matrix(1 0 0 1.00269 513 74.2739)"/><path d="M227.676 153.133 251.879 153.133 251.879 259.531 227.676 259.531Z" fill="#FFFFFF" transform="matrix(1 0 0 1.00269 513 74.2739)"/><path d="M2.85732 0.000227314 182.176-0.00102734" stroke="#FFFFFF" stroke-width="5.71388" stroke-linecap="round" fill="none" transform="matrix(0.00246768 -1.00327 0.999997 0.00247432 612.211 358.776)"/></g></svg>