<svg width="375" height="227" xmlns="http://www.w3.org/2000/svg" xmlns:xlink="http://www.w3.org/1999/xlink" overflow="hidden"><defs><clipPath id="clip0"><rect x="105" y="94" width="375" height="227"/></clipPath><clipPath id="clip1"><rect x="363" y="127" width="114" height="180"/></clipPath><clipPath id="clip2"><rect x="106" y="127" width="113" height="180"/></clipPath><clipPath id="clip3"><rect x="278" y="188" width="29" height="90"/></clipPath><clipPath id="clip4"><rect x="147" y="148" width="290" height="30"/></clipPath></defs><g clip-path="url(#clip0)" transform="translate(-105 -94)"><path d="M222.234 273.668 194.465 259.723 194.465 159.586 283.055 159.586C283.586 159.586 284.109 159.535 284.629 159.43 285.145 159.328 285.648 159.176 286.137 158.973 286.629 158.77 287.09 158.52 287.531 158.223 287.973 157.93 288.379 157.594 288.75 157.219 289.125 156.844 289.461 156.434 289.754 155.992 290.047 155.551 290.293 155.086 290.496 154.594 290.699 154.105 290.852 153.598 290.957 153.078 291.059 152.555 291.109 152.031 291.109 151.5 291.109 150.969 291.059 150.441 290.957 149.922 290.852 149.402 290.699 148.895 290.496 148.406 290.293 147.914 290.047 147.449 289.754 147.008 289.461 146.566 289.125 146.156 288.75 145.781 288.379 145.406 287.973 145.07 287.531 144.773 287.09 144.48 286.629 144.23 286.137 144.027 285.648 143.824 285.145 143.672 284.629 143.566 284.109 143.465 283.586 143.414 283.055 143.414L89.7656 143.414C89.2383 143.414 88.7109 143.465 88.1953 143.566 87.6758 143.672 87.1719 143.824 86.6836 144.027 86.1953 144.23 85.7305 144.48 85.2891 144.773 84.8516 145.07 84.4453 145.406 84.0703 145.781 83.6953 146.156 83.3633 146.566 83.0703 147.008 82.7734 147.449 82.5273 147.914 82.3242 148.406 82.1211 148.895 81.9688 149.402 81.8672 149.922 81.7617 150.441 81.7109 150.969 81.7109 151.5 81.7109 152.031 81.7617 152.555 81.8672 153.078 81.9688 153.598 82.1211 154.105 82.3242 154.594 82.5273 155.086 82.7734 155.551 83.0703 155.992 83.3633 156.434 83.6953 156.844 84.0703 157.219 84.4453 157.594 84.8516 157.93 85.2891 158.223 85.7305 158.52 86.1953 158.77 86.6836 158.973 87.1719 159.176 87.6758 159.328 88.1953 159.43 88.7109 159.535 89.2383 159.586 89.7656 159.586L178.355 159.586 178.355 259.723 150.586 273.668C150.113 273.902 149.668 274.184 149.25 274.512 148.832 274.836 148.449 275.199 148.102 275.602 147.758 276.004 147.453 276.434 147.191 276.895 146.926 277.355 146.711 277.84 146.547 278.344 146.379 278.848 146.262 279.363 146.195 279.891 146.129 280.418 146.113 280.945 146.152 281.477 146.188 282.004 146.277 282.527 146.414 283.039 146.555 283.551 146.742 284.043 146.98 284.52 147.215 284.996 147.496 285.441 147.82 285.863 148.145 286.281 148.508 286.668 148.906 287.016 149.305 287.363 149.734 287.668 150.195 287.934 150.652 288.195 151.133 288.41 151.637 288.578 152.137 288.746 152.652 288.863 153.176 288.93 153.703 289 154.227 289.012 154.754 288.977 155.281 288.938 155.801 288.848 156.312 288.711 156.824 288.57 157.312 288.379 157.789 288.145L186.41 273.762 215.02 288.125C215.492 288.363 215.984 288.551 216.492 288.691 217.004 288.832 217.523 288.918 218.051 288.957 218.578 288.992 219.102 288.977 219.629 288.91 220.152 288.844 220.664 288.727 221.168 288.559 221.668 288.391 222.148 288.176 222.605 287.91 223.066 287.648 223.496 287.344 223.895 286.992 224.293 286.645 224.656 286.262 224.98 285.844 225.305 285.422 225.582 284.977 225.82 284.5 226.055 284.023 226.242 283.531 226.383 283.02 226.523 282.508 226.609 281.988 226.648 281.457 226.688 280.926 226.672 280.398 226.605 279.871 226.539 279.348 226.422 278.832 226.254 278.328 226.09 277.824 225.875 277.34 225.613 276.879 225.352 276.418 225.047 275.988 224.699 275.586 224.352 275.184 223.973 274.82 223.555 274.496 223.137 274.168 222.691 273.887 222.219 273.652Z" fill="#455A64" transform="matrix(1 0 0 1.00045 105 16.8652)"/><g clip-path="url(#clip1)"><path d="M371.406 278.941 355.703 215.859 371.535 120.43C371.641 119.898 371.691 119.359 371.688 118.82 371.684 118.277 371.629 117.742 371.52 117.211 371.41 116.684 371.246 116.168 371.035 115.672 370.824 115.176 370.562 114.703 370.258 114.258 369.949 113.812 369.602 113.402 369.215 113.027 368.824 112.652 368.402 112.32 367.945 112.031 367.492 111.742 367.012 111.5 366.508 111.305 366.004 111.113 365.488 110.973 364.957 110.883 364.426 110.793 363.891 110.762 363.352 110.777 362.812 110.797 362.281 110.871 361.758 110.996 361.23 111.125 360.727 111.301 360.238 111.527 359.746 111.758 359.285 112.031 358.852 112.352 358.418 112.676 358.023 113.035 357.66 113.438 357.297 113.84 356.98 114.273 356.707 114.738 356.43 115.203 356.203 115.691 356.027 116.203 355.852 116.715 355.727 117.238 355.652 117.773L340.656 208.109 275.004 208.109C274.512 208.105 274.027 208.148 273.547 208.234 273.062 208.316 272.594 208.445 272.137 208.617 271.676 208.789 271.238 209 270.816 209.25 270.395 209.504 270 209.789 269.633 210.113 269.266 210.438 268.93 210.793 268.625 211.18 268.324 211.562 268.055 211.973 267.828 212.406 267.598 212.84 267.41 213.293 267.262 213.762 267.113 214.23 267.008 214.707 266.949 215.195L258.895 279.895C258.844 280.414 258.84 280.934 258.891 281.457 258.938 281.977 259.035 282.488 259.184 282.988 259.328 283.492 259.523 283.973 259.762 284.438 260.004 284.902 260.285 285.34 260.609 285.746 260.934 286.156 261.297 286.531 261.691 286.867 262.09 287.207 262.516 287.504 262.969 287.762 263.422 288.016 263.898 288.227 264.391 288.391 264.887 288.555 265.391 288.668 265.91 288.73 266.426 288.797 266.945 288.812 267.465 288.773 267.984 288.738 268.496 288.652 268.996 288.516 269.5 288.383 269.984 288.199 270.453 287.969 270.922 287.738 271.363 287.465 271.777 287.148 272.191 286.832 272.574 286.48 272.918 286.09 273.266 285.699 273.57 285.277 273.836 284.828 274.102 284.379 274.324 283.906 274.496 283.414 274.672 282.922 274.797 282.418 274.875 281.898L278.094 256.633 349.258 256.633 355.797 282.855C355.918 283.379 356.086 283.887 356.305 284.379 356.523 284.871 356.789 285.336 357.102 285.777 357.41 286.215 357.766 286.617 358.156 286.988 358.547 287.355 358.973 287.68 359.43 287.961 359.887 288.246 360.367 288.48 360.871 288.668 361.375 288.852 361.891 288.988 362.422 289.07 362.949 289.152 363.484 289.184 364.02 289.156 364.555 289.133 365.086 289.055 365.605 288.926 366.125 288.793 366.629 288.613 367.113 288.383 367.598 288.152 368.055 287.875 368.484 287.551 368.914 287.227 369.309 286.863 369.664 286.465 370.023 286.062 370.336 285.629 370.609 285.164 370.879 284.695 371.102 284.211 371.273 283.699 371.449 283.191 371.57 282.668 371.641 282.133 371.711 281.598 371.727 281.062 371.691 280.527 371.652 279.988 371.566 279.461 371.422 278.941Z" fill="#FFC107" transform="matrix(1 0 0 1.00045 105 16.8652)"/></g><g clip-path="url(#clip2)"><path d="M97.8203 208.109 32.1641 208.109 17.1836 117.824C17.082 117.312 16.9375 116.816 16.7383 116.336 16.543 115.852 16.3047 115.395 16.0195 114.957 15.7344 114.523 15.4102 114.117 15.0508 113.746 14.6875 113.371 14.293 113.039 13.8672 112.742 13.4414 112.445 12.9883 112.191 12.5156 111.984 12.0391 111.773 11.5508 111.613 11.043 111.5 10.5391 111.387 10.0234 111.32 9.50781 111.305 8.98828 111.293 8.47266 111.328 7.96094 111.414 7.44922 111.5 6.95312 111.633 6.46484 111.812 5.98047 111.996 5.51562 112.223 5.07422 112.496 4.63281 112.77 4.21875 113.082 3.83594 113.434 3.45703 113.785 3.10938 114.172 2.80078 114.59 2.49609 115.008 2.23047 115.453 2.00781 115.922 1.78516 116.395 1.60938 116.883 1.48047 117.387 1.35156 117.891 1.27344 118.402 1.24219 118.922 1.21094 119.441 1.23438 119.961 1.30078 120.477L17.1367 215.906 1.42969 278.988C1.28906 279.508 1.19922 280.035 1.16406 280.574 1.125 281.113 1.14453 281.648 1.21484 282.184 1.28516 282.715 1.40625 283.238 1.57812 283.75 1.75391 284.258 1.97656 284.746 2.24609 285.211 2.51953 285.676 2.83203 286.109 3.1875 286.512 3.54688 286.914 3.94141 287.277 4.37109 287.598 4.80078 287.922 5.25781 288.199 5.74219 288.43 6.22656 288.664 6.72656 288.844 7.25 288.973 7.76953 289.105 8.29688 289.18 8.83203 289.207 9.37109 289.23 9.90234 289.199 10.4336 289.117 10.9648 289.035 11.4805 288.902 11.9844 288.715 12.4883 288.527 12.9688 288.293 13.4258 288.012 13.8828 287.727 14.3047 287.402 14.6992 287.035 15.0898 286.668 15.4414 286.262 15.7539 285.824 16.0664 285.387 16.332 284.922 16.5508 284.43 16.7695 283.938 16.9375 283.43 17.0547 282.902L23.5625 256.633 94.7422 256.633 97.9648 281.898C98.0391 282.418 98.168 282.922 98.3398 283.414 98.5156 283.906 98.7344 284.379 99 284.828 99.2656 285.277 99.5703 285.699 99.918 286.09 100.266 286.48 100.645 286.832 101.062 287.148 101.477 287.465 101.918 287.738 102.383 287.969 102.852 288.199 103.336 288.383 103.84 288.516 104.344 288.652 104.855 288.738 105.375 288.773 105.895 288.812 106.41 288.797 106.93 288.73 107.445 288.668 107.953 288.551 108.445 288.391 108.941 288.227 109.414 288.016 109.871 287.762 110.324 287.504 110.75 287.207 111.145 286.867 111.543 286.531 111.902 286.156 112.227 285.746 112.555 285.34 112.836 284.902 113.074 284.438 113.316 283.973 113.508 283.492 113.656 282.988 113.805 282.488 113.902 281.977 113.949 281.457 113.996 280.934 113.996 280.414 113.941 279.895L105.891 215.195C105.828 214.707 105.723 214.227 105.578 213.758 105.43 213.289 105.238 212.84 105.012 212.402 104.781 211.969 104.512 211.559 104.207 211.172 103.902 210.789 103.566 210.434 103.199 210.109 102.828 209.785 102.434 209.496 102.012 209.246 101.594 208.996 101.152 208.785 100.691 208.613 100.23 208.441 99.7617 208.316 99.2773 208.23 98.7969 208.145 98.3086 208.105 97.8203 208.109Z" fill="#FFC107" transform="matrix(1 0 0 1.00045 105 16.8652)"/></g><g clip-path="url(#clip3)"><path d="M198.484 255.848 201.168 172.75 173.449 172.75 176.133 255.848C176.215 258.391 178.293 260.402 180.836 260.402L193.777 260.402C196.324 260.402 198.398 258.391 198.484 255.848" fill="#3A3066" transform="matrix(1 0 0 1.00045 105 16.8652)"/></g><path d="M296.508 154.324 78.1055 154.324C76.2578 155.359 75.2383 156.738 75.2383 158.031 75.2383 167.148 125.438 177.719 187.309 177.719 249.176 177.719 299.375 167.148 299.375 158.031 299.375 156.738 298.355 155.359 296.508 154.324" fill="#413881" transform="matrix(1 0 0 1.00045 105 16.8652)"/><g clip-path="url(#clip4)"><path d="M187.309 132.793C107.379 132.793 42.5781 136.336 42.5781 144.031 42.5781 151.715 107.379 160.641 187.309 160.641 267.234 160.641 332.039 151.715 332.039 144.031 332.039 136.336 267.234 132.793 187.309 132.793" fill="#5448A7" transform="matrix(1 0 0 1.00045 105 16.8652)"/></g><path d="M255.52 91.4375 269.055 136.879C269.793 139.961 267.449 142.93 264.27 142.93L234.465 142.938 234.465 91.4375 255.52 91.4375" fill="#3783A2" transform="matrix(1 0 0 1.00045 105 16.8652)"/><path d="M239.426 142.945 107.727 142.93C104.555 142.93 102.211 139.961 102.938 136.867L114.234 89.1484C114.758 86.9375 116.742 85.3594 119.023 85.3672L250.723 85.3867C253.902 85.3867 256.246 88.3516 255.52 91.4375L244.223 139.156C243.699 141.375 241.715 142.945 239.426 142.945" fill="#75CFB1" transform="matrix(1 0 0 1.00045 105 16.8652)"/><path d="M175.578 124.758C173.043 124.758 170.664 123.773 168.871 121.984L165.938 119.047C164.562 117.68 164.562 115.445 165.938 114.059 167.316 112.684 169.551 112.684 170.93 114.059L173.863 117C174.781 117.918 176.371 117.918 177.281 117L195.973 100.141C197.406 98.8359 199.648 98.9375 200.953 100.387 202.262 101.828 202.148 104.062 200.699 105.363L182.141 122.113C180.488 123.773 178.105 124.758 175.578 124.758" fill="#FFFFFF" transform="matrix(1 0 0 1.00045 105 16.8652)"/></g></svg>