<svg width="375" height="304" xmlns="http://www.w3.org/2000/svg" xmlns:xlink="http://www.w3.org/1999/xlink" overflow="hidden"><defs><clipPath id="clip0"><rect x="265" y="378" width="375" height="304"/></clipPath><clipPath id="clip1"><rect x="265" y="416" width="112" height="113"/></clipPath><clipPath id="clip2"><rect x="309" y="470" width="119" height="183"/></clipPath><clipPath id="clip3"><rect x="460" y="440" width="137" height="67"/></clipPath><clipPath id="clip4"><rect x="465" y="440" width="127" height="62"/></clipPath><clipPath id="clip5"><rect x="473" y="440" width="111" height="54"/></clipPath><clipPath id="clip6"><rect x="460" y="440" width="28" height="47"/></clipPath><clipPath id="clip7"><rect x="465" y="440" width="37" height="47"/></clipPath><clipPath id="clip8"><rect x="473" y="440" width="106" height="47"/></clipPath><clipPath id="clip9"><rect x="525" y="594" width="115" height="78"/></clipPath><clipPath id="clip10"><rect x="525" y="594" width="70" height="78"/></clipPath><clipPath id="clip11"><rect x="393" y="503" width="122" height="149"/></clipPath><clipPath id="clip12"><rect x="401" y="381" width="107" height="124"/></clipPath></defs><g clip-path="url(#clip0)" transform="translate(-265 -378)"><path d="M154.648 158.586 52.2227 158.586 65.5703 255.988 86.0977 269.191 120.781 269.191 141.297 255.988 154.648 158.586" fill="#FBC708" transform="matrix(1 0 0 1.00001 265 339)"/><g clip-path="url(#clip1)"><path d="M27.2148 188.777 0.0625 157.613 1.33594 120.781 36.5273 82.8008 75.4297 77.0742 111.215 99.8516 105.082 106.266 74.4258 87.1406 40.0469 89.7344 10.1914 121.062 8.72656 155.316 33.1406 183.438 27.2148 188.777" fill="#2EAA49" transform="matrix(1 0 0 1.00001 265 339)"/></g><path d="M105.082 106.266 65.9727 140.66 33.1406 183.438 8.72656 155.316 10.1914 121.062 40.0469 89.7344 74.4258 87.1406 105.082 106.266" fill="#E5F19B" transform="matrix(1 0 0 1.00001 265 339)"/><path d="M15.7734 119.129 61.5312 138.656 38.7266 93.3242Z" fill="#BEDF1B" transform="matrix(1 0 0 1.00001 265 339)"/><path d="M13.4766 123.734 13.0547 154.793 59.3203 143.727Z" fill="#BEDF1B" transform="matrix(1 0 0 1.00001 265 339)"/><path d="M35.793 179.969 61.6641 146.297 16.2617 158.359Z" fill="#BEDF1B" transform="matrix(1 0 0 1.00001 265 339)"/><path d="M43.4297 94.4297 64.3125 136.125 73.3867 90.4883Z" fill="#BEDF1B" transform="matrix(1 0 0 1.00001 265 339)"/><path d="M101.043 109.82 78.3867 95.9961 68.082 138.836Z" fill="#BEDF1B" transform="matrix(1 0 0 1.00001 265 339)"/><g clip-path="url(#clip2)"><path d="M141.297 255.988 120.781 269.191 86.0977 269.191 65.5703 255.988 49.6133 139.562 157.254 139.562ZM103.426 131.512 44.2734 131.512 53.2461 238.664 54.5312 311.793 103.426 313.098 152.328 311.793 153.605 238.664 162.609 131.512 103.426 131.512" fill="#CBEEFB" transform="matrix(1 0 0 1.00001 265 339)"/></g><path d="M148.707 302.199 58.3828 302.199 58.3828 309.035 148.707 309.035 148.707 302.199" fill="#96DCF8" transform="matrix(1 0 0 1.00001 265 339)"/><path d="M136.488 248.504 121.086 254.633 89.1094 254.633 73.3867 245.422 56.9062 163.16 148.707 163.16ZM52.2227 158.586 65.5703 255.988 86.0977 269.191 120.781 269.191 141.297 255.988 154.648 158.586 52.2227 158.586" fill="#D98618" transform="matrix(1 0 0 1.00001 265 339)"/><path d="M154.648 158.586 141.297 255.988Z" fill="#2B9C40" transform="matrix(1 0 0 1.00001 265 339)"/><path d="M294.402 312.102 238.105 312.102C231.379 312.102 225.875 306.59 225.875 299.852L223.406 244.836C222.777 230.734 221.059 216.703 218.27 202.867L209.449 159.113C209.449 152.375 214.953 146.863 221.68 146.863L305.352 146.863C312.078 146.863 317.582 152.375 317.582 159.113L310.574 201.992C308.277 216.051 307.078 230.266 306.984 244.512L306.629 299.852C306.629 306.59 301.129 312.102 294.402 312.102" fill="#94D8E8" transform="matrix(1 0 0 1.00001 265 339)"/><path d="M312.09 158.734C311.895 155.176 308.949 152.348 305.352 152.348L221.676 152.348C218.109 152.348 215.18 155.133 214.938 158.641L217.945 173.562 309.668 173.562 312.09 158.734" fill="#A6DAE8" transform="matrix(1 0 0 1.00001 265 339)"/><path d="M217.945 173.562 223.633 201.777C226.469 215.855 228.234 230.262 228.875 244.59L231.348 299.852C231.348 303.578 234.375 306.617 238.102 306.617L294.398 306.617C298.121 306.617 301.152 303.578 301.152 299.816L301.512 244.477C301.602 229.98 302.836 215.383 305.168 201.109L309.668 173.562 217.945 173.562" fill="#E8CE4D" transform="matrix(1 0 0 1.00001 265 339)"/><path d="M312.09 158.734C311.895 155.176 308.949 152.348 305.352 152.348L221.676 152.348C218.109 152.348 215.18 155.133 214.938 158.641L217.945 173.562 309.668 173.562 312.09 158.734" fill="#A6DAE8" transform="matrix(1 0 0 1.00001 265 339)"/><path d="M263.516 272.57C251.227 272.57 239.695 269.023 229.691 262.824L231.348 299.852C231.348 303.578 234.375 306.617 238.102 306.617L294.398 306.617C298.121 306.617 301.152 303.578 301.152 299.816L301.41 260.094C290.52 267.973 277.508 272.57 263.516 272.57" fill="#94D8E8" transform="matrix(1 0 0 1.00001 265 339)"/><g clip-path="url(#clip3)"><path d="M197.781 101.348C196.48 101.348 195.43 102.367 195.457 103.609 195.738 116.258 200.004 128.953 208.555 139.941 230.734 168.457 273.32 174.68 303.676 153.844 321.473 141.629 331.117 122.82 331.574 103.602 331.602 102.363 330.547 101.348 329.254 101.348L197.781 101.348" fill="#8AC941" transform="matrix(1 0 0 1.00001 265 339)"/></g><g clip-path="url(#clip4)"><path d="M200.867 101.34C200.832 101.34 200.801 101.367 200.801 101.402 200.59 114.113 204.746 126.492 212.879 136.938L212.883 136.938C233.281 163.141 272.594 168.883 300.512 149.734 314.039 140.457 322.906 126.793 325.48 111.262 326.027 107.965 326.273 104.672 326.234 101.402 326.234 101.367 326.203 101.34 326.168 101.34L200.867 101.34" fill="#E5FFD4" transform="matrix(1 0 0 1.00001 265 339)"/></g><g clip-path="url(#clip5)"><path d="M263.598 153.898C245.766 153.898 228.883 145.598 218.434 131.699 213.188 124.723 209.805 113.012 208.434 104 208.223 102.598 209.316 101.34 210.73 101.34L316.5 101.34C317.812 101.34 318.859 102.426 318.816 103.738 318.754 105.539 318.691 107.742 318.617 108.191 316.34 122.422 308.48 134.949 296.492 143.465 286.883 150.289 275.508 153.898 263.602 153.898L263.598 153.898" fill="#8AC941" transform="matrix(1 0 0 1.00001 265 339)"/></g><path d="M310.816 117.48C309.926 117.48 308.762 117.148 307.863 116.641 308.785 114.891 309.617 113.109 310.359 111.301 311.652 111.914 312.988 113.227 313.188 114.195 313.434 115.645 312.934 116.695 311.691 117.324 311.461 117.434 311.16 117.48 310.816 117.48" fill="#9FD363" transform="matrix(1 0 0 1.00001 265 339)"/><path d="M286.34 141.93C285.945 141.93 285.523 141.863 285.082 141.73 284.914 141.672 284.742 141.582 284.57 141.465 285.398 140.945 286.223 140.406 287.035 139.848 287.84 139.297 288.625 138.73 289.395 138.156 289.477 139.148 289.332 140.105 288.934 140.625 288.223 141.496 287.355 141.93 286.34 141.93" fill="#9FD363" transform="matrix(1 0 0 1.00001 265 339)"/><path d="M208.586 139.984C208.574 139.969 208.566 139.957 208.555 139.941 208.488 139.855 208.422 139.77 208.355 139.684 208.422 139.77 208.488 139.855 208.555 139.941 208.566 139.957 208.574 139.969 208.586 139.984" fill="#FFFFFF" transform="matrix(1 0 0 1.00001 265 339)"/><g clip-path="url(#clip6)"><path d="M220 146.98C216.707 145.652 213.504 144.074 210.441 142.25 209.809 141.512 209.188 140.758 208.586 139.984 208.574 139.969 208.566 139.957 208.555 139.941 208.488 139.855 208.422 139.77 208.355 139.684 199.938 128.754 195.734 116.156 195.457 103.609 195.43 102.367 196.48 101.348 197.781 101.348L200.836 101.348C200.816 101.359 200.801 101.379 200.801 101.402 200.59 114.113 204.746 126.492 212.879 136.938L212.883 136.938C215.781 140.664 219.066 143.977 222.645 146.863L221.68 146.863C221.672 146.863 221.664 146.863 221.656 146.863 221.652 146.863 221.652 146.863 221.652 146.863 221.645 146.863 221.641 146.863 221.633 146.863 221.633 146.863 221.633 146.863 221.629 146.863 221.078 146.867 220.535 146.906 220 146.98" fill="#9BD15D" transform="matrix(1 0 0 1.00001 265 339)"/></g><g clip-path="url(#clip7)"><path d="M236.035 146.863 222.645 146.863C219.066 143.977 215.781 140.664 212.883 136.938L212.879 136.938C204.746 126.492 200.59 114.113 200.801 101.402 200.801 101.379 200.816 101.359 200.836 101.348L210.52 101.348C209.211 101.465 208.234 102.668 208.434 104 209.805 113.012 213.188 124.723 218.434 131.699 223.156 137.98 229.191 143.117 236.035 146.863" fill="#E9FFDA" transform="matrix(1 0 0 1.00001 265 339)"/></g><g clip-path="url(#clip8)"><path d="M274.047 146.863 252.797 146.863C253.727 145.969 254.508 144.238 254.594 142.824 254.898 137.375 255.727 130.539 255.332 123.418 255.301 122.684 254.82 122.289 254.312 122.289 253.891 122.289 253.453 122.559 253.227 123.129 250.516 129.781 248.867 136.348 247.16 141.621 246.625 143.289 246.855 145.75 247.746 146.645 247.828 146.723 247.91 146.793 247.992 146.863L236.035 146.863C229.191 143.117 223.156 137.98 218.434 131.699 213.188 124.723 209.805 113.012 208.434 104 208.234 102.668 209.211 101.465 210.52 101.348L313.488 101.348C312.734 104.734 311.691 108.062 310.359 111.301 310.266 111.254 310.168 111.211 310.074 111.176 305.734 109.484 300.387 107.023 294.539 105.402 294.406 105.367 294.281 105.348 294.168 105.348 293.34 105.348 293.051 106.277 293.852 106.902 298.648 110.719 303.602 113.719 307.5 116.414 307.613 116.492 307.734 116.566 307.863 116.641 303.578 124.773 297.387 132.156 289.395 138.156 289.336 137.434 289.16 136.695 288.883 136.098 286.766 131.613 284.551 125.98 281.383 120.387 281.145 119.953 280.777 119.758 280.438 119.758 279.938 119.758 279.488 120.172 279.547 120.883 280.012 127.25 281.527 133.223 282.422 138.02 282.668 139.309 283.609 140.809 284.57 141.465 281.184 143.586 277.66 145.379 274.047 146.863M261.926 113.113C261.465 113.113 261.004 113.508 260.914 114.254 259.941 121.637 259.914 128.676 259.547 134.422 259.438 136.238 260.203 138.672 261.215 139.359 261.836 139.758 262.457 139.953 263.066 139.953 263.859 139.953 264.637 139.625 265.398 138.969 266.348 138.098 266.887 135.605 266.594 133.836 265.648 128.258 264.863 121.145 262.898 114.035 262.73 113.41 262.328 113.113 261.926 113.113M235.723 120C235.535 120 235.344 120.059 235.176 120.191 231.215 123.234 228.207 126.879 225.582 129.57 224.754 130.43 224.359 132.121 224.832 133.098 225.531 134.445 226.621 135.234 228.078 135.445 228.137 135.453 228.195 135.457 228.258 135.457 229.281 135.457 230.582 134.512 231.07 133.484 232.691 130.031 235.02 126.016 236.699 121.324 236.953 120.648 236.348 120 235.723 120M271.762 107.77C271.371 107.77 270.996 108.086 270.914 108.707 269.984 115.238 270.102 121.641 269.898 126.703 269.84 128.309 270.605 130.457 271.547 131.117 272.18 131.535 272.801 131.746 273.398 131.746 274.059 131.746 274.695 131.492 275.305 130.984 276.125 130.262 276.523 128.012 276.219 126.41 275.234 121.355 274.406 115.113 272.699 108.672 272.547 108.07 272.148 107.77 271.762 107.77M250.004 105.461C249.668 105.461 249.34 105.602 249.129 105.922 246.012 110.535 243.934 115.289 241.895 119.035 241.258 120.223 241.305 122.172 242.102 123.035 243.047 124 244.184 124.484 245.488 124.484 245.77 124.484 246.062 124.461 246.359 124.418 247.551 124.199 248.812 122.727 249.039 121.414 249.73 117.262 251.027 112.141 251.156 106.555 251.18 105.887 250.586 105.461 250.004 105.461M282.625 107.902C282.059 107.902 281.488 108.375 281.598 109.016 282.348 113.953 284.086 118.352 285.172 121.957 285.523 123.094 286.812 124.258 287.895 124.312 287.934 124.316 287.98 124.316 288.02 124.316 289.477 124.316 290.652 123.742 291.512 122.598 292.125 121.742 291.941 120.008 291.242 119.027 289.004 115.938 286.617 111.957 283.324 108.219 283.133 108 282.879 107.902 282.625 107.902M244.652 103.715C244.543 103.715 244.434 103.738 244.32 103.793 240.684 105.605 237.707 108.047 235.184 109.785 234.391 110.34 233.809 111.633 234.035 112.484 234.383 113.672 235.129 114.477 236.258 114.875 236.395 114.918 236.547 114.941 236.707 114.941 237.492 114.941 238.473 114.434 238.961 113.777 240.797 111.27 243.289 108.426 245.363 104.938 245.703 104.395 245.219 103.715 244.652 103.715M222.297 104.348C222.27 104.348 222.246 104.352 222.215 104.352 218.637 104.746 215.414 105.863 212.789 106.539 211.957 106.758 211.078 107.652 211.008 108.43 210.934 109.527 211.312 110.422 212.129 111.102 212.402 111.316 212.816 111.414 213.25 111.414 213.766 111.414 214.316 111.273 214.711 111.016 217.004 109.492 219.941 107.891 222.734 105.625 223.242 105.223 222.918 104.348 222.297 104.348" fill="#9BD15D" transform="matrix(1 0 0 1.00001 265 339)"/></g><path d="M245.488 124.484C244.184 124.484 243.047 124 242.102 123.035 241.305 122.172 241.258 120.223 241.895 119.035 243.934 115.289 246.012 110.535 249.129 105.922 249.34 105.602 249.668 105.461 250.004 105.461 250.586 105.461 251.18 105.887 251.156 106.555 251.027 112.141 249.73 117.262 249.039 121.414 248.812 122.727 247.551 124.199 246.359 124.418 246.062 124.461 245.77 124.484 245.488 124.484" fill="#ADDA7A" transform="matrix(1 0 0 1.00001 265 339)"/><path d="M252.797 146.863 247.992 146.863C247.91 146.793 247.828 146.723 247.746 146.645 246.855 145.75 246.625 143.289 247.16 141.621 248.867 136.348 250.516 129.781 253.227 123.129 253.453 122.559 253.891 122.289 254.312 122.289 254.82 122.289 255.301 122.684 255.332 123.418 255.727 130.539 254.898 137.375 254.594 142.824 254.508 144.238 253.727 145.969 252.797 146.863" fill="#ADDA7A" transform="matrix(1 0 0 1.00001 265 339)"/><path d="M263.066 139.953C262.457 139.953 261.836 139.758 261.215 139.359 260.203 138.672 259.438 136.238 259.547 134.422 259.914 128.676 259.941 121.637 260.914 114.254 261.004 113.508 261.465 113.113 261.926 113.113 262.328 113.113 262.73 113.41 262.898 114.035 264.863 121.145 265.648 128.258 266.594 133.836 266.887 135.605 266.348 138.098 265.398 138.969 264.637 139.625 263.859 139.953 263.066 139.953" fill="#ADDA7A" transform="matrix(1 0 0 1.00001 265 339)"/><path d="M307.863 116.641C307.734 116.566 307.613 116.492 307.5 116.414 303.602 113.719 298.648 110.719 293.852 106.902 293.051 106.277 293.34 105.348 294.168 105.348 294.281 105.348 294.406 105.367 294.539 105.402 300.387 107.023 305.734 109.484 310.074 111.176 310.168 111.211 310.266 111.254 310.359 111.301 309.617 113.109 308.785 114.891 307.863 116.641" fill="#ADDA7A" transform="matrix(1 0 0 1.00001 265 339)"/><path d="M288.02 124.316C287.98 124.316 287.934 124.316 287.895 124.312 286.812 124.258 285.523 123.094 285.172 121.957 284.086 118.352 282.348 113.953 281.598 109.016 281.488 108.375 282.059 107.902 282.625 107.902 282.879 107.902 283.133 108 283.324 108.219 286.617 111.957 289.004 115.938 291.242 119.027 291.941 120.008 292.125 121.742 291.512 122.598 290.652 123.742 289.477 124.316 288.02 124.316" fill="#ADDA7A" transform="matrix(1 0 0 1.00001 265 339)"/><path d="M228.258 135.457C228.195 135.457 228.137 135.453 228.078 135.445 226.621 135.234 225.531 134.445 224.832 133.098 224.359 132.121 224.754 130.43 225.582 129.57 228.207 126.879 231.215 123.234 235.176 120.191 235.344 120.059 235.535 120 235.723 120 236.348 120 236.953 120.648 236.699 121.324 235.02 126.016 232.691 130.031 231.07 133.484 230.582 134.512 229.281 135.457 228.258 135.457" fill="#ADDA7A" transform="matrix(1 0 0 1.00001 265 339)"/><path d="M236.707 114.941C236.547 114.941 236.395 114.918 236.258 114.875 235.129 114.477 234.383 113.672 234.035 112.484 233.809 111.633 234.391 110.34 235.184 109.785 237.707 108.047 240.684 105.605 244.32 103.793 244.434 103.738 244.543 103.715 244.652 103.715 245.219 103.715 245.703 104.395 245.363 104.938 243.289 108.426 240.797 111.27 238.961 113.777 238.473 114.434 237.492 114.941 236.707 114.941" fill="#ADDA7A" transform="matrix(1 0 0 1.00001 265 339)"/><path d="M213.25 111.414C212.816 111.414 212.402 111.316 212.129 111.102 211.312 110.422 210.934 109.527 211.008 108.43 211.078 107.652 211.957 106.758 212.789 106.539 215.414 105.863 218.637 104.746 222.215 104.352 222.246 104.352 222.27 104.348 222.297 104.348 222.918 104.348 223.242 105.223 222.734 105.625 219.941 107.891 217.004 109.492 214.711 111.016 214.316 111.273 213.766 111.414 213.25 111.414" fill="#ADDA7A" transform="matrix(1 0 0 1.00001 265 339)"/><path d="M284.57 141.465C283.609 140.809 282.668 139.309 282.422 138.02 281.527 133.223 280.012 127.25 279.547 120.883 279.488 120.172 279.938 119.758 280.438 119.758 280.777 119.758 281.145 119.953 281.383 120.387 284.551 125.98 286.766 131.613 288.883 136.098 289.16 136.695 289.336 137.434 289.395 138.156 288.625 138.73 287.84 139.297 287.035 139.848 286.223 140.406 285.398 140.945 284.57 141.465" fill="#ADDA7A" transform="matrix(1 0 0 1.00001 265 339)"/><path d="M273.398 131.746C272.801 131.746 272.18 131.535 271.547 131.117 270.605 130.457 269.84 128.309 269.898 126.703 270.102 121.641 269.984 115.238 270.914 108.707 270.996 108.086 271.371 107.77 271.762 107.77 272.148 107.77 272.547 108.07 272.699 108.672 274.406 115.113 275.234 121.355 276.219 126.41 276.523 128.012 276.125 130.262 275.305 130.984 274.695 131.492 274.059 131.746 273.398 131.746" fill="#ADDA7A" transform="matrix(1 0 0 1.00001 265 339)"/><path d="M303.621 153.883C303.641 153.871 303.656 153.859 303.676 153.844 303.691 153.836 303.707 153.824 303.723 153.812 303.707 153.824 303.691 153.836 303.676 153.844 303.656 153.859 303.641 153.871 303.621 153.883M303.73 153.809C303.746 153.797 303.758 153.789 303.773 153.777 303.758 153.789 303.746 153.797 303.73 153.809M303.785 153.77C303.797 153.762 303.812 153.754 303.824 153.742 303.812 153.754 303.797 153.762 303.785 153.77M303.848 153.727C303.852 153.723 303.855 153.723 303.859 153.719 303.855 153.723 303.852 153.723 303.848 153.727" fill="#9ED9E8" transform="matrix(1 0 0 1.00001 265 339)"/><path d="M294.922 158.957 295.965 152.578C297.512 151.703 299.027 150.754 300.512 149.734 301.848 148.816 303.137 147.859 304.379 146.863L305.352 146.863C307.32 146.863 309.18 147.348 310.832 148.184 308.672 150.148 306.348 152 303.859 153.719 303.855 153.723 303.852 153.723 303.848 153.727 303.84 153.734 303.832 153.738 303.824 153.742 303.812 153.754 303.797 153.762 303.785 153.77 303.781 153.773 303.777 153.777 303.773 153.777 303.758 153.789 303.746 153.797 303.73 153.809 303.727 153.812 303.727 153.812 303.723 153.812 303.707 153.824 303.691 153.836 303.676 153.844 303.656 153.859 303.641 153.871 303.621 153.883 300.82 155.805 297.91 157.492 294.922 158.957" fill="#8ECF87" transform="matrix(1 0 0 1.00001 265 339)"/><path d="M295.965 152.578 296.898 146.863 291.09 146.863 304.379 146.863C303.137 147.859 301.848 148.816 300.512 149.734 299.027 150.754 297.512 151.703 295.965 152.578" fill="#C3EFDC" transform="matrix(1 0 0 1.00001 265 339)"/><path d="M231.262 297.965 231.086 293.973 231.262 297.965" fill="#A8DFEC" transform="matrix(1 0 0 1.00001 265 339)"/><path d="M231.262 297.965 231.086 293.973 231.262 297.965" fill="#ECD76F" transform="matrix(1 0 0 1.00001 265 339)"/><path d="M271.391 297.965 231.262 297.965 231.086 293.973 274.684 293.973C274.949 293.973 275.215 293.965 275.477 293.949L271.391 297.965" fill="#A8DFEC" transform="matrix(1 0 0 1.00001 265 339)"/><path d="M286.996 268.051 286.996 268.043C289.168 267.176 291.289 266.195 293.352 265.102L293.352 265.109C291.289 266.203 289.168 267.184 286.996 268.051" fill="#ECD76F" transform="matrix(1 0 0 1.00001 265 339)"/><path d="M286.867 282.75C286.895 282.41 286.91 282.07 286.91 281.723L286.996 268.051C289.168 267.184 291.289 266.203 293.352 265.109L293.277 276.445 286.867 282.75" fill="#A8DFEC" transform="matrix(1 0 0 1.00001 265 339)"/><path d="M225.613 293.973 223.406 244.836 224.352 265.871 225.613 293.973" fill="#FFFFFF" transform="matrix(1 0 0 1.00001 265 339)"/><path d="M231.086 293.973 225.613 293.973 224.352 265.871 224.648 272.52 230.125 272.52 230.812 287.895 231.086 293.973" fill="#A8DFEC" transform="matrix(1 0 0 1.00001 265 339)"/><path d="M230.812 287.895 230.125 272.52 230.812 287.895" fill="#ECD76F" transform="matrix(1 0 0 1.00001 265 339)"/><path d="M263.516 272.57C262.289 272.57 261.07 272.535 259.863 272.465 266.07 271.898 270.969 266.629 270.969 260.27L271.328 204.93C271.395 194.441 272.066 183.969 273.328 173.562L292.539 173.562 290.855 183.859C288.559 197.922 287.359 212.137 287.266 226.383L286.996 268.043C279.77 270.93 271.984 272.527 263.863 272.57 263.859 272.57 263.859 272.57 263.859 272.57 263.848 272.57 263.84 272.57 263.832 272.57 263.828 272.57 263.824 272.57 263.824 272.57 263.805 272.57 263.789 272.57 263.773 272.57 263.773 272.57 263.77 272.57 263.766 272.57 263.758 272.57 263.754 272.57 263.746 272.57 263.738 272.57 263.734 272.57 263.727 272.57 263.723 272.57 263.715 272.57 263.711 272.57 263.707 272.57 263.695 272.57 263.691 272.57 263.684 272.57 263.68 272.57 263.676 272.57 263.66 272.57 263.652 272.57 263.641 272.57 263.637 272.57 263.633 272.57 263.633 272.57 263.621 272.57 263.613 272.57 263.602 272.57 263.598 272.57 263.594 272.57 263.59 272.57 263.582 272.57 263.57 272.57 263.562 272.57 263.559 272.57 263.555 272.57 263.551 272.57 263.539 272.57 263.527 272.57 263.516 272.57" fill="#ECD76F" transform="matrix(1 0 0 1.00001 265 339)"/><path d="M292.539 173.562 273.328 173.562C273.664 170.816 274.039 168.078 274.453 165.344 281.473 164.277 288.387 162.16 294.922 158.957L292.539 173.562" fill="#B7E1EC" transform="matrix(1 0 0 1.00001 265 339)"/><path d="M263.516 272.57C262.289 272.57 261.07 272.535 259.863 272.465 261.07 272.535 262.289 272.57 263.516 272.57 263.527 272.57 263.539 272.57 263.551 272.57 263.539 272.57 263.527 272.57 263.516 272.57M263.562 272.57C263.57 272.57 263.582 272.57 263.59 272.57 263.582 272.57 263.57 272.57 263.562 272.57M263.602 272.57C263.613 272.57 263.621 272.57 263.633 272.57 263.621 272.57 263.613 272.57 263.602 272.57M263.641 272.57C263.652 272.57 263.66 272.57 263.676 272.57 263.66 272.57 263.652 272.57 263.641 272.57M263.691 272.57C263.695 272.57 263.707 272.57 263.711 272.57 263.703 272.57 263.695 272.57 263.691 272.57M263.727 272.57C263.734 272.57 263.738 272.57 263.746 272.57 263.742 272.57 263.734 272.57 263.727 272.57M263.766 272.57C263.77 272.57 263.773 272.57 263.773 272.57 263.773 272.57 263.77 272.57 263.766 272.57M263.824 272.57C263.824 272.57 263.828 272.57 263.832 272.57 263.828 272.57 263.824 272.57 263.824 272.57M263.859 272.57C263.859 272.57 263.859 272.57 263.863 272.57 263.859 272.57 263.859 272.57 263.859 272.57" fill="#A8DFEC" transform="matrix(1 0 0 1.00001 265 339)"/><path d="M274.453 165.344C274.453 165.34 274.453 165.34 274.453 165.34 281.473 164.273 288.387 162.16 294.922 158.957 288.387 162.16 281.473 164.277 274.453 165.344" fill="#A0D365" transform="matrix(1 0 0 1.00001 265 339)"/><path d="M274.453 165.34C274.605 164.363 274.758 163.383 274.918 162.406L275.309 160.016C282.457 158.742 289.457 156.277 295.965 152.578L294.922 158.957C288.387 162.16 281.473 164.273 274.453 165.34" fill="#A3D89E" transform="matrix(1 0 0 1.00001 265 339)"/><path d="M275.309 160.016 276.547 152.434C281.629 151.262 286.512 149.395 291.09 146.863L296.898 146.863 295.965 152.578C289.457 156.277 282.457 158.742 275.309 160.016" fill="#CEF2E3" transform="matrix(1 0 0 1.00001 265 339)"/><path d="M276.547 152.434 277.457 146.863 274.047 146.863 291.09 146.863C286.512 149.395 281.629 151.262 276.547 152.434" fill="#A3D89E" transform="matrix(1 0 0 1.00001 265 339)"/><path d="M231.086 293.973 230.812 287.895 231.086 293.973" fill="#B8E5F0" transform="matrix(1 0 0 1.00001 265 339)"/><path d="M231.086 293.973 230.812 287.895 230.125 272.52 231.086 293.973M263.551 272.57C263.555 272.57 263.559 272.57 263.562 272.57 263.559 272.57 263.555 272.57 263.551 272.57M263.59 272.57C263.594 272.57 263.598 272.57 263.602 272.57 263.598 272.57 263.594 272.57 263.59 272.57M263.633 272.57C263.633 272.57 263.637 272.57 263.641 272.57 263.637 272.57 263.633 272.57 263.633 272.57M263.676 272.57C263.68 272.57 263.684 272.57 263.691 272.57 263.684 272.57 263.68 272.57 263.676 272.57M263.711 272.57C263.715 272.57 263.723 272.57 263.727 272.57 263.723 272.57 263.719 272.57 263.711 272.57M263.746 272.57C263.754 272.57 263.758 272.57 263.766 272.57 263.758 272.57 263.754 272.57 263.746 272.57M263.773 272.57C263.789 272.57 263.805 272.57 263.824 272.57 263.809 272.57 263.789 272.57 263.773 272.57M263.832 272.57C263.84 272.57 263.848 272.57 263.859 272.57 263.848 272.57 263.84 272.57 263.832 272.57M263.863 272.57C271.984 272.527 279.77 270.93 286.996 268.043L286.996 268.051C279.77 270.934 271.98 272.527 263.863 272.57" fill="#F0DF8A" transform="matrix(1 0 0 1.00001 265 339)"/><path d="M274.684 293.973 231.086 293.973 230.125 272.52 258.742 272.52C259.121 272.52 259.492 272.5 259.863 272.465 261.07 272.535 262.289 272.57 263.516 272.57 263.527 272.57 263.539 272.57 263.551 272.57 263.555 272.57 263.559 272.57 263.562 272.57 263.57 272.57 263.582 272.57 263.59 272.57 263.594 272.57 263.598 272.57 263.602 272.57 263.613 272.57 263.621 272.57 263.633 272.57 263.633 272.57 263.637 272.57 263.641 272.57 263.652 272.57 263.66 272.57 263.676 272.57 263.68 272.57 263.684 272.57 263.691 272.57 263.695 272.57 263.703 272.57 263.711 272.57 263.719 272.57 263.723 272.57 263.727 272.57 263.734 272.57 263.742 272.57 263.746 272.57 263.754 272.57 263.758 272.57 263.766 272.57 263.77 272.57 263.773 272.57 263.773 272.57 263.789 272.57 263.809 272.57 263.824 272.57 263.824 272.57 263.828 272.57 263.832 272.57 263.84 272.57 263.848 272.57 263.859 272.57 263.859 272.57 263.859 272.57 263.863 272.57 271.98 272.527 279.77 270.934 286.996 268.051L286.91 281.723C286.91 282.07 286.895 282.41 286.867 282.75L275.477 293.949C275.215 293.965 274.949 293.973 274.684 293.973" fill="#B8E5F0" transform="matrix(1 0 0 1.00001 265 339)"/><path d="M224.352 265.871 223.406 244.836C222.777 230.734 221.059 216.703 218.27 202.867L209.449 159.113 218.27 202.867C221.059 216.703 222.777 230.734 223.406 244.836L224.352 265.871" fill="#FFFFFF" transform="matrix(1 0 0 1.00001 265 339)"/><path d="M230.125 272.52 224.648 272.52 224.352 265.871 223.406 244.836C222.777 230.734 221.059 216.703 218.27 202.867L209.449 159.113C209.449 154.355 212.195 150.207 216.176 148.18 217.805 149.664 219.5 151.059 221.25 152.363 217.879 152.574 215.168 155.273 214.938 158.641L217.945 173.562 223.633 201.777C226.469 215.855 228.234 230.262 228.875 244.59L230.125 272.52" fill="#B8E5F0" transform="matrix(1 0 0 1.00001 265 339)"/><path d="M230.125 272.52 228.875 244.59C228.234 230.262 226.469 215.855 223.633 201.777L217.945 173.562 225.5 173.562C225.031 175.785 224.93 178.094 225.242 180.324 225.633 183.105 225.961 185.898 226.227 188.699 226.844 194.953 230.371 198.961 235.02 198.961 236.164 198.961 237.371 198.719 238.625 198.207 239.754 197.746 240.883 197.281 242.008 196.816 248.328 194.23 253.664 185.422 253.137 177.305 253.055 176.055 252.961 174.809 252.855 173.562L273.328 173.562C272.066 183.969 271.395 194.441 271.328 204.93L270.969 260.27C270.969 266.629 266.07 271.898 259.863 272.465 248.941 271.836 238.699 268.406 229.691 262.824L230.125 272.52" fill="#F0DF8A" transform="matrix(1 0 0 1.00001 265 339)"/><path d="M273.328 173.562 252.855 173.562C252.711 171.914 252.547 170.266 252.359 168.621 252.223 167.371 251.945 166.215 251.551 165.164 255.512 165.828 259.539 166.164 263.57 166.164 267.203 166.164 270.84 165.891 274.453 165.344 274.039 168.078 273.664 170.816 273.328 173.562M225.5 173.562 217.945 173.562 214.938 158.641C215.168 155.273 217.879 152.574 221.25 152.363 225.703 155.676 230.531 158.414 235.605 160.551 235.305 160.684 235.008 160.816 234.707 160.949 230.012 163.055 226.652 168.059 225.5 173.562" fill="#C5E7F0" transform="matrix(1 0 0 1.00001 265 339)"/><path d="M263.57 166.164C259.539 166.164 255.512 165.828 251.551 165.164 251.551 165.16 251.551 165.156 251.547 165.152 255.52 165.82 259.551 166.156 263.594 166.156 267.219 166.156 270.848 165.887 274.453 165.34 274.453 165.34 274.453 165.34 274.453 165.344 270.84 165.891 267.203 166.164 263.57 166.164M235.605 160.551C230.531 158.414 225.703 155.676 221.25 152.363 219.5 151.059 217.805 149.664 216.176 148.18 217.355 147.582 218.645 147.168 220 146.98 220.004 146.98 220.004 146.98 220.008 146.98 218.656 147.172 217.379 147.586 216.207 148.18 221.969 153.43 228.559 157.562 235.625 160.539 235.617 160.543 235.613 160.547 235.605 160.551" fill="#B2DB82" transform="matrix(1 0 0 1.00001 265 339)"/><path d="M220.008 146.98C220.004 146.98 220.004 146.98 220 146.98 220.535 146.906 221.078 146.867 221.629 146.863 221.078 146.867 220.539 146.906 220.008 146.98M221.633 146.863C221.641 146.863 221.645 146.863 221.652 146.863 221.645 146.863 221.641 146.863 221.633 146.863M221.656 146.863C221.664 146.863 221.672 146.863 221.68 146.863 221.672 146.863 221.664 146.863 221.656 146.863" fill="#BDE194" transform="matrix(1 0 0 1.00001 265 339)"/><path d="M263.594 166.156C259.551 166.156 255.52 165.82 251.547 165.152 249.953 160.926 246.453 158.434 242.492 158.434 241.102 158.434 239.648 158.742 238.207 159.391 237.348 159.773 236.484 160.156 235.625 160.539 228.559 157.562 221.969 153.43 216.207 148.18 217.379 147.586 218.656 147.172 220.008 146.98 221.734 147.676 223.484 148.301 225.262 148.859 236.363 156.871 249.918 161.047 263.598 161.047 267.508 161.047 271.43 160.707 275.309 160.016L274.918 162.406C274.758 163.383 274.605 164.363 274.453 165.34 270.848 165.887 267.219 166.156 263.594 166.156" fill="#B4DFB0" transform="matrix(1 0 0 1.00001 265 339)"/><path d="M263.598 161.047C249.918 161.047 236.363 156.871 225.262 148.859 232.242 151.047 239.57 152.164 246.93 152.164 247.758 152.164 248.59 152.152 249.418 152.125 254.004 153.289 258.766 153.898 263.598 153.898L263.602 153.898C268.012 153.898 272.348 153.406 276.547 152.434L275.309 160.016C271.43 160.707 267.508 161.047 263.598 161.047" fill="#D7F4E8" transform="matrix(1 0 0 1.00001 265 339)"/><path d="M263.602 153.898 263.598 153.898C258.766 153.898 254.004 153.289 249.418 152.125 257.777 151.836 266.133 150.105 274.047 146.863L277.457 146.863 276.547 152.434C272.348 153.406 268.012 153.898 263.602 153.898" fill="#B4DFB0" transform="matrix(1 0 0 1.00001 265 339)"/><path d="M225.262 148.859C223.484 148.301 221.734 147.676 220.008 146.98 220.539 146.906 221.078 146.867 221.629 146.863 221.633 146.863 221.633 146.863 221.633 146.863 221.641 146.863 221.645 146.863 221.652 146.863 221.652 146.863 221.652 146.863 221.656 146.863 221.664 146.863 221.672 146.863 221.68 146.863L222.645 146.863C223.504 147.555 224.371 148.215 225.262 148.859" fill="#BBE3BB" transform="matrix(1 0 0 1.00001 265 339)"/><path d="M246.93 152.164C239.57 152.164 232.242 151.047 225.262 148.859 224.371 148.215 223.504 147.555 222.645 146.863L236.035 146.863C240.23 149.16 244.73 150.934 249.418 152.125 248.59 152.152 247.758 152.164 246.93 152.164" fill="#D9F4EB" transform="matrix(1 0 0 1.00001 265 339)"/><path d="M249.418 152.125C244.73 150.934 240.23 149.16 236.035 146.863L247.992 146.863C248.707 147.457 249.488 147.75 250.328 147.75 250.914 147.75 251.531 147.605 252.172 147.316 252.387 147.215 252.594 147.059 252.797 146.863L274.047 146.863C266.133 150.105 257.777 151.836 249.418 152.125" fill="#BBE3BB" transform="matrix(1 0 0 1.00001 265 339)"/><path d="M250.328 147.75C249.488 147.75 248.707 147.457 247.992 146.863L252.797 146.863C252.594 147.059 252.387 147.215 252.172 147.316 251.531 147.605 250.914 147.75 250.328 147.75" fill="#C2E6C5" transform="matrix(1 0 0 1.00001 265 339)"/><path d="M230.125 272.52 229.691 262.824 230.125 272.52" fill="#F3E5A0" transform="matrix(1 0 0 1.00001 265 339)"/><path d="M258.742 272.52 230.125 272.52 229.691 262.824C238.699 268.406 248.941 271.836 259.863 272.465 259.492 272.5 259.121 272.52 258.742 272.52" fill="#C5EAF3" transform="matrix(1 0 0 1.00001 265 339)"/><path d="M235.02 198.961C230.371 198.961 226.844 194.953 226.227 188.699 225.961 185.898 225.633 183.105 225.242 180.324 224.93 178.094 225.031 175.785 225.5 173.562L252.855 173.562C252.961 174.809 253.055 176.055 253.137 177.305 253.664 185.422 248.328 194.23 242.008 196.816 240.883 197.281 239.754 197.746 238.625 198.207 237.371 198.719 236.164 198.961 235.02 198.961" fill="#F3E7AC" transform="matrix(1 0 0 1.00001 265 339)"/><path d="M252.855 173.562 225.5 173.562C226.652 168.059 230.012 163.055 234.707 160.949 235.008 160.816 235.305 160.684 235.605 160.551 240.719 162.703 246.074 164.246 251.551 165.164 251.945 166.215 252.223 167.371 252.359 168.621 252.547 170.266 252.711 171.914 252.855 173.562" fill="#D5ECF3" transform="matrix(1 0 0 1.00001 265 339)"/><path d="M251.551 165.164C246.074 164.246 240.719 162.703 235.605 160.551 235.613 160.547 235.617 160.543 235.625 160.539 240.727 162.691 246.082 164.234 251.547 165.152 251.551 165.156 251.551 165.16 251.551 165.164" fill="#C7E4A6" transform="matrix(1 0 0 1.00001 265 339)"/><path d="M251.547 165.152C246.082 164.234 240.727 162.691 235.625 160.539 236.484 160.156 237.348 159.773 238.207 159.391 239.648 158.742 241.102 158.434 242.492 158.434 246.453 158.434 249.953 160.926 251.547 165.152" fill="#C9E7C6" transform="matrix(1 0 0 1.00001 265 339)"/><g clip-path="url(#clip9)"><path d="M321.555 256.668 373.117 297.492C376.84 301.152 374.301 304.152 369.039 307.492L336.781 330.234C336.273 330.594 335.719 330.871 335.125 331.047 327.141 333.398 318.664 333.574 310.578 331.547L266.25 317.031C260.414 314.668 258.449 310.691 262.172 307.031L313.395 256.668C315.66 254.441 319.289 254.441 321.555 256.668" fill="#E4E7EA" transform="matrix(1 0 0 1.00001 265 339)"/></g><path d="M310.734 331.586C310.73 331.586 310.727 331.586 310.727 331.586 310.727 331.586 310.73 331.586 310.734 331.586M310.699 331.578C310.691 331.574 310.688 331.574 310.68 331.57 310.688 331.574 310.691 331.574 310.699 331.578M310.66 331.566C310.652 331.566 310.641 331.562 310.633 331.562 310.641 331.562 310.652 331.566 310.66 331.566M310.617 331.559C310.605 331.555 310.59 331.551 310.578 331.547L266.25 317.031C263.105 315.758 261.082 314.012 260.473 312.102 261.082 314.012 263.105 315.758 266.25 317.031L310.578 331.547C310.59 331.551 310.605 331.555 310.617 331.559" fill="#FFFFFF" transform="matrix(1 0 0 1.00001 265 339)"/><path d="M260.473 312.102C260.031 310.73 260.32 309.27 261.445 307.84 260.32 309.27 260.031 310.73 260.473 312.102" fill="#A8DFEC" transform="matrix(1 0 0 1.00001 265 339)"/><path d="M313.395 256.668C313.398 256.664 313.402 256.66 313.406 256.656 313.402 256.66 313.398 256.664 313.395 256.668" fill="#FFFFFF" transform="matrix(1 0 0 1.00001 265 339)"/><g clip-path="url(#clip10)"><path d="M320.48 332.922C317.207 332.816 313.941 332.379 310.734 331.586 310.73 331.586 310.727 331.586 310.727 331.586 310.715 331.582 310.707 331.578 310.699 331.578 310.691 331.574 310.688 331.574 310.68 331.57 310.672 331.57 310.668 331.57 310.66 331.566 310.652 331.566 310.641 331.562 310.633 331.562 310.629 331.559 310.625 331.559 310.617 331.559 310.605 331.555 310.59 331.551 310.578 331.547L266.25 317.031C263.105 315.758 261.082 314.012 260.473 312.102 260.031 310.73 260.32 309.27 261.445 307.84 261.656 307.566 261.898 307.297 262.172 307.031L313.395 256.668C313.398 256.664 313.402 256.66 313.406 256.656 314.316 255.766 315.441 255.242 316.613 255.066 318.555 258.277 319.996 261.859 320.789 265.734L328.527 303.398C330.773 314.328 327.43 325.168 320.48 332.922M307.617 266.371C307.125 266.371 306.633 266.547 306.242 266.926L306.223 266.945 269.465 303.09C266.809 305.695 268.188 308.531 272.312 310.23 272.363 310.254 272.418 310.273 272.473 310.289L304.121 320.656C304.176 320.672 304.23 320.688 304.281 320.703 306.258 321.191 308.258 321.492 310.27 321.617 310.312 321.621 310.359 321.621 310.398 321.621 311.008 321.621 311.594 321.352 311.984 320.875 316.512 315.379 318.617 307.961 317.082 300.48L311.531 273.449C311.098 271.352 310.402 269.367 309.484 267.527 309.113 266.785 308.367 266.371 307.617 266.371" fill="#E9ECEE" transform="matrix(1 0 0 1.00001 265 339)"/></g><path d="M310.398 321.621C310.359 321.621 310.312 321.621 310.27 321.617 308.258 321.492 306.258 321.191 304.281 320.703 304.23 320.688 304.176 320.672 304.121 320.656L272.473 310.289C272.418 310.273 272.363 310.254 272.312 310.23 268.188 308.531 266.809 305.695 269.465 303.09L306.223 266.945 306.242 266.926C306.633 266.547 307.125 266.371 307.617 266.371 308.367 266.371 309.113 266.785 309.484 267.527 310.402 269.367 311.098 271.352 311.531 273.449L317.082 300.48C318.617 307.961 316.512 315.379 311.984 320.875 311.594 321.352 311.008 321.621 310.398 321.621" fill="#EDF0F1" transform="matrix(1 0 0 1.00001 265 339)"/><path d="M348.844 324.41 347.457 324.41C347.094 324.41 346.793 324.109 346.793 323.738L346.793 322.352C346.793 321.984 347.094 321.684 347.457 321.684L348.844 321.684C349.211 321.684 349.512 321.984 349.512 322.352L349.512 323.738C349.512 324.109 349.211 324.41 348.844 324.41" fill="#E4E7EA" transform="matrix(1 0 0 1.00001 265 339)"/><path d="M352.594 323.18 351.512 322.312C351.227 322.082 351.18 321.66 351.41 321.375L352.273 320.289C352.504 320.004 352.926 319.957 353.211 320.188L354.293 321.055C354.582 321.285 354.629 321.707 354.398 321.992L353.531 323.078C353.305 323.363 352.879 323.41 352.594 323.18" fill="#E4E7EA" transform="matrix(1 0 0 1.00001 265 339)"/><path d="M320.07 323.117 318.988 322.25C318.703 322.02 318.656 321.598 318.887 321.312L319.75 320.227C319.98 319.941 320.402 319.895 320.688 320.125L321.77 320.992C322.055 321.223 322.102 321.645 321.875 321.934L321.008 323.016C320.777 323.305 320.355 323.348 320.07 323.117" fill="#FDFEFF" transform="matrix(1 0 0 1.00001 265 339)"/><path d="M302.402 290.238 301.039 290C300.676 289.938 300.434 289.59 300.496 289.227L300.734 287.859C300.797 287.5 301.145 287.254 301.508 287.316L302.871 287.555C303.234 287.617 303.477 287.969 303.414 288.328L303.176 289.695C303.109 290.059 302.766 290.305 302.402 290.238" fill="#FDFEFF" transform="matrix(1 0 0 1.00001 265 339)"/><path d="M351.176 330.023 350.094 329.152C349.809 328.926 349.762 328.5 349.992 328.215L350.859 327.133C351.09 326.844 351.512 326.797 351.797 327.027L352.879 327.895C353.164 328.125 353.211 328.547 352.98 328.832L352.117 329.918C351.887 330.203 351.465 330.25 351.176 330.023" fill="#E4E7EA" transform="matrix(1 0 0 1.00001 265 339)"/><path d="M305.016 292.98 303.934 292.113C303.648 291.883 303.602 291.461 303.832 291.172L304.695 290.09C304.926 289.801 305.348 289.754 305.633 289.984L306.715 290.852C307.004 291.082 307.051 291.508 306.82 291.793L305.953 292.875C305.723 293.164 305.301 293.211 305.016 292.98" fill="#FDFEFF" transform="matrix(1 0 0 1.00001 265 339)"/><path d="M352.211 325.438 351.418 325.215C351.207 325.156 351.086 324.938 351.145 324.727L351.363 323.934C351.422 323.723 351.641 323.598 351.852 323.656L352.645 323.879C352.855 323.938 352.98 324.156 352.922 324.367L352.699 325.16C352.641 325.371 352.422 325.496 352.211 325.438" fill="#E4E7EA" transform="matrix(1 0 0 1.00001 265 339)"/><path d="M318.664 319.188 317.871 318.969C317.66 318.91 317.535 318.691 317.594 318.48L317.816 317.688C317.875 317.477 318.094 317.352 318.305 317.41L319.098 317.629C319.309 317.688 319.43 317.91 319.371 318.121L319.148 318.914C319.094 319.125 318.875 319.25 318.664 319.188" fill="#FDFEFF" transform="matrix(1 0 0 1.00001 265 339)"/><path d="M305.227 287.742 304.434 287.52C304.223 287.461 304.102 287.242 304.16 287.031L304.379 286.234C304.438 286.023 304.656 285.898 304.867 285.957L305.66 286.18C305.871 286.238 305.996 286.461 305.938 286.668L305.715 287.465C305.656 287.676 305.438 287.797 305.227 287.742" fill="#FDFEFF" transform="matrix(1 0 0 1.00001 265 339)"/><path d="M362.113 307.852 361.031 306.984C360.746 306.754 360.699 306.332 360.93 306.047L361.793 304.961C362.023 304.676 362.445 304.629 362.73 304.859L363.812 305.727C364.102 305.957 364.148 306.379 363.918 306.668L363.051 307.75C362.82 308.039 362.398 308.082 362.113 307.852" fill="#FDFEFF" transform="matrix(1 0 0 1.00001 265 339)"/><path d="M330.551 292.98 329.469 292.113C329.184 291.883 329.137 291.461 329.367 291.172L330.23 290.09C330.461 289.801 330.883 289.754 331.168 289.984L332.25 290.852C332.539 291.082 332.586 291.508 332.355 291.793L331.488 292.875C331.262 293.164 330.836 293.211 330.551 292.98" fill="#FDFEFF" transform="matrix(1 0 0 1.00001 265 339)"/><path d="M334.863 274.688 333.66 275.383C333.344 275.566 332.934 275.457 332.75 275.137L332.055 273.934C331.871 273.617 331.98 273.207 332.301 273.023L333.5 272.328C333.82 272.145 334.227 272.254 334.41 272.574L335.105 273.777C335.289 274.094 335.18 274.504 334.863 274.688" fill="#FDFEFF" transform="matrix(1 0 0 1.00001 265 339)"/><path d="M331.352 278.656 329.727 278.336C329.297 278.254 329.016 277.832 329.102 277.402L329.418 275.777C329.5 275.348 329.922 275.062 330.352 275.148L331.973 275.465C332.402 275.551 332.684 275.973 332.602 276.402L332.285 278.027C332.199 278.457 331.777 278.738 331.352 278.656" fill="#FDFEFF" transform="matrix(1 0 0 1.00001 265 339)"/><path d="M334.543 278.789 333.871 278.609C333.695 278.562 333.59 278.379 333.637 278.203L333.816 277.531C333.863 277.355 334.047 277.246 334.227 277.293L334.895 277.473C335.07 277.523 335.176 277.707 335.129 277.883L334.953 278.555C334.902 278.73 334.719 278.836 334.543 278.789" fill="#FDFEFF" transform="matrix(1 0 0 1.00001 265 339)"/><g clip-path="url(#clip11)"><path d="M232.055 312.297 146.738 312.297 128.828 164.477 249.98 164.477 232.055 312.297" fill="#9884B1" transform="matrix(1 0 0 1.00001 265 339)"/></g><path d="M234.238 185.184 144.566 185.184 153.668 260.355C155.156 277.828 170.578 291.59 189.402 291.59 208.23 291.59 223.652 277.828 225.125 260.34L234.238 185.184" fill="#DBB6DF" transform="matrix(1 0 0 1.00001 265 339)"/><path d="M148.199 215.113 153.668 260.355C155.156 277.828 170.578 291.59 189.402 291.59 208.23 291.59 223.652 277.828 225.125 260.34L230.609 215.113 148.199 215.113" fill="#1E040D" transform="matrix(1 0 0 1.00001 265 339)"/><path d="M148.199 215.113 150.09 230.816C155.93 227.977 162.391 226.457 168.965 226.457 180.391 226.457 191.473 231.043 199.547 239.102 207.621 247.164 212.215 258.227 212.215 269.629L212.215 270.516C212.215 275.777 211.227 280.961 209.383 285.812 218.207 280.188 224.234 270.949 225.125 260.34L230.609 215.113 148.199 215.113" fill="#530820" transform="matrix(1 0 0 1.00001 265 339)"/><g clip-path="url(#clip12)"><path d="M142.562 164.477C142.562 164.477 126.48 136.75 145.711 113.992 145.711 113.992 146.434 131.059 157.109 130.352 167.785 129.641 157.109 76.3047 157.109 76.3047 157.109 76.3047 174.918 81.2852 178.473 91.2422 178.473 91.2422 189.164 57.1055 178.473 42.8867 178.473 42.8867 234.035 84.1211 219.082 129.641 219.082 129.641 238.312 121.82 238.312 103.688 238.312 103.688 251.086 136.039 232.234 164.477L142.562 164.477" fill="#F9B130" transform="matrix(1 0 0 1.00001 265 339)"/></g><path d="M170.641 164.477C170.641 164.477 158.531 148.129 170.641 129.641L179.91 142.438C179.91 142.438 187.031 110.441 194.152 103.688 194.152 103.688 200.562 143.859 210.527 143.859L217.66 138.879C217.66 138.879 219.082 158.078 212.672 164.477L170.641 164.477" fill="#F2612E" transform="matrix(1 0 0 1.00001 265 339)"/><path d="M217.773 175.02 217.773 175.094C217.789 175.516 217.812 177.465 217.812 180.531 217.824 188.781 217.547 205.168 215.758 221.844 214.855 230.184 213.586 238.598 211.809 246.047 210.043 253.5 207.723 259.988 205.031 264.348 203.684 266.551 204.371 269.426 206.578 270.77 208.789 272.125 211.668 271.43 213.016 269.227 216.52 263.484 218.992 256.223 220.91 248.215 223.777 236.215 225.316 222.504 226.18 210.16 227.027 197.816 227.18 186.867 227.18 180.531 227.18 176.934 227.129 174.828 227.129 174.793 227.066 172.219 224.934 170.18 222.344 170.23 219.754 170.293 217.711 172.434 217.773 175.02" fill="#FFFFFF" transform="matrix(1 0 0 1.00001 265 339)"/></g></svg>