<svg width="312" height="375" xmlns="http://www.w3.org/2000/svg" xmlns:xlink="http://www.w3.org/1999/xlink" overflow="hidden"><defs><clipPath id="clip0"><rect x="800" y="288" width="312" height="375"/></clipPath><clipPath id="clip1"><rect x="837" y="305" width="94" height="358"/></clipPath></defs><g clip-path="url(#clip0)" transform="translate(-800 -288)"><path d="M95.8766 24.2306 72.2196 24.2306 72.2196 0.039025 95.8766 0.039025 95.8766 24.2306" fill="#6E4424" transform="matrix(1 0 0 1.00096 800 288)"/><g clip-path="url(#clip1)"><path d="M102.187 103.287 102.191 103.287 102.191 28.7341C103.787 28.0394 104.903 26.4433 104.903 24.5896L104.903 22.0647C104.903 19.5671 102.874 17.5456 100.376 17.5456L67.7122 17.5651C65.2185 17.569 63.1931 19.5944 63.197 22.092L63.197 24.617C63.197 26.4706 64.3171 28.0629 65.9171 28.7614L65.9171 103.287 65.9093 103.287C65.9093 103.287 37.464 117.383 37.464 177.279L37.464 352.181C37.464 364.556 45.9675 374.589 56.4574 374.589L111.643 374.589C122.129 374.589 130.632 364.556 130.632 352.181L130.632 177.279C130.632 117.383 102.187 103.287 102.187 103.287" fill="#2B2824" transform="matrix(1 0 0 1.00096 800 288)"/></g><path d="M103.939 112.314C95.8766 107.424 87.0647 114.64 89.0472 124.392 91.0375 134.144 102.378 126.203 104.903 145.739 107.432 165.271 108.006 239.606 108.006 239.606 108.006 239.606 116.388 269.585 121.04 238.158L121.04 161.485C121.04 129.419 112.002 117.208 103.939 112.314" fill="#524F4A" transform="matrix(1 0 0 1.00096 800 288)"/><path d="M106.136 334.503 61.9717 334.503C54.034 334.503 47.5988 328.063 47.5988 320.126L47.5988 217.045C47.5988 209.108 54.034 202.672 61.9717 202.672L106.136 202.672C114.07 202.672 120.505 209.108 120.505 217.045L120.505 320.126C120.505 328.063 114.07 334.503 106.136 334.503" fill="#DAD0B6" transform="matrix(1 0 0 1.00096 800 288)"/><path d="M291.45 115.424 183.238 115.424C183.238 115.424 131.51 254.938 237.346 254.938 343.178 254.938 291.45 115.424 291.45 115.424" fill="#D8DCD6" transform="matrix(1 0 0 1.00096 800 288)"/><path d="M243.172 360.829 231.516 360.829 231.516 246.092 243.172 246.092 243.172 360.829" fill="#D8DCD6" transform="matrix(1 0 0 1.00096 800 288)"/><path d="M280.773 366.64 193.915 366.64C191.656 366.64 189.825 364.809 189.825 362.55L189.825 359.108C189.825 356.848 191.656 355.018 193.915 355.018L280.773 355.018C283.029 355.018 284.859 356.848 284.859 359.108L284.859 362.55C284.859 364.809 283.029 366.64 280.773 366.64" fill="#D8DCD6" transform="matrix(1 0 0 1.00096 800 288)"/><path d="M237.346 246.747C288.246 246.747 297.858 210.185 296.067 176.908 279.454 183.983 246.689 191.675 221.697 182.028 202.942 174.785 187.999 177.209 178.469 180.756 177.63 212.944 188.397 246.747 237.346 246.747" fill="#67131D" transform="matrix(1 0 0 1.00096 800 288)"/><path d="M254.17 205.057C284.574 195.148 289.913 184.807 296.11 190.091 296.336 185.7 296.301 181.275 296.067 176.908 279.454 183.983 246.689 191.675 221.697 182.028 202.942 174.785 187.999 177.209 178.469 180.756 178.469 180.756 223.765 214.961 254.17 205.057" fill="#951E2E" transform="matrix(1 0 0 1.00096 800 288)"/><path d="M186.465 164.861C183.671 171.503 183.047 178.969 182.848 186.227 182.516 198.672 183.394 211.629 189.345 222.563 192.678 228.69 197.868 233.963 204.097 237.143 207.578 238.923 222.454 244.086 219.57 235.703 218.673 233.104 216.202 231.453 214.001 229.806 203.605 222.013 196.358 210.134 194.184 197.322 193.127 191.078 193.806 184.787 195.219 178.656 195.831 176.01 196.366 173.107 197.228 170.547 198.06 168.084 199.745 165.93 200.19 163.308 200.616 160.83 199.757 157.946 197.533 156.771 193.923 154.863 189.79 158.406 187.839 161.993 187.332 162.933 186.875 163.885 186.465 164.861" fill="#FFFFFF" transform="matrix(1 0 0 1.00096 800 288)"/></g></svg>