<svg xmlns="http://www.w3.org/2000/svg" width="375" viewBox="0 0 375 375" height="375" version="1.0"><defs><clipPath id="a"><path d="M 0 37.5 L 375 37.5 L 375 337.5 L 0 337.5 Z M 0 37.5"/></clipPath><clipPath id="b"><path d="M 22.050781 105.359375 L 359.011719 105.359375 L 359.011719 313.085938 L 22.050781 313.085938 Z M 22.050781 105.359375"/></clipPath></defs><g clip-path="url(#a)"><path fill="#D9D9D9" d="M 150 37.5 L 37.5 37.5 C 16.78125 37.5 0.1875 54.28125 0.1875 75 L 0 300 C 0 320.71875 16.78125 337.5 37.5 337.5 L 337.5 337.5 C 358.21875 337.5 375 320.71875 375 300 L 375 112.5 C 375 91.78125 358.21875 75 337.5 75 L 187.5 75 Z M 150 37.5"/></g><path fill="#FFF" d="M 28.75 108.234375 L 348.480469 108.234375 L 348.480469 306.382812 L 28.75 306.382812 L 28.75 108.234375"/><g clip-path="url(#b)"><path fill="#D9D9D9" d="M 350.140625 65.292969 L 201.164062 65.292969 L 151.507812 15.714844 L 19.085938 15.714844 C 0.800781 15.714844 -14.019531 30.515625 -14.019531 48.769531 L -14.019531 346.238281 L 383.246094 346.238281 L 383.246094 98.347656 C 383.246094 80.109375 368.410156 65.292969 350.140625 65.292969 Z M 279.320312 296.660156 L 217.71875 183.902344 L 156.113281 296.660156 L 118.402344 296.660156 L 132.660156 270.578125 L 110.125 229.34375 L 73.351562 296.660156 L 35.636719 296.660156 L 110.125 160.320312 L 151.507812 236.058594 L 217.71875 114.875 L 317.039062 296.660156 Z M 300.5 180.976562 C 282.199219 180.976562 267.359375 166.183594 267.359375 147.925781 C 267.359375 129.671875 282.195312 114.875 300.5 114.875 C 318.734375 114.875 333.589844 129.671875 333.589844 147.925781 C 333.589844 166.183594 318.734375 180.976562 300.5 180.976562 Z M 300.5 180.976562"/></g><path fill="#D9D9D9" d="M 300.03125 132.472656 C 292.371094 132.472656 286.15625 138.683594 286.15625 146.347656 C 286.15625 154.011719 292.371094 160.222656 300.03125 160.222656 C 307.695312 160.222656 313.90625 154.011719 313.90625 146.347656 C 313.90625 138.683594 307.695312 132.472656 300.03125 132.472656"/></svg>