<svg xmlns="http://www.w3.org/2000/svg" width="375" viewBox="0 0 375 375" height="375" version="1.0"><defs><clipPath id="a"><path d="M 0 35.660156 L 375 35.660156 L 375 337.160156 L 0 337.160156 Z M 0 35.660156"/></clipPath><clipPath id="b"><path d="M 58.558594 236 L 319.558594 236 L 319.558594 339.464844 L 58.558594 339.464844 Z M 58.558594 236"/></clipPath><clipPath id="c"><path d="M 115 102.464844 L 256 102.464844 L 256 243 L 115 243 Z M 115 102.464844"/></clipPath></defs><g clip-path="url(#a)"><path fill="#D9D9D9" d="M 375 223.160156 C 375 226.226562 374.925781 229.292969 374.773438 232.359375 C 374.625 235.425781 374.398438 238.484375 374.097656 241.539062 C 373.796875 244.589844 373.421875 247.636719 372.96875 250.671875 C 372.519531 253.707031 371.996094 256.730469 371.398438 259.738281 C 370.796875 262.75 370.125 265.742188 369.378906 268.71875 C 368.636719 271.695312 367.816406 274.652344 366.925781 277.585938 C 366.035156 280.523438 365.074219 283.4375 364.039062 286.324219 C 363.003906 289.214844 361.902344 292.078125 360.726562 294.914062 C 359.554688 297.746094 358.308594 300.550781 356.996094 303.324219 C 355.6875 306.101562 354.304688 308.839844 352.859375 311.546875 C 351.414062 314.253906 349.902344 316.921875 348.324219 319.554688 C 346.746094 322.183594 345.105469 324.777344 343.402344 327.328125 C 341.695312 329.878906 339.929688 332.386719 338.101562 334.851562 C 336.273438 337.316406 334.386719 339.734375 332.4375 342.109375 C 330.492188 344.480469 328.488281 346.804688 326.429688 349.078125 C 324.367188 351.351562 322.253906 353.570312 320.082031 355.742188 C 317.914062 357.910156 315.691406 360.027344 313.417969 362.085938 C 311.144531 364.148438 308.820312 366.152344 306.449219 368.097656 C 304.078125 370.046875 301.660156 371.933594 299.195312 373.761719 C 296.730469 375.589844 294.222656 377.355469 291.667969 379.058594 C 289.117188 380.765625 286.527344 382.40625 283.894531 383.984375 C 281.261719 385.5625 278.59375 387.074219 275.886719 388.519531 C 273.179688 389.964844 270.441406 391.34375 267.667969 392.65625 C 264.890625 393.96875 262.089844 395.210938 259.253906 396.386719 C 256.417969 397.5625 253.554688 398.664062 250.667969 399.699219 C 247.777344 400.730469 244.863281 401.695312 241.929688 402.585938 C 238.992188 403.476562 236.035156 404.292969 233.058594 405.039062 C 230.082031 405.785156 227.089844 406.457031 224.078125 407.054688 C 221.070312 407.65625 218.046875 408.179688 215.011719 408.628906 C 211.976562 409.078125 208.933594 409.457031 205.878906 409.757812 C 202.824219 410.058594 199.765625 410.28125 196.699219 410.433594 C 193.636719 410.582031 190.570312 410.660156 187.5 410.660156 C 184.429688 410.660156 181.363281 410.582031 178.300781 410.433594 C 175.234375 410.28125 172.175781 410.058594 169.121094 409.757812 C 166.066406 409.457031 163.023438 409.078125 159.988281 408.628906 C 156.953125 408.179688 153.929688 407.65625 150.921875 407.054688 C 147.910156 406.457031 144.917969 405.785156 141.941406 405.039062 C 138.964844 404.292969 136.007812 403.476562 133.070312 402.585938 C 130.136719 401.695312 127.222656 400.730469 124.332031 399.699219 C 121.445312 398.664062 118.582031 397.5625 115.746094 396.386719 C 112.910156 395.210938 110.105469 393.96875 107.332031 392.65625 C 104.558594 391.34375 101.820312 389.964844 99.113281 388.519531 C 96.40625 387.074219 93.738281 385.5625 91.105469 383.984375 C 88.472656 382.40625 85.882812 380.765625 83.332031 379.058594 C 80.777344 377.355469 78.269531 375.589844 75.804688 373.761719 C 73.339844 371.933594 70.921875 370.046875 68.550781 368.097656 C 66.179688 366.152344 63.855469 364.148438 61.582031 362.085938 C 59.308594 360.027344 57.085938 357.910156 54.917969 355.742188 C 52.746094 353.570312 50.632812 351.351562 48.570312 349.078125 C 46.511719 346.804688 44.507812 344.480469 42.558594 342.109375 C 40.613281 339.734375 38.726562 337.316406 36.898438 334.851562 C 35.070312 332.386719 33.304688 329.878906 31.597656 327.328125 C 29.894531 324.777344 28.253906 322.183594 26.675781 319.554688 C 25.097656 316.921875 23.585938 314.253906 22.140625 311.546875 C 20.691406 308.839844 19.3125 306.101562 18.003906 303.324219 C 16.691406 300.550781 15.445312 297.746094 14.273438 294.914062 C 13.097656 292.078125 11.996094 289.214844 10.960938 286.324219 C 9.925781 283.4375 8.964844 280.523438 8.074219 277.585938 C 7.183594 274.652344 6.363281 271.695312 5.617188 268.71875 C 4.875 265.742188 4.203125 262.75 3.601562 259.738281 C 3.003906 256.730469 2.480469 253.707031 2.03125 250.671875 C 1.578125 247.636719 1.203125 244.589844 0.902344 241.539062 C 0.601562 238.484375 0.375 235.425781 0.226562 232.359375 C 0.0742188 229.292969 0 226.226562 0 223.160156 C 0 220.089844 0.0742188 217.023438 0.226562 213.960938 C 0.375 210.894531 0.601562 207.835938 0.902344 204.78125 C 1.203125 201.726562 1.578125 198.683594 2.03125 195.648438 C 2.480469 192.613281 3.003906 189.589844 3.601562 186.578125 C 4.203125 183.570312 4.875 180.578125 5.617188 177.601562 C 6.363281 174.625 7.183594 171.667969 8.074219 168.730469 C 8.964844 165.792969 9.925781 162.882812 10.960938 159.992188 C 11.996094 157.101562 13.097656 154.242188 14.273438 151.40625 C 15.445312 148.570312 16.691406 145.765625 18.003906 142.992188 C 19.3125 140.21875 20.691406 137.480469 22.140625 134.773438 C 23.585938 132.066406 25.097656 129.398438 26.675781 126.765625 C 28.253906 124.132812 29.894531 121.542969 31.597656 118.988281 C 33.304688 116.4375 35.070312 113.929688 36.898438 111.464844 C 38.726562 109 40.613281 106.582031 42.558594 104.210938 C 44.507812 101.839844 46.511719 99.515625 48.570312 97.242188 C 50.632812 94.96875 52.746094 92.746094 54.917969 90.578125 C 57.085938 88.40625 59.308594 86.292969 61.582031 84.230469 C 63.855469 82.171875 66.179688 80.167969 68.550781 78.21875 C 70.921875 76.273438 73.339844 74.386719 75.804688 72.558594 C 78.269531 70.730469 80.777344 68.964844 83.332031 67.257812 C 85.882812 65.554688 88.472656 63.914062 91.105469 62.335938 C 93.738281 60.757812 96.40625 59.246094 99.113281 57.800781 C 101.820312 56.351562 104.558594 54.972656 107.332031 53.660156 C 110.105469 52.347656 112.910156 51.105469 115.746094 49.933594 C 118.582031 48.757812 121.445312 47.652344 124.332031 46.621094 C 127.222656 45.585938 130.136719 44.625 133.070312 43.734375 C 136.007812 42.84375 138.964844 42.023438 141.941406 41.277344 C 144.917969 40.53125 147.910156 39.859375 150.921875 39.261719 C 153.929688 38.664062 156.953125 38.140625 159.988281 37.6875 C 163.023438 37.238281 166.066406 36.863281 169.121094 36.5625 C 172.175781 36.261719 175.234375 36.035156 178.300781 35.886719 C 181.363281 35.734375 184.429688 35.660156 187.5 35.660156 C 190.570312 35.660156 193.636719 35.734375 196.699219 35.886719 C 199.765625 36.035156 202.824219 36.261719 205.878906 36.5625 C 208.933594 36.863281 211.976562 37.238281 215.011719 37.6875 C 218.046875 38.140625 221.070312 38.664062 224.078125 39.261719 C 227.089844 39.859375 230.082031 40.53125 233.058594 41.277344 C 236.035156 42.023438 238.992188 42.84375 241.929688 43.734375 C 244.863281 44.625 247.777344 45.585938 250.667969 46.621094 C 253.554688 47.652344 256.417969 48.757812 259.253906 49.933594 C 262.089844 51.105469 264.890625 52.347656 267.667969 53.660156 C 270.441406 54.972656 273.179688 56.351562 275.886719 57.800781 C 278.59375 59.246094 281.261719 60.757812 283.894531 62.335938 C 286.527344 63.914062 289.117188 65.554688 291.667969 67.257812 C 294.222656 68.964844 296.730469 70.730469 299.195312 72.558594 C 301.660156 74.386719 304.078125 76.273438 306.449219 78.21875 C 308.820312 80.167969 311.144531 82.171875 313.417969 84.230469 C 315.691406 86.292969 317.914062 88.40625 320.082031 90.578125 C 322.253906 92.746094 324.367188 94.96875 326.429688 97.242188 C 328.488281 99.515625 330.492188 101.839844 332.4375 104.210938 C 334.386719 106.582031 336.273438 109 338.101562 111.464844 C 339.929688 113.929688 341.695312 116.4375 343.402344 118.988281 C 345.105469 121.542969 346.746094 124.132812 348.324219 126.765625 C 349.902344 129.398438 351.414062 132.066406 352.859375 134.773438 C 354.304688 137.480469 355.6875 140.21875 356.996094 142.992188 C 358.308594 145.765625 359.554688 148.570312 360.726562 151.40625 C 361.902344 154.242188 363.003906 157.101562 364.039062 159.992188 C 365.074219 162.882812 366.035156 165.792969 366.925781 168.730469 C 367.816406 171.667969 368.636719 174.625 369.378906 177.601562 C 370.125 180.578125 370.796875 183.570312 371.398438 186.578125 C 371.996094 189.589844 372.519531 192.613281 372.96875 195.648438 C 373.421875 198.683594 373.796875 201.726562 374.097656 204.78125 C 374.398438 207.835938 374.625 210.894531 374.773438 213.960938 C 374.925781 217.023438 375 220.089844 375 223.160156 Z M 375 223.160156"/></g><g clip-path="url(#b)"><path fill="#FFF" d="M 235.179688 236.175781 C 221.453125 246.980469 204.164062 253.449219 185.382812 253.449219 C 167.066406 253.449219 150.160156 247.300781 136.601562 236.972656 C 92.355469 244.125 58.558594 282.496094 58.558594 328.769531 C 58.558594 380.140625 100.191406 346.746094 151.546875 346.746094 L 226.566406 346.746094 C 277.925781 346.746094 319.558594 380.140625 319.558594 328.769531 C 319.558594 280.3125 282.496094 240.523438 235.179688 236.175781 Z M 235.179688 236.175781"/></g><g clip-path="url(#c)"><path fill="#FFF" d="M 185.382812 242.625 C 223.910156 242.625 255.25 211.273438 255.25 172.734375 C 255.25 134.203125 223.910156 102.851562 185.382812 102.851562 C 146.855469 102.851562 115.511719 134.203125 115.511719 172.734375 C 115.515625 211.273438 146.859375 242.625 185.382812 242.625 Z M 185.382812 242.625"/></g></svg>