<svg xmlns="http://www.w3.org/2000/svg" width="375" viewBox="0 0 375 375" height="375" version="1.0"><defs><clipPath id="a"><path d="M 73 335.25 L 311 335.25 L 311 369.308594 L 73 369.308594 Z M 73 335.25"/></clipPath><clipPath id="b"><path d="M 31 0 L 344 0 L 344 348.75 L 31 348.75 Z M 31 0"/></clipPath><clipPath id="c"><path d="M 125 145.621094 L 271.261719 145.621094 L 271.261719 292 L 125 292 Z M 125 145.621094"/></clipPath><clipPath id="d"><path d="M 39.296875 107 L 52.796875 107 L 52.796875 204 L 39.296875 204 Z M 39.296875 107"/></clipPath><clipPath id="e"><path d="M 331.136719 107 L 344.382812 107 L 344.382812 204 L 331.136719 204 Z M 331.136719 107"/></clipPath></defs><g clip-path="url(#a)"><path fill="#D9D9D9" d="M 73.523438 216.144531 L 73.523438 351.144531 C 73.523438 361.015625 81.539062 369.027344 91.429688 369.027344 L 292.820312 369.027344 C 302.703125 369.027344 310.71875 361.015625 310.71875 351.144531 L 310.71875 216.144531 L 73.523438 216.144531"/></g><g clip-path="url(#b)"><path fill="#D9D9D9" d="M 204.226562 107.324219 L 204.226562 105.355469 L 205.84375 107.324219 Z M 164.148438 102.882812 C 161.71875 104.316406 159.460938 105.890625 157.664062 107.324219 L 123.3125 107.324219 C 137.042969 107.046875 150.945312 105.214844 164.148438 102.882812 Z M 82.65625 71.023438 C 77.355469 61.722656 76.414062 50.304688 82.839844 40.84375 C 87.472656 34.011719 95.160156 31.96875 103.0625 31.722656 L 103.128906 31.753906 C 106.414062 31.644531 109.738281 31.824219 112.898438 32.136719 C 113.753906 32.21875 114.59375 32.328125 115.425781 32.457031 C 115.6875 32.496094 115.945312 32.542969 116.203125 32.589844 C 116.78125 32.683594 117.363281 32.789062 117.933594 32.910156 C 118.210938 32.964844 118.488281 33.027344 118.761719 33.089844 C 119.347656 33.21875 119.925781 33.359375 120.5 33.515625 C 120.722656 33.578125 120.949219 33.628906 121.167969 33.691406 C 121.960938 33.914062 122.75 34.15625 123.527344 34.417969 L 123.585938 34.441406 C 124.34375 34.695312 125.085938 34.972656 125.820312 35.261719 C 126.011719 35.335938 126.207031 35.421875 126.398438 35.5 C 126.980469 35.738281 127.550781 35.984375 128.117188 36.242188 C 128.308594 36.324219 128.503906 36.414062 128.691406 36.503906 C 129.320312 36.800781 129.941406 37.101562 130.554688 37.421875 L 130.855469 37.574219 C 132.339844 38.355469 133.785156 39.203125 135.1875 40.109375 L 135.453125 40.28125 C 136.082031 40.695312 136.699219 41.117188 137.316406 41.550781 L 137.542969 41.710938 C 141.769531 44.722656 145.640625 48.261719 149.21875 52.089844 L 149.238281 52.101562 C 154.890625 58.160156 159.800781 64.941406 164.1875 71.488281 C 166.445312 75.339844 168.117188 78.390625 169.371094 81.023438 C 168.277344 83.585938 167.664062 86.398438 167.664062 89.359375 C 167.664062 90.136719 167.714844 90.902344 167.796875 91.652344 C 138.558594 97.582031 100.453125 102.289062 82.65625 71.023438 Z M 292.199219 69.507812 C 275.011719 99.6875 238.902344 96.347656 210.117188 90.742188 C 210.148438 90.28125 210.1875 89.824219 210.1875 89.359375 C 210.1875 84.933594 208.832031 80.820312 206.515625 77.417969 C 207.617188 75.277344 208.984375 72.847656 210.671875 69.96875 C 215.621094 62.574219 221.253906 54.878906 227.867188 48.265625 L 227.90625 48.253906 C 236.628906 39.554688 247.0625 32.730469 259.921875 30.910156 L 260.09375 30.839844 C 260.707031 30.757812 261.328125 30.679688 261.953125 30.617188 C 272.730469 29.566406 285.445312 29.636719 292.023438 39.324219 C 298.441406 48.785156 297.5 60.203125 292.199219 69.507812 Z M 175.414062 105.765625 C 175.523438 105.859375 175.644531 105.933594 175.757812 106.023438 L 175.757812 107.324219 L 174.140625 107.324219 Z M 336.171875 65.128906 C 344.355469 50.761719 346.167969 33.304688 337.449219 18.390625 L 337.316406 18.160156 C 336.863281 17.394531 336.386719 16.632812 335.878906 15.882812 C 325.144531 0.0703125 304.398438 -0.0390625 286.824219 1.675781 C 248.027344 5.449219 222.449219 37.046875 203.136719 65.886719 C 202.019531 67.792969 200.992188 69.578125 200.042969 71.261719 C 196.804688 69.273438 193.007812 68.105469 188.933594 68.105469 C 183.632812 68.105469 178.800781 70.054688 175.082031 73.253906 C 174.054688 71.433594 172.945312 69.496094 171.71875 67.40625 C 152.40625 38.5625 126.824219 6.96875 88.03125 3.191406 C 70.460938 1.476562 49.71875 1.589844 38.976562 17.402344 C 28.5 32.835938 30.042969 51.46875 38.691406 66.648438 C 56.078125 97.191406 85.34375 106.6875 116.269531 107.324219 L 52.1875 107.324219 L 52.1875 202.964844 L 73.824219 202.964844 L 73.824219 348.703125 L 310.714844 348.703125 L 310.714844 202.964844 L 332.351562 202.964844 L 332.351562 107.324219 L 221.09375 107.324219 C 217.226562 104.671875 212.402344 102.039062 208.207031 100.910156 C 254.097656 109.289062 309.304688 112.316406 336.171875 65.128906"/></g><g clip-path="url(#c)"><path fill="#FFF" d="M 198.339844 145.796875 C 197.148438 145.796875 195.957031 145.824219 194.769531 145.882812 C 193.582031 145.941406 192.394531 146.03125 191.207031 146.148438 C 190.023438 146.261719 188.84375 146.410156 187.664062 146.582031 C 186.488281 146.757812 185.316406 146.960938 184.148438 147.195312 C 182.980469 147.425781 181.820312 147.6875 180.664062 147.976562 C 179.507812 148.265625 178.363281 148.582031 177.222656 148.929688 C 176.082031 149.273438 174.953125 149.648438 173.832031 150.050781 C 172.710938 150.449219 171.601562 150.878906 170.5 151.332031 C 169.402344 151.789062 168.3125 152.273438 167.238281 152.78125 C 166.160156 153.289062 165.097656 153.824219 164.046875 154.386719 C 162.996094 154.949219 161.960938 155.535156 160.941406 156.144531 C 159.917969 156.757812 158.914062 157.394531 157.925781 158.054688 C 156.933594 158.71875 155.960938 159.402344 155.003906 160.113281 C 154.046875 160.820312 153.109375 161.554688 152.191406 162.308594 C 151.269531 163.0625 150.367188 163.839844 149.488281 164.640625 C 148.605469 165.441406 147.742188 166.261719 146.902344 167.101562 C 146.058594 167.945312 145.238281 168.808594 144.4375 169.6875 C 143.640625 170.570312 142.863281 171.472656 142.105469 172.394531 C 141.351562 173.3125 140.617188 174.25 139.910156 175.207031 C 139.199219 176.164062 138.515625 177.136719 137.855469 178.125 C 137.191406 179.117188 136.554688 180.121094 135.945312 181.144531 C 135.332031 182.164062 134.746094 183.199219 134.183594 184.25 C 133.621094 185.300781 133.085938 186.363281 132.578125 187.4375 C 132.070312 188.515625 131.585938 189.601562 131.132812 190.703125 C 130.675781 191.804688 130.246094 192.914062 129.847656 194.035156 C 129.445312 195.15625 129.070312 196.285156 128.726562 197.425781 C 128.378906 198.5625 128.0625 199.710938 127.773438 200.867188 C 127.484375 202.019531 127.222656 203.183594 126.992188 204.351562 C 126.757812 205.515625 126.554688 206.691406 126.382812 207.867188 C 126.207031 209.046875 126.0625 210.226562 125.945312 211.410156 C 125.828125 212.597656 125.738281 213.78125 125.683594 214.972656 C 125.625 216.160156 125.59375 217.351562 125.59375 218.542969 C 125.59375 219.730469 125.625 220.921875 125.683594 222.109375 C 125.738281 223.300781 125.828125 224.488281 125.945312 225.671875 C 126.0625 226.855469 126.207031 228.039062 126.382812 229.214844 C 126.554688 230.394531 126.757812 231.566406 126.992188 232.734375 C 127.222656 233.902344 127.484375 235.0625 127.773438 236.21875 C 128.0625 237.371094 128.378906 238.519531 128.726562 239.660156 C 129.070312 240.796875 129.445312 241.929688 129.847656 243.046875 C 130.246094 244.167969 130.675781 245.28125 131.132812 246.378906 C 131.585938 247.480469 132.070312 248.566406 132.578125 249.644531 C 133.085938 250.71875 133.621094 251.785156 134.183594 252.832031 C 134.746094 253.882812 135.332031 254.917969 135.945312 255.941406 C 136.554688 256.960938 137.191406 257.964844 137.855469 258.957031 C 138.515625 259.945312 139.199219 260.917969 139.910156 261.875 C 140.617188 262.832031 141.351562 263.769531 142.105469 264.691406 C 142.863281 265.609375 143.640625 266.511719 144.4375 267.394531 C 145.238281 268.277344 146.058594 269.136719 146.902344 269.980469 C 147.742188 270.820312 148.605469 271.644531 149.488281 272.441406 C 150.367188 273.242188 151.269531 274.019531 152.191406 274.773438 C 153.109375 275.53125 154.046875 276.261719 155.003906 276.972656 C 155.960938 277.679688 156.933594 278.367188 157.925781 279.027344 C 158.914062 279.6875 159.917969 280.324219 160.941406 280.9375 C 161.960938 281.550781 162.996094 282.136719 164.046875 282.695312 C 165.097656 283.257812 166.160156 283.792969 167.238281 284.300781 C 168.3125 284.8125 169.402344 285.292969 170.5 285.75 C 171.601562 286.203125 172.710938 286.632812 173.832031 287.035156 C 174.953125 287.433594 176.082031 287.808594 177.222656 288.15625 C 178.363281 288.5 179.507812 288.816406 180.664062 289.105469 C 181.820312 289.394531 182.980469 289.65625 184.148438 289.890625 C 185.316406 290.121094 186.488281 290.324219 187.664062 290.5 C 188.84375 290.675781 190.023438 290.820312 191.207031 290.9375 C 192.394531 291.054688 193.582031 291.140625 194.769531 291.199219 C 195.957031 291.257812 197.148438 291.285156 198.339844 291.285156 C 199.53125 291.285156 200.71875 291.257812 201.910156 291.199219 C 203.097656 291.140625 204.285156 291.054688 205.46875 290.9375 C 206.652344 290.820312 207.835938 290.675781 209.011719 290.5 C 210.191406 290.324219 211.363281 290.121094 212.53125 289.890625 C 213.699219 289.65625 214.859375 289.394531 216.015625 289.105469 C 217.167969 288.816406 218.316406 288.5 219.457031 288.15625 C 220.59375 287.808594 221.726562 287.433594 222.847656 287.035156 C 223.96875 286.632812 225.078125 286.203125 226.175781 285.75 C 227.277344 285.292969 228.367188 284.8125 229.441406 284.300781 C 230.519531 283.792969 231.582031 283.257812 232.632812 282.695312 C 233.679688 282.136719 234.714844 281.550781 235.738281 280.9375 C 236.757812 280.324219 237.765625 279.6875 238.753906 279.027344 C 239.742188 278.367188 240.71875 277.679688 241.671875 276.972656 C 242.628906 276.261719 243.566406 275.53125 244.488281 274.773438 C 245.410156 274.019531 246.308594 273.242188 247.191406 272.441406 C 248.074219 271.644531 248.9375 270.820312 249.777344 269.980469 C 250.621094 269.136719 251.441406 268.277344 252.238281 267.394531 C 253.039062 266.511719 253.816406 265.609375 254.570312 264.691406 C 255.328125 263.769531 256.058594 262.832031 256.769531 261.875 C 257.476562 260.917969 258.164062 259.945312 258.824219 258.957031 C 259.484375 257.964844 260.121094 256.960938 260.734375 255.941406 C 261.347656 254.917969 261.933594 253.882812 262.496094 252.832031 C 263.054688 251.785156 263.589844 250.71875 264.101562 249.644531 C 264.609375 248.566406 265.089844 247.480469 265.546875 246.378906 C 266.003906 245.28125 266.429688 244.167969 266.832031 243.046875 C 267.234375 241.929688 267.605469 240.796875 267.953125 239.660156 C 268.296875 238.519531 268.613281 237.371094 268.902344 236.21875 C 269.195312 235.0625 269.453125 233.902344 269.6875 232.734375 C 269.917969 231.566406 270.121094 230.394531 270.296875 229.214844 C 270.472656 228.039062 270.617188 226.855469 270.734375 225.671875 C 270.851562 224.488281 270.9375 223.300781 270.996094 222.109375 C 271.054688 220.921875 271.085938 219.730469 271.085938 218.542969 C 271.082031 217.351562 271.050781 216.164062 270.992188 214.972656 C 270.929688 213.785156 270.839844 212.597656 270.722656 211.414062 C 270.605469 210.230469 270.457031 209.050781 270.28125 207.875 C 270.105469 206.695312 269.902344 205.523438 269.667969 204.359375 C 269.433594 203.191406 269.171875 202.03125 268.878906 200.875 C 268.589844 199.722656 268.273438 198.578125 267.925781 197.4375 C 267.578125 196.300781 267.203125 195.171875 266.800781 194.050781 C 266.402344 192.929688 265.972656 191.820312 265.515625 190.722656 C 265.058594 189.621094 264.574219 188.535156 264.066406 187.460938 C 263.558594 186.386719 263.019531 185.324219 262.460938 184.273438 C 261.898438 183.222656 261.3125 182.191406 260.699219 181.167969 C 260.085938 180.148438 259.449219 179.144531 258.789062 178.15625 C 258.125 177.164062 257.441406 176.191406 256.730469 175.238281 C 256.023438 174.28125 255.289062 173.34375 254.535156 172.425781 C 253.78125 171.503906 253.003906 170.605469 252.203125 169.722656 C 251.40625 168.839844 250.585938 167.980469 249.742188 167.136719 C 248.902344 166.296875 248.039062 165.476562 247.160156 164.675781 C 246.277344 163.878906 245.375 163.101562 244.457031 162.34375 C 243.535156 161.589844 242.597656 160.859375 241.644531 160.148438 C 240.6875 159.441406 239.714844 158.753906 238.726562 158.09375 C 237.738281 157.429688 236.730469 156.792969 235.710938 156.183594 C 234.691406 155.570312 233.65625 154.984375 232.609375 154.421875 C 231.558594 153.859375 230.496094 153.324219 229.421875 152.816406 C 228.34375 152.304688 227.257812 151.820312 226.160156 151.367188 C 225.058594 150.910156 223.949219 150.480469 222.832031 150.078125 C 221.710938 149.675781 220.582031 149.300781 219.441406 148.957031 C 218.304688 148.609375 217.15625 148.289062 216.003906 148 C 214.851562 147.710938 213.691406 147.449219 212.523438 147.214844 C 211.355469 146.980469 210.183594 146.777344 209.007812 146.597656 C 207.832031 146.421875 206.648438 146.277344 205.464844 146.15625 C 204.28125 146.039062 203.09375 145.949219 201.90625 145.890625 C 200.71875 145.828125 199.527344 145.796875 198.339844 145.796875 Z M 215.242188 253.027344 C 214.96875 253.394531 214.628906 253.679688 214.222656 253.882812 C 213.8125 254.085938 213.378906 254.1875 212.921875 254.183594 L 183.753906 254.183594 C 183.53125 254.175781 183.3125 254.144531 183.097656 254.085938 C 182.882812 254.03125 182.671875 253.953125 182.472656 253.851562 C 182.273438 253.753906 182.089844 253.632812 181.914062 253.492188 C 181.742188 253.351562 181.585938 253.195312 181.445312 253.023438 C 181.304688 252.847656 181.183594 252.664062 181.082031 252.464844 C 180.980469 252.265625 180.902344 252.058594 180.847656 251.84375 C 180.789062 251.625 180.757812 251.40625 180.746094 251.183594 C 180.738281 250.960938 180.75 250.738281 180.789062 250.519531 L 188.28125 214.425781 C 187.785156 214.070312 187.304688 213.691406 186.847656 213.289062 C 186.390625 212.886719 185.953125 212.460938 185.539062 212.011719 C 185.128906 211.5625 184.738281 211.09375 184.375 210.601562 C 184.011719 210.113281 183.675781 209.605469 183.363281 209.078125 C 183.054688 208.550781 182.773438 208.011719 182.519531 207.457031 C 182.265625 206.902344 182.042969 206.335938 181.847656 205.757812 C 181.65625 205.175781 181.492188 204.589844 181.359375 203.992188 C 181.230469 203.398438 181.128906 202.796875 181.0625 202.191406 C 180.992188 201.582031 180.957031 200.976562 180.953125 200.367188 C 180.949219 199.753906 180.976562 199.144531 181.035156 198.539062 C 181.09375 197.929688 181.1875 197.328125 181.308594 196.730469 C 181.433594 196.132812 181.585938 195.542969 181.773438 194.960938 C 181.957031 194.382812 182.171875 193.8125 182.417969 193.25 C 182.664062 192.691406 182.9375 192.148438 183.238281 191.617188 C 183.542969 191.089844 183.871094 190.574219 184.226562 190.082031 C 184.585938 189.585938 184.964844 189.109375 185.371094 188.65625 C 185.78125 188.199219 186.210938 187.769531 186.660156 187.359375 C 187.113281 186.949219 187.585938 186.5625 188.078125 186.203125 C 188.570312 185.84375 189.082031 185.507812 189.609375 185.203125 C 190.136719 184.898438 190.679688 184.617188 191.238281 184.371094 C 191.792969 184.121094 192.363281 183.902344 192.941406 183.710938 C 193.523438 183.523438 194.109375 183.363281 194.707031 183.234375 C 195.304688 183.109375 195.90625 183.011719 196.511719 182.949219 C 197.121094 182.882812 197.730469 182.851562 198.339844 182.851562 C 198.949219 182.851562 199.558594 182.882812 200.164062 182.949219 C 200.773438 183.011719 201.375 183.109375 201.96875 183.234375 C 202.566406 183.363281 203.15625 183.523438 203.734375 183.710938 C 204.316406 183.902344 204.886719 184.121094 205.441406 184.371094 C 206 184.617188 206.542969 184.898438 207.070312 185.203125 C 207.597656 185.507812 208.105469 185.84375 208.601562 186.203125 C 209.09375 186.5625 209.566406 186.949219 210.015625 187.359375 C 210.46875 187.769531 210.898438 188.199219 211.304688 188.65625 C 211.710938 189.109375 212.09375 189.585938 212.449219 190.082031 C 212.808594 190.574219 213.136719 191.089844 213.4375 191.617188 C 213.742188 192.148438 214.015625 192.691406 214.261719 193.25 C 214.507812 193.8125 214.722656 194.382812 214.90625 194.960938 C 215.09375 195.542969 215.246094 196.132812 215.371094 196.730469 C 215.492188 197.328125 215.582031 197.929688 215.644531 198.539062 C 215.703125 199.144531 215.730469 199.753906 215.726562 200.367188 C 215.722656 200.976562 215.6875 201.582031 215.617188 202.191406 C 215.550781 202.796875 215.449219 203.398438 215.316406 203.992188 C 215.183594 204.589844 215.023438 205.175781 214.828125 205.757812 C 214.636719 206.335938 214.414062 206.902344 214.160156 207.457031 C 213.90625 208.011719 213.625 208.550781 213.3125 209.078125 C 213.003906 209.605469 212.667969 210.113281 212.304688 210.601562 C 211.9375 211.09375 211.550781 211.5625 211.136719 212.011719 C 210.722656 212.460938 210.289062 212.886719 209.832031 213.289062 C 209.371094 213.691406 208.894531 214.070312 208.398438 214.425781 L 215.941406 250.519531 C 216.03125 250.96875 216.019531 251.414062 215.894531 251.859375 C 215.773438 252.300781 215.554688 252.691406 215.242188 253.027344 Z M 215.242188 253.027344"/></g><g clip-path="url(#d)"><path fill="#D9D9D9" d="M 100.9375 107.570312 L 46.550781 107.570312 C 42.574219 107.570312 39.347656 110.800781 39.347656 114.789062 L 39.347656 195.992188 C 39.347656 199.980469 42.574219 203.210938 46.550781 203.210938 L 100.9375 203.210938 L 100.9375 107.570312"/></g><g clip-path="url(#e)"><path fill="#D9D9D9" d="M 282.675781 107.570312 L 337.0625 107.570312 C 341.042969 107.570312 344.265625 110.800781 344.265625 114.789062 L 344.265625 195.992188 C 344.265625 199.980469 341.042969 203.210938 337.0625 203.210938 L 282.675781 203.210938 L 282.675781 107.570312"/></g></svg>