<svg xmlns="http://www.w3.org/2000/svg" width="375" viewBox="0 0 375 375" height="375" version="1.0"><defs><clipPath id="a"><path d="M 0 8.203125 L 375 8.203125 L 375 367.042969 L 0 367.042969 Z M 0 8.203125"/></clipPath><clipPath id="b"><path d="M 211.367188 202.695312 L 373.8125 202.695312 L 373.8125 367.566406 L 211.367188 367.566406 Z M 211.367188 202.695312"/></clipPath></defs><g clip-path="url(#a)"><path fill="#D9D9D9" d="M 180.183594 8.203125 C 174.828125 8.203125 169.808594 10.839844 166.753906 15.242188 L 92.640625 122.378906 L 16.417969 122.378906 C 11.308594 122.378906 6.507812 124.753906 3.402344 128.816406 C 0.332031 132.859375 -0.710938 138.113281 0.625 143.023438 L 42.453125 294.152344 C 46.359375 308.246094 59.308594 318.109375 73.945312 318.109375 L 184.554688 318.109375 C 182.976562 312.820312 181.765625 307.375 180.949219 301.800781 L 181.046875 301.800781 C 180.277344 296.464844 179.738281 291.035156 179.738281 285.488281 C 179.738281 222.429688 230.933594 171.3125 294.085938 171.3125 C 307.167969 171.3125 319.683594 173.605469 331.378906 177.652344 C 336.898438 179.5625 342.261719 181.816406 347.363281 184.5 L 358.820312 143.054688 C 360.175781 138.144531 359.144531 132.859375 356.074219 128.816406 C 352.972656 124.753906 348.152344 122.378906 343.058594 122.378906 L 266.964844 122.378906 L 193.679688 15.308594 C 190.640625 10.871094 185.625 8.21875 180.25 8.203125 Z M 180.121094 53.3125 L 227.371094 122.378906 L 132.328125 122.378906 Z M 294.085938 203.933594 C 248.984375 203.933594 212.410156 240.453125 212.410156 285.488281 C 212.410156 330.523438 248.984375 367.042969 294.085938 367.042969 C 339.183594 367.042969 375.757812 330.523438 375.757812 285.488281 C 375.757812 240.453125 339.183594 203.933594 294.085938 203.933594 Z M 294.085938 236.554688 C 303.101562 236.554688 310.417969 243.863281 310.417969 252.867188 L 310.417969 269.179688 L 326.753906 269.179688 C 335.769531 269.179688 343.089844 276.484375 343.089844 285.488281 C 343.089844 294.492188 335.769531 301.800781 326.753906 301.800781 L 310.417969 301.800781 L 310.417969 318.109375 C 310.417969 327.113281 303.101562 334.421875 294.085938 334.421875 C 285.066406 334.421875 277.75 327.113281 277.75 318.109375 L 277.75 301.800781 L 261.414062 301.800781 C 252.398438 301.800781 245.078125 294.492188 245.078125 285.488281 C 245.078125 276.484375 252.398438 269.179688 261.414062 269.179688 L 277.75 269.179688 L 277.75 252.867188 C 277.75 243.863281 285.066406 236.554688 294.085938 236.554688 Z M 294.085938 236.554688"/></g><g clip-path="url(#b)"><path fill="#D9D9D9" d="M 373.8125 285.132812 C 373.8125 330.574219 337.464844 367.34375 292.589844 367.34375 C 247.730469 367.34375 211.367188 330.574219 211.367188 285.132812 C 211.367188 239.726562 247.730469 202.921875 292.589844 202.921875 C 337.464844 202.921875 373.8125 239.726562 373.8125 285.132812 Z M 373.8125 285.132812"/></g><path fill="#FFF" d="M 318.769531 239.898438 L 315.09375 257.371094 C 311.5625 253.796875 306.40625 252.015625 299.628906 252.015625 C 292.859375 252.015625 287.375 254.480469 283.175781 259.382812 C 280.808594 262.160156 279.125 265.636719 278.128906 269.804688 L 312.410156 269.804688 L 310.402344 279.570312 L 276.886719 279.570312 C 276.847656 280.546875 276.824219 281.789062 276.824219 283.300781 C 276.824219 284.769531 276.863281 286.304688 276.941406 287.902344 L 308.671875 287.902344 L 306.679688 297.683594 L 278.257812 297.683594 C 279.292969 302.179688 280.894531 305.710938 283.054688 308.28125 C 287.207031 313.238281 292.613281 315.726562 299.261719 315.726562 C 307.238281 315.726562 313.589844 313.246094 318.332031 308.28125 L 318.332031 327.582031 C 312.925781 330.3125 306.632812 331.691406 299.445312 331.691406 C 287.3125 331.691406 277.339844 327.484375 269.527344 319.078125 C 264.21875 313.351562 260.699219 306.21875 259 297.683594 L 249.773438 297.683594 L 251.777344 287.902344 L 257.875 287.902344 C 257.835938 286.894531 257.8125 285.828125 257.8125 284.695312 C 257.8125 282.757812 257.847656 281.0625 257.9375 279.578125 L 249.761719 279.578125 L 251.765625 269.8125 L 259.183594 269.8125 C 260.925781 261.4375 264.394531 254.441406 269.589844 248.792969 C 277.441406 240.304688 287.761719 236.070312 300.5625 236.070312 C 307.550781 236.0625 313.621094 237.328125 318.769531 239.898438 Z M 318.769531 239.898438"/></svg>