<svg width="375" height="208" xmlns="http://www.w3.org/2000/svg" xmlns:xlink="http://www.w3.org/1999/xlink" overflow="hidden"><defs><clipPath id="clip0"><rect x="114" y="259" width="375" height="208"/></clipPath><clipPath id="clip1"><rect x="121" y="264" width="368" height="155"/></clipPath><clipPath id="clip2"><rect x="114" y="264" width="375" height="200"/></clipPath><clipPath id="clip3"><rect x="236" y="264" width="14" height="26"/></clipPath><clipPath id="clip4"><rect x="236" y="436" width="14" height="28"/></clipPath><clipPath id="clip5"><rect x="235" y="268" width="205" height="193"/></clipPath><clipPath id="clip6"><rect x="215" y="268" width="21" height="193"/></clipPath></defs><g clip-path="url(#clip0)" transform="translate(-114 -259)"><g clip-path="url(#clip1)"><path d="M314.463-28.699 297.268-58.4879C296.893-59.1403 296.455-59.7496 295.959-60.316 295.463-60.8824 294.916-61.3942 294.319-61.8551 293.725-62.3121 293.088-62.7067 292.412-63.0426 291.737-63.3746 291.037-63.6363 290.307-63.8316 289.58-64.027 288.842-64.148 288.092-64.1988 287.342-64.2496 286.592-64.2223 285.846-64.1246 285.1-64.027 284.369-63.8551 283.658-63.6168 282.944-63.3746 282.26-63.0621 281.612-62.6871L13.5663 92.1205C12.914 92.4994 12.3046 92.933 11.7382 93.4291 11.1718 93.9291 10.6601 94.476 10.2031 95.0697 9.74603 95.6674 9.35151 96.3041 9.01557 96.9799 8.68354 97.6557 8.42182 98.3588 8.22651 99.0853 8.0312 99.8119 7.91011 100.55 7.85933 101.304 7.80855 102.054 7.83589 102.804 7.93355 103.55 8.0312 104.296 8.19917 105.027 8.44136 105.738 8.68354 106.452 8.99213 107.132 9.37104 107.785L26.5662 137.577C27.785 136.874 29.035 136.23 30.3162 135.648 31.6014 135.066 32.91 134.55 34.242 134.097 35.574 133.644 36.9256 133.257 38.2966 132.937 39.6716 132.616 41.0544 132.362 42.449 132.179 43.8474 131.995 45.2458 131.878 46.656 131.835 48.0622 131.788 49.4685 131.808 50.8747 131.902 52.2809 131.991 53.6755 132.155 55.0661 132.382 56.4567 132.612 57.8317 132.909 59.1911 133.273 60.5504 133.636 61.8903 134.07 63.2066 134.566 64.527 135.058 65.816 135.62 67.0777 136.241 68.3433 136.866 69.5738 137.55 70.7691 138.292 71.9644 139.034 73.1207 139.835 74.2378 140.694 75.355 141.55 76.4292 142.46 77.4566 143.425 78.4839 144.386 79.4605 145.398 80.3901 146.456 81.3198 147.515 82.1948 148.616 83.0151 149.765 83.8354 150.909 84.5971 152.089 85.3003 153.312 86.0034 154.53 86.6479 155.78 87.226 157.065 87.8081 158.347 88.3276 159.655 88.7768 160.991 89.2299 162.323 89.6166 163.679 89.937 165.05 90.2573 166.421 90.5073 167.804 90.6909 169.202 90.8745 170.601 90.9916 172.003 91.0346 173.409 91.0815 174.815 91.058 176.225 90.9682 177.628 90.8745 179.034 90.7143 180.433 90.4838 181.823 90.2534 183.214 89.9565 184.589 89.5932 185.948 89.2299 187.307 88.7963 188.647 88.3002 189.968 87.8042 191.284 87.2456 192.577 86.6206 193.839 85.9995 195.1 85.3159 196.331 84.5698 197.526 83.8276 198.725 83.0268 199.882 82.1714 200.999 81.312 202.116 80.4019 203.186 79.437 204.218 78.4761 205.245 77.4644 206.221 76.4058 207.151 75.3472 208.077 74.2456 208.952 73.1011 209.772 71.9566 210.592 70.773 211.354 69.5543 212.061L83.8784 236.881C84.1597 237.37 84.4643 237.842 84.7925 238.299 85.1206 238.76 85.4721 239.198 85.8432 239.624 86.2143 240.045 86.6049 240.452 87.0151 240.834 87.4292 241.221 87.8549 241.584 88.3042 241.928 88.7495 242.272 89.2143 242.592 89.6909 242.889 90.1674 243.186 90.6596 243.459 91.1674 243.709 91.6713 243.956 92.1869 244.182 92.7143 244.381 93.2416 244.577 93.7768 244.749 94.3197 244.897 94.8666 245.041 95.4135 245.159 95.9721 245.252 96.5268 245.342 97.0854 245.409 97.6479 245.444 98.2104 245.483 98.7728 245.491 99.3353 245.471 99.8978 245.456 100.456 245.409 101.015 245.334 101.574 245.26 102.128 245.159 102.675 245.034 103.226 244.905 103.765 244.749 104.3 244.569 104.831 244.389 105.355 244.182 105.867 243.948 106.382 243.717 106.882 243.459 107.37 243.178L365.486 94.1088C365.974 93.8276 366.447 93.519 366.904 93.1908 367.365 92.8627 367.802 92.5151 368.228 92.144 368.65 91.7729 369.056 91.3823 369.439 90.9682 369.826 90.5581 370.189 90.1284 370.533 89.6831 370.873 89.2338 371.193 88.7729 371.49 88.2963 371.791 87.8159 372.064 87.3237 372.31 86.8198 372.56 86.312 372.783 85.7964 372.982 85.269 373.181 84.7417 373.353 84.2065 373.498 83.6636 373.646 83.1206 373.763 82.5698 373.857 82.0151 373.947 81.4565 374.009 80.8979 374.049 80.3355 374.084 79.773 374.095 79.2105 374.076 78.648 374.056 78.0855 374.013 77.523 373.939 76.9644 373.865 76.4058 373.763 75.855 373.634 75.3042 373.509 74.7574 373.353 74.2144 373.174 73.6832 372.99 73.148 372.783 72.6246 372.552 72.1128 372.318 71.6011 372.064 71.0972 371.783 70.6129L357.451 45.7849C356.232 46.488 354.982 47.1286 353.701 47.7107 352.416 48.2927 351.107 48.8083 349.775 49.2614 348.443 49.7145 347.092 50.1013 345.721 50.4216 344.349 50.7419 342.967 50.9919 341.568 51.1755 340.174 51.3591 338.771 51.4763 337.365 51.5231 335.959 51.5661 334.553 51.5466 333.146 51.4528 331.74 51.3591 330.346 51.1989 328.955 50.9684 327.568 50.7419 326.193 50.445 324.834 50.0778 323.471 49.7145 322.135 49.2849 320.814 48.7888 319.498 48.2927 318.209 47.7341 316.943 47.1091 315.682 46.488 314.455 45.8044 313.26 45.0583 312.061 44.3161 310.904 43.5154 309.787 42.6599 308.674 41.8005 307.6 40.8904 306.572 39.9294 305.545 38.9646 304.568 37.9529 303.639 36.8943 302.709 35.8357 301.838 34.7342 301.018 33.5896 300.197 32.4451 299.436 31.2654 298.729 30.0428 298.026 28.824 297.385 27.5741 296.803 26.2889 296.221 25.0077 295.705 23.6991 295.252 22.3671 294.799 21.0311 294.412 19.6796 294.092 18.3085 293.776 16.9374 293.522 15.5507 293.338 14.1562 293.154 12.7577 293.041 11.3593 292.994 9.94916 292.947 8.54292 292.971 7.13668 293.065 5.73043 293.154 4.32419 293.315 2.92967 293.545 1.53905 293.776 0.148437 294.072-1.22655 294.436-2.58592 294.799-3.94529 295.229-5.28512 295.725-6.60543 296.221-7.92183 296.779-9.21088 297.404-10.4765 298.026-11.7382 298.709-12.9687 299.451-14.164 300.197-15.3593 300.998-16.5155 301.854-17.6327 302.713-18.7499 303.619-19.8241 304.584-20.8514 305.545-21.8788 306.557-22.8592 307.615-23.7889 308.674-24.7147 309.775-25.5897 310.92-26.41 312.065-27.2303 313.244-27.992 314.463-28.699Z" fill="#404040" transform="matrix(1.00001 0 0 1 114 172.833)"/></g><g clip-path="url(#clip2)"><path d="M374.131 142.304 374.131 103.601C374.131 102.753 374.049 101.913 373.884 101.085 373.716 100.253 373.474 99.4486 373.15 98.6635 372.826 97.8822 372.427 97.14 371.959 96.433 371.486 95.7299 370.951 95.0776 370.353 94.4799 369.756 93.8783 369.103 93.3471 368.4 92.8744 367.697 92.4057 366.951 92.0073 366.17 91.683 365.388 91.3588 364.58 91.1127 363.752 90.9487 362.92 90.7846 362.08 90.7026 361.236 90.7026L13.0312 90.7026C12.1835 90.7026 11.3437 90.7846 10.5117 90.9487 9.68354 91.1127 8.87495 91.3588 8.0937 91.683 7.31246 92.0073 6.57027 92.4057 5.86325 92.8744 5.16012 93.3471 4.50778 93.8783 3.91013 94.4799 3.31248 95.0776 2.77733 95.7299 2.30467 96.433 1.83593 97.14 1.43749 97.8822 1.11327 98.6635 0.789057 99.4486 0.546872 100.253 0.378904 101.085 0.214843 101.913 0.132811 102.753 0.132811 103.601L0.132811 142.304C1.71483 142.304 3.29686 142.382 4.87497 142.538 6.44918 142.691 8.01558 142.925 9.56635 143.234 11.121 143.542 12.6562 143.925 14.1718 144.386 15.6874 144.847 17.1757 145.378 18.6405 145.987 20.1053 146.593 21.535 147.269 22.9296 148.015 24.328 148.765 25.6834 149.577 26.9998 150.456 28.3201 151.335 29.5897 152.28 30.8123 153.284 32.0389 154.288 33.2107 155.355 34.3279 156.472 35.449 157.593 36.5115 158.765 37.5154 159.991 38.5232 161.214 39.4646 162.487 40.3435 163.804 41.2224 165.12 42.0388 166.479 42.7849 167.878 43.531 169.272 44.2068 170.702 44.8122 172.167 45.4177 173.632 45.9528 175.12 46.4138 176.64 46.8708 178.155 47.2575 179.69 47.5661 181.245 47.8747 182.796 48.1052 184.362 48.2614 185.94 48.4177 187.514 48.4958 189.097 48.4958 190.682 48.4958 192.264 48.4177 193.846 48.2614 195.425 48.1052 196.999 47.8747 198.565 47.5661 200.12 47.2575 201.675 46.8708 203.21 46.4138 204.725 45.9528 206.241 45.4177 207.729 44.8122 209.194 44.2068 210.659 43.531 212.089 42.7849 213.487 42.0388 214.885 41.2224 216.241 40.3435 217.557 39.4646 218.878 38.5232 220.147 37.5154 221.374 36.5115 222.596 35.449 223.768 34.3279 224.889 33.2107 226.01 32.0389 227.073 30.8123 228.077 29.5897 229.085 28.3201 230.026 26.9998 230.905 25.6834 231.788 24.328 232.6 22.9296 233.346 21.535 234.092 20.1053 234.768 18.6405 235.377 17.1757 235.983 15.6874 236.514 14.1718 236.975 12.6562 237.436 11.121 237.819 9.56635 238.127 8.01558 238.44 6.44918 238.67 4.87497 238.827 3.29686 238.983 1.71483 239.057 0.132811 239.057L0.132811 271.311C0.132811 271.944 0.164061 272.576 0.226561 273.209 0.28906 273.838 0.38281 274.463 0.503903 275.084 0.628902 275.709 0.781245 276.323 0.964838 276.928 1.14843 277.533 1.36327 278.131 1.60546 278.717 1.84764 279.303 2.11718 279.873 2.41795 280.432 2.71483 280.991 3.04295 281.533 3.39451 282.061 3.74607 282.588 4.12107 283.096 4.52341 283.588 4.92575 284.076 5.35153 284.545 5.80075 284.994 6.24606 285.444 6.7148 285.865 7.20699 286.268 7.69527 286.67 8.20308 287.049 8.73042 287.401 9.25776 287.752 9.80072 288.076 10.3593 288.377 10.9179 288.674 11.4882 288.947 12.0741 289.19 12.6601 289.432 13.2577 289.643 13.8632 289.83 14.4687 290.014 15.0819 290.166 15.703 290.291 16.3241 290.412 16.9491 290.506 17.5819 290.569 18.2108 290.631 18.8436 290.662 19.4764 290.662L354.787 290.662C355.42 290.662 356.053 290.631 356.681 290.569 357.314 290.506 357.939 290.412 358.56 290.291 359.181 290.166 359.795 290.014 360.4 289.83 361.01 289.643 361.603 289.432 362.189 289.19 362.775 288.947 363.345 288.674 363.904 288.377 364.463 288.076 365.006 287.752 365.533 287.401 366.06 287.049 366.568 286.67 367.06 286.268 367.549 285.865 368.017 285.444 368.467 284.994 368.912 284.545 369.338 284.076 369.74 283.588 370.142 283.096 370.517 282.588 370.869 282.061 371.224 281.533 371.549 280.991 371.845 280.432 372.146 279.873 372.416 279.303 372.658 278.717 372.9 278.131 373.115 277.533 373.299 276.928 373.482 276.323 373.634 275.709 373.759 275.084 373.884 274.463 373.974 273.838 374.037 273.209 374.099 272.576 374.131 271.944 374.131 271.311L374.131 239.057C372.549 239.057 370.967 238.983 369.392 238.827 367.814 238.67 366.248 238.44 364.697 238.127 363.142 237.819 361.607 237.436 360.092 236.975 358.576 236.514 357.088 235.983 355.623 235.377 354.162 234.772 352.728 234.092 351.334 233.346 349.935 232.6 348.58 231.788 347.264 230.905 345.947 230.026 344.674 229.085 343.451 228.077 342.224 227.073 341.053 226.01 339.935 224.889 338.814 223.768 337.752 222.596 336.748 221.374 335.74 220.147 334.799 218.878 333.92 217.557 333.041 216.241 332.225 214.885 331.478 213.487 330.732 212.089 330.057 210.659 329.451 209.194 328.846 207.729 328.311 206.241 327.85 204.725 327.393 203.21 327.006 201.675 326.697 200.12 326.389 198.565 326.158 196.999 326.002 195.425 325.846 193.846 325.768 192.264 325.768 190.682 325.768 189.097 325.846 187.514 326.002 185.94 326.158 184.362 326.389 182.796 326.697 181.245 327.006 179.69 327.393 178.155 327.85 176.64 328.311 175.12 328.846 173.632 329.451 172.167 330.057 170.702 330.732 169.272 331.478 167.878 332.225 166.479 333.041 165.12 333.92 163.804 334.799 162.487 335.74 161.214 336.748 159.991 337.752 158.765 338.814 157.593 339.935 156.472 341.053 155.355 342.224 154.288 343.451 153.284 344.674 152.28 345.947 151.335 347.264 150.456 348.58 149.577 349.935 148.765 351.334 148.015 352.728 147.269 354.162 146.593 355.623 145.987 357.088 145.378 358.576 144.847 360.092 144.386 361.607 143.925 363.142 143.542 364.697 143.234 366.248 142.925 367.814 142.691 369.392 142.538 370.967 142.382 372.549 142.304 374.131 142.304Z" fill="#404040" transform="matrix(1.00001 0 0 1 114 172.833)"/></g><path d="M219.374 155.206C219.374 155.839 219.342 156.472 219.28 157.101 219.217 157.733 219.124 158.358 219.003 158.98 218.878 159.601 218.725 160.214 218.542 160.823 218.358 161.429 218.143 162.022 217.901 162.608 217.659 163.194 217.389 163.769 217.089 164.327 216.792 164.886 216.464 165.429 216.112 165.956 215.76 166.483 215.385 166.991 214.983 167.479 214.581 167.972 214.155 168.44 213.706 168.886 213.26 169.335 212.792 169.761 212.299 170.163 211.811 170.565 211.303 170.94 210.776 171.296 210.249 171.647 209.706 171.972 209.147 172.268 208.589 172.569 208.018 172.839 207.432 173.081 206.846 173.323 206.249 173.538 205.643 173.722 205.038 173.905 204.425 174.061 203.803 174.183 203.182 174.308 202.553 174.401 201.925 174.464 201.296 174.522 200.663 174.554 200.03 174.554 199.393 174.554 198.764 174.522 198.132 174.464 197.503 174.401 196.878 174.308 196.253 174.183 195.632 174.061 195.018 173.905 194.413 173.722 193.807 173.538 193.21 173.323 192.624 173.081 192.042 172.839 191.468 172.569 190.909 172.268 190.35 171.972 189.807 171.647 189.28 171.296 188.753 170.94 188.245 170.565 187.757 170.163 187.264 169.761 186.796 169.335 186.35 168.886 185.901 168.44 185.475 167.972 185.073 167.479 184.675 166.991 184.296 166.483 183.944 165.956 183.593 165.429 183.268 164.886 182.968 164.327 182.671 163.769 182.397 163.194 182.155 162.608 181.913 162.022 181.702 161.429 181.518 160.823 181.331 160.214 181.179 159.601 181.054 158.98 180.933 158.358 180.839 157.733 180.776 157.101 180.714 156.472 180.683 155.839 180.683 155.206 180.683 154.569 180.714 153.937 180.776 153.308 180.839 152.679 180.933 152.05 181.054 151.429 181.179 150.808 181.331 150.194 181.518 149.585 181.702 148.98 181.913 148.386 182.155 147.8 182.397 147.214 182.671 146.64 182.968 146.081 183.268 145.523 183.593 144.98 183.944 144.452 184.296 143.925 184.675 143.417 185.073 142.929 185.475 142.437 185.901 141.968 186.35 141.523 186.796 141.073 187.264 140.648 187.757 140.245 188.245 139.843 188.753 139.468 189.28 139.116 189.807 138.761 190.35 138.437 190.909 138.14 191.468 137.839 192.042 137.569 192.624 137.327 193.21 137.085 193.807 136.87 194.413 136.687 195.018 136.503 195.632 136.347 196.253 136.226 196.878 136.101 197.503 136.007 198.132 135.944 198.764 135.886 199.393 135.855 200.03 135.855 200.663 135.855 201.296 135.886 201.925 135.944 202.553 136.007 203.182 136.101 203.803 136.226 204.425 136.347 205.038 136.503 205.643 136.687 206.249 136.87 206.846 137.085 207.432 137.327 208.018 137.569 208.589 137.839 209.147 138.14 209.706 138.437 210.249 138.761 210.776 139.116 211.303 139.468 211.811 139.843 212.299 140.245 212.792 140.648 213.26 141.073 213.706 141.523 214.155 141.968 214.581 142.437 214.983 142.929 215.385 143.417 215.76 143.925 216.112 144.452 216.464 144.98 216.792 145.523 217.089 146.081 217.389 146.64 217.659 147.214 217.901 147.8 218.143 148.386 218.358 148.98 218.542 149.585 218.725 150.194 218.878 150.808 219.003 151.429 219.124 152.05 219.217 152.679 219.28 153.308 219.342 153.937 219.374 154.569 219.374 155.206Z" fill="#404040" transform="matrix(1.00001 0 0 1 114 172.833)"/><path d="M296.752 232.608C296.752 233.241 296.721 233.874 296.658 234.506 296.596 235.135 296.502 235.76 296.381 236.385 296.256 237.006 296.104 237.62 295.92 238.225 295.737 238.831 295.522 239.428 295.279 240.014 295.037 240.6 294.768 241.17 294.467 241.729 294.17 242.288 293.842 242.831 293.49 243.358 293.139 243.885 292.764 244.393 292.362 244.885 291.959 245.374 291.533 245.842 291.084 246.291 290.639 246.741 290.17 247.166 289.678 247.569 289.19 247.971 288.682 248.346 288.155 248.698 287.627 249.049 287.084 249.377 286.526 249.674 285.967 249.975 285.397 250.245 284.811 250.487 284.225 250.729 283.627 250.944 283.022 251.127 282.416 251.311 281.803 251.463 281.182 251.588 280.561 251.713 279.936 251.803 279.303 251.866 278.674 251.928 278.041 251.959 277.408 251.959 276.776 251.959 276.143 251.928 275.51 251.866 274.881 251.803 274.256 251.713 273.635 251.588 273.01 251.463 272.397 251.311 271.791 251.127 271.186 250.944 270.588 250.729 270.006 250.487 269.42 250.245 268.846 249.975 268.287 249.674 267.729 249.377 267.186 249.049 266.659 248.698 266.131 248.346 265.623 247.971 265.135 247.569 264.647 247.166 264.178 246.741 263.729 246.291 263.28 245.842 262.854 245.374 262.455 244.885 262.053 244.393 261.674 243.885 261.323 243.358 260.971 242.831 260.647 242.288 260.346 241.729 260.049 241.17 259.776 240.6 259.534 240.014 259.291 239.428 259.08 238.831 258.897 238.225 258.713 237.62 258.557 237.006 258.436 236.385 258.311 235.76 258.217 235.135 258.155 234.506 258.092 233.874 258.061 233.241 258.061 232.608 258.061 231.975 258.092 231.342 258.155 230.713 258.217 230.081 258.311 229.456 258.436 228.835 258.557 228.213 258.713 227.596 258.897 226.991 259.08 226.385 259.291 225.788 259.534 225.202 259.776 224.616 260.049 224.046 260.346 223.487 260.647 222.928 260.971 222.385 261.323 221.858 261.674 221.331 262.053 220.823 262.455 220.331 262.854 219.842 263.28 219.374 263.729 218.924 264.178 218.475 264.647 218.053 265.135 217.651 265.623 217.249 266.131 216.87 266.659 216.518 267.186 216.167 267.729 215.842 268.287 215.542 268.846 215.245 269.42 214.971 270.006 214.729 270.588 214.487 271.186 214.276 271.791 214.092 272.397 213.905 273.01 213.753 273.635 213.628 274.256 213.507 274.881 213.413 275.51 213.35 276.143 213.288 276.776 213.257 277.408 213.257 278.041 213.257 278.674 213.288 279.303 213.35 279.936 213.413 280.561 213.507 281.182 213.628 281.803 213.753 282.416 213.905 283.022 214.092 283.627 214.276 284.225 214.487 284.811 214.729 285.397 214.971 285.967 215.245 286.526 215.542 287.084 215.842 287.627 216.167 288.155 216.518 288.682 216.87 289.19 217.249 289.678 217.651 290.17 218.053 290.639 218.475 291.084 218.924 291.533 219.374 291.959 219.842 292.362 220.331 292.764 220.823 293.139 221.331 293.49 221.858 293.842 222.385 294.17 222.928 294.467 223.487 294.768 224.046 295.037 224.616 295.279 225.202 295.522 225.788 295.737 226.385 295.92 226.991 296.104 227.596 296.256 228.213 296.381 228.835 296.502 229.456 296.596 230.081 296.658 230.713 296.721 231.342 296.752 231.975 296.752 232.608Z" fill="#404040" transform="matrix(1.00001 0 0 1 114 172.833)"/><path d="M190.354 242.284C189.722 241.651 189.155 240.959 188.659 240.213 188.163 239.467 187.741 238.682 187.401 237.854 187.057 237.022 186.804 236.17 186.628 235.292 186.456 234.409 186.37 233.522 186.374 232.624 186.378 231.729 186.468 230.842 186.643 229.963 186.823 229.085 187.085 228.233 187.432 227.405 187.78 226.577 188.202 225.792 188.706 225.049 189.206 224.307 189.776 223.62 190.413 222.991L268.291 146.085C268.893 145.499 269.545 144.98 270.248 144.523 270.952 144.062 271.69 143.679 272.471 143.366 273.248 143.054 274.049 142.819 274.873 142.663 275.698 142.507 276.53 142.433 277.369 142.437 278.209 142.444 279.037 142.53 279.862 142.698 280.682 142.866 281.479 143.112 282.252 143.437 283.026 143.761 283.764 144.155 284.459 144.624 285.155 145.093 285.799 145.624 286.393 146.214 286.987 146.808 287.518 147.456 287.983 148.151 288.451 148.847 288.846 149.585 289.17 150.358 289.494 151.132 289.74 151.929 289.908 152.753 290.076 153.573 290.166 154.405 290.17 155.245 290.178 156.081 290.1 156.913 289.947 157.737 289.791 158.565 289.557 159.366 289.244 160.144 288.932 160.921 288.545 161.663 288.088 162.366 287.631 163.069 287.112 163.726 286.526 164.327L209.643 242.225C209.014 242.866 208.327 243.436 207.585 243.936 206.842 244.44 206.057 244.862 205.229 245.209 204.405 245.557 203.553 245.819 202.675 245.999 201.796 246.174 200.909 246.264 200.011 246.268 199.116 246.272 198.229 246.186 197.346 246.014 196.468 245.838 195.616 245.581 194.788 245.241 193.956 244.897 193.171 244.479 192.425 243.983 191.679 243.483 190.991 242.917 190.354 242.284Z" fill="#404040" transform="matrix(1.00001 0 0 1 114 172.833)"/><g clip-path="url(#clip3)"><path d="M129.097 116.503C129.523 116.503 129.941 116.46 130.355 116.378 130.773 116.296 131.175 116.175 131.566 116.011 131.956 115.851 132.327 115.652 132.679 115.413 133.03 115.179 133.359 114.913 133.655 114.613 133.956 114.312 134.226 113.988 134.46 113.636 134.695 113.284 134.894 112.913 135.054 112.519 135.218 112.128 135.339 111.726 135.421 111.312 135.503 110.894 135.546 110.476 135.546 110.05L135.546 90.7026 122.648 90.7026 122.648 110.05C122.648 110.476 122.691 110.894 122.773 111.312 122.855 111.726 122.98 112.128 123.14 112.519 123.304 112.913 123.499 113.284 123.738 113.636 123.972 113.988 124.238 114.312 124.538 114.613 124.839 114.913 125.163 115.179 125.515 115.413 125.866 115.652 126.238 115.851 126.628 116.011 127.023 116.175 127.425 116.296 127.839 116.378 128.253 116.46 128.675 116.503 129.097 116.503Z" fill="#404040" transform="matrix(1.00001 0 0 1 114 172.833)"/></g><path d="M129.097 181.007C129.523 181.007 129.941 180.964 130.355 180.882 130.773 180.8 131.175 180.679 131.566 180.515 131.956 180.354 132.327 180.155 132.679 179.917 133.03 179.683 133.359 179.417 133.655 179.116 133.956 178.815 134.226 178.491 134.46 178.14 134.695 177.788 134.894 177.417 135.054 177.022 135.218 176.632 135.339 176.229 135.421 175.815 135.503 175.397 135.546 174.979 135.546 174.554L135.546 142.304C135.546 141.878 135.503 141.46 135.421 141.046 135.339 140.628 135.218 140.226 135.054 139.835 134.894 139.444 134.695 139.073 134.46 138.722 134.226 138.366 133.956 138.042 133.655 137.741 133.359 137.444 133.03 137.175 132.679 136.941 132.327 136.706 131.956 136.507 131.566 136.343 131.175 136.183 130.773 136.062 130.355 135.976 129.941 135.894 129.523 135.855 129.097 135.855 128.675 135.855 128.253 135.894 127.839 135.976 127.425 136.062 127.023 136.183 126.628 136.343 126.238 136.507 125.866 136.706 125.515 136.941 125.163 137.175 124.839 137.444 124.538 137.741 124.238 138.042 123.972 138.366 123.738 138.722 123.499 139.073 123.304 139.444 123.14 139.835 122.98 140.226 122.855 140.628 122.773 141.046 122.691 141.46 122.648 141.878 122.648 142.304L122.648 174.554C122.648 174.979 122.691 175.397 122.773 175.815 122.855 176.229 122.98 176.632 123.14 177.022 123.304 177.417 123.499 177.788 123.738 178.14 123.972 178.491 124.238 178.815 124.538 179.116 124.839 179.417 125.163 179.683 125.515 179.917 125.866 180.155 126.238 180.354 126.628 180.515 127.023 180.679 127.425 180.8 127.839 180.882 128.253 180.964 128.675 181.007 129.097 181.007Z" fill="#404040" transform="matrix(1.00001 0 0 1 114 172.833)"/><path d="M129.097 245.51C129.523 245.51 129.941 245.467 130.355 245.385 130.773 245.303 131.175 245.182 131.566 245.018 131.956 244.858 132.327 244.659 132.679 244.42 133.03 244.186 133.359 243.92 133.655 243.62 133.956 243.319 134.226 242.995 134.46 242.643 134.695 242.292 134.894 241.92 135.054 241.526 135.218 241.135 135.339 240.733 135.421 240.319 135.503 239.901 135.546 239.483 135.546 239.057L135.546 206.807C135.546 206.385 135.503 205.964 135.421 205.55 135.339 205.132 135.218 204.729 135.054 204.339 134.894 203.948 134.695 203.577 134.46 203.225 134.226 202.87 133.956 202.546 133.655 202.245 133.359 201.948 133.03 201.678 132.679 201.444 132.327 201.21 131.956 201.011 131.566 200.846 131.175 200.686 130.773 200.565 130.355 200.479 129.941 200.397 129.523 200.358 129.097 200.358 128.675 200.358 128.253 200.397 127.839 200.479 127.425 200.565 127.023 200.686 126.628 200.846 126.238 201.011 125.866 201.21 125.515 201.444 125.163 201.678 124.839 201.948 124.538 202.245 124.238 202.546 123.972 202.87 123.738 203.225 123.499 203.577 123.304 203.948 123.14 204.339 122.98 204.729 122.855 205.132 122.773 205.55 122.691 205.964 122.648 206.385 122.648 206.807L122.648 239.057C122.648 239.483 122.691 239.901 122.773 240.319 122.855 240.733 122.98 241.135 123.14 241.526 123.304 241.92 123.499 242.292 123.738 242.643 123.972 242.995 124.238 243.319 124.538 243.62 124.839 243.92 125.163 244.186 125.515 244.42 125.866 244.659 126.238 244.858 126.628 245.018 127.023 245.182 127.425 245.303 127.839 245.385 128.253 245.467 128.675 245.51 129.097 245.51Z" fill="#404040" transform="matrix(1.00001 0 0 1 114 172.833)"/><g clip-path="url(#clip4)"><path d="M129.097 264.862C128.675 264.862 128.253 264.901 127.839 264.983 127.425 265.069 127.023 265.19 126.628 265.35 126.238 265.514 125.866 265.713 125.515 265.948 125.163 266.182 124.839 266.452 124.538 266.748 124.238 267.049 123.972 267.373 123.738 267.729 123.499 268.08 123.304 268.452 123.14 268.842 122.98 269.233 122.855 269.635 122.773 270.053 122.691 270.467 122.648 270.889 122.648 271.311L122.648 290.662 135.546 290.662 135.546 271.311C135.546 270.889 135.503 270.467 135.421 270.053 135.339 269.635 135.218 269.233 135.054 268.842 134.894 268.452 134.695 268.08 134.46 267.729 134.226 267.373 133.956 267.049 133.655 266.748 133.359 266.452 133.03 266.182 132.679 265.948 132.327 265.713 131.956 265.514 131.566 265.35 131.175 265.19 130.773 265.069 130.355 264.983 129.941 264.901 129.523 264.862 129.097 264.862Z" fill="#404040" transform="matrix(1.00001 0 0 1 114 172.833)"/></g><g clip-path="url(#clip5)"><path d="M142.585 287.217 355.498 287.217C355.846 287.217 356.189 287.182 356.529 287.115 356.873 287.045 357.201 286.947 357.521 286.815 357.845 286.682 358.15 286.518 358.439 286.323 358.728 286.131 358.994 285.908 359.24 285.662 359.486 285.416 359.705 285.151 359.9 284.862 360.092 284.573 360.256 284.268 360.388 283.944 360.521 283.623 360.623 283.291 360.689 282.951 360.756 282.608 360.791 282.264 360.791 281.916L360.791 100.546C360.791 100.199 360.756 99.8549 360.689 99.515 360.623 99.1713 360.521 98.8392 360.388 98.5189 360.256 98.1986 360.092 97.8939 359.9 97.601 359.705 97.3119 359.486 97.0463 359.24 96.8002 358.994 96.5541 358.728 96.3354 358.439 96.14 358.15 95.9486 357.845 95.7846 357.521 95.6518 357.201 95.519 356.873 95.4174 356.529 95.3471 356.189 95.2807 355.846 95.2455 355.498 95.2455L142.585 95.2455C141.894 95.2455 141.198 95.2807 140.511 95.351 139.819 95.4174 139.136 95.519 138.452 95.6557 137.773 95.7885 137.101 95.9565 136.437 96.1596 135.773 96.3627 135.12 96.5971 134.48 96.8627 133.839 97.1283 133.214 97.4213 132.601 97.7494 131.991 98.0775 131.398 98.433 130.82 98.8197 130.241 99.2064 129.687 99.6205 129.152 100.058 128.616 100.499 128.101 100.968 127.613 101.456 127.12 101.949 126.655 102.46 126.214 102.999 125.777 103.535 125.363 104.093 124.976 104.671 124.593 105.249 124.234 105.843 123.909 106.456 123.581 107.07 123.284 107.695 123.019 108.335 122.753 108.98 122.523 109.632 122.32 110.296 122.12 110.96 121.948 111.632 121.816 112.316 121.679 112.995 121.577 113.683 121.511 114.374 121.441 115.062 121.409 115.757 121.409 116.452L121.409 266.014C121.409 266.705 121.441 267.401 121.511 268.092 121.577 268.784 121.679 269.467 121.816 270.151 121.948 270.83 122.116 271.502 122.32 272.166 122.523 272.834 122.753 273.487 123.019 274.127 123.284 274.768 123.581 275.397 123.909 276.01 124.234 276.619 124.593 277.217 124.976 277.791 125.363 278.369 125.777 278.928 126.214 279.463 126.655 280.002 127.12 280.514 127.609 281.006 128.101 281.498 128.613 281.963 129.152 282.405 129.687 282.846 130.241 283.256 130.82 283.643 131.398 284.03 131.991 284.385 132.601 284.713 133.214 285.041 133.839 285.338 134.48 285.604 135.12 285.869 135.773 286.104 136.437 286.303 137.101 286.506 137.773 286.674 138.452 286.811 139.136 286.944 139.819 287.045 140.511 287.115 141.198 287.182 141.894 287.217 142.585 287.217Z" fill="#404040" transform="matrix(1.00001 0 0 1 114 172.833)"/></g><g clip-path="url(#clip6)"><path d="M100.23 287.217-9.82025 287.217C-10.1679 287.217-10.5117 287.182-10.8515 287.115-11.1913 287.045-11.5234 286.947-11.8437 286.815-12.164 286.682-12.4726 286.518-12.7616 286.323-13.0507 286.131-13.3163 285.908-13.5624 285.662-13.8085 285.416-14.0273 285.151-14.2187 284.862-14.414 284.573-14.578 284.268-14.7108 283.944-14.8437 283.623-14.9413 283.291-15.0116 282.951-15.078 282.608-15.1132 282.264-15.1132 281.916L-15.1132 100.546C-15.1132 100.199-15.078 99.8549-15.0116 99.515-14.9413 99.1713-14.8437 98.8392-14.7108 98.5189-14.578 98.1986-14.414 97.8939-14.2187 97.601-14.0273 97.3119-13.8085 97.0463-13.5624 96.8002-13.3163 96.5541-13.0507 96.3354-12.7616 96.14-12.4726 95.9486-12.164 95.7846-11.8437 95.6518-11.5234 95.519-11.1913 95.4174-10.8515 95.3471-10.5117 95.2807-10.1679 95.2455-9.82025 95.2455L100.23 95.2455C100.921 95.2455 101.617 95.2807 102.304 95.351 102.995 95.4174 103.679 95.519 104.363 95.6557 105.042 95.7885 105.714 95.9565 106.378 96.1596 107.042 96.3627 107.695 96.5971 108.335 96.8627 108.976 97.1283 109.601 97.4213 110.214 97.7494 110.824 98.0775 111.417 98.433 111.995 98.8197 112.574 99.2064 113.128 99.6205 113.663 100.058 114.202 100.499 114.714 100.964 115.202 101.456 115.695 101.949 116.159 102.46 116.601 102.999 117.038 103.535 117.452 104.093 117.839 104.671 118.222 105.249 118.581 105.843 118.906 106.456 119.234 107.066 119.531 107.695 119.796 108.335 120.062 108.98 120.292 109.632 120.495 110.296 120.698 110.96 120.866 111.632 120.999 112.316 121.136 112.995 121.238 113.683 121.304 114.374 121.374 115.062 121.406 115.757 121.406 116.452L121.406 266.014C121.406 266.705 121.374 267.401 121.304 268.092 121.238 268.784 121.136 269.467 120.999 270.151 120.866 270.83 120.698 271.502 120.495 272.166 120.296 272.834 120.062 273.487 119.796 274.127 119.531 274.768 119.234 275.397 118.906 276.01 118.581 276.619 118.226 277.217 117.839 277.791 117.452 278.369 117.042 278.928 116.601 279.463 116.159 280.002 115.695 280.514 115.206 281.006 114.714 281.498 114.202 281.963 113.663 282.405 113.128 282.846 112.574 283.256 111.995 283.643 111.421 284.03 110.824 284.385 110.214 284.713 109.601 285.041 108.976 285.338 108.335 285.604 107.695 285.869 107.042 286.104 106.378 286.303 105.714 286.506 105.042 286.674 104.363 286.811 103.683 286.944 102.995 287.045 102.308 287.115 101.617 287.182 100.925 287.217 100.23 287.217Z" fill="#404040" transform="matrix(1.00001 0 0 1 114 172.833)"/></g><path d="M121.409 133.995C121.034 133.995 120.667 133.96 120.3 133.886 119.937 133.812 119.581 133.706 119.238 133.562 118.894 133.421 118.566 133.245 118.257 133.038 117.949 132.831 117.659 132.597 117.398 132.331 117.132 132.07 116.898 131.78 116.691 131.472 116.484 131.159 116.312 130.835 116.167 130.488 116.027 130.144 115.917 129.788 115.843 129.425 115.773 129.058 115.734 128.687 115.734 128.316L115.734 115.566C115.734 115.195 115.773 114.824 115.843 114.46 115.917 114.093 116.027 113.738 116.167 113.394 116.308 113.05 116.484 112.722 116.691 112.413 116.898 112.101 117.132 111.816 117.398 111.55 117.659 111.288 117.949 111.05 118.257 110.843 118.566 110.636 118.894 110.464 119.238 110.32 119.581 110.179 119.937 110.07 120.3 109.995 120.667 109.925 121.034 109.886 121.409 109.886 121.781 109.886 122.148 109.925 122.515 109.995 122.878 110.07 123.234 110.179 123.577 110.32 123.921 110.464 124.249 110.636 124.558 110.843 124.87 111.05 125.155 111.288 125.417 111.55 125.683 111.816 125.917 112.101 126.124 112.413 126.331 112.722 126.507 113.05 126.648 113.394 126.792 113.738 126.898 114.093 126.972 114.46 127.042 114.824 127.081 115.195 127.081 115.566L127.081 128.316C127.081 128.687 127.042 129.058 126.972 129.421 126.898 129.788 126.792 130.144 126.648 130.488 126.507 130.831 126.331 131.159 126.124 131.472 125.917 131.78 125.683 132.066 125.417 132.331 125.155 132.593 124.87 132.831 124.558 133.038 124.249 133.245 123.921 133.421 123.577 133.562 123.234 133.706 122.878 133.812 122.515 133.886 122.148 133.956 121.781 133.995 121.409 133.995Z" fill="#FF5050" transform="matrix(1.00001 0 0 1 114 172.833)"/><path d="M121.409 168.261C121.034 168.261 120.667 168.226 120.3 168.151 119.937 168.081 119.581 167.972 119.238 167.831 118.894 167.686 118.566 167.511 118.257 167.304 117.949 167.097 117.659 166.862 117.398 166.601 117.132 166.335 116.898 166.05 116.691 165.737 116.484 165.429 116.308 165.101 116.167 164.757 116.027 164.413 115.917 164.058 115.843 163.69 115.773 163.323 115.734 162.956 115.734 162.581L115.734 149.835C115.734 149.46 115.773 149.093 115.843 148.726 115.917 148.362 116.027 148.007 116.167 147.659 116.308 147.316 116.484 146.987 116.691 146.679 116.898 146.37 117.132 146.081 117.398 145.819 117.659 145.554 117.949 145.319 118.257 145.112 118.566 144.905 118.894 144.73 119.238 144.589 119.581 144.444 119.937 144.335 120.3 144.265 120.667 144.191 121.034 144.155 121.409 144.155 121.781 144.155 122.148 144.191 122.515 144.265 122.878 144.335 123.234 144.444 123.577 144.589 123.921 144.73 124.249 144.905 124.558 145.112 124.87 145.319 125.155 145.554 125.417 145.819 125.683 146.081 125.917 146.37 126.124 146.679 126.331 146.987 126.507 147.316 126.648 147.659 126.792 148.007 126.898 148.362 126.972 148.726 127.042 149.093 127.081 149.46 127.081 149.835L127.081 162.581C127.081 162.956 127.042 163.323 126.972 163.69 126.898 164.058 126.792 164.409 126.648 164.757 126.507 165.101 126.331 165.429 126.124 165.737 125.917 166.046 125.683 166.335 125.417 166.597 125.155 166.862 124.87 167.097 124.558 167.304 124.249 167.511 123.921 167.686 123.577 167.831 123.234 167.972 122.878 168.081 122.515 168.151 122.148 168.226 121.781 168.261 121.409 168.261Z" fill="#FF5050" transform="matrix(1.00001 0 0 1 114 172.833)"/><path d="M121.409 202.526C121.034 202.53 120.667 202.491 120.3 202.421 119.937 202.346 119.581 202.237 119.238 202.096 118.894 201.952 118.566 201.78 118.257 201.573 117.949 201.366 117.659 201.128 117.398 200.866 117.132 200.6 116.898 200.315 116.691 200.003 116.484 199.694 116.312 199.366 116.167 199.022 116.027 198.678 115.917 198.323 115.843 197.956 115.773 197.593 115.734 197.221 115.734 196.85L115.734 184.1C115.734 183.729 115.773 183.358 115.843 182.991 115.917 182.628 116.027 182.272 116.167 181.929 116.308 181.581 116.484 181.257 116.691 180.944 116.898 180.636 117.132 180.347 117.398 180.085 117.659 179.819 117.949 179.585 118.257 179.378 118.566 179.171 118.894 178.995 119.238 178.854 119.581 178.71 119.937 178.604 120.3 178.53 120.667 178.456 121.034 178.421 121.409 178.421 121.781 178.421 122.148 178.456 122.515 178.53 122.878 178.604 123.234 178.71 123.577 178.854 123.921 178.995 124.249 179.171 124.558 179.378 124.87 179.585 125.155 179.819 125.417 180.085 125.683 180.347 125.917 180.636 126.124 180.944 126.331 181.257 126.507 181.581 126.648 181.929 126.792 182.272 126.898 182.628 126.972 182.991 127.042 183.358 127.081 183.729 127.081 184.1L127.081 196.85C127.081 197.221 127.042 197.593 126.972 197.956 126.898 198.323 126.792 198.678 126.648 199.022 126.507 199.366 126.331 199.694 126.124 200.003 125.917 200.315 125.683 200.6 125.417 200.866 125.155 201.128 124.87 201.362 124.558 201.569 124.249 201.776 123.921 201.952 123.577 202.096 123.234 202.237 122.878 202.346 122.515 202.421 122.148 202.491 121.781 202.526 121.409 202.526Z" fill="#FF5050" transform="matrix(1.00001 0 0 1 114 172.833)"/><path d="M121.409 236.795C121.034 236.795 120.667 236.76 120.3 236.686 119.937 236.612 119.581 236.506 119.238 236.362 118.894 236.221 118.566 236.045 118.257 235.838 117.949 235.631 117.659 235.397 117.398 235.131 117.132 234.87 116.898 234.581 116.691 234.272 116.484 233.96 116.308 233.635 116.167 233.288 116.027 232.944 115.917 232.588 115.843 232.225 115.773 231.858 115.734 231.487 115.734 231.116L115.734 218.366C115.734 217.995 115.773 217.624 115.843 217.26 115.917 216.893 116.027 216.538 116.167 216.194 116.308 215.85 116.484 215.522 116.691 215.214 116.898 214.901 117.132 214.616 117.398 214.35 117.659 214.089 117.949 213.854 118.257 213.647 118.566 213.44 118.894 213.264 119.238 213.12 119.581 212.979 119.937 212.87 120.3 212.796 120.667 212.725 121.034 212.69 121.409 212.69 121.781 212.69 122.148 212.725 122.515 212.796 122.878 212.87 123.234 212.979 123.577 213.12 123.921 213.264 124.249 213.44 124.558 213.647 124.87 213.854 125.155 214.089 125.417 214.35 125.683 214.616 125.917 214.901 126.124 215.214 126.331 215.522 126.507 215.85 126.648 216.194 126.792 216.538 126.898 216.893 126.972 217.26 127.042 217.624 127.081 217.995 127.081 218.366L127.081 231.116C127.081 231.487 127.042 231.858 126.972 232.225 126.898 232.588 126.792 232.944 126.648 233.288 126.507 233.635 126.331 233.96 126.124 234.272 125.917 234.581 125.683 234.87 125.417 235.131 125.155 235.397 124.87 235.631 124.558 235.838 124.249 236.045 123.921 236.221 123.577 236.362 123.234 236.506 122.878 236.612 122.515 236.686 122.148 236.76 121.781 236.795 121.409 236.795Z" fill="#FF5050" transform="matrix(1.00001 0 0 1 114 172.833)"/><path d="M121.409 271.061C121.034 271.061 120.667 271.026 120.3 270.952 119.937 270.881 119.581 270.772 119.238 270.631 118.894 270.487 118.566 270.311 118.257 270.104 117.949 269.897 117.659 269.662 117.398 269.401 117.132 269.135 116.898 268.85 116.691 268.537 116.484 268.229 116.308 267.901 116.167 267.557 116.027 267.213 115.917 266.858 115.843 266.491 115.773 266.123 115.734 265.756 115.734 265.381L115.734 252.635C115.734 252.26 115.773 251.893 115.843 251.526 115.917 251.163 116.027 250.807 116.167 250.463 116.308 250.116 116.484 249.791 116.691 249.479 116.898 249.17 117.132 248.881 117.398 248.62 117.659 248.354 117.949 248.12 118.257 247.913 118.566 247.706 118.894 247.53 119.238 247.389 119.581 247.245 119.937 247.139 120.3 247.065 120.667 246.991 121.034 246.956 121.409 246.956 121.781 246.956 122.148 246.991 122.515 247.065 122.878 247.139 123.234 247.245 123.577 247.389 123.921 247.53 124.249 247.706 124.558 247.913 124.87 248.12 125.155 248.354 125.417 248.62 125.683 248.881 125.917 249.17 126.124 249.479 126.331 249.791 126.507 250.116 126.648 250.463 126.792 250.807 126.898 251.163 126.972 251.526 127.042 251.893 127.081 252.26 127.081 252.635L127.081 265.381C127.081 265.756 127.042 266.123 126.972 266.491 126.898 266.858 126.792 267.213 126.648 267.557 126.507 267.901 126.331 268.229 126.124 268.537 125.917 268.85 125.683 269.135 125.417 269.397 125.155 269.662 124.87 269.897 124.558 270.104 124.249 270.311 123.921 270.487 123.577 270.631 123.234 270.772 122.878 270.881 122.515 270.952 122.148 271.026 121.781 271.061 121.409 271.061Z" fill="#FF5050" transform="matrix(1.00001 0 0 1 114 172.833)"/><path d="M254.237 118.499C252.885 118.495 251.549 118.632 250.225 118.902 248.905 119.171 247.62 119.57 246.377 120.097 245.135 120.628 243.959 121.273 242.846 122.042 241.737 122.808 240.713 123.679 239.776 124.652 239.202 124.054 238.588 123.495 237.948 122.976 237.303 122.456 236.627 121.976 235.924 121.538 235.221 121.105 234.495 120.71 233.741 120.363 232.991 120.015 232.221 119.718 231.432 119.464 230.643 119.214 229.842 119.011 229.026 118.859 228.213 118.702 227.393 118.601 226.569 118.55 225.741 118.499 224.917 118.495 224.089 118.546 223.264 118.597 222.444 118.699 221.628 118.851 220.815 119.003 220.014 119.202 219.225 119.452 218.436 119.706 217.667 120.003 216.913 120.347 216.159 120.695 215.432 121.085 214.729 121.523 214.022 121.956 213.35 122.433 212.702 122.952 212.057 123.472 211.448 124.031 210.87 124.624 210.296 125.218 209.757 125.847 209.257 126.507 208.757 127.171 208.3 127.859 207.885 128.577 207.471 129.296 207.104 130.034 206.78 130.796 206.46 131.562 206.182 132.343 205.956 133.14 205.729 133.937 205.553 134.745 205.425 135.562 205.296 136.382 205.221 137.206 205.194 138.034 205.171 138.862 205.194 139.691 205.272 140.515 205.346 141.339 205.475 142.159 205.651 142.968 205.827 143.776 206.053 144.573 206.327 145.355 206.604 146.136 206.925 146.898 207.296 147.64 207.663 148.382 208.077 149.097 208.534 149.788 208.991 150.48 209.487 151.14 210.026 151.769 210.565 152.401 211.139 152.995 211.753 153.554 212.366 154.112 213.007 154.628 213.682 155.108 214.358 155.585 215.061 156.022 215.792 156.413 216.522 156.808 217.272 157.151 218.042 157.452 218.815 157.749 219.604 158.003 220.405 158.202 221.21 158.405 222.022 158.558 222.842 158.659 223.663 158.761 224.487 158.812 225.315 158.812L254.237 158.812C254.893 158.808 255.549 158.772 256.202 158.706 256.858 158.64 257.506 158.538 258.151 158.409 258.795 158.276 259.432 158.116 260.061 157.921 260.686 157.73 261.307 157.507 261.912 157.253 262.518 156.999 263.112 156.714 263.69 156.401 264.268 156.089 264.83 155.749 265.377 155.382 265.924 155.015 266.448 154.624 266.955 154.206 267.463 153.784 267.948 153.343 268.412 152.878 268.877 152.409 269.319 151.921 269.733 151.413 270.151 150.901 270.541 150.374 270.905 149.827 271.268 149.276 271.604 148.714 271.916 148.132 272.225 147.55 272.502 146.956 272.756 146.347 273.006 145.737 273.225 145.12 273.416 144.491 273.608 143.859 273.768 143.222 273.893 142.577 274.022 141.929 274.119 141.28 274.182 140.624 274.248 139.968 274.28 139.312 274.28 138.655 274.28 137.995 274.248 137.339 274.182 136.683 274.119 136.03 274.022 135.378 273.893 134.734 273.768 134.089 273.608 133.448 273.416 132.82 273.225 132.191 273.006 131.57 272.756 130.96 272.502 130.351 272.225 129.757 271.916 129.175 271.604 128.597 271.268 128.03 270.905 127.484 270.541 126.937 270.151 126.405 269.733 125.898 269.319 125.386 268.877 124.898 268.412 124.433 267.948 123.968 267.463 123.523 266.955 123.105 266.448 122.687 265.924 122.292 265.377 121.925 264.83 121.558 264.268 121.218 263.69 120.906 263.112 120.593 262.518 120.312 261.912 120.058 261.307 119.804 260.686 119.581 260.061 119.386 259.432 119.195 258.795 119.031 258.151 118.902 257.506 118.769 256.858 118.671 256.202 118.605 255.549 118.534 254.893 118.499 254.237 118.499ZM216.53 138.655C216.53 138.077 216.589 137.503 216.702 136.937 216.811 136.37 216.979 135.823 217.202 135.288 217.421 134.753 217.69 134.249 218.014 133.769 218.335 133.288 218.698 132.843 219.104 132.433 219.514 132.027 219.956 131.659 220.436 131.339 220.917 131.019 221.424 130.749 221.956 130.527 222.487 130.308 223.038 130.14 223.604 130.027 224.171 129.913 224.741 129.859 225.319 129.859 225.893 129.859 226.467 129.913 227.034 130.027 227.596 130.14 228.147 130.308 228.682 130.527 229.213 130.749 229.721 131.019 230.198 131.339 230.678 131.659 231.124 132.027 231.53 132.433 231.94 132.843 232.303 133.288 232.624 133.769 232.944 134.249 233.213 134.753 233.436 135.288 233.655 135.823 233.823 136.37 233.936 136.937 234.049 137.503 234.104 138.077 234.104 138.655L234.104 147.452 225.319 147.452C224.741 147.452 224.171 147.394 223.604 147.28 223.038 147.167 222.491 146.999 221.956 146.78 221.424 146.558 220.917 146.288 220.44 145.968 219.96 145.644 219.514 145.28 219.108 144.874 218.698 144.464 218.335 144.019 218.014 143.538 217.694 143.058 217.424 142.554 217.202 142.019 216.979 141.487 216.815 140.937 216.702 140.37 216.589 139.804 216.53 139.234 216.53 138.655ZM254.237 147.452 245.448 147.452 245.448 138.655C245.448 138.077 245.502 137.503 245.616 136.937 245.729 136.37 245.897 135.819 246.116 135.288 246.338 134.753 246.608 134.245 246.928 133.765 247.249 133.284 247.612 132.843 248.022 132.433 248.428 132.027 248.874 131.659 249.354 131.339 249.834 131.019 250.338 130.749 250.873 130.527 251.405 130.304 251.956 130.14 252.522 130.027 253.084 129.913 253.659 129.855 254.233 129.855 254.811 129.855 255.381 129.913 255.948 130.027 256.514 130.14 257.065 130.304 257.596 130.527 258.131 130.749 258.635 131.019 259.116 131.339 259.596 131.659 260.038 132.027 260.448 132.433 260.854 132.843 261.221 133.284 261.541 133.765 261.862 134.245 262.131 134.753 262.354 135.288 262.573 135.819 262.741 136.37 262.854 136.937 262.963 137.503 263.022 138.077 263.022 138.655 263.022 139.23 262.963 139.804 262.854 140.37 262.741 140.937 262.573 141.487 262.354 142.019 262.131 142.554 261.862 143.062 261.541 143.542 261.221 144.023 260.854 144.464 260.448 144.874 260.041 145.284 259.596 145.648 259.116 145.968 258.635 146.288 258.131 146.562 257.596 146.78 257.065 147.003 256.514 147.171 255.948 147.28 255.381 147.394 254.811 147.452 254.237 147.452Z" fill="#FFFFFF" transform="matrix(1.00001 0 0 1 114 172.833)"/><path d="M278.182 259.53 201.37 259.53C200.378 259.53 199.393 259.432 198.421 259.237 197.444 259.041 196.499 258.756 195.581 258.373 194.663 257.995 193.792 257.53 192.968 256.975 192.139 256.424 191.378 255.795 190.675 255.092 189.972 254.389 189.343 253.623 188.792 252.795 188.241 251.971 187.776 251.096 187.393 250.178 187.014 249.26 186.729 248.311 186.534 247.338 186.339 246.362 186.245 245.377 186.245 244.381L186.245 190.995 195.151 187.21 284.78 187.21 293.307 190.995 293.307 244.381C293.307 245.377 293.213 246.362 293.018 247.338 292.822 248.315 292.537 249.26 292.158 250.178 291.776 251.096 291.311 251.971 290.76 252.795 290.209 253.623 289.58 254.389 288.877 255.092 288.174 255.795 287.412 256.424 286.584 256.975 285.76 257.53 284.889 257.995 283.971 258.377 283.053 258.756 282.108 259.045 281.131 259.237 280.158 259.432 279.174 259.53 278.182 259.53Z" fill="#FF5050" transform="matrix(1.00001 0 0 1 114 172.833)"/><path d="M299.553 190.995 179.999 190.995C179.659 190.995 179.327 190.96 178.995 190.897 178.663 190.831 178.343 190.733 178.03 190.604 177.722 190.475 177.425 190.315 177.143 190.128 176.862 189.94 176.604 189.725 176.366 189.487 176.124 189.249 175.913 188.987 175.726 188.706 175.538 188.429 175.378 188.132 175.249 187.819 175.12 187.507 175.022 187.182 174.956 186.854 174.893 186.522 174.858 186.186 174.858 185.85L174.858 158.276C174.858 157.937 174.893 157.605 174.956 157.272 175.022 156.94 175.12 156.62 175.249 156.308 175.378 155.995 175.538 155.698 175.726 155.417 175.913 155.136 176.124 154.878 176.366 154.636 176.604 154.398 176.862 154.187 177.143 153.999 177.425 153.812 177.722 153.651 178.03 153.523 178.343 153.394 178.663 153.296 178.995 153.23 179.327 153.163 179.659 153.132 179.999 153.132L227.674 153.132 239.776 160.48 251.877 153.132 299.553 153.132C299.893 153.132 300.225 153.163 300.557 153.23 300.889 153.296 301.209 153.394 301.522 153.523 301.834 153.651 302.131 153.812 302.408 153.999 302.69 154.187 302.951 154.398 303.19 154.636 303.428 154.878 303.639 155.136 303.826 155.417 304.014 155.698 304.174 155.995 304.303 156.308 304.432 156.62 304.529 156.94 304.596 157.272 304.662 157.605 304.693 157.937 304.693 158.276L304.693 185.85C304.693 186.186 304.662 186.522 304.596 186.854 304.529 187.182 304.432 187.507 304.303 187.819 304.174 188.132 304.014 188.429 303.826 188.706 303.639 188.987 303.428 189.249 303.19 189.487 302.951 189.725 302.69 189.94 302.408 190.128 302.131 190.315 301.834 190.475 301.522 190.604 301.209 190.733 300.889 190.831 300.557 190.897 300.225 190.96 299.893 190.995 299.553 190.995Z" fill="#FF5050" transform="matrix(1.00001 0 0 1 114 172.833)"/><path d="M227.674 153.132 251.877 153.132 251.877 259.53 227.674 259.53Z" fill="#FFFFFF" transform="matrix(1.00001 0 0 1 114 172.833)"/><path d="M2.85726 0.000227456 182.176-0.0010272" stroke="#FFFFFF" stroke-width="5.71388" stroke-linecap="round" fill="none" transform="matrix(0.00246768 -1.00057 0.999997 0.00246766 213.211 456.569)"/></g></svg>