<svg width="375" height="210" xmlns="http://www.w3.org/2000/svg" xmlns:xlink="http://www.w3.org/1999/xlink" overflow="hidden"><defs><clipPath id="clip0"><rect x="452" y="254" width="375" height="210"/></clipPath><clipPath id="clip1"><rect x="459" y="435" width="361" height="25"/></clipPath><clipPath id="clip2"><rect x="482" y="260" width="312" height="173"/></clipPath></defs><g clip-path="url(#clip0)" transform="translate(-452 -254)"><g clip-path="url(#clip1)"><path d="M364.495 263.587 10.0877 263.587C0.0468106 263.587 21.3886 262.553 16.3915 276.889 16.3915 286.945 19.6332 286.922 29.674 286.922L344.909 286.922C354.942 286.922 358.191 286.945 358.191 276.889 353.19 262.553 374.528 263.587 364.495 263.587" fill="#FF5050" transform="matrix(1.00138 0 0 1 452 172.898)"/></g><g clip-path="url(#clip2)"><path d="M185.873 91.6201C192.333 91.6201 197.564 96.8629 197.564 103.331L194.459 103.331C191.615 103.175 188.756 103.089 185.873 103.089 182.991 103.089 180.127 103.175 177.284 103.331L174.175 103.331C174.175 96.8629 179.413 91.6201 185.873 91.6201ZM126.837 254.182C126.861 253.554 126.791 252.945 126.915 252.298 127.251 250.495 127.348 248.139 127.286 245.518 121.942 238.059 119.761 223.181 117.132 199.008 115.501 184.005 120.35 130.945 140.553 130.945 147.348 130.945 139.223 251.397 139.223 251.397 139.238 251.783 139.23 252.122 139.242 252.497 139.414 254.654 139.582 256.803 139.745 258.949L176.098 258.949C176.659 249.095 177.284 239.503 177.958 231.014 177.982 230.39 177.997 229.793 178.036 229.13 179.058 212.672 171.436 208.303 171.436 208.303L171.44 208.296C162.074 201.656 155.563 187.886 155.563 176.874 155.563 161.778 165.994 130.945 182.854 130.945 202.975 130.945 210.145 161.778 210.145 176.874 210.145 188.058 203.435 202.082 193.827 208.6 192.107 210.156 187.219 215.762 187.672 229.13 187.683 229.516 187.679 229.86 187.687 230.23 188.389 238.91 189.033 248.791 189.61 258.949L230.948 258.949C231.51 249.095 232.134 239.503 232.813 231.014 232.832 230.39 232.848 229.793 232.891 229.13 233.511 219.082 230.593 212.107 228.221 208.179 227.149 206.942 226.236 205.686 225.444 204.426L225.417 204.399 225.424 204.395C220.568 196.651 220.548 188.838 220.548 186.092L222.031 150.442C222.031 149.771 222.132 149.076 222.28 148.401L222.323 145.491C222.323 141.353 223.337 139.254 224.492 139.254L224.945 139.254C226.509 139.254 226.801 142.593 226.801 144.723L229.126 189.38C229.555 189.045 229.86 188.479 229.86 187.808L230.184 182.604 231.44 145.491C231.44 141.353 232.454 139.254 233.608 139.254L234.061 139.254C235.625 139.254 235.922 142.593 235.922 144.723L237.416 189.634C237.521 189.665 237.622 189.712 237.736 189.712 237.825 189.712 237.903 189.669 237.989 189.649L239.487 145.491C239.487 141.353 240.501 139.254 241.652 139.254L242.105 139.254C243.669 139.254 243.961 142.593 243.961 144.723L245.374 187.094 245.432 187.808C245.432 188.46 245.721 189.006 246.126 189.349L248.451 144.723C248.451 142.593 248.748 139.254 250.312 139.254L250.761 139.254C251.915 139.254 252.93 141.353 252.93 145.491L253.09 156.468 254.872 186.092C254.872 188.729 255.508 196.464 250.971 203.603L250.96 203.618C250.296 204.656 249.528 205.686 248.627 206.681 246.005 210.656 242.163 218.364 242.522 229.13 242.534 229.516 242.534 229.86 242.538 230.23 243.24 238.91 243.883 248.791 244.461 258.949L341.507 258.949C341.507 179.374 281.96 113.738 205.054 104.271 203.638 94.9203 195.598 87.7465 185.873 87.7465 176.141 87.7465 168.105 94.9203 166.689 104.271 89.7867 113.738 30.2358 179.378 30.2358 258.949L126.475 258.949C126.592 257.361 126.712 255.777 126.837 254.182" fill="#FF5050" transform="matrix(1.00138 0 0 1 452 172.898)"/></g></g></svg>