<svg width="233" height="322" xmlns="http://www.w3.org/2000/svg" xmlns:xlink="http://www.w3.org/1999/xlink" overflow="hidden"><defs><clipPath id="clip0"><rect x="517" y="225" width="233" height="322"/></clipPath><clipPath id="clip1"><rect x="514" y="226" width="234" height="321"/></clipPath><clipPath id="clip2"><path d="M452.97 340.475 639.447 172.408 825.67 378.823 639.189 546.895Z"/></clipPath><clipPath id="clip3"><path d="M452.97 340.475 639.447 172.408 825.67 378.823 639.189 546.895Z"/></clipPath><clipPath id="clip4"><rect x="514" y="226" width="234" height="321"/></clipPath><clipPath id="clip5"><path d="M452.97 340.475 639.447 172.408 825.67 378.823 639.189 546.895Z"/></clipPath><clipPath id="clip6"><path d="M452.97 340.475 639.447 172.408 825.67 378.823 639.189 546.895Z"/></clipPath><clipPath id="clip7"><path d="M452.97 340.475 639.447 172.408 825.67 378.823 639.189 546.895Z"/></clipPath><clipPath id="clip8"><path d="M452.97 340.475 639.447 172.408 825.67 378.823 639.189 546.895Z"/></clipPath><clipPath id="clip9"><rect x="539" y="280" width="62" height="84"/></clipPath><clipPath id="clip10"><rect x="652" y="280" width="73" height="84"/></clipPath><clipPath id="clip11"><rect x="589" y="264" width="84" height="65"/></clipPath><clipPath id="clip12"><rect x="580" y="395" width="103" height="19"/></clipPath><clipPath id="clip13"><rect x="579" y="394" width="104" height="20"/></clipPath><clipPath id="clip14"><rect x="612" y="353" width="40" height="40"/></clipPath></defs><g clip-path="url(#clip0)" transform="translate(-517 -225)"><g clip-path="url(#clip1)"><g clip-path="url(#clip2)"><g clip-path="url(#clip3)"><path d="M186.028 372.645 203.083 301.786 207.781 282.257C227.669 277.013 246.41 266.419 261.702 250.503 306.031 204.375 304.588 131.062 258.475 86.7552 212.362 42.4529 139.045 43.9356 94.7152 90.0641 50.3894 136.196 51.8331 209.51 97.942 253.812 115.985 271.144 138.194 281.473 161.2 284.856L166.198 302.535 186.028 372.645" fill="#A6A6A6" transform="matrix(1.0005 0 0 1 452.966 172.416)"/></g></g></g><g clip-path="url(#clip4)"><g clip-path="url(#clip5)"><g clip-path="url(#clip6)"><path d="M186.028 372.645 186.469 372.75 203.524 301.891 208.222 282.362 207.781 282.257 207.898 282.698C225.301 278.105 241.837 269.431 255.962 256.695 258.038 254.823 260.059 252.864 262.025 250.815 304.564 206.552 305.118 137.359 264.663 92.4911 262.79 90.4152 260.828 88.3941 258.783 86.4275 214.539 43.92 145.343 43.3971 100.451 83.8795 98.3752 85.7486 96.3501 87.7034 94.3874 89.748 51.8526 134.015 51.2946 203.212 91.7536 248.08 93.6226 250.152 95.5814 252.173 97.626 254.14 115.739 271.542 138.038 281.91 161.138 285.304L161.2 284.856 160.767 284.98 165.761 302.656 186.067 374.44 186.469 372.75 186.028 372.645 186.465 372.52 166.635 302.41 161.555 284.45 161.266 284.407C138.35 281.04 116.226 270.754 98.2581 253.484 96.2252 251.533 94.282 249.528 92.4286 247.471 52.2857 202.954 52.8359 134.296 95.039 90.3762 96.99 88.3472 98.9995 86.408 101.056 84.5507 145.596 44.3882 214.258 44.9033 258.159 87.083 260.188 89.0301 262.131 91.0396 263.988 93.0998 304.127 137.613 303.577 206.271 261.374 250.187 259.423 252.22 257.413 254.163 255.353 256.02 241.338 268.659 224.938 277.266 207.664 281.82L207.403 281.886 202.642 301.681 185.587 372.54 186.028 372.645 186.465 372.52 186.028 372.645" fill="#FFFFFF" transform="matrix(1.0005 0 0 1 452.966 172.416)"/></g></g></g><g clip-path="url(#clip7)"><g clip-path="url(#clip8)"><path d="M185.489 372.797C183.019 365.598 180.596 358.379 178.204 351.153L171.115 329.458 164.161 307.721 157.329 285.952 160.615 288.832C146.045 287.009 131.787 282.413 118.731 275.46 117.05 274.668 115.532 273.602 113.94 272.658L109.215 269.732 104.634 266.384 102.343 264.702C101.973 264.413 101.563 264.136 101.22 263.852L100.213 262.981 96.1784 259.517 95.1717 258.65 94.6644 258.221 94.4147 257.999 94.1299 257.745 94.005 257.624 92.015 255.673C90.6845 254.386 89.3539 253.086 88.1248 251.697 86.8723 250.324 85.5691 248.989 84.418 247.53 79.6225 241.849 75.3265 235.73 71.6509 229.238 68.0143 222.733 64.9786 215.885 62.5907 208.819 57.9045 194.659 55.8482 179.633 56.5739 164.747 57.3855 149.861 60.905 135.135 67.0193 121.572 70.0901 114.794 73.7853 108.317 78.0423 102.238 79.0568 100.685 80.2117 99.2336 81.3316 97.7508 81.8974 97.0173 82.4358 96.2759 83.0328 95.5502L84.8589 93.3768 86.6928 91.2151C87.3015 90.5167 87.9063 89.9041 88.5111 89.2486L90.782 86.8216 91.102 86.4782 91.3517 86.2402 92.3506 85.2764C97.6299 80.0947 103.346 75.3538 109.492 71.2529 115.629 67.1442 122.161 63.6598 128.935 60.7841 142.502 55.0717 157.076 51.9931 171.626 51.5756 178.903 51.357 186.184 51.8097 193.352 52.9061 200.523 53.9557 207.574 55.7077 214.395 58.0488 221.243 60.3549 227.852 63.3008 234.146 66.8008 240.464 70.2618 246.437 74.2925 252.033 78.85 263.204 87.8634 272.838 98.859 280.326 111.205 287.802 123.554 293.159 137.281 295.902 151.617 297.268 158.789 297.989 166.105 298.017 173.444 298.032 180.784 297.326 188.139 295.976 195.389 294.568 202.627 292.457 209.744 289.725 216.611 286.959 223.475 283.517 230.073 279.463 236.265 277.454 239.39 275.257 242.344 272.935 245.267L269.299 249.59 265.682 253.492 265.455 253.73 265.252 253.949 265.131 254.066 264.628 254.549 263.629 255.505 261.628 257.421C260.289 258.697 258.982 260.004 257.527 261.148L253.262 264.687C251.838 265.861 250.285 266.876 248.806 267.972 245.872 270.231 242.621 272.01 239.488 273.958 237.912 274.902 236.23 275.682 234.607 276.556 232.968 277.403 231.349 278.281 229.636 278.968L224.567 281.168C222.858 281.851 221.11 282.429 219.381 283.057L216.787 283.982C215.909 284.263 215.019 284.493 214.137 284.746L208.819 286.198 211.749 283.209 205.76 305.672 199.587 328.093 196.419 339.283 193.227 350.466 189.953 361.634 186.578 372.778C186.488 373.078 186.168 373.254 185.868 373.16 185.681 373.105 185.548 372.961 185.489 372.797ZM185.482 372.512 187.546 361.056 189.715 349.627 191.955 338.214 194.23 326.805 198.931 304.034 203.813 281.305C204.121 279.865 205.19 278.78 206.509 278.382L206.743 278.312C219.842 274.367 232.359 268.483 243.183 260.211 244.529 259.177 245.946 258.229 247.241 257.129L251.108 253.812C252.438 252.743 253.617 251.518 254.826 250.328L256.641 248.54 257.554 247.643 258.003 247.202 258.116 247.089C257.983 247.233 258.143 247.058 258.143 247.058L258.366 246.812 261.924 242.855 265.069 238.985C267.102 236.312 269.119 233.557 270.965 230.717 274.656 225.035 277.875 219.038 280.556 212.807 283.271 206.587 285.394 200.106 286.947 193.473 290.135 180.233 290.978 166.339 289.284 152.666 287.606 138.99 283.361 125.529 276.619 113.351 269.919 101.149 260.808 90.228 249.871 81.4799 244.436 77.137 238.579 73.2585 232.426 69.9692 226.257 66.715 219.776 64.0656 213.123 62.021 206.458 60.0037 199.607 58.6536 192.704 57.9396 185.798 57.2489 178.848 57.206 171.969 57.7874 158.203 58.9463 144.753 62.6726 132.451 68.6035 120.144 74.5149 108.922 82.5724 99.5535 92.4052L98.66 93.3105 98.4376 93.5368C98.3791 93.5914 98.5273 93.4353 98.4181 93.5602L98.301 93.6851 97.864 94.1845 96.0925 96.1667C95.5111 96.83 94.8907 97.4933 94.3406 98.1449L92.7915 100.088 91.2385 102.02C90.7235 102.675 90.2397 103.385 89.7402 104.064 88.753 105.442 87.7268 106.788 86.8333 108.224 83.0913 113.858 79.8684 119.828 77.2229 126.04 71.9475 138.467 68.9859 151.835 68.5099 165.281 67.9441 178.723 69.8092 192.259 74.0545 205.011 78.2022 217.786 84.6989 229.819 93.1778 240.3 94.1923 241.65 95.3551 242.875 96.4398 244.166 97.5167 245.47 98.6873 246.683 99.8618 247.901L101.614 249.727 101.723 249.844C101.442 249.594 101.715 249.84 101.684 249.812L101.93 250.035 102.418 250.488 103.397 251.381 107.314 254.979 108.298 255.876C108.625 256.165 108.949 256.391 109.277 256.653L111.232 258.17 115.134 261.226 119.371 264.027C120.796 264.936 122.153 265.974 123.671 266.739 135.338 273.661 148.316 278.394 161.789 280.876L162.043 280.926C163.564 281.203 164.712 282.351 165.071 283.759L170.654 305.883 176.113 328.042 181.435 350.24C183.191 357.646 184.904 365.063 186.574 372.493L185.482 372.512" fill="#FFFFFF" transform="matrix(1.0005 0 0 1 452.966 172.416)"/></g></g><path d="M229.413 232.141 128.385 232.141 128.385 128.759 229.413 128.759 229.413 232.141" fill="#FFFFFF" transform="matrix(1.0005 0 0 1 452.966 172.416)"/><path d="M229.413 232.141 229.222 219.221 229.078 206.298 228.793 180.452 228.442 128.759 229.413 129.727 216.787 129.813 204.16 129.856 178.899 129.942 128.385 130.008 129.637 128.759 129.567 180.452 129.477 206.298 129.423 219.221 129.337 232.141 128.385 231.193 178.899 231.54 204.16 231.817 216.787 231.957ZM229.413 232.141 216.787 232.328 204.16 232.472 178.899 232.745 128.385 233.093 127.444 233.101 127.433 232.141 127.347 219.221 127.296 206.298 127.206 180.452 127.132 128.759 127.132 127.507 128.385 127.507 178.899 127.569 204.16 127.659 216.787 127.702 229.413 127.788 230.393 127.792 230.385 128.759 230.034 180.452 229.749 206.298 229.604 219.221 229.413 232.141" fill="#A6A6A6" transform="matrix(1.0005 0 0 1 452.966 172.416)"/><path d="M149.689 186.352C158.956 181.646 159.409 180.452 164.189 174.775 174.646 178.805 183.839 179.043 194.003 175.52 196.992 177.76 201.62 182.571 207.231 185.677 218.289 191.803 229.413 189.715 229.413 189.715 219.354 185.848 209.931 177.748 204.66 168.555 204.46 168.208 204.265 167.853 204.07 167.502 201.136 167.927 198.19 168.337 195.24 168.61 187.089 169.363 179.157 168.504 171.013 168.333 166.772 168.239 162.472 168.177 158.254 168.735 157.403 168.848 156.494 169.012 155.632 169.253 156.443 169.129 154.278 170.471 155.351 169.398 152.288 172.242 149.841 175.61 147.157 178.798 142.1 184.779 135.677 189.208 128.385 190.324 128.385 190.324 141.729 190.398 149.689 186.352" fill="#A6A6A6" transform="matrix(1.0005 0 0 1 452.966 172.416)"/><path d="M169.039 149.077C169.039 171.521 150.836 189.715 128.385 189.715 105.937 189.715 87.7385 171.521 87.7385 149.077 87.7385 126.633 105.937 108.438 128.385 108.438 150.836 108.438 169.039 126.633 169.039 149.077" fill="#FFFFFF" transform="matrix(1.0005 0 0 1 452.966 172.416)"/><path d="M270.063 149.077C270.063 171.521 251.865 189.715 229.413 189.715 206.966 189.715 188.763 171.521 188.763 149.077 188.763 126.633 206.966 108.438 229.413 108.438 251.865 108.438 270.063 126.633 270.063 149.077" fill="#FFFFFF" transform="matrix(1.0005 0 0 1 452.966 172.416)"/><path d="M144.863 111.915C139.825 109.683 134.253 108.438 128.385 108.438 105.937 108.438 87.7385 126.633 87.7385 149.077 87.7385 171.521 105.937 189.715 128.385 189.715 128.385 189.715 137.285 190.425 147.695 184.846" fill="#FFFFFF" transform="matrix(1.0005 0 0 1 452.966 172.416)"/><g clip-path="url(#clip9)"><path d="M144.863 111.915C139.252 109.691 133.219 108.707 127.277 109.016 124.296 109.18 121.369 109.632 118.509 110.416 115.653 111.201 112.906 112.325 110.299 113.694 107.697 115.079 105.243 116.734 103.022 118.657 100.798 120.577 98.7654 122.715 97.0056 125.056 95.2302 127.39 93.7397 129.93 92.5418 132.599 91.3322 135.26 90.4113 138.054 89.8143 140.91 89.2057 143.762 88.952 146.716 88.9988 149.607 89.0262 150.353 89.0262 151.129 89.0925 151.831 89.1432 152.545 89.19 153.263 89.2954 153.989L89.432 155.078 89.6193 156.155C89.7324 156.877 89.9002 157.587 90.0641 158.301 90.7352 161.145 91.7146 163.916 93.0178 166.534 94.3133 169.152 95.8662 171.649 97.6962 173.944 99.5067 176.246 101.61 178.318 103.892 180.159 106.175 182.005 108.653 183.62 111.294 184.924 113.936 186.223 116.726 187.23 119.59 187.944 122.462 188.658 125.415 189.036 128.385 189.114L128.424 189.118 128.436 189.118C128.81 189.149 129.232 189.169 129.637 189.173 130.047 189.184 130.461 189.173 130.874 189.165 131.698 189.134 132.521 189.091 133.344 188.997 133.758 188.958 134.171 188.915 134.581 188.849 134.991 188.79 135.404 188.744 135.814 188.666L137.039 188.443 138.261 188.182C138.666 188.1 139.068 187.983 139.47 187.885 139.876 187.78 140.282 187.682 140.676 187.55L141.874 187.187 143.056 186.777C143.454 186.64 143.852 186.508 144.234 186.348L145.401 185.88C145.795 185.731 146.166 185.54 146.548 185.372L147.695 184.846 146.591 185.454C146.22 185.649 145.861 185.868 145.479 186.047L144.344 186.601C143.969 186.793 143.579 186.949 143.193 187.116 142.802 187.284 142.416 187.452 142.026 187.608L140.84 188.049C140.446 188.201 140.04 188.33 139.642 188.459 139.236 188.584 138.838 188.728 138.428 188.837L137.207 189.177C136.797 189.282 136.38 189.372 135.97 189.469 135.557 189.571 135.139 189.641 134.722 189.719 134.308 189.809 133.887 189.871 133.465 189.938 132.626 190.07 131.779 190.16 130.929 190.234 130.504 190.265 130.078 190.293 129.649 190.304 129.216 190.324 128.798 190.328 128.338 190.308L128.385 190.312C125.33 190.378 122.255 190.09 119.247 189.473 116.234 188.861 113.292 187.889 110.491 186.605 104.887 184.026 99.8618 180.163 95.9286 175.376 93.966 172.98 92.2413 170.381 90.8562 167.603 89.4632 164.829 88.4019 161.891 87.6722 158.874 87.4927 158.117 87.3132 157.364 87.1884 156.596L86.9777 155.452 86.8294 154.297C86.7162 153.533 86.6577 152.748 86.5953 151.96 86.5172 151.16 86.525 150.427 86.5016 149.67 86.4704 146.537 86.7591 143.446 87.4186 140.407 88.0741 137.375 89.0613 134.409 90.3684 131.596 91.6873 128.791 93.3144 126.13 95.2263 123.695 97.1382 121.26 99.2999 119.024 101.7 117.073 104.091 115.118 106.717 113.46 109.476 112.09 112.239 110.717 115.153 109.675 118.142 108.973 121.123 108.286 124.202 107.915 127.249 107.919 130.301 107.915 133.352 108.228 136.314 108.91 139.275 109.574 142.155 110.6 144.863 111.915" fill="#A6A6A6" transform="matrix(1.0005 0 0 1 452.966 172.416)"/></g><path d="M210.817 112.929C216.393 110.057 222.714 108.438 229.413 108.438 251.865 108.438 270.063 126.633 270.063 149.077 270.063 171.521 251.865 189.715 229.413 189.715 218.187 189.715 208.027 185.166 200.672 177.81" fill="#FFFFFF" transform="matrix(1.0005 0 0 1 452.966 172.416)"/><g clip-path="url(#clip10)"><path d="M210.817 112.929C210.817 112.929 211.437 112.605 212.6 112.001 213.181 111.696 213.934 111.392 214.804 110.99 215.238 110.791 215.725 110.631 216.233 110.432 216.748 110.245 217.29 110.018 217.883 109.855 220.216 109.074 223.151 108.376 226.588 108.068 227.447 107.986 228.336 107.962 229.253 107.904 229.737 107.888 230.174 107.904 230.646 107.9 231.111 107.9 231.579 107.896 232.07 107.931 232.558 107.958 233.054 107.986 233.553 108.013 234.049 108.064 234.552 108.118 235.055 108.173 235.567 108.22 236.074 108.298 236.589 108.384 237.104 108.473 237.631 108.532 238.15 108.653 242.336 109.472 246.769 111.045 251.006 113.546 255.232 116.047 259.271 119.461 262.568 123.722 265.873 127.963 268.491 133.012 269.923 138.506 270.645 141.246 271.09 144.082 271.242 146.946L271.3 149.131 271.25 151.223 271.09 153.408 270.817 155.55C269.923 161.247 267.808 166.737 264.745 171.505 261.702 176.293 257.679 180.304 253.242 183.343 248.802 186.402 243.913 188.42 239.121 189.497 234.33 190.613 229.604 190.702 225.386 190.234 223.264 189.969 221.254 189.602 219.381 189.083 217.516 188.548 215.768 187.967 214.192 187.269 211.008 185.938 208.44 184.35 206.447 182.91 204.441 181.478 203.044 180.136 202.08 179.246 201.159 178.31 200.672 177.81 200.672 177.81 200.672 177.81 201.191 178.275 202.17 179.145 203.188 179.972 204.675 181.186 206.728 182.497 208.772 183.808 211.383 185.212 214.543 186.379 217.696 187.565 221.418 188.463 225.519 188.802 226.03 188.833 226.545 188.861 227.064 188.892 227.583 188.923 228.137 188.907 228.676 188.919 228.941 188.919 229.21 188.919 229.48 188.919 229.749 188.907 230.018 188.896 230.291 188.884 230.834 188.853 231.384 188.853 231.934 188.79 234.142 188.627 236.409 188.26 238.684 187.682 243.234 186.527 247.815 184.479 251.978 181.537 256.153 178.595 259.84 174.712 262.704 170.206 265.565 165.699 267.527 160.525 268.343 155.164L268.612 153.154 268.768 151.156 268.83 149.069 268.784 147.071C268.659 144.371 268.253 141.698 267.582 139.115 266.247 133.945 263.906 129.126 260.824 125.06 257.745 120.991 254.015 117.631 250.039 115.138 246.047 112.66 241.86 110.99 237.849 110.054 235.844 109.601 233.873 109.273 232.016 109.133 231.555 109.074 231.079 109.059 230.615 109.039 230.159 109.02 229.675 108.984 229.257 108.981 228.364 108.996 227.494 108.973 226.655 109.016 223.287 109.18 220.365 109.687 218.02 110.327 217.427 110.459 216.88 110.651 216.361 110.807 215.846 110.974 215.351 111.099 214.91 111.267 214.028 111.607 213.259 111.856 212.662 112.122 211.457 112.648 210.817 112.929 210.817 112.929" fill="#A6A6A6" transform="matrix(1.0005 0 0 1 452.966 172.416)"/></g><path d="M219.549 134.132C219.549 156.58 201.351 174.775 178.899 174.775 156.447 174.775 138.253 156.58 138.253 134.132 138.253 111.692 156.447 93.4978 178.899 93.4978 201.351 93.4978 219.549 111.692 219.549 134.132" fill="#FFFFFF" transform="matrix(1.0005 0 0 1 452.966 172.416)"/><path d="M143.992 154.969C140.344 148.878 138.253 141.749 138.253 134.132 138.253 111.692 156.447 93.4978 178.899 93.4978 201.351 93.4978 219.549 111.692 219.549 134.132" fill="#FFFFFF" transform="matrix(1.0005 0 0 1 452.966 172.416)"/><g clip-path="url(#clip11)"><path d="M143.992 154.969C143.992 154.969 143.688 154.469 143.118 153.533 142.978 153.299 142.818 153.037 142.642 152.748 142.479 152.456 142.315 152.124 142.123 151.773 141.757 151.067 141.312 150.255 140.929 149.299 140.727 148.827 140.512 148.328 140.29 147.805 140.098 147.266 139.899 146.708 139.693 146.119 139.591 145.826 139.482 145.526 139.377 145.222 139.291 144.909 139.205 144.593 139.111 144.27 138.943 143.618 138.729 142.951 138.584 142.244 137.921 139.443 137.547 136.173 137.574 132.622 137.566 132.189 137.586 131.737 137.617 131.276 137.64 130.816 137.667 130.355 137.695 129.887 137.804 128.962 137.859 128.014 138.03 127.066 138.292 125.154 138.776 123.211 139.369 121.244 139.954 119.274 140.758 117.311 141.694 115.364 142.627 113.413 143.766 111.509 145.077 109.683 147.688 106.023 150.961 102.613 154.848 99.8969 158.714 97.1656 163.112 95.0234 167.763 93.7553 170.085 93.1232 172.465 92.6979 174.853 92.4638 177.245 92.2335 179.637 92.2413 181.982 92.413 186.746 92.7369 191.284 93.9972 195.412 95.7921 197.472 96.6934 199.419 97.7665 201.226 98.9526 202.139 99.534 202.989 100.182 203.84 100.806 204.66 101.469 205.479 102.117 206.228 102.816 207.754 104.193 209.155 105.625 210.372 107.123 211 107.853 211.542 108.633 212.108 109.371 212.623 110.143 213.166 110.877 213.611 111.649 214.57 113.156 215.339 114.685 216.034 116.148 216.354 116.894 216.666 117.619 216.943 118.333 217.196 119.055 217.481 119.746 217.684 120.437 218.57 123.184 219.038 125.657 219.288 127.698 219.534 129.743 219.573 131.358 219.577 132.455 219.561 133.551 219.549 134.132 219.549 134.132 219.549 134.132 219.514 133.551 219.44 132.458 219.354 131.366 219.163 129.774 218.8 127.776 218.418 125.778 217.778 123.386 216.779 120.757 215.78 118.127 214.34 115.282 212.409 112.434 211.944 111.708 211.386 111.025 210.864 110.299 210.286 109.613 209.736 108.887 209.1 108.216 207.875 106.827 206.501 105.488 205.003 104.224 204.262 103.58 203.462 102.987 202.662 102.379 201.831 101.809 201.003 101.22 200.118 100.697 198.358 99.6316 196.512 98.6249 194.538 97.8172 192.571 96.9978 190.507 96.3227 188.377 95.8155 186.254 95.3004 184.03 94.9844 181.837 94.8283 179.594 94.6761 177.334 94.68 175.087 94.9142 172.843 95.1444 170.607 95.5658 168.426 96.1667 164.048 97.3333 159.897 99.3194 156.237 101.871 154.415 103.159 152.686 104.556 151.121 106.089 149.553 107.619 148.129 109.258 146.86 110.971 145.577 112.676 144.484 114.474 143.532 116.293 142.58 118.115 141.757 119.961 141.14 121.822 140.512 123.679 140.005 125.529 139.673 127.347 139.466 128.252 139.38 129.161 139.232 130.043 139.189 130.484 139.146 130.921 139.103 131.354 139.057 131.783 139.018 132.216 139.002 132.657 138.846 136.111 139.025 139.283 139.517 142.061 139.622 142.756 139.798 143.415 139.927 144.059 139.997 144.383 140.063 144.699 140.13 145.011 140.215 145.315 140.301 145.616 140.379 145.908 140.547 146.498 140.703 147.063 140.859 147.606 141.043 148.132 141.222 148.64 141.39 149.116 141.71 150.083 142.088 150.907 142.393 151.64 142.549 152.003 142.685 152.343 142.826 152.647 142.978 152.947 143.115 153.221 143.236 153.466 143.727 154.446 143.992 154.969 143.992 154.969" fill="#A6A6A6" transform="matrix(1.0005 0 0 1 452.966 172.416)"/></g><g clip-path="url(#clip12)"><path d="M229.413 232.141C229.413 233.662 227.135 235.091 223.135 236.331 217.427 238.103 208.214 239.492 197.101 240.229 191.452 240.604 185.318 240.807 178.899 240.807 151 240.807 128.385 236.928 128.385 232.141 128.385 227.357 151 223.478 178.899 223.478 206.798 223.478 229.413 227.357 229.413 232.141" fill="#FFFFFF" transform="matrix(1.0005 0 0 1 452.966 172.416)"/></g><g clip-path="url(#clip13)"><path d="M197.101 240.229C197.101 240.229 194.358 240.452 189.567 240.846 188.373 240.955 187.042 240.994 185.595 241.064 184.143 241.123 182.575 241.185 180.897 241.252 177.545 241.404 173.764 241.431 169.632 241.38 165.504 241.326 161.028 241.178 156.299 240.83 151.574 240.483 146.587 239.995 141.46 239.078 138.9 238.614 136.298 238.068 133.688 237.237 132.384 236.811 131.077 236.335 129.778 235.594 129.454 235.403 129.13 235.196 128.81 234.946 128.494 234.696 128.178 234.412 127.885 234.037 127.597 233.666 127.32 233.186 127.218 232.593 127.195 232.449 127.187 232.297 127.179 232.145L127.191 231.93C127.199 231.875 127.191 231.875 127.206 231.774 127.234 231.606 127.273 231.392 127.323 231.274 127.37 231.142 127.413 231.001 127.476 230.888 127.971 229.924 128.662 229.425 129.298 228.972 129.949 228.543 130.609 228.204 131.272 227.907 132.599 227.318 133.941 226.881 135.291 226.491 137.991 225.718 140.719 225.172 143.458 224.704 148.936 223.806 154.438 223.272 159.862 222.905 165.281 222.526 170.627 222.417 175.789 222.394 180.959 222.37 185.954 222.526 190.683 222.78 195.412 223.03 199.876 223.416 203.981 223.9 212.19 224.856 218.991 226.221 223.56 227.829 225.839 228.625 227.564 229.526 228.52 230.424 229.004 230.865 229.257 231.321 229.347 231.645 229.39 231.805 229.409 231.93 229.409 232.016 229.413 232.098 229.413 232.141 229.413 232.141 229.413 232.141 229.409 232.102 229.398 232.016 229.394 231.934 229.366 231.809 229.312 231.653 229.203 231.345 228.929 230.923 228.43 230.525 227.447 229.714 225.691 228.968 223.408 228.305 218.816 226.982 212.019 225.987 203.844 225.328 199.751 225.008 195.307 224.789 190.605 224.649 185.903 224.52 180.944 224.516 175.817 224.598 170.686 224.684 165.391 224.942 160.029 225.316 154.664 225.706 149.229 226.268 143.872 227.17 141.191 227.611 138.53 228.137 135.962 228.855 134.682 229.214 133.426 229.624 132.263 230.135 131.682 230.389 131.128 230.674 130.644 230.99 130.176 231.298 129.766 231.684 129.653 231.942L129.618 232.024 129.61 232.012 129.598 232.106 129.594 232.172C129.594 232.152 129.587 232.301 129.59 232.145L129.598 232.199C129.61 232.273 129.665 232.406 129.786 232.562 130.028 232.886 130.496 233.237 130.995 233.538 132.014 234.146 133.211 234.618 134.417 235.032 136.848 235.848 139.373 236.425 141.866 236.917 146.868 237.873 151.785 238.509 156.459 238.973 161.138 239.426 165.574 239.742 169.679 239.948 171.731 240.054 173.698 240.124 175.571 240.186 177.44 240.257 179.223 240.3 180.889 240.3 182.559 240.315 184.12 240.327 185.567 240.343 187.015 240.358 188.346 240.393 189.543 240.35 194.351 240.272 197.101 240.229 197.101 240.229" fill="#A6A6A6" transform="matrix(1.0005 0 0 1 452.966 172.416)"/></g><g clip-path="url(#clip14)"><path d="M178.868 217.629C169.421 217.629 161.734 209.915 161.734 200.43 161.734 190.948 169.421 183.234 178.868 183.234 188.314 183.234 196.001 190.948 196.001 200.43 196.001 209.915 188.314 217.629 178.868 217.629ZM197.101 203.064C197.23 202.178 198.299 201.351 198.299 200.43 198.299 199.513 197.23 198.682 197.101 197.8 196.973 196.895 197.769 195.794 197.519 194.932 197.261 194.058 196.001 193.566 195.627 192.747 195.252 191.924 195.705 190.64 195.217 189.883 194.729 189.122 193.379 189.005 192.79 188.322 192.201 187.639 192.275 186.281 191.596 185.688 190.913 185.099 189.586 185.365 188.826 184.873 188.072 184.385 187.764 183.062 186.941 182.684 186.129 182.309 184.931 182.941 184.057 182.684 183.203 182.434 182.536 181.252 181.634 181.119 180.752 180.994 179.781 181.943 178.868 181.943 177.951 181.943 176.983 180.994 176.101 181.119 175.2 181.252 174.533 182.434 173.674 182.684 172.804 182.941 171.606 182.309 170.791 182.684 169.971 183.062 169.663 184.385 168.906 184.873 168.149 185.365 166.819 185.099 166.14 185.688 165.461 186.281 165.535 187.639 164.946 188.322 164.357 189.005 163.007 189.122 162.519 189.883 162.031 190.64 162.484 191.924 162.105 192.747 161.734 193.566 160.47 194.058 160.217 194.932 159.967 195.794 160.759 196.895 160.63 197.8 160.505 198.682 159.432 199.513 159.432 200.43 159.432 201.351 160.505 202.178 160.63 203.064 160.759 203.969 159.967 205.069 160.217 205.928 160.47 206.802 161.734 207.297 162.105 208.113 162.484 208.94 162.031 210.22 162.519 210.977 163.007 211.741 164.357 211.859 164.946 212.537 165.535 213.224 165.461 214.582 166.14 215.171 166.819 215.764 168.149 215.495 168.906 215.987 169.663 216.475 169.971 217.801 170.791 218.18 171.606 218.55 172.804 217.918 173.674 218.176 174.533 218.429 175.2 219.612 176.101 219.74 176.983 219.865 177.955 218.921 178.868 218.921 179.781 218.921 180.752 219.865 181.634 219.74 182.536 219.612 183.203 218.429 184.057 218.176 184.931 217.918 186.129 218.55 186.941 218.18 187.764 217.801 188.072 216.475 188.826 215.987 189.586 215.495 190.913 215.764 191.596 215.171 192.275 214.582 192.201 213.224 192.79 212.537 193.379 211.859 194.729 211.741 195.217 210.977 195.705 210.22 195.252 208.94 195.627 208.113 196.001 207.297 197.261 206.802 197.519 205.928 197.769 205.069 196.973 203.969 197.101 203.064" fill="#FF5050" transform="matrix(1.0005 0 0 1 452.966 172.416)"/></g><path d="M186.231 189.711 186.48 190.55 185.77 190.043 185.048 190.538 185.31 189.703 184.619 189.169 185.493 189.161 185.786 188.334 186.059 189.165 186.933 189.188ZM185.915 211.925 185.622 212.752 185.349 211.921 184.475 211.898 185.177 211.379 184.928 210.536 185.638 211.047 186.359 210.547 186.094 211.386 186.789 211.917ZM183.156 188.88 183.492 190.016 182.532 189.329 181.56 190 181.919 188.872 180.983 188.15 182.161 188.143 182.555 187.027 182.93 188.15 184.108 188.182ZM182.781 212.947 182.387 214.063 182.017 212.939 180.838 212.908 181.786 212.206 181.451 211.07 182.411 211.757 183.382 211.09 183.027 212.218 183.96 212.935ZM179.574 187.655 179.972 188.997 178.837 188.182 177.686 188.974 178.107 187.643 177.003 186.789 178.396 186.777 178.86 185.458 179.301 186.789 180.698 186.824ZM179.157 214.309 178.692 215.628 178.251 214.301 176.854 214.262 177.978 213.431 177.584 212.089 178.716 212.904 179.867 212.112 179.445 213.447 180.55 214.297ZM175.766 188.88 176.101 190.016 175.141 189.329 174.17 190 174.525 188.872 173.589 188.15 174.771 188.143 175.165 187.027 175.536 188.15 176.714 188.182ZM175.391 212.947 174.997 214.063 174.623 212.939 173.444 212.908 174.392 212.206 174.061 211.07 175.017 211.757 175.992 211.09 175.633 212.218 176.57 212.935ZM172.375 189.711 172.625 190.55 171.911 190.043 171.193 190.538 171.454 189.703 170.764 189.169 171.638 189.161 171.926 188.334 172.203 189.165 173.077 189.188ZM172.059 211.925 171.766 212.752 171.493 211.921 170.619 211.898 171.322 211.379 171.072 210.536 171.782 211.047 172.504 210.547 172.238 211.386 172.933 211.917ZM178.868 183.952C169.815 183.952 162.452 191.346 162.452 200.43 162.452 209.517 169.815 216.908 178.868 216.908 187.92 216.908 195.283 209.517 195.283 200.43 195.283 191.346 187.92 183.952 178.868 183.952" fill="#FF5050" transform="matrix(1.0005 0 0 1 452.966 172.416)"/></g></svg>