<svg xmlns="http://www.w3.org/2000/svg" width="375" viewBox="0 0 375 375" height="375" version="1.0"><path fill="#EDEEEA" d="M 370.765625 258.394531 C 367.945312 266.863281 366.53125 275.675781 366.53125 284.484375 C 366.53125 293.289062 367.945312 302.101562 370.765625 310.570312 C 373.570312 318.980469 375 327.792969 375 336.667969 L 375 352.144531 C 375 358.457031 372.445312 364.171875 368.308594 368.308594 C 364.171875 372.445312 358.457031 375 352.144531 375 C 346.074219 375 340.261719 372.589844 335.980469 368.308594 L 329.742188 362.070312 L 325.953125 365.855469 C 323.023438 368.785156 319.574219 371.074219 315.824219 372.625 C 312.074219 374.175781 308.019531 375 303.878906 375 C 295.605469 375 287.660156 371.710938 281.804688 365.855469 L 278.015625 362.070312 L 271.777344 368.308594 C 269.636719 370.449219 267.117188 372.121094 264.367188 373.261719 C 261.621094 374.402344 258.652344 375 255.613281 375 C 242.992188 375 232.757812 364.769531 232.757812 352.144531 L 232.757812 336.667969 C 232.757812 332.230469 233.113281 327.808594 233.824219 323.445312 C 234.535156 319.082031 235.585938 314.773438 236.992188 310.570312 C 239.816406 302.101562 241.230469 293.289062 241.230469 284.484375 C 241.230469 275.675781 239.816406 266.863281 236.992188 258.394531 C 234.234375 250.125 232.808594 241.476562 232.769531 232.757812 C 232.757812 232.605469 232.757812 232.453125 232.757812 232.296875 L 232.757812 142.242188 C 232.757812 125.683594 239.335938 109.800781 251.046875 98.089844 L 259.730469 89.410156 C 265.070312 84.066406 269.339844 77.871094 272.402344 71.121094 C 275.1875 65.007812 276.980469 58.464844 277.675781 51.722656 C 277.902344 49.582031 278.015625 47.429688 278.015625 45.257812 L 278.015625 32.328125 L 329.742188 32.328125 L 329.742188 45.257812 C 329.742188 47.429688 329.855469 49.582031 330.082031 51.722656 C 330.777344 58.464844 332.570312 65.007812 335.359375 71.121094 C 338.421875 77.871094 342.6875 84.066406 348.03125 89.410156 L 356.710938 98.089844 C 362.570312 103.949219 367.136719 110.84375 370.25 118.347656 C 373.351562 125.851562 375 133.96875 375 142.242188 L 375 232.296875 C 375 232.453125 375 232.605469 374.992188 232.757812 C 374.976562 237.042969 374.621094 241.308594 373.933594 245.519531 C 373.222656 249.882812 372.171875 254.191406 370.765625 258.394531"/><path fill="#71BA45" d="M 370.765625 258.394531 C 367.945312 266.863281 366.53125 275.675781 366.53125 284.484375 C 366.53125 293.289062 367.945312 302.101562 370.765625 310.570312 C 373.570312 318.980469 375 327.792969 375 336.667969 L 375 352.144531 C 375 358.457031 372.445312 364.171875 368.308594 368.308594 C 364.171875 372.445312 358.457031 375 352.144531 375 C 346.074219 375 340.261719 372.589844 335.980469 368.308594 L 329.742188 362.070312 L 325.953125 365.855469 C 323.023438 368.785156 319.574219 371.074219 315.824219 372.625 C 312.074219 374.175781 308.019531 375 303.878906 375 C 295.605469 375 287.660156 371.710938 281.804688 365.855469 L 278.015625 362.070312 L 271.777344 368.308594 C 269.636719 370.449219 267.117188 372.121094 264.367188 373.261719 C 261.621094 374.402344 258.652344 375 255.613281 375 C 242.992188 375 232.757812 364.769531 232.757812 352.144531 L 232.757812 336.667969 C 232.757812 332.230469 233.113281 327.808594 233.824219 323.445312 C 234.535156 319.082031 235.585938 314.773438 236.992188 310.570312 C 239.816406 302.101562 241.230469 293.289062 241.230469 284.484375 C 241.230469 280.78125 240.980469 277.089844 240.476562 273.410156 C 239.789062 268.335938 238.628906 263.308594 236.992188 258.394531 C 234.234375 250.125 232.808594 241.476562 232.769531 232.757812 L 232.757812 232.757812 L 232.757812 142.242188 C 232.757812 125.683594 239.335938 109.800781 251.046875 98.089844 L 259.730469 89.410156 C 265.070312 84.066406 269.339844 77.871094 272.402344 71.121094 L 335.359375 71.121094 C 338.421875 77.871094 342.6875 84.066406 348.03125 89.410156 L 356.710938 98.089844 C 362.570312 103.949219 367.136719 110.84375 370.25 118.347656 C 372.4375 123.644531 373.902344 129.246094 374.570312 134.992188 C 374.855469 137.382812 375 139.808594 375 142.242188 L 375 232.757812 L 374.992188 232.757812 C 374.976562 237.042969 374.621094 241.308594 373.933594 245.519531 C 373.222656 249.882812 372.171875 254.191406 370.765625 258.394531"/><path fill="#6DB244" d="M 370.765625 258.394531 C 367.945312 266.863281 366.53125 275.675781 366.53125 284.484375 C 366.53125 293.289062 367.945312 302.101562 370.765625 310.570312 C 373.570312 318.980469 375 327.792969 375 336.667969 L 375 352.144531 C 375 358.457031 372.445312 364.171875 368.308594 368.308594 C 364.171875 372.445312 358.457031 375 352.144531 375 C 346.074219 375 340.261719 372.589844 335.980469 368.308594 L 329.742188 362.070312 L 325.953125 365.855469 C 323.023438 368.785156 319.574219 371.074219 315.824219 372.625 C 312.074219 374.175781 308.019531 375 303.878906 375 C 295.605469 375 287.660156 371.710938 281.804688 365.855469 L 278.015625 362.070312 L 271.777344 368.308594 C 269.636719 370.449219 267.117188 372.121094 264.367188 373.261719 C 261.621094 374.402344 258.652344 375 255.613281 375 C 242.992188 375 232.757812 364.769531 232.757812 352.144531 L 232.757812 336.667969 C 232.757812 332.230469 233.113281 327.808594 233.824219 323.445312 C 234.535156 319.082031 235.585938 314.773438 236.992188 310.570312 C 239.816406 302.101562 241.230469 293.289062 241.230469 284.484375 C 241.230469 280.78125 240.980469 277.089844 240.476562 273.410156 C 291.59375 243.519531 338.097656 198.886719 374.570312 134.992188 C 374.855469 137.382812 375 139.808594 375 142.242188 L 375 232.757812 L 374.992188 232.757812 C 374.976562 237.042969 374.621094 241.308594 373.933594 245.519531 C 373.222656 249.882812 372.171875 254.191406 370.765625 258.394531"/><path fill="#C7D631" d="M 375 142.242188 L 375 232.757812 L 232.757812 232.757812 L 232.757812 142.242188 L 375 142.242188"/><path fill="#BCCC1D" d="M 375 142.242188 L 375 232.757812 L 296.386719 232.757812 C 323.65625 208.460938 348.660156 178.59375 370.351562 142.242188 L 375 142.242188"/><path fill="#D6E535" d="M 265.085938 174.570312 L 252.15625 174.570312 L 252.15625 161.636719 L 265.085938 161.636719 L 265.085938 174.570312"/><path fill="#D6E535" d="M 265.085938 213.363281 L 252.15625 213.363281 L 252.15625 187.5 L 265.085938 187.5 L 265.085938 213.363281"/><path fill="#E2E2DE" d="M 330.082031 51.722656 L 277.675781 51.722656 C 277.902344 49.582031 278.015625 47.429688 278.015625 45.257812 L 278.015625 32.328125 L 329.742188 32.328125 L 329.742188 45.257812 C 329.742188 47.429688 329.855469 49.582031 330.082031 51.722656"/><path fill="#71BA45" d="M 323.277344 0 L 284.484375 0 C 280.914062 0 278.015625 2.894531 278.015625 6.464844 L 278.015625 32.328125 L 329.742188 32.328125 L 329.742188 6.464844 C 329.742188 2.894531 326.847656 0 323.277344 0"/><path fill="#EDEEEA" d="M 336.207031 38.792969 L 271.550781 38.792969 L 271.550781 25.863281 L 336.207031 25.863281 L 336.207031 38.792969"/><path fill="#EDEEEA" d="M 138.007812 258.394531 C 135.183594 266.863281 133.769531 275.675781 133.769531 284.484375 C 133.769531 293.289062 135.183594 302.101562 138.007812 310.570312 C 140.8125 318.980469 142.242188 327.792969 142.242188 336.667969 L 142.242188 352.144531 C 142.242188 358.457031 139.6875 364.171875 135.546875 368.308594 C 131.414062 372.445312 125.699219 375 119.382812 375 C 113.316406 375 107.503906 372.589844 103.222656 368.308594 L 96.984375 362.070312 L 93.195312 365.855469 C 90.265625 368.785156 86.816406 371.074219 83.066406 372.625 C 79.316406 374.175781 75.257812 375 71.121094 375 C 62.847656 375 54.898438 371.710938 49.050781 365.855469 L 45.257812 362.070312 L 39.019531 368.308594 C 36.875 370.449219 34.359375 372.121094 31.609375 373.261719 C 28.859375 374.402344 25.894531 375 22.855469 375 C 10.230469 375 0 364.769531 0 352.144531 L 0 336.667969 C 0 332.230469 0.355469 327.808594 1.066406 323.445312 C 1.777344 319.082031 2.828125 314.773438 4.234375 310.570312 C 7.054688 302.101562 8.46875 293.289062 8.46875 284.484375 C 8.46875 275.675781 7.054688 266.863281 4.234375 258.394531 C 1.480469 250.125 0.046875 241.476562 0.0078125 232.757812 C 0 232.605469 0 232.453125 0 232.296875 L 0 142.242188 C 0 125.683594 6.578125 109.800781 18.289062 98.089844 L 26.96875 89.410156 C 32.3125 84.066406 36.578125 77.871094 39.640625 71.121094 C 42.429688 65.007812 44.222656 58.464844 44.921875 51.722656 C 45.144531 49.582031 45.257812 47.429688 45.257812 45.257812 L 45.257812 32.328125 L 96.984375 32.328125 L 96.984375 45.257812 C 96.984375 47.429688 97.097656 49.582031 97.324219 51.722656 C 98.019531 58.464844 99.8125 65.007812 102.597656 71.121094 C 105.660156 77.871094 109.929688 84.066406 115.269531 89.410156 L 123.953125 98.089844 C 129.8125 103.949219 134.378906 110.84375 137.488281 118.347656 C 140.59375 125.851562 142.242188 133.96875 142.242188 142.242188 L 142.242188 232.296875 C 142.242188 232.453125 142.242188 232.605469 142.230469 232.757812 C 142.214844 237.042969 141.863281 241.308594 141.175781 245.519531 C 140.464844 249.882812 139.414062 254.191406 138.007812 258.394531"/><path fill="#F25B19" d="M 138.007812 258.394531 C 135.183594 266.863281 133.769531 275.675781 133.769531 284.484375 C 133.769531 293.289062 135.183594 302.101562 138.007812 310.570312 C 140.8125 318.980469 142.242188 327.792969 142.242188 336.667969 L 142.242188 352.144531 C 142.242188 358.457031 139.6875 364.171875 135.546875 368.308594 C 131.414062 372.445312 125.699219 375 119.382812 375 C 113.316406 375 107.503906 372.589844 103.222656 368.308594 L 96.984375 362.070312 L 93.195312 365.855469 C 90.265625 368.785156 86.816406 371.074219 83.066406 372.625 C 79.316406 374.175781 75.257812 375 71.121094 375 C 62.847656 375 54.898438 371.710938 49.050781 365.855469 L 45.257812 362.070312 L 39.019531 368.308594 C 36.875 370.449219 34.359375 372.121094 31.609375 373.261719 C 28.859375 374.402344 25.894531 375 22.855469 375 C 10.230469 375 0 364.769531 0 352.144531 L 0 336.667969 C 0 332.230469 0.355469 327.808594 1.066406 323.445312 C 1.777344 319.082031 2.828125 314.773438 4.234375 310.570312 C 7.054688 302.101562 8.46875 293.289062 8.46875 284.484375 C 8.46875 280.78125 8.21875 277.089844 7.71875 273.410156 C 7.03125 268.335938 5.867188 263.308594 4.234375 258.394531 C 1.480469 250.125 0.046875 241.476562 0.0078125 232.757812 L 0 232.757812 L 0 142.242188 C 0 125.683594 6.578125 109.800781 18.289062 98.089844 L 26.96875 89.410156 C 32.3125 84.066406 36.578125 77.871094 39.640625 71.121094 L 102.597656 71.121094 C 105.660156 77.871094 109.929688 84.066406 115.269531 89.410156 L 123.953125 98.089844 C 129.8125 103.949219 134.378906 110.84375 137.488281 118.347656 C 139.679688 123.644531 141.144531 129.246094 141.8125 134.992188 C 142.097656 137.382812 142.242188 139.808594 142.242188 142.242188 L 142.242188 232.757812 L 142.230469 232.757812 C 142.214844 237.042969 141.863281 241.308594 141.175781 245.519531 C 140.464844 249.882812 139.414062 254.191406 138.007812 258.394531"/><path fill="#F1511B" d="M 138.007812 258.394531 C 135.183594 266.863281 133.769531 275.675781 133.769531 284.484375 C 133.769531 293.289062 135.183594 302.101562 138.007812 310.570312 C 140.8125 318.980469 142.242188 327.792969 142.242188 336.667969 L 142.242188 352.144531 C 142.242188 358.457031 139.6875 364.171875 135.546875 368.308594 C 131.414062 372.445312 125.699219 375 119.382812 375 C 113.316406 375 107.503906 372.589844 103.222656 368.308594 L 96.984375 362.070312 L 93.195312 365.855469 C 90.265625 368.785156 86.816406 371.074219 83.066406 372.625 C 79.316406 374.175781 75.257812 375 71.121094 375 C 62.847656 375 54.898438 371.710938 49.050781 365.855469 L 45.257812 362.070312 L 39.019531 368.308594 C 36.875 370.449219 34.359375 372.121094 31.609375 373.261719 C 28.859375 374.402344 25.894531 375 22.855469 375 C 10.230469 375 0 364.769531 0 352.144531 L 0 336.667969 C 0 332.230469 0.355469 327.808594 1.066406 323.445312 C 1.777344 319.082031 2.828125 314.773438 4.234375 310.570312 C 7.054688 302.101562 8.46875 293.289062 8.46875 284.484375 C 8.46875 280.78125 8.21875 277.089844 7.71875 273.410156 C 58.835938 243.519531 105.339844 198.886719 141.8125 134.992188 C 142.097656 137.382812 142.242188 139.808594 142.242188 142.242188 L 142.242188 232.757812 L 142.230469 232.757812 C 142.214844 237.042969 141.863281 241.308594 141.175781 245.519531 C 140.464844 249.882812 139.414062 254.191406 138.007812 258.394531"/><path fill="#F57515" d="M 142.242188 142.242188 L 142.242188 232.757812 L 0 232.757812 L 0 142.242188 L 142.242188 142.242188"/><path fill="#F46B17" d="M 142.242188 142.242188 L 142.242188 232.757812 L 63.628906 232.757812 C 90.894531 208.460938 115.902344 178.59375 137.59375 142.242188 L 142.242188 142.242188"/><path fill="#F68616" d="M 32.328125 174.570312 L 19.398438 174.570312 L 19.398438 161.636719 L 32.328125 161.636719 L 32.328125 174.570312"/><path fill="#F68616" d="M 32.328125 213.363281 L 19.398438 213.363281 L 19.398438 187.5 L 32.328125 187.5 L 32.328125 213.363281"/><path fill="#E2E2DE" d="M 97.324219 51.722656 L 44.921875 51.722656 C 45.144531 49.582031 45.257812 47.429688 45.257812 45.257812 L 45.257812 32.328125 L 96.984375 32.328125 L 96.984375 45.257812 C 96.984375 47.429688 97.097656 49.582031 97.324219 51.722656"/><path fill="#F25B19" d="M 90.515625 0 L 51.722656 0 C 48.152344 0 45.257812 2.894531 45.257812 6.464844 L 45.257812 32.328125 L 96.984375 32.328125 L 96.984375 6.464844 C 96.984375 2.894531 94.085938 0 90.515625 0"/><path fill="#EDEEEA" d="M 103.449219 38.792969 L 38.792969 38.792969 L 38.792969 25.863281 L 103.449219 25.863281 L 103.449219 38.792969"/><path fill="#EDEEEA" d="M 254.386719 258.394531 C 251.566406 266.863281 250.152344 275.675781 250.152344 284.484375 C 250.152344 293.289062 251.566406 302.101562 254.386719 310.570312 C 257.191406 318.980469 258.621094 327.792969 258.621094 336.667969 L 258.621094 352.144531 C 258.621094 358.457031 256.066406 364.171875 251.929688 368.308594 C 247.792969 372.445312 242.078125 375 235.765625 375 C 229.695312 375 223.882812 372.589844 219.601562 368.308594 L 213.363281 362.070312 L 209.574219 365.855469 C 206.644531 368.785156 203.195312 371.074219 199.445312 372.625 C 195.695312 374.175781 191.640625 375 187.5 375 C 179.226562 375 171.28125 371.710938 165.425781 365.855469 L 161.636719 362.070312 L 155.398438 368.308594 C 153.257812 370.449219 150.738281 372.121094 147.988281 373.261719 C 145.242188 374.402344 142.273438 375 139.234375 375 C 126.609375 375 116.378906 364.769531 116.378906 352.144531 L 116.378906 336.667969 C 116.378906 332.230469 116.734375 327.808594 117.445312 323.445312 C 118.15625 319.082031 119.207031 314.773438 120.613281 310.570312 C 123.433594 302.101562 124.847656 293.289062 124.847656 284.484375 C 124.847656 275.675781 123.433594 266.863281 120.613281 258.394531 C 117.855469 250.125 116.429688 241.476562 116.390625 232.757812 C 116.378906 232.605469 116.378906 232.453125 116.378906 232.296875 L 116.378906 142.242188 C 116.378906 125.683594 122.957031 109.800781 134.667969 98.089844 L 143.347656 89.410156 C 148.691406 84.066406 152.960938 77.871094 156.023438 71.121094 C 158.808594 65.007812 160.601562 58.464844 161.296875 51.722656 C 161.523438 49.582031 161.636719 47.429688 161.636719 45.257812 L 161.636719 32.328125 L 213.363281 32.328125 L 213.363281 45.257812 C 213.363281 47.429688 213.476562 49.582031 213.703125 51.722656 C 214.398438 58.464844 216.191406 65.007812 218.976562 71.121094 C 222.039062 77.871094 226.308594 84.066406 231.652344 89.410156 L 240.332031 98.089844 C 246.191406 103.949219 250.757812 110.84375 253.871094 118.347656 C 256.972656 125.851562 258.621094 133.96875 258.621094 142.242188 L 258.621094 232.296875 C 258.621094 232.453125 258.621094 232.605469 258.609375 232.757812 C 258.59375 237.042969 258.242188 241.308594 257.554688 245.519531 C 256.84375 249.882812 255.792969 254.191406 254.386719 258.394531"/><path fill="#643022" d="M 254.386719 258.394531 C 251.566406 266.863281 250.152344 275.675781 250.152344 284.484375 C 250.152344 293.289062 251.566406 302.101562 254.386719 310.570312 C 257.191406 318.980469 258.621094 327.792969 258.621094 336.667969 L 258.621094 352.144531 C 258.621094 358.457031 256.066406 364.171875 251.929688 368.308594 C 247.792969 372.445312 242.078125 375 235.765625 375 C 229.695312 375 223.882812 372.589844 219.601562 368.308594 L 213.363281 362.070312 L 209.574219 365.855469 C 206.644531 368.785156 203.195312 371.074219 199.445312 372.625 C 195.695312 374.175781 191.640625 375 187.5 375 C 179.226562 375 171.28125 371.710938 165.425781 365.855469 L 161.636719 362.070312 L 155.398438 368.308594 C 153.257812 370.449219 150.738281 372.121094 147.988281 373.261719 C 145.242188 374.402344 142.273438 375 139.234375 375 C 126.609375 375 116.378906 364.769531 116.378906 352.144531 L 116.378906 336.667969 C 116.378906 332.230469 116.734375 327.808594 117.445312 323.445312 C 118.15625 319.082031 119.207031 314.773438 120.613281 310.570312 C 123.433594 302.101562 124.847656 293.289062 124.847656 284.484375 C 124.847656 280.78125 124.601562 277.089844 124.097656 273.410156 C 123.410156 268.335938 122.25 263.308594 120.613281 258.394531 C 117.855469 250.125 116.429688 241.476562 116.390625 232.757812 L 116.378906 232.757812 L 116.378906 142.242188 C 116.378906 125.683594 122.957031 109.800781 134.667969 98.089844 L 143.347656 89.410156 C 148.691406 84.066406 152.960938 77.871094 156.023438 71.121094 L 218.976562 71.121094 C 222.039062 77.871094 226.308594 84.066406 231.652344 89.410156 L 240.332031 98.089844 C 246.191406 103.949219 250.757812 110.84375 253.871094 118.347656 C 256.058594 123.644531 257.523438 129.246094 258.191406 134.992188 C 258.476562 137.382812 258.621094 139.808594 258.621094 142.242188 L 258.621094 232.757812 L 258.609375 232.757812 C 258.59375 237.042969 258.242188 241.308594 257.554688 245.519531 C 256.84375 249.882812 255.792969 254.191406 254.386719 258.394531"/><path fill="#56271B" d="M 254.386719 258.394531 C 251.566406 266.863281 250.152344 275.675781 250.152344 284.484375 C 250.152344 293.289062 251.566406 302.101562 254.386719 310.570312 C 257.191406 318.980469 258.621094 327.792969 258.621094 336.667969 L 258.621094 352.144531 C 258.621094 358.457031 256.066406 364.171875 251.929688 368.308594 C 247.792969 372.445312 242.078125 375 235.765625 375 C 229.695312 375 223.882812 372.589844 219.601562 368.308594 L 213.363281 362.070312 L 209.574219 365.855469 C 206.644531 368.785156 203.195312 371.074219 199.445312 372.625 C 195.695312 374.175781 191.640625 375 187.5 375 C 179.226562 375 171.28125 371.710938 165.425781 365.855469 L 161.636719 362.070312 L 155.398438 368.308594 C 153.257812 370.449219 150.738281 372.121094 147.988281 373.261719 C 145.242188 374.402344 142.273438 375 139.234375 375 C 126.609375 375 116.378906 364.769531 116.378906 352.144531 L 116.378906 336.667969 C 116.378906 332.230469 116.734375 327.808594 117.445312 323.445312 C 118.15625 319.082031 119.207031 314.773438 120.613281 310.570312 C 123.433594 302.101562 124.847656 293.289062 124.847656 284.484375 C 124.847656 280.78125 124.601562 277.089844 124.097656 273.410156 C 175.214844 243.519531 221.71875 198.886719 258.191406 134.992188 C 258.476562 137.382812 258.621094 139.808594 258.621094 142.242188 L 258.621094 232.757812 L 258.609375 232.757812 C 258.59375 237.042969 258.242188 241.308594 257.554688 245.519531 C 256.84375 249.882812 255.792969 254.191406 254.386719 258.394531"/><path fill="#F03B3D" d="M 258.621094 142.242188 L 258.621094 232.757812 L 116.378906 232.757812 L 116.378906 142.242188 L 258.621094 142.242188"/><path fill="#E73738" d="M 258.621094 142.242188 L 258.621094 232.757812 L 180.007812 232.757812 C 207.273438 208.460938 232.28125 178.59375 253.972656 142.242188 L 258.621094 142.242188"/><path fill="#F14C52" d="M 148.707031 174.570312 L 135.777344 174.570312 L 135.777344 161.636719 L 148.707031 161.636719 L 148.707031 174.570312"/><path fill="#F14C52" d="M 148.707031 213.363281 L 135.777344 213.363281 L 135.777344 187.5 L 148.707031 187.5 L 148.707031 213.363281"/><path fill="#E2E2DE" d="M 213.703125 51.722656 L 161.296875 51.722656 C 161.523438 49.582031 161.636719 47.429688 161.636719 45.257812 L 161.636719 32.328125 L 213.363281 32.328125 L 213.363281 45.257812 C 213.363281 47.429688 213.476562 49.582031 213.703125 51.722656"/><path fill="#F03B3D" d="M 206.898438 0 L 168.101562 0 C 164.53125 0 161.636719 2.894531 161.636719 6.464844 L 161.636719 32.328125 L 213.363281 32.328125 L 213.363281 6.464844 C 213.363281 2.894531 210.46875 0 206.898438 0"/><path fill="#EDEEEA" d="M 219.828125 38.792969 L 155.171875 38.792969 L 155.171875 25.863281 L 219.828125 25.863281 L 219.828125 38.792969"/><path fill="#EDEEEA" d="M 323.277344 181.035156 L 323.277344 228.453125 C 323.277344 244.042969 319.648438 259.414062 312.671875 273.355469 C 309.769531 279.167969 307.445312 285.226562 305.722656 291.457031 C 303.992188 297.6875 302.867188 304.089844 302.367188 310.5625 L 297.414062 375 L 219.828125 375 L 214.875 310.5625 C 213.871094 297.605469 210.371094 284.976562 204.570312 273.355469 C 201.078125 266.378906 198.425781 259.054688 196.648438 251.523438 C 194.871094 243.984375 193.964844 236.25 193.964844 228.453125 L 193.964844 181.035156 L 323.277344 181.035156"/><path fill="#F57515" d="M 323.277344 213.363281 L 323.277344 228.453125 C 323.277344 231.355469 323.144531 234.246094 322.902344 237.121094 C 321.8125 249.714844 318.34375 262.003906 312.671875 273.355469 C 309.769531 279.167969 307.445312 285.226562 305.722656 291.457031 C 303.992188 297.6875 302.867188 304.089844 302.367188 310.5625 L 297.414062 375 L 219.828125 375 L 217.28125 341.894531 L 214.875 310.5625 C 213.871094 297.605469 210.371094 284.976562 204.570312 273.355469 C 201.078125 266.378906 198.425781 259.054688 196.648438 251.523438 C 194.871094 243.984375 193.964844 236.25 193.964844 228.453125 L 193.964844 213.363281 L 323.277344 213.363281"/><path fill="#F46B17" d="M 322.902344 237.121094 C 321.8125 249.714844 318.34375 262.003906 312.671875 273.355469 C 309.769531 279.167969 307.445312 285.226562 305.722656 291.457031 C 303.992188 297.6875 302.867188 304.089844 302.367188 310.5625 L 297.414062 375 L 219.828125 375 L 217.28125 341.894531 C 255.507812 317.183594 291.441406 282.988281 322.902344 237.121094"/><path fill="#F68616" d="M 252.15625 336.207031 L 239.222656 336.207031 L 239.222656 323.277344 L 252.15625 323.277344 L 252.15625 336.207031"/><path fill="#F68616" d="M 271.550781 310.34375 L 258.621094 310.34375 L 258.621094 297.414062 L 271.550781 297.414062 L 271.550781 310.34375"/><path fill="#F68616" d="M 258.621094 265.085938 L 245.691406 265.085938 L 245.691406 252.15625 L 258.621094 252.15625 L 258.621094 265.085938"/></svg>