<svg xmlns="http://www.w3.org/2000/svg" width="375" viewBox="0 0 375 375" height="375" version="1.0"><defs><clipPath id="a"><path d="M 111.800781 186 L 263.359375 186 L 263.359375 329 L 111.800781 329 Z M 111.800781 186"/></clipPath><clipPath id="b"><path d="M 149 45.339844 L 226 45.339844 L 226 235 L 149 235 Z M 149 45.339844"/></clipPath><clipPath id="c"><path d="M 271.042969 268.511719 L 368.550781 268.511719 L 368.550781 366.015625 L 271.042969 366.015625 Z M 271.042969 268.511719"/></clipPath><clipPath id="d"><path d="M 264.785156 264.785156 L 375 264.785156 L 375 375 L 264.785156 375 Z M 264.785156 264.785156"/></clipPath></defs><path fill="#FFC1B8" d="M 375.1875 187.59375 C 375.1875 190.664062 375.109375 193.730469 374.960938 196.796875 C 374.808594 199.863281 374.582031 202.925781 374.28125 205.980469 C 373.980469 209.035156 373.605469 212.082031 373.15625 215.117188 C 372.707031 218.15625 372.179688 221.179688 371.582031 224.191406 C 370.984375 227.203125 370.308594 230.195312 369.5625 233.175781 C 368.816406 236.152344 368 239.109375 367.109375 242.046875 C 366.21875 244.988281 365.253906 247.902344 364.21875 250.792969 C 363.1875 253.683594 362.082031 256.546875 360.90625 259.382812 C 359.730469 262.21875 358.488281 265.023438 357.175781 267.800781 C 355.863281 270.574219 354.484375 273.316406 353.035156 276.023438 C 351.589844 278.730469 350.074219 281.402344 348.496094 284.035156 C 346.917969 286.667969 345.277344 289.261719 343.570312 291.8125 C 341.867188 294.367188 340.097656 296.875 338.269531 299.34375 C 336.441406 301.808594 334.550781 304.226562 332.605469 306.601562 C 330.65625 308.972656 328.652344 311.296875 326.589844 313.574219 C 324.527344 315.847656 322.414062 318.070312 320.242188 320.242188 C 318.070312 322.414062 315.847656 324.527344 313.574219 326.589844 C 311.296875 328.652344 308.972656 330.65625 306.601562 332.605469 C 304.226562 334.550781 301.808594 336.441406 299.34375 338.269531 C 296.875 340.097656 294.367188 341.867188 291.8125 343.570312 C 289.261719 345.277344 286.667969 346.917969 284.035156 348.496094 C 281.402344 350.074219 278.730469 351.589844 276.023438 353.035156 C 273.316406 354.484375 270.574219 355.863281 267.800781 357.175781 C 265.023438 358.488281 262.21875 359.730469 259.382812 360.90625 C 256.546875 362.082031 253.683594 363.1875 250.792969 364.21875 C 247.902344 365.253906 244.984375 366.21875 242.046875 367.109375 C 239.109375 368 236.152344 368.816406 233.175781 369.5625 C 230.195312 370.308594 227.203125 370.984375 224.191406 371.582031 C 221.179688 372.179688 218.15625 372.707031 215.117188 373.15625 C 212.082031 373.605469 209.035156 373.980469 205.980469 374.28125 C 202.925781 374.582031 199.863281 374.808594 196.796875 374.960938 C 193.730469 375.109375 190.664062 375.1875 187.59375 375.1875 C 184.523438 375.1875 181.453125 375.109375 178.386719 374.960938 C 175.320312 374.808594 172.261719 374.582031 169.207031 374.28125 C 166.152344 373.980469 163.105469 373.605469 160.066406 373.15625 C 157.03125 372.707031 154.007812 372.179688 150.996094 371.582031 C 147.984375 370.984375 144.988281 370.308594 142.011719 369.5625 C 139.035156 368.816406 136.074219 368 133.136719 367.109375 C 130.199219 366.21875 127.285156 365.253906 124.394531 364.21875 C 121.503906 363.1875 118.640625 362.082031 115.804688 360.90625 C 112.96875 359.730469 110.160156 358.488281 107.386719 357.175781 C 104.613281 355.863281 101.871094 354.484375 99.164062 353.035156 C 96.453125 351.589844 93.785156 350.074219 91.152344 348.496094 C 88.519531 346.917969 85.925781 345.277344 83.371094 343.570312 C 80.820312 341.867188 78.308594 340.097656 75.84375 338.269531 C 73.378906 336.441406 70.957031 334.550781 68.585938 332.605469 C 66.210938 330.65625 63.886719 328.652344 61.613281 326.589844 C 59.339844 324.527344 57.117188 322.414062 54.945312 320.242188 C 52.773438 318.070312 50.65625 315.847656 48.597656 313.574219 C 46.535156 311.296875 44.53125 308.972656 42.582031 306.601562 C 40.632812 304.226562 38.746094 301.808594 36.917969 299.34375 C 35.089844 296.875 33.320312 294.367188 31.613281 291.8125 C 29.910156 289.261719 28.265625 286.667969 26.6875 284.035156 C 25.109375 281.402344 23.597656 278.730469 22.152344 276.023438 C 20.703125 273.316406 19.324219 270.574219 18.011719 267.800781 C 16.699219 265.023438 15.453125 262.21875 14.28125 259.382812 C 13.105469 256.546875 12 253.683594 10.964844 250.792969 C 9.929688 247.902344 8.96875 244.988281 8.078125 242.046875 C 7.1875 239.109375 6.367188 236.152344 5.621094 233.175781 C 4.875 230.195312 4.203125 227.203125 3.605469 224.191406 C 3.003906 221.179688 2.480469 218.15625 2.03125 215.117188 C 1.578125 212.082031 1.203125 209.035156 0.902344 205.980469 C 0.601562 202.925781 0.375 199.863281 0.226562 196.796875 C 0.0742188 193.730469 0 190.664062 0 187.59375 C 0 184.523438 0.0742188 181.453125 0.226562 178.386719 C 0.375 175.320312 0.601562 172.261719 0.902344 169.207031 C 1.203125 166.152344 1.578125 163.105469 2.03125 160.066406 C 2.480469 157.03125 3.003906 154.007812 3.605469 150.996094 C 4.203125 147.984375 4.875 144.988281 5.621094 142.011719 C 6.367188 139.035156 7.1875 136.074219 8.078125 133.136719 C 8.96875 130.199219 9.929688 127.285156 10.964844 124.394531 C 12 121.503906 13.105469 118.640625 14.28125 115.804688 C 15.453125 112.96875 16.699219 110.160156 18.011719 107.386719 C 19.324219 104.613281 20.703125 101.871094 22.152344 99.164062 C 23.597656 96.453125 25.109375 93.785156 26.6875 91.152344 C 28.265625 88.519531 29.910156 85.925781 31.613281 83.371094 C 33.320312 80.820312 35.089844 78.308594 36.917969 75.84375 C 38.746094 73.378906 40.632812 70.957031 42.582031 68.585938 C 44.53125 66.210938 46.535156 63.886719 48.597656 61.613281 C 50.65625 59.339844 52.773438 57.117188 54.945312 54.945312 C 57.117188 52.773438 59.339844 50.65625 61.613281 48.597656 C 63.886719 46.535156 66.210938 44.53125 68.585938 42.582031 C 70.957031 40.632812 73.378906 38.746094 75.84375 36.917969 C 78.308594 35.089844 80.820312 33.320312 83.371094 31.613281 C 85.925781 29.910156 88.519531 28.265625 91.152344 26.6875 C 93.785156 25.109375 96.453125 23.597656 99.164062 22.152344 C 101.871094 20.703125 104.613281 19.324219 107.386719 18.011719 C 110.160156 16.699219 112.96875 15.453125 115.804688 14.28125 C 118.640625 13.105469 121.503906 12 124.394531 10.964844 C 127.285156 9.933594 130.199219 8.96875 133.136719 8.078125 C 136.074219 7.1875 139.035156 6.367188 142.011719 5.621094 C 144.988281 4.875 147.984375 4.203125 150.996094 3.605469 C 154.007812 3.003906 157.03125 2.480469 160.066406 2.03125 C 163.105469 1.578125 166.152344 1.203125 169.207031 0.902344 C 172.261719 0.601562 175.320312 0.375 178.386719 0.226562 C 181.453125 0.0742188 184.523438 0 187.59375 0 C 190.664062 0 193.730469 0.0742188 196.796875 0.226562 C 199.863281 0.375 202.925781 0.601562 205.980469 0.902344 C 209.035156 1.203125 212.082031 1.578125 215.117188 2.03125 C 218.15625 2.480469 221.179688 3.003906 224.191406 3.605469 C 227.203125 4.203125 230.195312 4.875 233.175781 5.621094 C 236.152344 6.367188 239.109375 7.1875 242.046875 8.078125 C 244.988281 8.96875 247.902344 9.933594 250.792969 10.964844 C 253.683594 12 256.546875 13.105469 259.382812 14.28125 C 262.21875 15.453125 265.023438 16.699219 267.800781 18.011719 C 270.574219 19.324219 273.316406 20.703125 276.023438 22.152344 C 278.730469 23.597656 281.402344 25.109375 284.035156 26.6875 C 286.667969 28.265625 289.261719 29.910156 291.8125 31.613281 C 294.367188 33.320312 296.875 35.089844 299.34375 36.917969 C 301.808594 38.746094 304.226562 40.632812 306.601562 42.582031 C 308.972656 44.53125 311.296875 46.535156 313.574219 48.597656 C 315.847656 50.65625 318.070312 52.773438 320.242188 54.945312 C 322.414062 57.117188 324.527344 59.339844 326.589844 61.613281 C 328.652344 63.886719 330.65625 66.210938 332.605469 68.585938 C 334.550781 70.957031 336.441406 73.378906 338.269531 75.84375 C 340.097656 78.308594 341.867188 80.820312 343.570312 83.371094 C 345.277344 85.925781 346.917969 88.519531 348.496094 91.152344 C 350.074219 93.785156 351.589844 96.453125 353.035156 99.164062 C 354.484375 101.871094 355.863281 104.613281 357.175781 107.386719 C 358.488281 110.160156 359.730469 112.96875 360.90625 115.804688 C 362.082031 118.640625 363.1875 121.503906 364.21875 124.394531 C 365.253906 127.285156 366.21875 130.199219 367.109375 133.136719 C 368 136.074219 368.816406 139.035156 369.5625 142.011719 C 370.308594 144.988281 370.984375 147.984375 371.582031 150.996094 C 372.179688 154.007812 372.707031 157.03125 373.15625 160.066406 C 373.605469 163.105469 373.980469 166.152344 374.28125 169.207031 C 374.582031 172.261719 374.808594 175.320312 374.960938 178.386719 C 375.109375 181.453125 375.1875 184.523438 375.1875 187.59375 Z M 375.1875 187.59375"/><g clip-path="url(#a)"><path fill="#FFF" d="M 263.226562 196.324219 C 263.226562 195.707031 263.164062 195.09375 263.042969 194.484375 C 262.921875 193.878906 262.742188 193.285156 262.503906 192.714844 C 262.269531 192.140625 261.976562 191.597656 261.632812 191.082031 C 261.285156 190.566406 260.894531 190.089844 260.457031 189.652344 C 260.015625 189.214844 259.539062 188.824219 259.023438 188.480469 C 258.507812 188.136719 257.960938 187.84375 257.386719 187.609375 C 256.8125 187.371094 256.222656 187.191406 255.613281 187.070312 C 255.003906 186.949219 254.390625 186.890625 253.769531 186.890625 C 253.148438 186.890625 252.535156 186.949219 251.925781 187.070312 C 251.316406 187.191406 250.722656 187.371094 250.152344 187.609375 C 249.578125 187.84375 249.03125 188.136719 248.515625 188.480469 C 248 188.824219 247.523438 189.214844 247.082031 189.652344 C 246.644531 190.089844 246.253906 190.566406 245.90625 191.082031 C 245.5625 191.597656 245.269531 192.140625 245.035156 192.714844 C 244.796875 193.285156 244.617188 193.878906 244.496094 194.484375 C 244.375 195.09375 244.3125 195.707031 244.3125 196.324219 C 244.3125 198.179688 244.222656 200.03125 244.039062 201.875 C 243.859375 203.722656 243.585938 205.554688 243.222656 207.371094 C 242.859375 209.191406 242.410156 210.988281 241.871094 212.761719 C 241.332031 214.535156 240.707031 216.28125 239.996094 217.992188 C 239.285156 219.707031 238.492188 221.378906 237.613281 223.015625 C 236.738281 224.652344 235.785156 226.238281 234.753906 227.78125 C 233.71875 229.324219 232.613281 230.8125 231.4375 232.246094 C 230.257812 233.679688 229.011719 235.050781 227.695312 236.363281 C 226.382812 237.671875 225.007812 238.917969 223.570312 240.09375 C 222.136719 241.269531 220.644531 242.371094 219.097656 243.402344 C 217.554688 244.433594 215.960938 245.386719 214.324219 246.257812 C 212.683594 247.132812 211.007812 247.925781 209.289062 248.636719 C 207.574219 249.34375 205.828125 249.96875 204.046875 250.507812 C 202.269531 251.046875 200.46875 251.496094 198.648438 251.855469 C 196.824219 252.21875 194.988281 252.492188 193.140625 252.671875 C 191.292969 252.855469 189.4375 252.945312 187.578125 252.945312 C 185.722656 252.945312 183.867188 252.855469 182.019531 252.671875 C 180.167969 252.492188 178.332031 252.21875 176.511719 251.855469 C 174.6875 251.496094 172.890625 251.046875 171.109375 250.507812 C 169.332031 249.96875 167.585938 249.34375 165.867188 248.636719 C 164.152344 247.925781 162.472656 247.132812 160.835938 246.257812 C 159.195312 245.386719 157.605469 244.433594 156.058594 243.402344 C 154.515625 242.371094 153.023438 241.269531 151.589844 240.09375 C 150.152344 238.917969 148.777344 237.671875 147.460938 236.363281 C 146.148438 235.050781 144.902344 233.679688 143.722656 232.246094 C 142.546875 230.8125 141.441406 229.324219 140.40625 227.78125 C 139.375 226.238281 138.421875 224.652344 137.542969 223.015625 C 136.667969 221.378906 135.875 219.707031 135.164062 217.992188 C 134.453125 216.28125 133.828125 214.535156 133.289062 212.761719 C 132.75 210.988281 132.296875 209.191406 131.9375 207.371094 C 131.574219 205.554688 131.300781 203.722656 131.117188 201.875 C 130.9375 200.03125 130.847656 198.179688 130.847656 196.324219 C 130.847656 195.707031 130.785156 195.09375 130.664062 194.484375 C 130.542969 193.878906 130.363281 193.285156 130.125 192.714844 C 129.886719 192.140625 129.597656 191.597656 129.253906 191.082031 C 128.90625 190.566406 128.515625 190.089844 128.078125 189.652344 C 127.636719 189.214844 127.160156 188.824219 126.644531 188.480469 C 126.128906 188.136719 125.582031 187.84375 125.007812 187.609375 C 124.433594 187.371094 123.84375 187.191406 123.234375 187.070312 C 122.625 186.949219 122.011719 186.890625 121.390625 186.890625 C 120.769531 186.890625 120.15625 186.949219 119.546875 187.070312 C 118.9375 187.191406 118.34375 187.371094 117.773438 187.609375 C 117.199219 187.84375 116.652344 188.136719 116.136719 188.480469 C 115.621094 188.824219 115.144531 189.214844 114.703125 189.652344 C 114.265625 190.089844 113.871094 190.566406 113.527344 191.082031 C 113.183594 191.597656 112.890625 192.140625 112.652344 192.714844 C 112.417969 193.285156 112.238281 193.878906 112.117188 194.484375 C 111.996094 195.09375 111.933594 195.707031 111.933594 196.324219 C 111.9375 198.597656 112.042969 200.867188 112.253906 203.132812 C 112.460938 205.394531 112.773438 207.644531 113.183594 209.878906 C 113.597656 212.117188 114.109375 214.328125 114.722656 216.515625 C 115.335938 218.707031 116.042969 220.863281 116.851562 222.988281 C 117.660156 225.117188 118.5625 227.199219 119.558594 229.246094 C 120.554688 231.289062 121.640625 233.285156 122.816406 235.230469 C 123.992188 237.175781 125.253906 239.066406 126.601562 240.898438 C 127.949219 242.734375 129.375 244.5 130.882812 246.207031 C 132.390625 247.910156 133.972656 249.542969 135.628906 251.105469 C 137.28125 252.667969 139.003906 254.152344 140.792969 255.558594 C 142.582031 256.964844 144.433594 258.289062 146.339844 259.527344 C 148.25 260.769531 150.210938 261.921875 152.222656 262.984375 C 154.238281 264.046875 156.292969 265.019531 158.394531 265.898438 C 160.496094 266.777344 162.632812 267.558594 164.804688 268.246094 C 166.976562 268.929688 169.171875 269.515625 171.398438 270.003906 C 173.621094 270.492188 175.863281 270.878906 178.125 271.167969 L 178.125 291.457031 C 174.308594 292 170.570312 292.871094 166.90625 294.070312 C 163.246094 295.265625 159.714844 296.769531 156.3125 298.582031 C 152.914062 300.394531 149.699219 302.484375 146.664062 304.855469 C 143.628906 307.230469 140.824219 309.84375 138.25 312.707031 C 137.828125 313.167969 137.457031 313.664062 137.136719 314.199219 C 136.8125 314.730469 136.546875 315.292969 136.335938 315.878906 C 136.125 316.464844 135.972656 317.066406 135.882812 317.683594 C 135.789062 318.300781 135.761719 318.921875 135.792969 319.542969 C 135.824219 320.164062 135.914062 320.777344 136.070312 321.382812 C 136.222656 321.988281 136.433594 322.570312 136.703125 323.132812 C 136.972656 323.695312 137.292969 324.226562 137.667969 324.722656 C 138.042969 325.222656 138.464844 325.679688 138.929688 326.097656 C 139.394531 326.511719 139.894531 326.878906 140.433594 327.195312 C 140.972656 327.511719 141.535156 327.773438 142.125 327.976562 C 142.714844 328.183594 143.320312 328.328125 143.9375 328.414062 C 144.554688 328.5 145.175781 328.523438 145.800781 328.484375 C 146.425781 328.449219 147.039062 328.351562 147.640625 328.191406 C 148.246094 328.03125 148.828125 327.816406 149.390625 327.542969 C 149.949219 327.269531 150.480469 326.941406 150.976562 326.566406 C 151.472656 326.1875 151.925781 325.761719 152.339844 325.292969 C 152.890625 324.679688 153.460938 324.078125 154.042969 323.488281 C 154.628906 322.902344 155.226562 322.332031 155.839844 321.777344 C 156.453125 321.222656 157.082031 320.683594 157.726562 320.160156 C 158.367188 319.640625 159.023438 319.132812 159.695312 318.644531 C 160.363281 318.160156 161.042969 317.6875 161.738281 317.238281 C 162.433594 316.785156 163.136719 316.351562 163.855469 315.9375 C 164.570312 315.519531 165.296875 315.125 166.035156 314.75 C 166.773438 314.371094 167.519531 314.015625 168.277344 313.675781 C 169.035156 313.339844 169.796875 313.019531 170.570312 312.722656 C 171.34375 312.425781 172.125 312.148438 172.914062 311.894531 C 173.699219 311.636719 174.496094 311.402344 175.296875 311.183594 C 176.09375 310.96875 176.902344 310.777344 177.710938 310.605469 C 178.519531 310.429688 179.335938 310.28125 180.152344 310.152344 C 180.972656 310.019531 181.792969 309.914062 182.617188 309.824219 C 183.441406 309.738281 184.269531 309.671875 185.09375 309.628906 C 185.921875 309.585938 186.75 309.566406 187.578125 309.566406 C 188.410156 309.566406 189.238281 309.585938 190.0625 309.628906 C 190.890625 309.671875 191.71875 309.738281 192.542969 309.824219 C 193.367188 309.914062 194.1875 310.019531 195.003906 310.152344 C 195.824219 310.28125 196.636719 310.429688 197.449219 310.605469 C 198.257812 310.777344 199.0625 310.96875 199.863281 311.183594 C 200.664062 311.402344 201.457031 311.636719 202.246094 311.894531 C 203.035156 312.148438 203.816406 312.425781 204.589844 312.722656 C 205.359375 313.019531 206.125 313.339844 206.882812 313.675781 C 207.640625 314.015625 208.386719 314.371094 209.125 314.75 C 209.859375 315.125 210.589844 315.519531 211.304688 315.9375 C 212.023438 316.351562 212.726562 316.785156 213.421875 317.238281 C 214.117188 317.6875 214.796875 318.160156 215.464844 318.644531 C 216.136719 319.132812 216.792969 319.640625 217.433594 320.160156 C 218.074219 320.683594 218.703125 321.222656 219.320312 321.777344 C 219.933594 322.332031 220.53125 322.902344 221.117188 323.488281 C 221.699219 324.078125 222.269531 324.679688 222.820312 325.292969 C 223.238281 325.75 223.691406 326.160156 224.191406 326.527344 C 224.6875 326.890625 225.214844 327.207031 225.769531 327.46875 C 226.328125 327.730469 226.90625 327.9375 227.507812 328.089844 C 228.105469 328.238281 228.710938 328.328125 229.328125 328.359375 C 229.945312 328.390625 230.558594 328.363281 231.167969 328.273438 C 231.78125 328.183594 232.375 328.039062 232.957031 327.832031 C 233.539062 327.625 234.097656 327.367188 234.628906 327.054688 C 235.160156 326.738281 235.652344 326.375 236.113281 325.964844 C 236.574219 325.554688 236.988281 325.101562 237.359375 324.613281 C 237.730469 324.121094 238.050781 323.597656 238.320312 323.042969 C 238.589844 322.488281 238.800781 321.910156 238.957031 321.316406 C 239.113281 320.71875 239.207031 320.113281 239.246094 319.5 C 239.28125 318.882812 239.257812 318.273438 239.175781 317.660156 C 239.09375 317.050781 238.949219 316.457031 238.75 315.871094 C 238.550781 315.289062 238.296875 314.730469 237.984375 314.199219 C 237.675781 313.667969 237.316406 313.167969 236.910156 312.707031 C 234.332031 309.84375 231.527344 307.230469 228.496094 304.855469 C 225.460938 302.484375 222.246094 300.394531 218.84375 298.582031 C 215.445312 296.769531 211.914062 295.265625 208.253906 294.070312 C 204.589844 292.871094 200.851562 292 197.035156 291.457031 L 197.035156 271.167969 C 199.296875 270.878906 201.539062 270.492188 203.761719 270.003906 C 205.988281 269.515625 208.183594 268.929688 210.355469 268.246094 C 212.527344 267.558594 214.664062 266.777344 216.765625 265.898438 C 218.867188 265.019531 220.921875 264.046875 222.9375 262.984375 C 224.949219 261.921875 226.910156 260.769531 228.820312 259.527344 C 230.726562 258.289062 232.578125 256.964844 234.367188 255.558594 C 236.15625 254.152344 237.875 252.667969 239.53125 251.105469 C 241.1875 249.542969 242.769531 247.910156 244.273438 246.207031 C 245.78125 244.5 247.210938 242.734375 248.558594 240.898438 C 249.90625 239.066406 251.167969 237.175781 252.34375 235.230469 C 253.519531 233.285156 254.605469 231.289062 255.601562 229.246094 C 256.597656 227.199219 257.5 225.117188 258.308594 222.988281 C 259.113281 220.863281 259.824219 218.707031 260.4375 216.515625 C 261.050781 214.328125 261.5625 212.117188 261.972656 209.878906 C 262.386719 207.644531 262.695312 205.394531 262.90625 203.132812 C 263.113281 200.867188 263.222656 198.597656 263.226562 196.324219 Z M 263.226562 196.324219"/></g><g clip-path="url(#b)"><path fill="#FFF" d="M 187.578125 234.070312 C 188.820312 234.070312 190.054688 234.011719 191.285156 233.890625 C 192.519531 233.769531 193.742188 233.585938 194.957031 233.347656 C 196.171875 233.105469 197.375 232.804688 198.558594 232.445312 C 199.746094 232.085938 200.910156 231.671875 202.054688 231.199219 C 203.199219 230.726562 204.316406 230.199219 205.410156 229.613281 C 206.5 229.03125 207.5625 228.398438 208.59375 227.710938 C 209.621094 227.023438 210.617188 226.289062 211.574219 225.503906 C 212.53125 224.71875 213.449219 223.890625 214.324219 223.015625 C 215.199219 222.140625 216.03125 221.226562 216.816406 220.273438 C 217.601562 219.316406 218.339844 218.324219 219.027344 217.296875 C 219.714844 216.269531 220.351562 215.210938 220.9375 214.121094 C 221.519531 213.027344 222.050781 211.914062 222.523438 210.769531 C 222.996094 209.628906 223.414062 208.464844 223.773438 207.28125 C 224.132812 206.101562 224.433594 204.902344 224.675781 203.691406 C 224.917969 202.476562 225.097656 201.257812 225.21875 200.027344 C 225.339844 198.796875 225.402344 197.5625 225.402344 196.324219 L 225.402344 83.085938 C 225.402344 81.851562 225.339844 80.617188 225.21875 79.386719 C 225.097656 78.15625 224.917969 76.9375 224.675781 75.722656 C 224.433594 74.511719 224.132812 73.3125 223.773438 72.128906 C 223.414062 70.949219 222.996094 69.785156 222.523438 68.644531 C 222.050781 67.5 221.519531 66.382812 220.9375 65.292969 C 220.351562 64.203125 219.714844 63.144531 219.027344 62.117188 C 218.339844 61.089844 217.601562 60.097656 216.816406 59.140625 C 216.03125 58.1875 215.199219 57.269531 214.324219 56.398438 C 213.449219 55.523438 212.53125 54.695312 211.574219 53.910156 C 210.617188 53.125 209.621094 52.390625 208.59375 51.703125 C 207.5625 51.015625 206.5 50.382812 205.410156 49.796875 C 204.316406 49.214844 203.199219 48.6875 202.054688 48.214844 C 200.910156 47.742188 199.746094 47.324219 198.558594 46.96875 C 197.375 46.609375 196.171875 46.308594 194.957031 46.066406 C 193.742188 45.824219 192.519531 45.644531 191.285156 45.523438 C 190.054688 45.402344 188.820312 45.339844 187.578125 45.339844 C 186.339844 45.339844 185.105469 45.402344 183.871094 45.523438 C 182.640625 45.644531 181.414062 45.824219 180.199219 46.066406 C 178.984375 46.308594 177.785156 46.609375 176.601562 46.96875 C 175.414062 47.324219 174.25 47.742188 173.105469 48.214844 C 171.960938 48.6875 170.84375 49.214844 169.75 49.796875 C 168.65625 50.382812 167.597656 51.015625 166.566406 51.703125 C 165.535156 52.390625 164.542969 53.125 163.585938 53.910156 C 162.628906 54.695312 161.710938 55.523438 160.835938 56.398438 C 159.960938 57.269531 159.128906 58.1875 158.34375 59.140625 C 157.554688 60.097656 156.820312 61.089844 156.132812 62.117188 C 155.441406 63.144531 154.808594 64.203125 154.222656 65.292969 C 153.640625 66.382812 153.109375 67.5 152.636719 68.644531 C 152.164062 69.785156 151.746094 70.949219 151.386719 72.128906 C 151.027344 73.3125 150.726562 74.511719 150.484375 75.722656 C 150.242188 76.9375 150.0625 78.15625 149.9375 79.386719 C 149.816406 80.617188 149.757812 81.851562 149.757812 83.085938 L 149.757812 196.324219 C 149.757812 197.5625 149.816406 198.796875 149.9375 200.027344 C 150.0625 201.257812 150.242188 202.476562 150.484375 203.691406 C 150.726562 204.902344 151.027344 206.101562 151.386719 207.28125 C 151.746094 208.464844 152.164062 209.628906 152.636719 210.769531 C 153.109375 211.914062 153.640625 213.027344 154.222656 214.121094 C 154.808594 215.210938 155.441406 216.269531 156.132812 217.296875 C 156.820312 218.324219 157.554688 219.316406 158.34375 220.273438 C 159.128906 221.226562 159.960938 222.140625 160.835938 223.015625 C 161.710938 223.890625 162.628906 224.71875 163.585938 225.503906 C 164.542969 226.289062 165.535156 227.023438 166.566406 227.710938 C 167.597656 228.398438 168.65625 229.03125 169.75 229.613281 C 170.84375 230.199219 171.960938 230.726562 173.105469 231.199219 C 174.25 231.671875 175.414062 232.085938 176.601562 232.445312 C 177.785156 232.804688 178.984375 233.105469 180.199219 233.347656 C 181.414062 233.585938 182.640625 233.769531 183.871094 233.890625 C 185.105469 234.011719 186.339844 234.070312 187.578125 234.070312 Z M 187.578125 234.070312"/></g><g clip-path="url(#c)"><path fill="#FFF" d="M 368.550781 317.261719 C 368.550781 318.859375 368.472656 320.453125 368.316406 322.042969 C 368.160156 323.632812 367.925781 325.207031 367.613281 326.773438 C 367.300781 328.339844 366.914062 329.886719 366.453125 331.414062 C 365.988281 332.945312 365.449219 334.445312 364.839844 335.921875 C 364.230469 337.394531 363.546875 338.835938 362.792969 340.246094 C 362.042969 341.652344 361.222656 343.019531 360.335938 344.347656 C 359.449219 345.675781 358.496094 346.957031 357.484375 348.191406 C 356.472656 349.425781 355.402344 350.609375 354.273438 351.738281 C 353.140625 352.867188 351.960938 353.9375 350.726562 354.949219 C 349.492188 355.960938 348.210938 356.914062 346.882812 357.800781 C 345.554688 358.6875 344.1875 359.507812 342.78125 360.257812 C 341.371094 361.011719 339.929688 361.695312 338.453125 362.304688 C 336.980469 362.917969 335.476562 363.453125 333.949219 363.917969 C 332.421875 364.378906 330.875 364.769531 329.308594 365.078125 C 327.742188 365.390625 326.164062 365.625 324.578125 365.78125 C 322.988281 365.9375 321.394531 366.015625 319.796875 366.015625 C 318.203125 366.015625 316.609375 365.9375 315.019531 365.78125 C 313.429688 365.625 311.851562 365.390625 310.285156 365.078125 C 308.71875 364.769531 307.171875 364.378906 305.644531 363.917969 C 304.117188 363.453125 302.617188 362.917969 301.140625 362.304688 C 299.664062 361.695312 298.222656 361.011719 296.816406 360.257812 C 295.40625 359.507812 294.039062 358.6875 292.710938 357.800781 C 291.382812 356.914062 290.105469 355.960938 288.871094 354.949219 C 287.636719 353.9375 286.453125 352.867188 285.324219 351.738281 C 284.195312 350.609375 283.125 349.425781 282.113281 348.191406 C 281.097656 346.957031 280.148438 345.675781 279.261719 344.347656 C 278.375 343.019531 277.554688 341.652344 276.800781 340.246094 C 276.050781 338.835938 275.367188 337.394531 274.757812 335.921875 C 274.144531 334.445312 273.609375 332.945312 273.144531 331.414062 C 272.679688 329.886719 272.292969 328.339844 271.980469 326.773438 C 271.671875 325.207031 271.4375 323.632812 271.28125 322.042969 C 271.125 320.453125 271.042969 318.859375 271.042969 317.261719 C 271.042969 315.667969 271.125 314.074219 271.28125 312.484375 C 271.4375 310.894531 271.671875 309.316406 271.980469 307.753906 C 272.292969 306.1875 272.679688 304.640625 273.144531 303.109375 C 273.609375 301.582031 274.144531 300.082031 274.757812 298.605469 C 275.367188 297.132812 276.050781 295.691406 276.800781 294.28125 C 277.554688 292.875 278.375 291.503906 279.261719 290.175781 C 280.148438 288.851562 281.097656 287.570312 282.113281 286.335938 C 283.125 285.101562 284.195312 283.917969 285.324219 282.789062 C 286.453125 281.660156 287.636719 280.589844 288.871094 279.578125 C 290.105469 278.5625 291.382812 277.613281 292.710938 276.726562 C 294.039062 275.839844 295.40625 275.019531 296.816406 274.265625 C 298.222656 273.515625 299.664062 272.832031 301.140625 272.222656 C 302.617188 271.609375 304.117188 271.074219 305.644531 270.609375 C 307.171875 270.144531 308.71875 269.757812 310.285156 269.445312 C 311.851562 269.136719 313.429688 268.902344 315.019531 268.746094 C 316.609375 268.589844 318.203125 268.511719 319.796875 268.511719 C 321.394531 268.511719 322.988281 268.589844 324.578125 268.746094 C 326.164062 268.902344 327.742188 269.136719 329.308594 269.445312 C 330.875 269.757812 332.421875 270.144531 333.949219 270.609375 C 335.476562 271.074219 336.980469 271.609375 338.453125 272.222656 C 339.929688 272.832031 341.371094 273.515625 342.78125 274.265625 C 344.1875 275.019531 345.554688 275.839844 346.882812 276.726562 C 348.210938 277.613281 349.492188 278.5625 350.726562 279.578125 C 351.960938 280.589844 353.140625 281.660156 354.273438 282.789062 C 355.402344 283.917969 356.472656 285.101562 357.484375 286.335938 C 358.496094 287.570312 359.449219 288.851562 360.335938 290.175781 C 361.222656 291.503906 362.042969 292.875 362.792969 294.28125 C 363.546875 295.691406 364.230469 297.132812 364.839844 298.605469 C 365.449219 300.082031 365.988281 301.582031 366.453125 303.109375 C 366.914062 304.640625 367.300781 306.1875 367.613281 307.753906 C 367.925781 309.316406 368.160156 310.894531 368.316406 312.484375 C 368.472656 314.074219 368.550781 315.667969 368.550781 317.261719 Z M 368.550781 317.261719"/></g><g clip-path="url(#d)"><path fill="#A6A6A6" d="M 319.894531 264.785156 C 289.460938 264.785156 264.785156 289.460938 264.785156 319.894531 C 264.785156 350.332031 289.460938 375.007812 319.894531 375.007812 C 350.332031 375.007812 375.007812 350.332031 375.007812 319.894531 C 375.007812 289.460938 350.332031 264.785156 319.894531 264.785156 Z M 359.464844 330.359375 L 330.359375 330.359375 L 330.359375 359.464844 C 330.359375 360.429688 329.574219 361.214844 328.609375 361.214844 L 311.183594 361.214844 C 310.214844 361.214844 309.4375 360.429688 309.4375 359.464844 L 309.4375 330.359375 L 280.328125 330.359375 C 279.363281 330.359375 278.578125 329.574219 278.578125 328.609375 L 278.578125 311.183594 C 278.578125 310.214844 279.363281 309.4375 280.328125 309.4375 L 309.433594 309.4375 L 309.433594 280.328125 C 309.433594 279.363281 310.214844 278.578125 311.183594 278.578125 L 328.609375 278.578125 C 329.574219 278.578125 330.351562 279.363281 330.351562 280.328125 L 330.351562 309.433594 L 359.464844 309.433594 C 360.429688 309.433594 361.214844 310.214844 361.214844 311.183594 L 361.214844 328.609375 C 361.214844 329.574219 360.429688 330.359375 359.464844 330.359375 Z M 359.464844 330.359375"/></g></svg>