<svg xmlns="http://www.w3.org/2000/svg" width="375" viewBox="0 0 375 375" height="375" version="1.0"><defs><clipPath id="a"><path d="M 271.042969 268.511719 L 368.550781 268.511719 L 368.550781 366.015625 L 271.042969 366.015625 Z M 271.042969 268.511719"/></clipPath><clipPath id="b"><path d="M 264.785156 264.785156 L 375 264.785156 L 375 375 L 264.785156 375 Z M 264.785156 264.785156"/></clipPath><clipPath id="c"><path d="M 66 85.28125 L 310 85.28125 L 310 256.28125 L 66 256.28125 Z M 66 85.28125"/></clipPath></defs><path fill="#FCEE84" d="M 375.1875 187.59375 C 375.1875 190.664062 375.109375 193.730469 374.960938 196.796875 C 374.808594 199.863281 374.582031 202.925781 374.28125 205.980469 C 373.980469 209.035156 373.605469 212.082031 373.15625 215.117188 C 372.707031 218.15625 372.179688 221.179688 371.582031 224.191406 C 370.984375 227.203125 370.308594 230.195312 369.5625 233.175781 C 368.816406 236.152344 368 239.109375 367.109375 242.046875 C 366.21875 244.988281 365.253906 247.902344 364.21875 250.792969 C 363.1875 253.683594 362.082031 256.546875 360.90625 259.382812 C 359.730469 262.21875 358.488281 265.023438 357.175781 267.800781 C 355.863281 270.574219 354.484375 273.316406 353.035156 276.023438 C 351.589844 278.730469 350.074219 281.402344 348.496094 284.035156 C 346.917969 286.667969 345.277344 289.261719 343.570312 291.8125 C 341.867188 294.367188 340.097656 296.875 338.269531 299.34375 C 336.441406 301.808594 334.550781 304.226562 332.605469 306.601562 C 330.65625 308.972656 328.652344 311.296875 326.589844 313.574219 C 324.527344 315.847656 322.414062 318.070312 320.242188 320.242188 C 318.070312 322.414062 315.847656 324.527344 313.574219 326.589844 C 311.296875 328.652344 308.972656 330.65625 306.601562 332.605469 C 304.226562 334.550781 301.808594 336.441406 299.34375 338.269531 C 296.875 340.097656 294.367188 341.867188 291.8125 343.570312 C 289.261719 345.277344 286.667969 346.917969 284.035156 348.496094 C 281.402344 350.074219 278.730469 351.589844 276.023438 353.035156 C 273.316406 354.484375 270.574219 355.863281 267.800781 357.175781 C 265.023438 358.488281 262.21875 359.730469 259.382812 360.90625 C 256.546875 362.082031 253.683594 363.1875 250.792969 364.21875 C 247.902344 365.253906 244.984375 366.21875 242.046875 367.109375 C 239.109375 368 236.152344 368.816406 233.175781 369.5625 C 230.195312 370.308594 227.203125 370.984375 224.191406 371.582031 C 221.179688 372.179688 218.15625 372.707031 215.117188 373.15625 C 212.082031 373.605469 209.035156 373.980469 205.980469 374.28125 C 202.925781 374.582031 199.863281 374.808594 196.796875 374.960938 C 193.730469 375.109375 190.664062 375.1875 187.59375 375.1875 C 184.523438 375.1875 181.453125 375.109375 178.386719 374.960938 C 175.320312 374.808594 172.261719 374.582031 169.207031 374.28125 C 166.152344 373.980469 163.105469 373.605469 160.066406 373.15625 C 157.03125 372.707031 154.007812 372.179688 150.996094 371.582031 C 147.984375 370.984375 144.988281 370.308594 142.011719 369.5625 C 139.035156 368.816406 136.074219 368 133.136719 367.109375 C 130.199219 366.21875 127.285156 365.253906 124.394531 364.21875 C 121.503906 363.1875 118.640625 362.082031 115.804688 360.90625 C 112.96875 359.730469 110.160156 358.488281 107.386719 357.175781 C 104.613281 355.863281 101.871094 354.484375 99.164062 353.035156 C 96.453125 351.589844 93.785156 350.074219 91.152344 348.496094 C 88.519531 346.917969 85.925781 345.277344 83.371094 343.570312 C 80.820312 341.867188 78.308594 340.097656 75.84375 338.269531 C 73.378906 336.441406 70.957031 334.550781 68.585938 332.605469 C 66.210938 330.65625 63.886719 328.652344 61.613281 326.589844 C 59.339844 324.527344 57.117188 322.414062 54.945312 320.242188 C 52.773438 318.070312 50.65625 315.847656 48.597656 313.574219 C 46.535156 311.296875 44.53125 308.972656 42.582031 306.601562 C 40.632812 304.226562 38.746094 301.808594 36.917969 299.34375 C 35.089844 296.875 33.320312 294.367188 31.613281 291.8125 C 29.910156 289.261719 28.265625 286.667969 26.6875 284.035156 C 25.109375 281.402344 23.597656 278.730469 22.152344 276.023438 C 20.703125 273.316406 19.324219 270.574219 18.011719 267.800781 C 16.699219 265.023438 15.453125 262.21875 14.28125 259.382812 C 13.105469 256.546875 12 253.683594 10.964844 250.792969 C 9.929688 247.902344 8.96875 244.988281 8.078125 242.046875 C 7.1875 239.109375 6.367188 236.152344 5.621094 233.175781 C 4.875 230.195312 4.203125 227.203125 3.605469 224.191406 C 3.003906 221.179688 2.480469 218.15625 2.03125 215.117188 C 1.578125 212.082031 1.203125 209.035156 0.902344 205.980469 C 0.601562 202.925781 0.375 199.863281 0.226562 196.796875 C 0.0742188 193.730469 0 190.664062 0 187.59375 C 0 184.523438 0.0742188 181.453125 0.226562 178.386719 C 0.375 175.320312 0.601562 172.261719 0.902344 169.207031 C 1.203125 166.152344 1.578125 163.105469 2.03125 160.066406 C 2.480469 157.03125 3.003906 154.007812 3.605469 150.996094 C 4.203125 147.984375 4.875 144.988281 5.621094 142.011719 C 6.367188 139.035156 7.1875 136.074219 8.078125 133.136719 C 8.96875 130.199219 9.929688 127.285156 10.964844 124.394531 C 12 121.503906 13.105469 118.640625 14.28125 115.804688 C 15.453125 112.96875 16.699219 110.160156 18.011719 107.386719 C 19.324219 104.613281 20.703125 101.871094 22.152344 99.164062 C 23.597656 96.453125 25.109375 93.785156 26.6875 91.152344 C 28.265625 88.519531 29.910156 85.925781 31.613281 83.371094 C 33.320312 80.820312 35.089844 78.308594 36.917969 75.84375 C 38.746094 73.378906 40.632812 70.957031 42.582031 68.585938 C 44.53125 66.210938 46.535156 63.886719 48.597656 61.613281 C 50.65625 59.339844 52.773438 57.117188 54.945312 54.945312 C 57.117188 52.773438 59.339844 50.65625 61.613281 48.597656 C 63.886719 46.535156 66.210938 44.53125 68.585938 42.582031 C 70.957031 40.632812 73.378906 38.746094 75.84375 36.917969 C 78.308594 35.089844 80.820312 33.320312 83.371094 31.613281 C 85.925781 29.910156 88.519531 28.265625 91.152344 26.6875 C 93.785156 25.109375 96.453125 23.597656 99.164062 22.152344 C 101.871094 20.703125 104.613281 19.324219 107.386719 18.011719 C 110.160156 16.699219 112.96875 15.453125 115.804688 14.28125 C 118.640625 13.105469 121.503906 12 124.394531 10.964844 C 127.285156 9.933594 130.199219 8.96875 133.136719 8.078125 C 136.074219 7.1875 139.035156 6.367188 142.011719 5.621094 C 144.988281 4.875 147.984375 4.203125 150.996094 3.605469 C 154.007812 3.003906 157.03125 2.480469 160.066406 2.03125 C 163.105469 1.578125 166.152344 1.203125 169.207031 0.902344 C 172.261719 0.601562 175.320312 0.375 178.386719 0.226562 C 181.453125 0.0742188 184.523438 0 187.59375 0 C 190.664062 0 193.730469 0.0742188 196.796875 0.226562 C 199.863281 0.375 202.925781 0.601562 205.980469 0.902344 C 209.035156 1.203125 212.082031 1.578125 215.117188 2.03125 C 218.15625 2.480469 221.179688 3.003906 224.191406 3.605469 C 227.203125 4.203125 230.195312 4.875 233.175781 5.621094 C 236.152344 6.367188 239.109375 7.1875 242.046875 8.078125 C 244.988281 8.96875 247.902344 9.933594 250.792969 10.964844 C 253.683594 12 256.546875 13.105469 259.382812 14.28125 C 262.21875 15.453125 265.023438 16.699219 267.800781 18.011719 C 270.574219 19.324219 273.316406 20.703125 276.023438 22.152344 C 278.730469 23.597656 281.402344 25.109375 284.035156 26.6875 C 286.667969 28.265625 289.261719 29.910156 291.8125 31.613281 C 294.367188 33.320312 296.875 35.089844 299.34375 36.917969 C 301.808594 38.746094 304.226562 40.632812 306.601562 42.582031 C 308.972656 44.53125 311.296875 46.535156 313.574219 48.597656 C 315.847656 50.65625 318.070312 52.773438 320.242188 54.945312 C 322.414062 57.117188 324.527344 59.339844 326.589844 61.613281 C 328.652344 63.886719 330.65625 66.210938 332.605469 68.585938 C 334.550781 70.957031 336.441406 73.378906 338.269531 75.84375 C 340.097656 78.308594 341.867188 80.820312 343.570312 83.371094 C 345.277344 85.925781 346.917969 88.519531 348.496094 91.152344 C 350.074219 93.785156 351.589844 96.453125 353.035156 99.164062 C 354.484375 101.871094 355.863281 104.613281 357.175781 107.386719 C 358.488281 110.160156 359.730469 112.96875 360.90625 115.804688 C 362.082031 118.640625 363.1875 121.503906 364.21875 124.394531 C 365.253906 127.285156 366.21875 130.199219 367.109375 133.136719 C 368 136.074219 368.816406 139.035156 369.5625 142.011719 C 370.308594 144.988281 370.984375 147.984375 371.582031 150.996094 C 372.179688 154.007812 372.707031 157.03125 373.15625 160.066406 C 373.605469 163.105469 373.980469 166.152344 374.28125 169.207031 C 374.582031 172.261719 374.808594 175.320312 374.960938 178.386719 C 375.109375 181.453125 375.1875 184.523438 375.1875 187.59375 Z M 375.1875 187.59375"/><g clip-path="url(#a)"><path fill="#FFF" d="M 368.550781 317.261719 C 368.550781 318.859375 368.472656 320.453125 368.316406 322.042969 C 368.160156 323.632812 367.925781 325.207031 367.613281 326.773438 C 367.300781 328.339844 366.914062 329.886719 366.453125 331.414062 C 365.988281 332.945312 365.449219 334.445312 364.839844 335.921875 C 364.230469 337.394531 363.546875 338.835938 362.792969 340.246094 C 362.042969 341.652344 361.222656 343.019531 360.335938 344.347656 C 359.449219 345.675781 358.496094 346.957031 357.484375 348.191406 C 356.472656 349.425781 355.402344 350.609375 354.273438 351.738281 C 353.140625 352.867188 351.960938 353.9375 350.726562 354.949219 C 349.492188 355.960938 348.210938 356.914062 346.882812 357.800781 C 345.554688 358.6875 344.1875 359.507812 342.78125 360.257812 C 341.371094 361.011719 339.929688 361.695312 338.453125 362.304688 C 336.980469 362.917969 335.476562 363.453125 333.949219 363.917969 C 332.421875 364.378906 330.875 364.769531 329.308594 365.078125 C 327.742188 365.390625 326.164062 365.625 324.578125 365.78125 C 322.988281 365.9375 321.394531 366.015625 319.796875 366.015625 C 318.203125 366.015625 316.609375 365.9375 315.019531 365.78125 C 313.429688 365.625 311.851562 365.390625 310.285156 365.078125 C 308.71875 364.769531 307.171875 364.378906 305.644531 363.917969 C 304.117188 363.453125 302.617188 362.917969 301.140625 362.304688 C 299.664062 361.695312 298.222656 361.011719 296.816406 360.257812 C 295.40625 359.507812 294.039062 358.6875 292.710938 357.800781 C 291.382812 356.914062 290.105469 355.960938 288.871094 354.949219 C 287.636719 353.9375 286.453125 352.867188 285.324219 351.738281 C 284.195312 350.609375 283.125 349.425781 282.113281 348.191406 C 281.097656 346.957031 280.148438 345.675781 279.261719 344.347656 C 278.375 343.019531 277.554688 341.652344 276.800781 340.246094 C 276.050781 338.835938 275.367188 337.394531 274.757812 335.921875 C 274.144531 334.445312 273.609375 332.945312 273.144531 331.414062 C 272.679688 329.886719 272.292969 328.339844 271.980469 326.773438 C 271.671875 325.207031 271.4375 323.632812 271.28125 322.042969 C 271.125 320.453125 271.042969 318.859375 271.042969 317.261719 C 271.042969 315.667969 271.125 314.074219 271.28125 312.484375 C 271.4375 310.894531 271.671875 309.316406 271.980469 307.753906 C 272.292969 306.1875 272.679688 304.640625 273.144531 303.109375 C 273.609375 301.582031 274.144531 300.082031 274.757812 298.605469 C 275.367188 297.132812 276.050781 295.691406 276.800781 294.28125 C 277.554688 292.875 278.375 291.503906 279.261719 290.175781 C 280.148438 288.851562 281.097656 287.570312 282.113281 286.335938 C 283.125 285.101562 284.195312 283.917969 285.324219 282.789062 C 286.453125 281.660156 287.636719 280.589844 288.871094 279.578125 C 290.105469 278.5625 291.382812 277.613281 292.710938 276.726562 C 294.039062 275.839844 295.40625 275.019531 296.816406 274.265625 C 298.222656 273.515625 299.664062 272.832031 301.140625 272.222656 C 302.617188 271.609375 304.117188 271.074219 305.644531 270.609375 C 307.171875 270.144531 308.71875 269.757812 310.285156 269.445312 C 311.851562 269.136719 313.429688 268.902344 315.019531 268.746094 C 316.609375 268.589844 318.203125 268.511719 319.796875 268.511719 C 321.394531 268.511719 322.988281 268.589844 324.578125 268.746094 C 326.164062 268.902344 327.742188 269.136719 329.308594 269.445312 C 330.875 269.757812 332.421875 270.144531 333.949219 270.609375 C 335.476562 271.074219 336.980469 271.609375 338.453125 272.222656 C 339.929688 272.832031 341.371094 273.515625 342.78125 274.265625 C 344.1875 275.019531 345.554688 275.839844 346.882812 276.726562 C 348.210938 277.613281 349.492188 278.5625 350.726562 279.578125 C 351.960938 280.589844 353.140625 281.660156 354.273438 282.789062 C 355.402344 283.917969 356.472656 285.101562 357.484375 286.335938 C 358.496094 287.570312 359.449219 288.851562 360.335938 290.175781 C 361.222656 291.503906 362.042969 292.875 362.792969 294.28125 C 363.546875 295.691406 364.230469 297.132812 364.839844 298.605469 C 365.449219 300.082031 365.988281 301.582031 366.453125 303.109375 C 366.914062 304.640625 367.300781 306.1875 367.613281 307.753906 C 367.925781 309.316406 368.160156 310.894531 368.316406 312.484375 C 368.472656 314.074219 368.550781 315.667969 368.550781 317.261719 Z M 368.550781 317.261719"/></g><g clip-path="url(#b)"><path fill="#A6A6A6" d="M 319.894531 264.785156 C 289.460938 264.785156 264.785156 289.460938 264.785156 319.894531 C 264.785156 350.332031 289.460938 375.007812 319.894531 375.007812 C 350.332031 375.007812 375.007812 350.332031 375.007812 319.894531 C 375.007812 289.460938 350.332031 264.785156 319.894531 264.785156 Z M 359.464844 330.359375 L 330.359375 330.359375 L 330.359375 359.464844 C 330.359375 360.429688 329.574219 361.214844 328.609375 361.214844 L 311.183594 361.214844 C 310.214844 361.214844 309.4375 360.429688 309.4375 359.464844 L 309.4375 330.359375 L 280.328125 330.359375 C 279.363281 330.359375 278.578125 329.574219 278.578125 328.609375 L 278.578125 311.183594 C 278.578125 310.214844 279.363281 309.4375 280.328125 309.4375 L 309.433594 309.4375 L 309.433594 280.328125 C 309.433594 279.363281 310.214844 278.578125 311.183594 278.578125 L 328.609375 278.578125 C 329.574219 278.578125 330.351562 279.363281 330.351562 280.328125 L 330.351562 309.433594 L 359.464844 309.433594 C 360.429688 309.433594 361.214844 310.214844 361.214844 311.183594 L 361.214844 328.609375 C 361.214844 329.574219 360.429688 330.359375 359.464844 330.359375 Z M 359.464844 330.359375"/></g><g clip-path="url(#c)"><path fill="#FFF" d="M 130.078125 203.984375 L 129.289062 212.613281 C 128.851562 217.742188 131.386719 234.65625 127.894531 238.988281 C 117.617188 251.730469 84.429688 249.585938 83.625 228.671875 C 81.738281 201.9375 77.871094 163.324219 81.410156 136.589844 C 81.894531 133.40625 84.496094 123.183594 87.3125 121.121094 C 88.882812 119.972656 99.457031 118.574219 101.332031 118.175781 C 103.757812 121.605469 109.527344 130.027344 118.308594 130.027344 C 128.59375 130.027344 136.035156 121.777344 136.746094 117.4375 C 141.773438 117.488281 149.476562 117.34375 154.453125 117.4375 C 154.453125 117.429688 167.734375 116.710938 167.734375 116.703125 C 172.082031 116.789062 180.601562 116.417969 183.96875 115.964844 C 192.125 114.878906 190.992188 110.296875 194.296875 103.441406 C 197.433594 96.949219 225.5625 98.753906 226.761719 101.96875 C 228.644531 107.023438 230.707031 119.425781 236.351562 118.910156 C 244.46875 118.175781 245.988281 118.144531 248.894531 118.175781 C 257.898438 118.171875 269.503906 116.105469 277.671875 119.648438 C 284.238281 122.503906 291.453125 135.363281 291.691406 141.746094 C 293.128906 170.652344 295.6875 202.601562 294.640625 231.621094 C 294.457031 235.476562 294.132812 237.25 291.691406 240.460938 C 289.121094 243.835938 275.511719 243.558594 271.648438 243.75 C 261.171875 244.1875 142.324219 244.742188 141.929688 251.441406 C 144.089844 254.675781 262.039062 256.011719 271.992188 256.097656 C 292.972656 256.011719 306.542969 246.796875 308.277344 227.175781 C 310.691406 196.796875 308.199219 169.375 308.910156 139.792969 C 309.269531 117.851562 291.761719 106.433594 269.894531 103.703125 C 261.253906 102.671875 252.792969 102.257812 244.175781 102.0625 C 236.90625 101.894531 242.105469 104.535156 240.652344 100.292969 C 238.90625 95.191406 236.542969 90.183594 231.605469 87.414062 C 228.984375 86.003906 226.785156 85.46875 223.8125 85.40625 C 214.203125 85.351562 204.738281 85.753906 195.179688 85.734375 C 180.957031 85.859375 177.6875 100.773438 175.351562 103.011719 C 175.925781 102.042969 177.855469 101.625 178.886719 101.5625 C 178.886719 101.5625 178.3125 101.582031 178.03125 101.597656 C 169.761719 101.554688 161.453125 101.265625 153.179688 101.101562 C 153.179688 101.082031 153.179688 101.0625 153.179688 101.042969 C 137.820312 100.746094 109.726562 99.839844 94.792969 103.1875 C 77.886719 106.976562 71.089844 117.65625 68.589844 134.054688 C 64.730469 163.160156 68.246094 190.597656 70.292969 219.542969 C 70.957031 229.582031 71.640625 241.015625 79.363281 248.421875 C 87.074219 255.816406 98.613281 255.953125 108.671875 255.734375 C 116.46875 255.5625 124.089844 254.667969 130.972656 250.722656 C 130.960938 250.707031 130.953125 250.6875 130.941406 250.671875 C 146.179688 241.46875 144.167969 225.148438 145.890625 209.773438 C 146.863281 201.101562 147.507812 192.660156 149.070312 184.035156 C 156.285156 144.164062 204.101562 127.640625 237.105469 148.40625 C 252.734375 158.238281 259.28125 177.929688 256 195.59375 C 254.515625 203.027344 252.292969 208.421875 248.289062 214.863281 C 234.242188 236.667969 195.835938 239.691406 178.097656 222.679688 C 171.71875 216.269531 168.101562 210.480469 165.867188 201.707031 C 163.5625 190.46875 164.914062 178.207031 171.25 168.714844 C 177.53125 159.308594 188.730469 152.617188 200.128906 151.539062 C 189.390625 146.65625 174.230469 153.757812 165.820312 164.421875 C 157.089844 175.5 155.34375 190.484375 157.175781 203.382812 C 159.179688 214.316406 164.730469 219.699219 172.160156 227.9375 C 193.945312 251.132812 237.890625 248.078125 257.011719 219.097656 C 270.226562 199.074219 271.046875 174.378906 257.75 152.796875 C 253.105469 145.511719 249.34375 142.292969 242.253906 137.328125 C 222.078125 123.722656 203.488281 124.335938 181.015625 131.433594 C 142.804688 143.511719 133.628906 169.058594 130.078125 203.984375 Z M 207.660156 161.742188 C 216.8125 161.742188 225.097656 165.433594 231.109375 171.40625 C 231.789062 172.085938 233.867188 175.996094 233.253906 176.734375 C 232.089844 178.125 225.800781 169.027344 212.324219 169.027344 C 196.578125 169.027344 183.808594 181.773438 183.808594 197.5 C 183.808594 207.503906 188.976562 216.300781 196.785156 221.378906 C 199.921875 223.417969 208.816406 225.023438 208.273438 225.6875 C 205.777344 228.730469 198.421875 226.976562 195.144531 225.648438 C 183 220.714844 174.4375 208.808594 174.4375 194.910156 C 174.4375 176.59375 189.3125 161.742188 207.660156 161.742188 Z M 207.660156 161.742188"/></g></svg>