<svg xmlns="http://www.w3.org/2000/svg" width="375" viewBox="0 0 375 375" height="375" version="1.0"><path fill="#FFF" d="M 215.910156 105.113281 C 215.910156 112.941406 209.53125 119.316406 201.703125 119.316406 L 173.296875 119.316406 C 165.46875 119.316406 159.089844 112.941406 159.089844 105.113281 L 159.089844 90.910156 C 159.089844 83.082031 165.46875 76.703125 173.296875 76.703125 L 201.703125 76.703125 C 209.53125 76.703125 215.910156 83.082031 215.910156 90.910156 Z M 215.910156 105.113281"/><path fill="#FFF" d="M 233.507812 119.316406 C 233.507812 119.316406 308.464844 86.535156 285.3125 58.421875 C 275.527344 46.535156 267.472656 44.203125 254.574219 52.570312 C 233.550781 66.191406 201.703125 90.910156 201.703125 90.910156 C 201.703125 90.910156 233.410156 51.777344 260.824219 17.414062 C 270.214844 5.640625 285.554688 0.171875 304.089844 18.707031 C 370.683594 85.285156 279.277344 119.316406 264.589844 119.316406 Z M 233.507812 119.316406"/><path fill="#FFF" d="M 141.492188 119.316406 C 141.492188 119.316406 66.535156 86.535156 89.6875 58.421875 C 99.472656 46.535156 107.527344 44.203125 120.425781 52.570312 C 141.449219 66.191406 173.296875 90.910156 173.296875 90.910156 C 173.296875 90.910156 141.589844 51.777344 114.175781 17.414062 C 104.785156 5.640625 89.445312 0.171875 70.910156 18.707031 C 4.316406 85.285156 95.722656 119.316406 110.410156 119.316406 Z M 141.492188 119.316406"/><path fill="#FFF" d="M 159.089844 218.75 L 59.660156 218.75 C 51.832031 218.75 45.453125 225.128906 45.453125 232.953125 L 45.453125 360.796875 C 45.453125 368.621094 51.832031 375 59.660156 375 L 159.089844 375 Z M 159.089844 218.75"/><path fill="#FFF" d="M 159.089844 133.523438 L 31.25 133.523438 C 23.421875 133.523438 17.046875 139.902344 17.046875 147.726562 L 17.046875 190.339844 C 17.046875 198.167969 23.421875 204.546875 31.25 204.546875 L 159.089844 204.546875 Z M 159.089844 133.523438"/><path fill="#FFF" d="M 343.75 133.523438 L 215.910156 133.523438 L 215.910156 204.546875 L 343.75 204.546875 C 351.578125 204.546875 357.953125 198.167969 357.953125 190.339844 L 357.953125 147.726562 C 357.953125 139.902344 351.578125 133.523438 343.75 133.523438 Z M 343.75 133.523438"/><path fill="#FFF" d="M 315.339844 218.75 L 215.910156 218.75 L 215.910156 375 L 315.339844 375 C 323.167969 375 329.546875 368.621094 329.546875 360.796875 L 329.546875 232.953125 C 329.546875 225.128906 323.167969 218.75 315.339844 218.75 Z M 315.339844 218.75"/><path fill="#FFF" d="M 102.273438 133.523438 L 258.523438 133.523438 L 258.523438 147.726562 L 102.273438 147.726562 Z M 102.273438 133.523438"/><path fill="#FFF" d="M 102.273438 218.75 L 258.523438 218.75 L 258.523438 232.953125 L 102.273438 232.953125 Z M 102.273438 218.75"/></svg>