<svg xmlns="http://www.w3.org/2000/svg" width="375" viewBox="0 0 375 375" height="375" version="1.0"><defs><clipPath id="a"><path d="M 60.460938 192 L 145 192 L 145 270 L 60.460938 270 Z M 60.460938 192"/></clipPath><clipPath id="b"><path d="M 104 143 L 314.710938 143 L 314.710938 270 L 104 270 Z M 104 143"/></clipPath><clipPath id="c"><path d="M 187 37.5 L 283 37.5 L 283 186 L 187 186 Z M 187 37.5"/></clipPath></defs><path fill="#404040" d="M 201.265625 239.976562 L 183.878906 229.566406 L 179.179688 236.617188 L 196.566406 247.023438 Z M 201.265625 239.976562"/><path fill="#404040" d="M 222 188.804688 C 221.863281 188.59375 221.671875 188.433594 221.535156 188.214844 C 216.714844 180.066406 207.335938 163.757812 198.503906 146.109375 C 197.613281 144.3125 195.769531 143.183594 193.769531 143.183594 L 152.515625 143.183594 Z M 222 188.804688"/><path fill="#404040" d="M 309.855469 246.484375 L 291.230469 178.34375 L 263.667969 216.164062 Z M 309.855469 246.484375"/><path fill="#404040" d="M 254.8125 210.351562 L 287.660156 165.28125 L 282.683594 147.082031 C 282.046875 144.777344 279.074219 143.183594 276.679688 143.183594 C 274.679688 143.183594 272.835938 144.3125 271.945312 146.109375 C 263.117188 163.757812 253.722656 180.066406 248.917969 188.214844 C 246.066406 193.03125 240.828125 196.023438 235.234375 196.023438 C 234.28125 196.023438 233.363281 195.820312 232.441406 195.652344 Z M 254.8125 210.351562"/><g clip-path="url(#a)"><path fill="#404040" d="M 144.691406 235.484375 L 80.054688 192.484375 L 60.699219 263.332031 C 60.265625 264.917969 60.605469 266.617188 61.601562 267.929688 C 62.605469 269.238281 64.164062 270 65.804688 270 L 118.746094 270 Z M 144.691406 235.484375"/></g><path fill="#404040" d="M 275.980469 270 L 179.984375 206.125 L 131.984375 270 Z M 177.875 219.515625 C 179.433594 217.167969 182.554688 216.453125 185.003906 217.921875 L 211.472656 233.773438 C 212.714844 234.511719 213.601562 235.738281 213.910156 237.144531 C 214.226562 238.558594 213.953125 240.027344 213.148438 241.234375 L 202.558594 257.085938 C 201.550781 258.597656 199.878906 259.433594 198.164062 259.433594 C 197.242188 259.433594 196.300781 259.1875 195.441406 258.683594 L 168.972656 242.828125 C 167.730469 242.089844 166.84375 240.863281 166.535156 239.457031 C 166.21875 238.042969 166.492188 236.574219 167.296875 235.367188 Z M 177.875 219.515625"/><g clip-path="url(#b)"><path fill="#404040" d="M 314.070312 261.90625 L 133.265625 143.183594 L 104.472656 143.183594 L 295.074219 270 L 309.355469 270 C 311.007812 270 312.566406 269.230469 313.5625 267.929688 C 314.554688 266.617188 314.894531 264.917969 314.460938 263.332031 Z M 314.070312 261.90625"/></g><path fill="#404040" d="M 82.988281 181.734375 L 151.054688 227.019531 L 171.164062 200.261719 L 92.277344 147.769531 Z M 82.988281 181.734375"/><g clip-path="url(#c)"><path fill="#404040" d="M 235.226562 37.5 C 208.953125 37.5 187.574219 58.835938 187.574219 85.058594 C 187.574219 109.140625 226.257812 175.382812 230.660156 182.855469 C 231.613281 184.460938 233.339844 185.453125 235.226562 185.453125 C 237.109375 185.453125 238.835938 184.460938 239.789062 182.855469 C 244.203125 175.382812 282.875 109.140625 282.875 85.058594 C 282.875 58.835938 261.496094 37.5 235.226562 37.5 Z M 235.226562 100.910156 C 226.46875 100.910156 219.339844 93.796875 219.339844 85.058594 C 219.339844 76.316406 226.46875 69.203125 235.226562 69.203125 C 243.980469 69.203125 251.109375 76.316406 251.109375 85.058594 C 251.109375 93.796875 243.980469 100.910156 235.226562 100.910156 Z M 235.226562 100.910156"/></g><path fill="#404040" d="M 187.5 18.75 C 280.554688 18.75 356.25 94.445312 356.25 187.5 C 356.25 280.554688 280.554688 356.25 187.5 356.25 C 94.445312 356.25 18.75 280.554688 18.75 187.5 C 18.75 94.445312 94.445312 18.75 187.5 18.75 M 187.5 0 C 83.945312 0 0 83.945312 0 187.5 C 0 291.054688 83.945312 375 187.5 375 C 291.054688 375 375 291.054688 375 187.5 C 375 83.945312 291.054688 0 187.5 0 Z M 187.5 0"/></svg>