<svg xmlns="http://www.w3.org/2000/svg" width="375" viewBox="0 0 375 375" height="375" version="1.0"><defs><clipPath id="a"><path d="M 12 345 L 292 345 L 292 374.648438 L 12 374.648438 Z M 12 345"/></clipPath><clipPath id="b"><path d="M 12 342.664062 L 332.121094 342.664062 L 332.121094 352 L 12 352 Z M 12 342.664062"/></clipPath><clipPath id="c"><path d="M 16 342.664062 L 29 342.664062 L 29 346 L 16 346 Z M 16 342.664062"/></clipPath><clipPath id="d"><path d="M 41.046875 195 L 169 195 L 169 319 L 41.046875 319 Z M 41.046875 195"/></clipPath><clipPath id="e"><path d="M 41.046875 292 L 70 292 L 70 319 L 41.046875 319 Z M 41.046875 292"/></clipPath><clipPath id="f"><path d="M 11.539062 310 L 49 310 L 49 348.023438 L 11.539062 348.023438 Z M 11.539062 310"/></clipPath><clipPath id="g"><path d="M 41 289.390625 L 70 289.390625 L 70 318 L 41 318 Z M 41 289.390625"/></clipPath></defs><g clip-path="url(#a)"><path fill="#001F38" d="M 41.933594 375.363281 C 35.863281 375.363281 30.46875 374.28125 25.777344 372.109375 C 15.128906 367.183594 12.285156 358.414062 12.167969 358.042969 C 11.746094 356.683594 12.503906 355.230469 13.863281 354.804688 C 15.214844 354.378906 16.664062 355.132812 17.09375 356.488281 C 17.207031 356.824219 19.519531 363.578125 28.082031 367.476562 C 38.804688 372.355469 54.816406 370.523438 74.382812 362.171875 C 126.773438 339.820312 143.789062 342.132812 160.164062 355.253906 C 174.296875 366.570312 179.824219 366.652344 207.832031 362 C 211.21875 361.441406 214.671875 360.84375 218.109375 360.242188 C 244.253906 355.703125 260.511719 353.207031 265.167969 358.894531 C 266.167969 360.113281 267.09375 362.25 265.835938 365.488281 C 265.398438 366.628906 265.351562 367.21875 265.363281 367.457031 C 267.207031 368.234375 274.695312 365.871094 278.761719 364.589844 C 282.191406 363.507812 285.433594 362.488281 288.085938 362.007812 C 289.488281 361.75 290.835938 362.6875 291.089844 364.09375 C 291.34375 365.5 290.410156 366.84375 289.003906 367.097656 C 286.671875 367.523438 283.582031 368.496094 280.308594 369.523438 C 271.957031 372.152344 264.742188 374.425781 261.515625 370.976562 C 259.949219 369.300781 259.78125 366.828125 261.023438 363.617188 C 261.152344 363.285156 261.425781 362.480469 261.175781 362.167969 C 258.191406 358.53125 234.601562 362.625 218.988281 365.339844 C 215.539062 365.941406 212.078125 366.539062 208.675781 367.101562 C 181.109375 371.679688 173.230469 372.34375 156.941406 359.292969 C 142.195312 347.476562 126.382812 345.613281 76.40625 366.929688 C 63.238281 372.546875 51.710938 375.363281 41.933594 375.363281"/></g><g clip-path="url(#b)"><path fill="#001F38" d="M 319.1875 27.414062 L 317.027344 32.742188 L 299.652344 30.222656 C 298.515625 30.058594 297.425781 30.652344 296.9375 31.6875 C 296.457031 32.710938 296.707031 33.9375 297.546875 34.703125 L 306.511719 42.785156 C 298.4375 49.890625 270.902344 74.191406 264.449219 80.683594 L 257.890625 87.269531 L 235.964844 84.433594 C 234.769531 84.292969 233.613281 84.992188 233.199219 86.128906 C 232.789062 87.269531 233.230469 88.550781 234.261719 89.195312 L 244.460938 95.617188 C 236.613281 104.027344 210.078125 132.511719 205.296875 138.484375 C 200.738281 144.203125 192.4375 154.226562 189.855469 157.339844 L 164.410156 156.992188 L 164.371094 156.992188 C 163.167969 156.992188 162.113281 157.847656 161.847656 159.03125 C 161.589844 160.230469 162.199219 161.445312 163.332031 161.941406 L 177.246094 168.148438 C 172.082031 177.714844 152.1875 213.113281 131.996094 229.101562 C 117.097656 240.898438 95.933594 245.027344 82.742188 246.472656 C 87.089844 239.960938 91.902344 233.007812 97.226562 225.636719 C 168.847656 126.410156 264.191406 40.929688 265.148438 40.074219 C 266.160156 39.167969 266.300781 37.644531 265.480469 36.570312 C 264.65625 35.492188 263.148438 35.226562 262.011719 35.976562 C 261.085938 36.589844 170.085938 97.285156 69.75 230.960938 C 68.910156 222.121094 68.910156 211.226562 71.761719 201.105469 C 76.683594 183.613281 93.027344 157.089844 100.082031 146.117188 L 103.542969 161.015625 C 103.808594 162.183594 104.859375 163.015625 106.054688 163.015625 L 106.105469 163.015625 C 107.324219 162.988281 108.371094 162.105469 108.585938 160.910156 L 113.664062 134.082031 C 118.1875 128.824219 155.148438 85.9375 164.503906 76.183594 C 171.414062 68.960938 181.277344 59.28125 186.691406 54.015625 L 187.78125 67.609375 C 187.875 68.828125 188.804688 69.804688 190.003906 69.96875 C 191.210938 70.140625 192.355469 69.433594 192.777344 68.292969 L 203.464844 38.832031 C 209.171875 34.859375 250.179688 6.621094 275.554688 -4 C 280.160156 1.078125 281.175781 8.152344 281.183594 8.21875 C 281.367188 9.609375 282.617188 10.59375 284.007812 10.449219 C 285.390625 10.316406 286.414062 9.097656 286.316406 7.710938 C 286.132812 4.859375 285.945312 -2.667969 286.960938 -6.871094 C 288.878906 -7.011719 290.886719 -7.09375 292.933594 -7.09375 C 307.738281 -7.09375 322.046875 -3.25 327.4375 -1.636719 C 325.863281 4.65625 321.480469 21.761719 319.1875 27.414062 Z M 76.15625 247.035156 C 74.960938 248.855469 73.808594 250.636719 72.6875 252.386719 C 70.246094 256.183594 67.976562 259.8125 65.863281 263.285156 L 57.539062 256.96875 C 60.53125 252.4375 63.324219 248.355469 65.726562 245.070312 C 65.964844 244.746094 66.203125 244.421875 66.445312 244.09375 C 67.859375 242.160156 69.285156 240.246094 70.699219 238.34375 C 130.570312 157.769531 187.375 103.335938 223.894531 72.246094 C 189.203125 106.640625 136.726562 162.078125 93.035156 222.613281 C 86.730469 231.359375 81.128906 239.5 76.15625 247.035156 Z M 38.105469 321.480469 C 30.21875 327.425781 25.542969 332.894531 20.152344 339.1875 C 19.300781 340.171875 18.441406 341.175781 17.554688 342.199219 C 17.933594 333.132812 18.328125 325.195312 21.84375 314.96875 C 23.09375 312.84375 33.082031 295.855469 43.984375 278.265625 L 53.648438 284.699219 C 42.351562 306.054688 38.9375 318.023438 38.105469 321.480469 Z M 331.375 -5.808594 C 330.609375 -6.074219 312.507812 -12.261719 292.933594 -12.261719 C 290.109375 -12.261719 287.371094 -12.125 284.769531 -11.867188 C 283.824219 -11.773438 283.007812 -11.167969 282.636719 -10.289062 C 282.035156 -8.84375 281.652344 -6.9375 281.402344 -4.90625 C 280.429688 -6.324219 279.273438 -7.707031 277.90625 -8.957031 C 277.167969 -9.621094 276.128906 -9.8125 275.210938 -9.449219 C 247.671875 1.554688 201.773438 33.699219 199.832031 35.054688 C 199.402344 35.363281 199.066406 35.792969 198.886719 36.292969 L 191.976562 55.359375 L 191.394531 48.136719 C 191.316406 47.140625 190.664062 46.28125 189.738281 45.925781 C 188.804688 45.570312 187.75 45.785156 187.03125 46.480469 C 186.871094 46.632812 170.785156 62.164062 160.777344 72.601562 C 150.757812 83.046875 110.988281 129.265625 109.296875 131.226562 C 108.996094 131.570312 108.800781 131.996094 108.714844 132.4375 L 105.796875 147.898438 L 103.742188 139.058594 C 103.511719 138.066406 102.710938 137.285156 101.699219 137.109375 C 100.683594 136.917969 99.671875 137.347656 99.089844 138.199219 C 98.046875 139.75 73.328125 176.488281 66.792969 199.699219 C 63.054688 212.941406 63.808594 227.042969 65.230469 237.03125 C 64.007812 238.675781 62.785156 240.332031 61.558594 242.007812 C 46.773438 262.214844 17.554688 312.070312 17.265625 312.574219 C 17.179688 312.722656 17.105469 312.875 17.058594 313.027344 C 13.136719 324.285156 12.785156 332.730469 12.371094 342.496094 C 12.285156 344.644531 12.191406 346.855469 12.058594 349.191406 C 11.992188 350.273438 12.621094 351.285156 13.613281 351.71875 C 13.949219 351.855469 14.292969 351.929688 14.636719 351.929688 C 15.335938 351.929688 16.023438 351.640625 16.519531 351.105469 C 19.367188 348.042969 21.757812 345.257812 24.074219 342.546875 C 29.433594 336.296875 34.0625 330.894531 41.957031 325.0625 C 42.472656 324.679688 42.835938 324.105469 42.957031 323.460938 C 43.007812 323.203125 47.761719 300.167969 79.070312 252.042969 C 92.261719 251.019531 117.449219 247.21875 135.195312 233.164062 C 159.429688 213.976562 182.167969 169.957031 183.125 168.089844 C 183.449219 167.460938 183.496094 166.722656 183.257812 166.054688 C 183.019531 165.382812 182.523438 164.835938 181.871094 164.550781 L 176.910156 162.335938 L 191.007812 162.53125 C 191.8125 162.554688 192.527344 162.191406 193.027344 161.597656 C 193.140625 161.464844 203.875 148.546875 209.335938 141.722656 C 214.707031 134.992188 250.015625 97.25 250.367188 96.863281 C 250.894531 96.296875 251.140625 95.53125 251.046875 94.769531 C 250.953125 94 250.511719 93.320312 249.859375 92.910156 L 246.945312 91.070312 L 258.492188 92.566406 C 259.296875 92.660156 260.085938 92.394531 260.652344 91.816406 L 268.109375 84.328125 C 275.410156 76.988281 311.734375 45.074219 312.09375 44.746094 C 312.652344 44.261719 312.976562 43.5625 312.976562 42.824219 C 312.984375 42.085938 312.671875 41.378906 312.125 40.878906 L 307.328125 36.558594 L 318.289062 38.148438 C 319.476562 38.3125 320.605469 37.664062 321.050781 36.558594 L 323.96875 29.359375 C 326.929688 22.074219 332.792969 -1.738281 333.039062 -2.753906 C 333.355469 -4.046875 332.636719 -5.378906 331.375 -5.808594"/></g><g clip-path="url(#c)"><path fill="#001F38" d="M 25.765625 319.550781 C 25.765625 319.550781 22.019531 326.253906 19.949219 332.476562 C 17.878906 338.699219 16.367188 345.640625 16.367188 345.640625 C 16.367188 345.640625 25.234375 326.503906 25.925781 325.296875 C 27.199219 323.0625 28.792969 320.988281 28.792969 320.988281 L 25.765625 319.550781"/></g><path fill="#FFF" d="M 340.726562 27.277344 C 317.433594 3.949219 288.476562 14.25 265.59375 32.054688 C 257.34375 38.472656 197.722656 94.664062 200.382812 96.917969 L 217.566406 111.402344 L 197.464844 100.449219 C 152.082031 155.496094 108.003906 225.308594 112.519531 247.445312 C 112.519531 247.445312 146.414062 261.277344 195.15625 227.863281 C 198.285156 225.71875 202.097656 222.933594 206.492188 219.617188 L 189.414062 202.042969 L 212.003906 215.386719 C 241.527344 192.472656 290.890625 150.21875 335.984375 106.289062 C 336.941406 105.46875 337.871094 104.601562 338.78125 103.703125 C 339.433594 103.035156 340.085938 102.351562 340.710938 101.648438 C 343.917969 98.515625 347.09375 95.382812 350.222656 92.230469 C 350.222656 92.230469 350.207031 92.214844 350.191406 92.171875 L 348.613281 90.589844 C 359.976562 69.910156 357.484375 44.074219 340.726562 27.277344"/><path stroke-linecap="round" transform="matrix(.15194 0 0 -.15216 -123.044 488.186)" fill="none" stroke-linejoin="round" d="M 3052.404003 3029.190783 C 2899.096354 3182.508081 2708.509467 3114.8092 2557.901348 2997.793084 C 2503.602211 2955.612856 2111.193247 2586.311225 2128.701634 2571.498083 L 2241.799126 2476.303753 L 2109.496399 2548.289973 C 1810.799724 2186.510439 1520.690129 1727.688142 1550.41068 1582.201013 C 1550.41068 1582.201013 1773.494777 1491.294022 2094.301896 1710.898203 C 2114.895461 1724.992509 2139.988244 1743.297137 2168.91179 1765.09325 L 2056.508462 1880.594677 L 2205.188344 1792.896772 C 2399.503155 1943.492765 2724.398135 2221.194242 3021.192283 2509.909303 C 3027.491189 2515.300567 3033.610125 2520.999904 3039.600513 2526.904623 C 3043.894053 2531.294652 3048.187593 2535.787373 3052.301164 2540.408457 C 3073.408925 2560.997954 3094.311008 2581.58745 3114.904572 2602.30531 C 3114.904572 2602.30531 3114.801733 2602.408001 3114.698894 2602.690401 L 3104.312127 2613.08784 C 3179.10199 2748.999055 3162.699126 2918.79822 3052.404003 3029.190783 Z M 3052.404003 3029.190783" stroke="#25272E" stroke-width="40" stroke-miterlimit="10"/><path fill="#FFF" d="M 44.375 315.65625 C 44.375 315.65625 106.320312 261.230469 165.832031 206.394531 L 157.75 198.070312 C 105.453125 249.972656 53.339844 304.277344 44.375 315.65625"/><g clip-path="url(#d)"><path stroke-linecap="round" transform="matrix(.15194 0 0 -.15216 -123.044 488.186)" fill="none" stroke-linejoin="round" d="M 1101.902891 1133.904518 C 1101.902891 1133.904518 1509.609197 1491.602094 1901.298286 1851.995302 L 1848.104671 1906.703802 C 1503.901617 1565.590783 1160.906925 1208.689061 1101.902891 1133.904518 Z M 1101.902891 1133.904518" stroke="#25272E" stroke-width="40" stroke-miterlimit="10"/></g><path fill="#FFF" d="M 181.328125 174.851562 C 180.753906 175.398438 180.207031 175.949219 179.628906 176.511719 C 179.324219 176.800781 179.019531 177.105469 178.714844 177.394531 C 178.125 177.972656 177.515625 178.566406 176.921875 179.144531 C 176.679688 179.386719 176.40625 179.644531 176.164062 179.902344 C 175.539062 180.511719 174.917969 181.121094 174.28125 181.730469 C 174.035156 181.988281 173.777344 182.230469 173.535156 182.476562 C 172.925781 183.082031 172.304688 183.691406 171.683594 184.300781 C 171.410156 184.558594 171.148438 184.816406 170.875 185.0625 C 170.207031 185.746094 169.523438 186.414062 168.839844 187.085938 L 168.339844 187.585938 C 167.609375 188.300781 166.867188 189.03125 166.121094 189.761719 C 165.984375 189.914062 165.832031 190.050781 165.679688 190.203125 C 164.890625 190.996094 164.085938 191.773438 163.296875 192.5625 L 163.066406 192.792969 C 162.1875 193.660156 161.304688 194.527344 160.421875 195.40625 C 159.527344 196.289062 158.628906 197.171875 157.75 198.070312 L 165.832031 206.394531 C 174.507812 198.421875 183.109375 190.433594 191.464844 182.597656 C 191.496094 182.582031 191.523438 182.550781 191.539062 182.535156 C 192.300781 181.820312 193.042969 181.121094 193.804688 180.421875 C 193.894531 180.328125 193.984375 180.238281 194.09375 180.148438 C 194.777344 179.507812 195.445312 178.867188 196.113281 178.230469 C 196.296875 178.078125 196.460938 177.910156 196.628906 177.757812 C 197.269531 177.148438 197.921875 176.554688 198.558594 175.949219 C 198.757812 175.75 198.953125 175.582031 199.152344 175.382812 C 199.746094 174.820312 200.335938 174.273438 200.929688 173.710938 C 201.171875 173.46875 201.414062 173.238281 201.660156 173.011719 C 202.234375 172.476562 202.78125 171.945312 203.34375 171.429688 C 203.605469 171.167969 203.878906 170.925781 204.136719 170.667969 C 204.699219 170.136719 205.257812 169.601562 205.820312 169.085938 C 206.082031 168.839844 206.308594 168.613281 206.566406 168.386719 C 207.113281 167.867188 207.644531 167.351562 208.191406 166.832031 C 208.464844 166.558594 208.738281 166.300781 209.011719 166.042969 C 209.542969 165.539062 210.089844 165.023438 210.625 164.519531 C 210.867188 164.277344 211.125 164.035156 211.382812 163.789062 C 211.898438 163.304688 212.414062 162.800781 212.933594 162.3125 C 213.222656 162.023438 213.523438 161.75 213.8125 161.460938 C 214.300781 160.992188 214.800781 160.519531 215.289062 160.046875 C 215.5625 159.789062 215.851562 159.515625 216.125 159.257812 C 216.609375 158.785156 217.109375 158.296875 217.613281 157.808594 C 217.886719 157.535156 218.191406 157.277344 218.464844 157.003906 C 218.949219 156.546875 219.421875 156.074219 219.90625 155.605469 L 220.726562 154.828125 C 221.214844 154.355469 221.683594 153.898438 222.171875 153.429688 C 222.445312 153.167969 222.71875 152.894531 223.007812 152.605469 C 223.460938 152.164062 223.933594 151.722656 224.386719 151.269531 C 224.675781 150.992188 224.949219 150.71875 225.238281 150.445312 C 225.695312 150.003906 226.136719 149.578125 226.589844 149.121094 C 226.863281 148.847656 227.152344 148.589844 227.425781 148.316406 C 227.882812 147.875 228.324219 147.449219 228.765625 147.023438 L 229.570312 146.214844 C 230.023438 145.773438 230.464844 145.347656 230.90625 144.90625 C 231.164062 144.648438 231.421875 144.40625 231.679688 144.160156 C 232.121094 143.722656 232.5625 143.28125 233.003906 142.855469 L 233.777344 142.078125 C 234.203125 141.667969 234.628906 141.242188 235.054688 140.828125 C 235.328125 140.554688 235.585938 140.28125 235.875 140.023438 C 236.269531 139.613281 236.664062 139.230469 237.058594 138.820312 C 237.332031 138.5625 237.578125 138.304688 237.835938 138.046875 C 238.246094 137.648438 238.65625 137.238281 239.082031 136.828125 C 239.292969 136.613281 239.492188 136.402344 239.71875 136.1875 C 240.144531 135.746094 240.570312 135.320312 241.011719 134.878906 C 241.207031 134.667969 241.421875 134.46875 241.617188 134.257812 C 242.042969 133.832031 242.484375 133.40625 242.910156 132.980469 C 243.0625 132.828125 243.214844 132.675781 243.367188 132.507812 C 244.882812 130.953125 246.375 129.449219 247.816406 127.957031 L 248.289062 127.484375 C 248.621094 127.136719 248.957031 126.800781 249.277344 126.464844 C 249.519531 126.222656 249.777344 125.964844 250.019531 125.707031 C 250.324219 125.402344 250.613281 125.082031 250.917969 124.777344 C 251.175781 124.503906 251.433594 124.230469 251.691406 123.957031 C 251.996094 123.652344 252.269531 123.332031 252.574219 123.027344 C 252.816406 122.785156 253.058594 122.527344 253.300781 122.265625 C 253.574219 121.976562 253.863281 121.671875 254.152344 121.382812 C 254.378906 121.125 254.625 120.867188 254.867188 120.609375 C 255.140625 120.320312 255.414062 120.046875 255.671875 119.742188 C 255.898438 119.496094 256.144531 119.253906 256.386719 118.996094 C 256.644531 118.707031 256.886719 118.433594 257.144531 118.175781 C 257.390625 117.914062 257.617188 117.65625 257.859375 117.398438 C 258.101562 117.140625 258.332031 116.878906 258.574219 116.621094 C 258.800781 116.363281 259.046875 116.121094 259.257812 115.875 C 259.484375 115.617188 259.730469 115.359375 259.941406 115.101562 C 260.183594 114.855469 260.398438 114.628906 260.609375 114.386719 C 260.824219 114.125 261.050781 113.898438 261.261719 113.65625 C 261.476562 113.410156 261.703125 113.167969 261.902344 112.925781 C 262.113281 112.710938 262.328125 112.46875 262.523438 112.238281 C 262.738281 111.996094 262.933594 111.769531 263.132812 111.539062 C 263.328125 111.3125 263.527344 111.082031 263.726562 110.855469 C 263.921875 110.640625 264.121094 110.414062 264.300781 110.199219 C 264.5 109.972656 264.683594 109.746094 264.863281 109.53125 C 265.0625 109.320312 265.242188 109.105469 265.410156 108.890625 C 265.59375 108.679688 265.761719 108.464844 265.941406 108.269531 C 266.125 108.054688 266.292969 107.84375 266.476562 107.628906 C 266.640625 107.433594 266.792969 107.25 266.945312 107.035156 C 267.128906 106.839844 267.28125 106.625 267.460938 106.425781 C 267.597656 106.246094 267.75 106.0625 267.886719 105.863281 C 268.054688 105.683594 268.207031 105.484375 268.359375 105.285156 C 268.511719 105.105469 268.648438 104.921875 268.785156 104.753906 C 268.921875 104.554688 269.074219 104.375 269.210938 104.191406 C 269.347656 104.023438 269.46875 103.855469 269.605469 103.671875 C 269.742188 103.507812 269.863281 103.339844 269.984375 103.15625 C 270.121094 102.988281 270.226562 102.820312 270.347656 102.667969 C 270.46875 102.5 270.578125 102.335938 270.699219 102.167969 C 270.804688 102 270.910156 101.847656 271.019531 101.710938 C 271.140625 101.542969 271.230469 101.375 271.335938 101.222656 C 271.441406 101.085938 271.535156 100.949219 271.625 100.8125 C 271.714844 100.644531 271.824219 100.507812 271.914062 100.355469 C 272.003906 100.234375 272.082031 100.082031 272.15625 99.960938 C 272.25 99.824219 272.324219 99.671875 272.414062 99.550781 C 272.476562 99.429688 272.550781 99.292969 272.613281 99.183594 C 272.6875 99.046875 272.765625 98.910156 272.824219 98.789062 C 272.886719 98.683594 272.960938 98.5625 272.992188 98.453125 C 273.070312 98.332031 273.113281 98.210938 273.175781 98.089844 C 273.21875 97.996094 273.28125 97.890625 273.296875 97.785156 C 273.355469 97.679688 273.402344 97.570312 273.449219 97.449219 C 273.480469 97.359375 273.507812 97.269531 273.539062 97.191406 C 273.585938 97.070312 273.601562 96.964844 273.632812 96.855469 C 273.660156 96.796875 273.675781 96.71875 273.691406 96.644531 C 273.707031 96.539062 273.722656 96.429688 273.738281 96.339844 C 273.738281 96.277344 273.753906 96.234375 273.753906 96.171875 C 273.769531 96.019531 273.769531 95.898438 273.753906 95.761719 C 273.722656 95.640625 273.691406 95.519531 273.660156 95.425781 C 273.644531 95.394531 273.601562 95.367188 273.585938 95.335938 C 273.554688 95.273438 273.523438 95.214844 273.480469 95.152344 C 273.449219 95.136719 273.402344 95.121094 273.371094 95.09375 C 273.34375 95.046875 273.28125 95.015625 273.21875 94.984375 C 273.191406 94.96875 273.144531 94.96875 273.082031 94.941406 C 273.039062 94.925781 272.960938 94.910156 272.902344 94.878906 L 272.507812 94.878906 C 272.445312 94.878906 272.355469 94.910156 272.292969 94.910156 C 272.203125 94.925781 272.125 94.941406 272.035156 94.96875 C 271.945312 94.96875 271.851562 95 271.792969 95.015625 C 271.6875 95.046875 271.59375 95.078125 271.472656 95.121094 C 271.398438 95.136719 271.304688 95.183594 271.199219 95.199219 C 271.09375 95.242188 270.988281 95.289062 270.878906 95.351562 C 270.773438 95.382812 270.667969 95.425781 270.5625 95.488281 C 270.441406 95.53125 270.304688 95.59375 270.183594 95.65625 C 270.058594 95.699219 269.953125 95.761719 269.847656 95.808594 C 269.710938 95.898438 269.574219 95.960938 269.4375 96.035156 C 269.300781 96.109375 269.179688 96.171875 269.058594 96.234375 C 268.921875 96.324219 268.769531 96.414062 268.601562 96.492188 C 268.480469 96.582031 268.34375 96.644531 268.207031 96.734375 C 268.054688 96.839844 267.886719 96.933594 267.71875 97.023438 C 267.582031 97.117188 267.433594 97.207031 267.28125 97.296875 C 267.128906 97.417969 266.945312 97.527344 266.777344 97.632812 C 266.625 97.738281 266.476562 97.832031 266.324219 97.9375 C 266.125 98.058594 265.941406 98.195312 265.761719 98.316406 C 265.59375 98.425781 265.441406 98.53125 265.273438 98.652344 C 265.078125 98.773438 264.878906 98.925781 264.667969 99.078125 C 264.515625 99.183594 264.347656 99.304688 264.164062 99.429688 L 263.527344 99.886719 C 263.359375 100.023438 263.191406 100.128906 263.011719 100.28125 C 262.796875 100.433594 262.554688 100.601562 262.328125 100.78125 C 262.144531 100.917969 261.960938 101.054688 261.78125 101.179688 C 261.550781 101.375 261.292969 101.558594 261.050781 101.742188 C 260.882812 101.894531 260.703125 102.015625 260.503906 102.167969 C 260.246094 102.363281 259.988281 102.578125 259.699219 102.789062 C 259.53125 102.929688 259.363281 103.066406 259.167969 103.203125 C 258.894531 103.414062 258.605469 103.660156 258.316406 103.886719 C 258.132812 104.023438 257.964844 104.175781 257.769531 104.3125 C 257.464844 104.570312 257.128906 104.84375 256.796875 105.105469 C 256.644531 105.226562 256.492188 105.363281 256.339844 105.484375 C 255.351562 106.273438 254.335938 107.113281 253.285156 107.980469 C 253.105469 108.148438 252.921875 108.285156 252.753906 108.4375 C 252.40625 108.742188 252.054688 109.03125 251.691406 109.332031 C 251.464844 109.53125 251.25 109.699219 251.023438 109.898438 C 250.6875 110.171875 250.355469 110.460938 250.019531 110.75 C 249.792969 110.945312 249.578125 111.128906 249.351562 111.3125 C 249.003906 111.617188 248.667969 111.890625 248.332031 112.195312 C 248.074219 112.40625 247.832031 112.621094 247.589844 112.847656 C 247.238281 113.121094 246.921875 113.425781 246.585938 113.699219 C 246.328125 113.929688 246.054688 114.171875 245.78125 114.386719 C 245.460938 114.691406 245.128906 114.980469 244.792969 115.269531 C 244.519531 115.511719 244.246094 115.738281 243.972656 116 C 243.640625 116.289062 243.289062 116.589844 242.953125 116.878906 C 242.667969 117.140625 242.394531 117.382812 242.121094 117.625 C 241.769531 117.929688 241.421875 118.234375 241.070312 118.554688 C 240.78125 118.796875 240.492188 119.070312 240.191406 119.316406 C 239.839844 119.632812 239.507812 119.953125 239.140625 120.257812 C 238.851562 120.515625 238.5625 120.777344 238.277344 121.050781 C 237.894531 121.382812 237.53125 121.703125 237.152344 122.054688 C 236.878906 122.296875 236.589844 122.554688 236.316406 122.816406 C 235.921875 123.164062 235.539062 123.515625 235.160156 123.847656 C 234.855469 124.136719 234.554688 124.398438 234.25 124.671875 C 233.882812 125.003906 233.519531 125.339844 233.140625 125.691406 C 232.820312 125.964844 232.5 126.269531 232.183594 126.558594 C 231.816406 126.890625 231.4375 127.226562 231.058594 127.578125 C 230.738281 127.882812 230.40625 128.171875 230.085938 128.476562 C 229.691406 128.824219 229.3125 129.191406 228.917969 129.554688 C 228.613281 129.828125 228.292969 130.117188 227.988281 130.390625 C 227.578125 130.789062 227.136719 131.167969 226.726562 131.5625 C 226.425781 131.835938 226.121094 132.113281 225.816406 132.414062 C 225.390625 132.796875 224.964844 133.191406 224.539062 133.585938 C 224.238281 133.875 223.933594 134.148438 223.613281 134.4375 C 223.171875 134.851562 222.71875 135.261719 222.292969 135.6875 C 221.988281 135.960938 221.683594 136.234375 221.394531 136.523438 C 220.925781 136.949219 220.46875 137.359375 220.011719 137.800781 C 219.707031 138.074219 219.421875 138.351562 219.132812 138.625 C 218.613281 139.09375 218.097656 139.582031 217.597656 140.070312 C 217.355469 140.28125 217.09375 140.527344 216.867188 140.753906 C 216.261719 141.316406 215.652344 141.878906 215.058594 142.457031 C 214.878906 142.609375 214.710938 142.761719 214.542969 142.929688 C 213.875 143.554688 213.207031 144.191406 212.523438 144.832031 C 212.414062 144.9375 212.292969 145.042969 212.1875 145.167969 C 210.59375 146.65625 208.996094 148.179688 207.371094 149.730469 C 207.21875 149.867188 207.066406 150.003906 206.929688 150.15625 C 206.261719 150.78125 205.609375 151.40625 204.941406 152.027344 C 204.742188 152.226562 204.546875 152.410156 204.332031 152.605469 C 203.710938 153.214844 203.085938 153.792969 202.464844 154.417969 C 202.28125 154.585938 202.097656 154.765625 201.917969 154.933594 C 201.277344 155.558594 200.640625 156.152344 199.988281 156.777344 C 199.757812 156.988281 199.53125 157.21875 199.304688 157.445312 C 198.710938 158.007812 198.117188 158.570312 197.527344 159.148438 C 197.269531 159.394531 196.996094 159.667969 196.734375 159.910156 C 196.160156 160.457031 195.566406 161.019531 194.988281 161.582031 C 194.730469 161.828125 194.457031 162.085938 194.199219 162.34375 C 193.636719 162.890625 193.074219 163.441406 192.496094 163.988281 C 192.191406 164.277344 191.90625 164.566406 191.601562 164.855469 C 191.039062 165.386719 190.492188 165.9375 189.929688 166.484375 C 189.640625 166.757812 189.351562 167.03125 189.0625 167.320312 C 188.5 167.851562 187.9375 168.414062 187.375 168.964844 C 187.089844 169.238281 186.816406 169.511719 186.527344 169.769531 C 185.933594 170.347656 185.355469 170.925781 184.761719 171.488281 C 184.488281 171.746094 184.214844 172.023438 183.957031 172.296875 C 183.351562 172.859375 182.789062 173.4375 182.195312 174 C 181.890625 174.273438 181.617188 174.5625 181.328125 174.851562"/><path stroke-linecap="round" transform="matrix(.15194 0 0 -.15216 -123.044 488.186)" fill="none" stroke-linejoin="round" d="M 2003.289137 2059.302265 C 1999.509794 2055.708089 1995.91042 2052.08824 1992.105366 2048.391373 C 1990.1 2046.491594 1988.094635 2044.489124 1986.089269 2042.589345 C 1982.207086 2038.789787 1978.196354 2034.887538 1974.288462 2031.08798 C 1972.694453 2029.496273 1970.894766 2027.801876 1969.300757 2026.107479 C 1965.212896 2022.102539 1961.099325 2018.0976 1956.908624 2014.09266 C 1955.288906 2012.398263 1953.592058 2010.806556 1951.998049 2009.189176 C 1947.987317 2005.20991 1943.899456 2001.20497 1939.811595 1997.200031 C 1938.011908 1995.505633 1936.28935 1993.811236 1934.489662 1992.193856 C 1930.093283 1987.701136 1925.594065 1983.311106 1921.094847 1978.895403 L 1917.80399 1975.609299 C 1912.996254 1970.911197 1908.111388 1966.110404 1903.200813 1961.309612 C 1902.300969 1960.308377 1901.298286 1959.409833 1900.295603 1958.408598 C 1895.10222 1953.197042 1889.805997 1948.088177 1884.612614 1942.902294 L 1883.095735 1941.387605 C 1877.311025 1935.688268 1871.500606 1929.988931 1865.690187 1924.212576 C 1859.802639 1918.410548 1853.889381 1912.608521 1848.104671 1906.703802 L 1901.298286 1851.995302 C 1958.399794 1904.39326 2014.987105 1956.893909 2070.006117 2008.393323 C 2070.211796 2008.496014 2070.391765 2008.701395 2070.494604 2008.804086 C 2075.508018 2013.502188 2080.392884 2018.0976 2085.406299 2022.693011 C 2085.997625 2023.309155 2086.58895 2023.899627 2087.308825 2024.490099 C 2091.808044 2028.70042 2096.204423 2032.910741 2100.600802 2037.095389 C 2101.809163 2038.096624 2102.888975 2039.20055 2103.994498 2040.201785 C 2108.210908 2044.206724 2112.504448 2048.108973 2116.695148 2052.08824 C 2118.006349 2053.397547 2119.29184 2054.501473 2120.603041 2055.81078 C 2124.510933 2059.507647 2128.393116 2063.101823 2132.301008 2066.798691 C 2133.895017 2068.390397 2135.489026 2069.905086 2137.108744 2071.394102 C 2140.888088 2074.91126 2144.487462 2078.402746 2148.189676 2081.791541 C 2149.912234 2083.511611 2151.711921 2085.103318 2153.408769 2086.797715 C 2157.110983 2090.289201 2160.787487 2093.806359 2164.489701 2097.195154 C 2166.212259 2098.812534 2167.703429 2100.30155 2169.400277 2101.790566 C 2172.999651 2105.205033 2176.496187 2108.593828 2180.095561 2112.008296 C 2181.895249 2113.805384 2183.694936 2115.499782 2185.494623 2117.194179 C 2188.991159 2120.505956 2192.590533 2123.894751 2196.087069 2127.206528 C 2197.706787 2128.798234 2199.403635 2130.389941 2201.100483 2132.007321 C 2204.494179 2135.190734 2207.887875 2138.502511 2211.307281 2141.711597 C 2213.209808 2143.611376 2215.189464 2145.408464 2217.091991 2147.308243 C 2220.305718 2150.388966 2223.596575 2153.495361 2226.810302 2156.601757 C 2228.609989 2158.296154 2230.486806 2160.093242 2232.312203 2161.78764 C 2235.500221 2164.894035 2238.791078 2168.103121 2242.107644 2171.312207 C 2243.907332 2173.109296 2245.886988 2174.803693 2247.712385 2176.600781 C 2250.900402 2179.604486 2254.01129 2182.710881 2257.199308 2185.791604 L 2262.59837 2190.900469 C 2265.812097 2194.006865 2268.897275 2197.010569 2272.111003 2200.091292 C 2273.91069 2201.811362 2275.710377 2203.60845 2277.587194 2205.508229 C 2280.595243 2208.409243 2283.706131 2211.310257 2286.68847 2214.288289 C 2288.590997 2216.11105 2290.390684 2217.908138 2292.29321 2219.705226 C 2295.301259 2222.60624 2298.206469 2225.404563 2301.188808 2228.408268 C 2302.988495 2230.205356 2304.891022 2231.899753 2306.690709 2233.696842 C 2309.698758 2236.597856 2312.603967 2239.396179 2315.509177 2242.194502 L 2320.8054 2247.508748 C 2323.787739 2250.409762 2326.692948 2253.208085 2329.598158 2256.109099 C 2331.295006 2257.803497 2332.991854 2259.395203 2334.688702 2261.012583 C 2337.593911 2263.887924 2340.499121 2266.788938 2343.40433 2269.612934 L 2348.494874 2274.696126 C 2351.297245 2277.391758 2354.099615 2280.190081 2356.901985 2282.911386 C 2358.701672 2284.708475 2360.39852 2286.505563 2362.301047 2288.19996 C 2364.897739 2290.895593 2367.49443 2293.411516 2370.091122 2296.107149 C 2371.890809 2297.801546 2373.510528 2299.495944 2375.207376 2301.190341 C 2377.906907 2303.808955 2380.606438 2306.504588 2383.408808 2309.20022 C 2384.797138 2310.612218 2386.108339 2311.998543 2387.599509 2313.410541 C 2390.401879 2316.311555 2393.204249 2319.109878 2396.109459 2322.010892 C 2397.39495 2323.397217 2398.80899 2324.706524 2400.094481 2326.092849 C 2402.896851 2328.891172 2405.80206 2331.689496 2408.604431 2334.487819 C 2409.607114 2335.489054 2410.609797 2336.490288 2411.612479 2337.594214 C 2421.587889 2347.811944 2431.40904 2357.69593 2440.895963 2367.502897 L 2444.006851 2370.609292 C 2446.192186 2372.894161 2448.40323 2375.102013 2450.511435 2377.309864 C 2452.105444 2378.901571 2453.802292 2380.595968 2455.396301 2382.290366 C 2457.401667 2384.292835 2459.304193 2386.397996 2461.309559 2388.400466 C 2463.006407 2390.197554 2464.703255 2391.994642 2466.400103 2393.79173 C 2468.405469 2395.7942 2470.205156 2397.89936 2472.210522 2399.90183 C 2473.804531 2401.493537 2475.39854 2403.187934 2476.992549 2404.908005 C 2478.792236 2406.807784 2480.694763 2408.810253 2482.597289 2410.710032 C 2484.088459 2412.40443 2485.708177 2414.098827 2487.302186 2415.793225 C 2489.101873 2417.693004 2490.901561 2419.490092 2492.598409 2421.492562 C 2494.089578 2423.109941 2495.709297 2424.701648 2497.303306 2426.396045 C 2499.000154 2428.295824 2500.594162 2430.092912 2502.29101 2431.812983 C 2503.910729 2433.50738 2505.401898 2435.201778 2506.995907 2436.896175 C 2508.589916 2438.590573 2510.106795 2440.310643 2511.700804 2442.00504 C 2513.191974 2443.699438 2514.811692 2445.291144 2516.200022 2446.908524 C 2517.691192 2448.602921 2519.31091 2450.297319 2520.699241 2451.991716 C 2522.293249 2453.609096 2523.707289 2455.098112 2525.09562 2456.689818 C 2526.50966 2458.409888 2528.000829 2459.898904 2529.389159 2461.490611 C 2530.803199 2463.107991 2532.294369 2464.699697 2533.60557 2466.291404 C 2534.9939 2467.703402 2536.40794 2469.295109 2537.693431 2470.809797 C 2539.107471 2472.401504 2540.392962 2473.89052 2541.704163 2475.405209 C 2542.989653 2476.894224 2544.300854 2478.408913 2545.612055 2479.897929 C 2546.897546 2481.309927 2548.208747 2482.798943 2549.391398 2484.210941 C 2550.702599 2485.699957 2551.910961 2487.188973 2553.093612 2488.600971 C 2554.404813 2490.012969 2555.587465 2491.399294 2556.692987 2492.811292 C 2557.901348 2494.197617 2559.006871 2495.609615 2560.189522 2496.893249 C 2561.397884 2498.305247 2562.503406 2499.691572 2563.711767 2501.10357 C 2564.79158 2502.412877 2565.794263 2503.593821 2566.796946 2505.005819 C 2568.005307 2506.289453 2569.00799 2507.701451 2570.190642 2509.010758 C 2571.090485 2510.191702 2572.093168 2511.398318 2572.993012 2512.707626 C 2574.098534 2513.888569 2575.101217 2515.197876 2576.1039 2516.507184 C 2577.106583 2517.688127 2578.006427 2518.894744 2578.90627 2519.998669 C 2579.806114 2521.307976 2580.808797 2522.48892 2581.708641 2523.695537 C 2582.608484 2524.799462 2583.405489 2525.903388 2584.305332 2527.110004 C 2585.205176 2528.188257 2586.00218 2529.292183 2586.799185 2530.498799 C 2587.699028 2531.602725 2588.393193 2532.70665 2589.190198 2533.707885 C 2590.012912 2534.811811 2590.707077 2535.890064 2591.504082 2536.993989 C 2592.198247 2538.097915 2592.892412 2539.09915 2593.612287 2539.997694 C 2594.409291 2541.10162 2595.000617 2542.205545 2595.694782 2543.20678 C 2596.388947 2544.105324 2597.005983 2545.003868 2597.597309 2545.902412 C 2598.188634 2547.006338 2598.908509 2547.904882 2599.499835 2548.906117 C 2600.091161 2549.70197 2600.605357 2550.703205 2601.093844 2551.499059 C 2601.71088 2552.397603 2602.199366 2553.398838 2602.790692 2554.194691 C 2603.202049 2554.990544 2603.690536 2555.889089 2604.101893 2556.607924 C 2604.590379 2557.506468 2605.104576 2558.405012 2605.490223 2559.200865 C 2605.90158 2559.894028 2606.390067 2560.689881 2606.595745 2561.408717 C 2607.109942 2562.20457 2607.39275 2563.000423 2607.804107 2563.796277 C 2608.112624 2564.412421 2608.498272 2565.105584 2608.601111 2565.798746 C 2609.012468 2566.491909 2609.295276 2567.210744 2609.603794 2568.006598 C 2609.809473 2568.59707 2609.989441 2569.187541 2610.19512 2569.700995 C 2610.503638 2570.496849 2610.606477 2571.190011 2610.812155 2571.908846 C 2610.992124 2572.293937 2611.094963 2572.807391 2611.197803 2573.295172 C 2611.300642 2573.988334 2611.403481 2574.70717 2611.506321 2575.297641 C 2611.506321 2575.708404 2611.60916 2575.990804 2611.60916 2576.401567 C 2611.711999 2577.402802 2611.711999 2578.198655 2611.60916 2579.097199 C 2611.403481 2579.893053 2611.197803 2580.688906 2610.992124 2581.305051 C 2610.889285 2581.510432 2610.606477 2581.690141 2610.503638 2581.895522 C 2610.297959 2582.306285 2610.092281 2582.691376 2609.809473 2583.102139 C 2609.603794 2583.20483 2609.295276 2583.30752 2609.089598 2583.487229 C 2608.909629 2583.795301 2608.498272 2584.000683 2608.112624 2584.206064 C 2607.906946 2584.308755 2607.598428 2584.308755 2607.212781 2584.488464 C 2606.904263 2584.591155 2606.390067 2584.693846 2606.004419 2584.899227 L 2603.407728 2584.899227 C 2602.996371 2584.899227 2602.405045 2584.693846 2601.993688 2584.693846 C 2601.402362 2584.591155 2600.888165 2584.488464 2600.29684 2584.308755 C 2599.705514 2584.308755 2599.088478 2584.103374 2598.702831 2584.000683 C 2598.008666 2583.795301 2597.39163 2583.58992 2596.594626 2583.30752 C 2596.106139 2583.20483 2595.489103 2582.896757 2594.794938 2582.794067 C 2594.100773 2582.511667 2593.406608 2582.203595 2592.712443 2581.792832 C 2591.992568 2581.58745 2591.298403 2581.305051 2590.604238 2580.894288 C 2589.807234 2580.611888 2588.90739 2580.201125 2588.110385 2579.790362 C 2587.287671 2579.507962 2586.593506 2579.097199 2585.899341 2578.789127 C 2584.999497 2578.198655 2584.099654 2577.787892 2583.19981 2577.300111 C 2582.299966 2576.81233 2581.502962 2576.401567 2580.705958 2575.990804 C 2579.806114 2575.400332 2578.803431 2574.80986 2577.697909 2574.296407 C 2576.900904 2573.705935 2576.001061 2573.295172 2575.101217 2572.7047 C 2574.098534 2572.011537 2572.993012 2571.395393 2571.9132 2570.804921 C 2571.013356 2570.188776 2570.010673 2569.598304 2569.00799 2569.007833 C 2568.005307 2568.211979 2566.796946 2567.493144 2565.691423 2566.799981 C 2564.688741 2566.106819 2563.711767 2565.490674 2562.709084 2564.797512 C 2561.397884 2564.001658 2560.189522 2563.103114 2559.006871 2562.307261 C 2557.901348 2561.588425 2556.898665 2560.895263 2555.793143 2560.09941 C 2554.507652 2559.303556 2553.196452 2558.302321 2551.808121 2557.301086 C 2550.805438 2556.607924 2549.699916 2555.81207 2548.491555 2554.990544 L 2544.300854 2552.012512 C 2543.195332 2551.088296 2542.08981 2550.395133 2540.907158 2549.393898 C 2539.493118 2548.392663 2537.899109 2547.288738 2536.40794 2546.107794 C 2535.199578 2545.20925 2533.991217 2544.310706 2532.808565 2543.48918 C 2531.291686 2542.205545 2529.594838 2540.998929 2528.000829 2539.792313 C 2526.895307 2538.791078 2525.712655 2537.995224 2524.401455 2536.993989 C 2522.704606 2535.710355 2521.007758 2534.298357 2519.105232 2532.912032 C 2517.99971 2531.987815 2516.894187 2531.089271 2515.608696 2530.190727 C 2513.809009 2528.804402 2511.906483 2527.187022 2510.003956 2525.698006 C 2508.795595 2524.799462 2507.690072 2523.798227 2506.404581 2522.899683 C 2504.399215 2521.205286 2502.188171 2519.408197 2500.002836 2517.688127 C 2499.000154 2516.892274 2497.997471 2515.99373 2496.994788 2515.197876 C 2490.490204 2510.011993 2483.805651 2504.492365 2476.889709 2498.793028 C 2475.707058 2497.689103 2474.498696 2496.790558 2473.393174 2495.789324 C 2471.105 2493.786854 2468.791116 2491.887075 2466.400103 2489.910278 C 2464.908934 2488.600971 2463.494894 2487.497045 2462.003724 2486.187738 C 2459.79268 2484.39065 2457.607345 2482.490871 2455.396301 2480.591092 C 2453.905131 2479.307457 2452.491091 2478.100841 2450.999922 2476.894224 C 2448.711748 2474.891755 2446.500704 2473.094667 2444.289659 2471.092197 C 2442.592811 2469.705872 2440.998802 2468.293874 2439.404794 2466.804858 C 2437.09091 2465.007769 2435.008415 2463.0053 2432.79737 2461.208212 C 2431.100522 2459.693523 2429.300835 2458.101816 2427.501147 2456.689818 C 2425.392942 2454.687349 2423.207608 2452.78757 2420.996563 2450.887791 C 2419.196876 2449.296084 2417.397189 2447.807068 2415.597501 2446.086998 C 2413.412167 2444.187219 2411.098283 2442.210422 2408.912949 2440.310643 C 2407.010422 2438.590573 2405.210735 2436.998866 2403.411047 2435.407159 C 2401.097164 2433.404689 2398.80899 2431.40222 2396.495106 2429.297059 C 2394.592579 2427.705352 2392.690053 2425.908264 2390.710397 2424.290885 C 2388.396513 2422.211397 2386.211179 2420.106236 2383.794456 2418.103767 C 2381.891929 2416.409369 2379.989402 2414.689299 2378.112586 2412.892211 C 2375.593023 2410.710032 2373.20201 2408.604872 2370.708158 2406.29433 C 2368.90847 2404.702623 2367.005944 2403.008226 2365.206257 2401.288155 C 2362.609565 2399.003286 2360.090003 2396.692744 2357.59615 2394.510566 C 2355.590784 2392.610787 2353.611128 2390.890716 2351.605762 2389.093628 C 2349.189039 2386.91145 2346.798026 2384.703598 2344.304174 2382.393056 C 2342.195969 2380.595968 2340.113473 2378.593498 2338.005268 2376.693719 C 2335.588545 2374.511541 2333.094693 2372.30369 2330.60084 2369.993148 C 2328.492635 2367.990678 2326.307301 2366.090899 2324.199096 2364.088429 C 2321.602404 2361.80356 2319.108551 2359.390327 2316.51186 2357.002767 C 2314.506494 2355.205679 2312.398289 2353.3059 2310.392923 2351.508811 C 2307.693392 2348.890197 2304.788182 2346.399946 2302.088651 2343.807005 C 2300.108995 2342.009917 2298.10363 2340.187156 2296.098264 2338.210359 C 2293.295893 2335.694435 2290.493523 2333.101493 2287.691153 2330.508552 C 2285.711497 2328.608773 2283.706131 2326.811685 2281.597926 2324.911906 C 2278.692716 2322.190601 2275.710377 2319.494968 2272.908007 2316.696645 C 2270.902641 2314.899557 2268.897275 2313.102469 2266.994749 2311.20269 C 2263.909571 2308.404367 2260.901522 2305.708734 2257.893473 2302.80772 C 2255.888107 2301.010632 2254.01129 2299.187871 2252.108764 2297.390783 C 2248.689358 2294.31006 2245.295662 2291.100974 2242.004805 2287.891888 C 2240.410796 2286.505563 2238.688238 2284.888184 2237.197069 2283.399168 C 2233.212047 2279.7023 2229.201315 2276.005433 2225.293423 2272.205875 C 2224.110771 2271.20464 2223.005249 2270.203405 2221.899727 2269.09948 C 2217.503348 2264.99185 2213.106969 2260.807201 2208.60775 2256.59688 C 2207.913585 2255.903718 2207.090871 2255.210555 2206.396706 2254.389029 C 2195.9071 2244.607735 2185.391784 2234.595386 2174.696499 2224.403328 C 2173.693816 2223.504784 2172.691133 2222.60624 2171.79129 2221.605005 C 2167.394911 2217.497375 2163.101371 2213.389745 2158.704992 2209.307787 C 2157.393791 2207.99848 2156.1083 2206.791864 2154.69426 2205.508229 C 2150.606399 2201.50329 2146.492828 2197.703732 2142.404967 2193.596101 C 2141.196605 2192.492176 2139.988244 2191.311232 2138.805592 2190.207307 C 2134.589182 2186.099676 2130.398482 2182.197428 2126.104942 2178.089797 C 2124.588063 2176.703472 2123.096893 2175.188783 2121.605724 2173.699768 C 2117.697831 2170.0029 2113.789939 2166.306033 2109.907756 2162.506475 C 2108.210908 2160.889096 2106.411221 2159.092007 2104.688663 2157.500301 C 2100.909319 2153.906124 2097.001427 2150.209257 2093.196374 2146.51239 C 2091.499526 2144.89501 2089.699838 2143.200613 2088.00299 2141.506216 C 2084.300776 2137.912039 2080.598563 2134.29219 2076.793509 2130.698013 C 2074.813853 2128.798234 2072.911327 2126.898456 2070.905961 2124.998677 C 2067.203747 2121.507191 2063.604372 2117.887342 2059.902158 2114.293165 C 2057.999632 2112.496077 2056.097105 2110.698989 2054.194579 2108.79921 C 2050.492365 2105.307724 2046.790151 2101.610857 2043.113647 2097.991008 C 2041.21112 2096.193919 2039.411433 2094.396831 2037.508906 2092.702434 C 2033.601014 2088.902876 2029.795961 2085.103318 2025.913778 2081.406451 C 2024.088381 2079.712053 2022.288694 2077.889292 2020.591846 2076.092204 C 2016.606824 2072.395337 2012.90461 2068.595779 2008.996717 2064.898912 C 2006.991351 2063.101823 2005.191664 2061.202044 2003.289137 2059.302265 Z M 2003.289137 2059.302265" stroke="#25272E" stroke-width="40" stroke-miterlimit="10"/><path fill="#FFF" d="M 44.375 315.65625 C 44.375 315.65625 61.9375 307.257812 65.601562 299.558594 C 69.261719 291.875 52.125 295.558594 44.375 315.65625"/><g clip-path="url(#e)"><path stroke-linecap="round" transform="matrix(.15194 0 0 -.15216 -123.044 488.186)" fill="none" stroke-linejoin="round" d="M 1101.902891 1133.904518 C 1101.902891 1133.904518 1217.494236 1189.100799 1241.610046 1239.701669 C 1265.700146 1290.199849 1152.911171 1265.990503 1101.902891 1133.904518 Z M 1101.902891 1133.904518" stroke="#25272E" stroke-width="40" stroke-miterlimit="10"/></g><g clip-path="url(#f)"><path d="M 39.542969 310.683594 C 34.875 315.351562 29.335938 316.519531 20.292969 316.519531 C 18.542969 324.6875 13.875 339.5625 11.539062 345.980469 L 26.417969 331.101562 C 26.417969 330.519531 26.125 330.226562 26.125 329.644531 C 26.125 327.601562 27.875 325.851562 29.917969 325.851562 C 31.960938 325.851562 33.710938 327.601562 33.710938 329.644531 C 33.417969 331.6875 31.960938 333.4375 29.917969 333.4375 C 29.335938 333.4375 29.042969 333.4375 28.460938 333.144531 L 13.582031 348.023438 C 20 345.980469 34.585938 341.023438 43.042969 339.269531 C 43.042969 330.226562 44.210938 324.6875 48.878906 320.019531 Z M 39.542969 310.683594"/></g><g clip-path="url(#g)"><path d="M 69.007812 298.140625 L 61.421875 290.554688 C 60.253906 289.390625 58.503906 289.390625 57.339844 290.554688 L 41.878906 306.015625 L 53.546875 317.683594 L 69.007812 302.222656 C 70.171875 301.058594 70.171875 299.015625 69.007812 298.140625 Z M 69.007812 298.140625"/></g></svg>