<svg xmlns="http://www.w3.org/2000/svg" width="375" viewBox="0 0 375 375" height="375" version="1.0"><defs><clipPath id="a"><path d="M 47.703125 60.609375 L 325.964844 60.609375 L 325.964844 265.539062 L 47.703125 265.539062 Z M 47.703125 60.609375"/></clipPath><clipPath id="b"><path d="M 173.21875 308.816406 L 307.828125 308.816406 L 307.828125 318.863281 L 173.21875 318.863281 Z M 173.21875 308.816406"/></clipPath><clipPath id="c"><path d="M 79.804688 308.816406 L 147.113281 308.816406 L 147.113281 318.863281 L 79.804688 318.863281 Z M 79.804688 308.816406"/></clipPath></defs><g clip-path="url(#a)"><path fill="#404040" d="M 189.917969 107.101562 C 189.917969 106.203125 189.960938 105.3125 190.050781 104.421875 C 190.136719 103.527344 190.269531 102.644531 190.445312 101.765625 C 190.617188 100.886719 190.835938 100.019531 191.09375 99.164062 C 191.355469 98.304688 191.65625 97.464844 192 96.636719 C 192.34375 95.808594 192.726562 95 193.148438 94.210938 C 193.570312 93.417969 194.027344 92.652344 194.527344 91.90625 C 195.023438 91.164062 195.558594 90.445312 196.125 89.753906 C 196.695312 89.058594 197.292969 88.398438 197.925781 87.761719 C 198.5625 87.128906 199.222656 86.53125 199.917969 85.960938 C 200.609375 85.394531 201.328125 84.859375 202.070312 84.363281 C 202.816406 83.863281 203.582031 83.40625 204.375 82.984375 C 205.164062 82.5625 205.972656 82.179688 206.800781 81.835938 C 207.625 81.492188 208.46875 81.191406 209.328125 80.929688 C 210.183594 80.671875 211.050781 80.453125 211.929688 80.28125 C 212.808594 80.105469 213.691406 79.972656 214.585938 79.886719 C 215.476562 79.796875 216.367188 79.753906 217.265625 79.753906 C 218.160156 79.753906 219.054688 79.796875 219.945312 79.886719 C 220.835938 79.972656 221.722656 80.105469 222.597656 80.28125 C 223.476562 80.453125 224.347656 80.671875 225.203125 80.929688 C 226.058594 81.191406 226.902344 81.492188 227.730469 81.835938 C 228.558594 82.179688 229.367188 82.5625 230.15625 82.984375 C 230.945312 83.40625 231.710938 83.863281 232.457031 84.363281 C 233.203125 84.859375 233.921875 85.394531 234.613281 85.960938 C 235.304688 86.53125 235.96875 87.128906 236.601562 87.761719 C 237.234375 88.398438 237.835938 89.058594 238.402344 89.753906 C 238.972656 90.445312 239.503906 91.164062 240.003906 91.90625 C 240.5 92.652344 240.960938 93.417969 241.382812 94.210938 C 241.804688 95 242.1875 95.808594 242.53125 96.636719 C 242.871094 97.464844 243.171875 98.304688 243.433594 99.164062 C 243.695312 100.019531 243.910156 100.886719 244.085938 101.765625 C 244.261719 102.644531 244.390625 103.527344 244.480469 104.421875 C 244.566406 105.3125 244.609375 106.203125 244.609375 107.101562 C 244.609375 107.996094 244.566406 108.890625 244.480469 109.78125 C 244.390625 110.671875 244.261719 111.558594 244.085938 112.4375 C 243.910156 113.3125 243.695312 114.183594 243.433594 115.039062 C 243.171875 115.894531 242.871094 116.738281 242.53125 117.566406 C 242.1875 118.394531 241.804688 119.203125 241.382812 119.992188 C 240.960938 120.78125 240.5 121.550781 240.003906 122.292969 C 239.503906 123.039062 238.972656 123.757812 238.402344 124.449219 C 237.835938 125.140625 237.234375 125.804688 236.601562 126.4375 C 235.96875 127.070312 235.304688 127.671875 234.613281 128.238281 C 233.921875 128.808594 233.203125 129.339844 232.457031 129.839844 C 231.710938 130.335938 230.945312 130.796875 230.15625 131.21875 C 229.367188 131.640625 228.558594 132.023438 227.730469 132.367188 C 226.902344 132.707031 226.058594 133.007812 225.203125 133.269531 C 224.347656 133.53125 223.476562 133.746094 222.597656 133.921875 C 221.722656 134.097656 220.835938 134.226562 219.945312 134.316406 C 219.054688 134.402344 218.160156 134.445312 217.265625 134.445312 C 216.367188 134.445312 215.476562 134.402344 214.585938 134.316406 C 213.691406 134.226562 212.808594 134.097656 211.929688 133.921875 C 211.050781 133.746094 210.183594 133.53125 209.328125 133.269531 C 208.46875 133.007812 207.625 132.707031 206.800781 132.367188 C 205.972656 132.023438 205.164062 131.640625 204.375 131.21875 C 203.582031 130.796875 202.816406 130.335938 202.070312 129.839844 C 201.328125 129.339844 200.609375 128.808594 199.917969 128.238281 C 199.222656 127.671875 198.5625 127.070312 197.925781 126.4375 C 197.292969 125.804688 196.695312 125.140625 196.125 124.449219 C 195.558594 123.757812 195.023438 123.039062 194.527344 122.292969 C 194.027344 121.550781 193.570312 120.78125 193.148438 119.992188 C 192.726562 119.203125 192.34375 118.394531 192 117.566406 C 191.65625 116.738281 191.355469 115.894531 191.09375 115.039062 C 190.835938 114.183594 190.617188 113.3125 190.445312 112.4375 C 190.269531 111.558594 190.136719 110.671875 190.050781 109.78125 C 189.960938 108.890625 189.917969 107.996094 189.917969 107.101562 Z M 284.347656 267.273438 L 276.535156 259.460938 L 53.183594 259.460938 L 53.183594 267.273438 Z M 157.1875 140.109375 C 156.640625 139.566406 156.050781 139.082031 155.410156 138.652344 C 154.769531 138.226562 154.09375 137.863281 153.382812 137.570312 C 152.671875 137.273438 151.941406 137.054688 151.183594 136.902344 C 150.429688 136.753906 149.667969 136.675781 148.898438 136.675781 C 148.128906 136.675781 147.367188 136.753906 146.613281 136.902344 C 145.855469 137.054688 145.125 137.273438 144.414062 137.570312 C 143.703125 137.863281 143.027344 138.226562 142.386719 138.652344 C 141.746094 139.082031 141.15625 139.566406 140.609375 140.109375 L 53.183594 236.019531 L 53.183594 259.460938 L 276.535156 259.460938 Z M 361.8125 40.6875 L 361.8125 282.898438 C 361.8125 283.539062 361.78125 284.179688 361.714844 284.816406 C 361.652344 285.453125 361.558594 286.082031 361.433594 286.710938 C 361.3125 287.339844 361.15625 287.957031 360.96875 288.570312 C 360.785156 289.183594 360.570312 289.785156 360.324219 290.375 C 360.078125 290.964844 359.804688 291.542969 359.503906 292.109375 C 359.203125 292.671875 358.875 293.21875 358.519531 293.753906 C 358.164062 294.285156 357.78125 294.796875 357.375 295.292969 C 356.972656 295.785156 356.542969 296.257812 356.089844 296.710938 C 355.636719 297.164062 355.164062 297.59375 354.667969 298 C 354.175781 298.40625 353.660156 298.785156 353.128906 299.140625 C 352.597656 299.496094 352.050781 299.824219 351.484375 300.125 C 350.921875 300.429688 350.34375 300.703125 349.753906 300.945312 C 349.160156 301.191406 348.558594 301.40625 347.949219 301.59375 C 347.335938 301.777344 346.714844 301.933594 346.089844 302.058594 C 345.460938 302.183594 344.828125 302.277344 344.191406 302.339844 C 343.554688 302.402344 342.917969 302.433594 342.277344 302.433594 L 29.746094 302.433594 C 29.105469 302.433594 28.46875 302.402344 27.832031 302.339844 C 27.195312 302.277344 26.5625 302.183594 25.933594 302.058594 C 25.308594 301.933594 24.6875 301.777344 24.074219 301.59375 C 23.460938 301.40625 22.859375 301.191406 22.269531 300.945312 C 21.679688 300.703125 21.101562 300.429688 20.539062 300.125 C 19.972656 299.824219 19.425781 299.496094 18.894531 299.140625 C 18.359375 298.785156 17.847656 298.40625 17.351562 298 C 16.859375 297.59375 16.386719 297.164062 15.933594 296.710938 C 15.480469 296.257812 15.050781 295.785156 14.644531 295.292969 C 14.238281 294.796875 13.859375 294.285156 13.503906 293.753906 C 13.148438 293.21875 12.820312 292.671875 12.519531 292.109375 C 12.21875 291.542969 11.945312 290.964844 11.699219 290.375 C 11.453125 289.785156 11.238281 289.183594 11.054688 288.570312 C 10.867188 287.957031 10.710938 287.339844 10.585938 286.710938 C 10.460938 286.082031 10.367188 285.453125 10.304688 284.816406 C 10.242188 284.179688 10.210938 283.539062 10.210938 282.898438 L 10.210938 40.6875 C 10.210938 40.046875 10.242188 39.410156 10.304688 38.773438 C 10.367188 38.136719 10.460938 37.503906 10.585938 36.875 C 10.710938 36.25 10.867188 35.628906 11.054688 35.015625 C 11.238281 34.40625 11.453125 33.804688 11.699219 33.210938 C 11.945312 32.621094 12.21875 32.042969 12.519531 31.480469 C 12.820312 30.914062 13.148438 30.367188 13.503906 29.835938 C 13.859375 29.304688 14.238281 28.789062 14.644531 28.296875 C 15.050781 27.800781 15.480469 27.328125 15.933594 26.875 C 16.386719 26.421875 16.859375 25.992188 17.351562 25.589844 C 17.847656 25.183594 18.359375 24.800781 18.894531 24.445312 C 19.425781 24.089844 19.972656 23.761719 20.539062 23.460938 C 21.101562 23.160156 21.679688 22.886719 22.269531 22.640625 C 22.859375 22.394531 23.460938 22.179688 24.074219 21.996094 C 24.6875 21.808594 25.308594 21.65625 25.933594 21.53125 C 26.5625 21.40625 27.195312 21.3125 27.832031 21.25 C 28.46875 21.1875 29.105469 21.152344 29.746094 21.152344 L 342.277344 21.152344 C 342.917969 21.152344 343.554688 21.1875 344.191406 21.25 C 344.828125 21.3125 345.460938 21.40625 346.089844 21.53125 C 346.714844 21.65625 347.335938 21.808594 347.949219 21.996094 C 348.558594 22.179688 349.160156 22.394531 349.753906 22.640625 C 350.34375 22.886719 350.921875 23.160156 351.484375 23.460938 C 352.050781 23.761719 352.597656 24.089844 353.128906 24.445312 C 353.660156 24.800781 354.175781 25.183594 354.667969 25.589844 C 355.164062 25.992188 355.636719 26.421875 356.089844 26.875 C 356.542969 27.328125 356.972656 27.800781 357.375 28.296875 C 357.78125 28.789062 358.164062 29.304688 358.519531 29.835938 C 358.875 30.367188 359.203125 30.914062 359.503906 31.480469 C 359.804688 32.042969 360.078125 32.621094 360.324219 33.210938 C 360.570312 33.804688 360.785156 34.40625 360.96875 35.015625 C 361.15625 35.628906 361.3125 36.25 361.433594 36.875 C 361.558594 37.503906 361.652344 38.136719 361.714844 38.773438 C 361.78125 39.410156 361.8125 40.046875 361.8125 40.6875 Z M 334.464844 48.5 L 37.558594 48.5 L 37.558594 275.085938 L 334.464844 275.085938 Z M 288.058594 165.503906 C 287.515625 164.960938 286.921875 164.472656 286.28125 164.046875 C 285.644531 163.617188 284.96875 163.257812 284.257812 162.964844 C 283.546875 162.667969 282.8125 162.445312 282.058594 162.296875 C 281.304688 162.144531 280.539062 162.070312 279.769531 162.070312 C 279 162.070312 278.238281 162.144531 277.484375 162.296875 C 276.730469 162.445312 275.996094 162.667969 275.285156 162.964844 C 274.574219 163.257812 273.898438 163.617188 273.257812 164.046875 C 272.621094 164.472656 272.027344 164.960938 271.484375 165.503906 L 238.34375 199.167969 L 298.632812 259.460938 L 318.835938 259.460938 L 318.835938 196.285156 Z M 288.058594 165.503906"/></g><path fill="#404040" d="M 328.882812 69.21875 C 334.023438 69.21875 338.246094 73.433594 338.246094 78.558594 L 338.246094 281.746094 C 338.246094 286.875 334.023438 291.085938 328.882812 291.085938 L 45.40625 291.085938 C 40.269531 291.085938 36.046875 286.875 36.046875 281.746094 L 36.046875 78.558594 C 36.046875 73.433594 40.269531 69.21875 45.40625 69.21875 L 328.882812 69.21875 M 328.882812 60.613281 L 45.40625 60.613281 C 35.496094 60.613281 27.417969 68.671875 27.417969 78.558594 L 27.417969 281.746094 C 27.417969 291.636719 35.496094 299.695312 45.40625 299.695312 L 328.882812 299.695312 C 338.796875 299.695312 346.871094 291.636719 346.871094 281.746094 L 346.871094 78.558594 C 346.871094 68.671875 338.796875 60.613281 328.882812 60.613281"/><path fill="#404040" d="M 353.605469 47.621094 C 359.632812 47.621094 364.585938 52.574219 364.585938 58.601562 L 364.585938 319.78125 C 364.585938 325.808594 359.632812 330.761719 353.605469 330.761719 L 21.097656 330.761719 C 15.070312 330.761719 10.117188 325.808594 10.117188 319.78125 L 10.117188 58.601562 C 10.117188 52.574219 15.070312 47.621094 21.097656 47.621094 L 353.605469 47.621094 M 353.605469 37.5 L 21.097656 37.5 C 9.472656 37.5 0 46.976562 0 58.601562 L 0 319.78125 C 0 331.40625 9.472656 340.878906 21.097656 340.878906 L 353.605469 340.878906 C 365.230469 340.878906 374.703125 331.40625 374.703125 319.78125 L 374.703125 58.601562 C 374.703125 46.976562 365.230469 37.5 353.605469 37.5"/><g clip-path="url(#b)"><path fill="#404040" d="M 173.21875 308.847656 L 307.828125 308.847656 L 307.828125 318.832031 L 173.21875 318.832031 Z M 173.21875 308.847656"/></g><g clip-path="url(#c)"><path fill="#404040" d="M 79.804688 308.847656 L 214.417969 308.847656 L 214.417969 318.832031 L 79.804688 318.832031 Z M 79.804688 308.847656"/></g></svg>