<svg xmlns="http://www.w3.org/2000/svg" width="375" viewBox="0 0 375 375" height="375" version="1.0"><defs><clipPath id="a"><path d="M 0 35.660156 L 375 35.660156 L 375 337.339844 L 0 337.339844 Z M 0 35.660156"/></clipPath><clipPath id="b"><path d="M 58.558594 236 L 319.605469 236 L 319.605469 338.882812 L 58.558594 338.882812 Z M 58.558594 236"/></clipPath><clipPath id="c"><path d="M 115 102.464844 L 256 102.464844 L 256 243 L 115 243 Z M 115 102.464844"/></clipPath></defs><g clip-path="url(#a)"><path fill="#93DDFD" d="M 375.5625 223.441406 C 375.5625 226.511719 375.484375 229.585938 375.335938 232.652344 C 375.183594 235.722656 374.957031 238.789062 374.65625 241.847656 C 374.355469 244.90625 373.980469 247.953125 373.527344 250.992188 C 373.078125 254.035156 372.550781 257.058594 371.953125 260.074219 C 371.351562 263.089844 370.679688 266.085938 369.933594 269.066406 C 369.1875 272.046875 368.367188 275.007812 367.476562 277.949219 C 366.582031 280.890625 365.621094 283.808594 364.585938 286.703125 C 363.550781 289.59375 362.441406 292.460938 361.265625 295.300781 C 360.089844 298.140625 358.847656 300.949219 357.53125 303.726562 C 356.21875 306.503906 354.835938 309.25 353.386719 311.960938 C 351.941406 314.667969 350.425781 317.34375 348.84375 319.980469 C 347.265625 322.613281 345.621094 325.210938 343.914062 327.765625 C 342.207031 330.320312 340.4375 332.832031 338.605469 335.300781 C 336.777344 337.769531 334.886719 340.191406 332.9375 342.566406 C 330.988281 344.941406 328.980469 347.269531 326.917969 349.546875 C 324.851562 351.824219 322.734375 354.046875 320.5625 356.222656 C 318.386719 358.394531 316.164062 360.511719 313.886719 362.578125 C 311.609375 364.640625 309.28125 366.648438 306.90625 368.597656 C 304.53125 370.546875 302.109375 372.4375 299.640625 374.265625 C 297.171875 376.097656 294.660156 377.867188 292.105469 379.574219 C 289.550781 381.28125 286.953125 382.925781 284.320312 384.503906 C 281.683594 386.085938 279.011719 387.597656 276.300781 389.046875 C 273.589844 390.496094 270.84375 391.878906 268.066406 393.191406 C 265.289062 394.503906 262.480469 395.75 259.640625 396.925781 C 256.800781 398.101562 253.933594 399.207031 251.042969 400.242188 C 248.148438 401.277344 245.230469 402.242188 242.289062 403.136719 C 239.347656 404.027344 236.386719 404.847656 233.40625 405.59375 C 230.425781 406.339844 227.429688 407.011719 224.414062 407.613281 C 221.402344 408.210938 218.375 408.738281 215.332031 409.1875 C 212.292969 409.640625 209.246094 410.015625 206.1875 410.316406 C 203.128906 410.617188 200.0625 410.84375 196.996094 410.996094 C 193.925781 411.144531 190.855469 411.222656 187.78125 411.222656 C 184.707031 411.222656 181.636719 411.144531 178.566406 410.996094 C 175.496094 410.84375 172.433594 410.617188 169.375 410.316406 C 166.316406 410.015625 163.265625 409.640625 160.226562 409.1875 C 157.1875 408.738281 154.160156 408.210938 151.144531 407.613281 C 148.132812 407.011719 145.132812 406.339844 142.152344 405.59375 C 139.171875 404.847656 136.210938 404.027344 133.269531 403.136719 C 130.328125 402.242188 127.414062 401.277344 124.519531 400.242188 C 121.625 399.207031 118.757812 398.101562 115.921875 396.925781 C 113.082031 395.75 110.273438 394.503906 107.492188 393.191406 C 104.714844 391.878906 101.972656 390.496094 99.261719 389.046875 C 96.550781 387.597656 93.878906 386.085938 91.242188 384.503906 C 88.605469 382.925781 86.011719 381.28125 83.457031 379.574219 C 80.898438 377.867188 78.386719 376.097656 75.917969 374.265625 C 73.453125 372.4375 71.03125 370.546875 68.652344 368.597656 C 66.277344 366.648438 63.953125 364.640625 61.675781 362.578125 C 59.398438 360.511719 57.171875 358.394531 55 356.222656 C 52.828125 354.046875 50.707031 351.824219 48.644531 349.546875 C 46.582031 347.269531 44.574219 344.941406 42.625 342.566406 C 40.675781 340.191406 38.785156 337.769531 36.953125 335.300781 C 35.125 332.832031 33.355469 330.320312 31.648438 327.765625 C 29.9375 325.210938 28.296875 322.613281 26.714844 319.980469 C 25.136719 317.34375 23.621094 314.667969 22.171875 311.960938 C 20.722656 309.25 19.34375 306.503906 18.027344 303.726562 C 16.714844 300.949219 15.46875 298.140625 14.292969 295.300781 C 13.117188 292.460938 12.011719 289.59375 10.976562 286.703125 C 9.941406 283.808594 8.976562 280.890625 8.085938 277.949219 C 7.195312 275.007812 6.375 272.046875 5.628906 269.066406 C 4.878906 266.085938 4.207031 263.089844 3.609375 260.074219 C 3.007812 257.058594 2.484375 254.035156 2.03125 250.992188 C 1.582031 247.953125 1.207031 244.90625 0.902344 241.847656 C 0.601562 238.789062 0.378906 235.722656 0.226562 232.652344 C 0.0742188 229.585938 0 226.511719 0 223.441406 C 0 220.367188 0.0742188 217.296875 0.226562 214.226562 C 0.378906 211.15625 0.601562 208.09375 0.902344 205.035156 C 1.207031 201.976562 1.582031 198.925781 2.03125 195.886719 C 2.484375 192.847656 3.007812 189.820312 3.609375 186.804688 C 4.207031 183.792969 4.878906 180.792969 5.628906 177.8125 C 6.375 174.832031 7.195312 171.871094 8.085938 168.929688 C 8.976562 165.988281 9.941406 163.074219 10.976562 160.179688 C 12.011719 157.285156 13.117188 154.417969 14.292969 151.578125 C 15.46875 148.742188 16.714844 145.933594 18.027344 143.152344 C 19.34375 140.375 20.722656 137.632812 22.171875 134.921875 C 23.621094 132.210938 25.136719 129.539062 26.714844 126.902344 C 28.296875 124.265625 29.9375 121.671875 31.648438 119.113281 C 33.355469 116.558594 35.125 114.046875 36.953125 111.578125 C 38.785156 109.109375 40.675781 106.6875 42.625 104.3125 C 44.574219 101.9375 46.582031 99.613281 48.644531 97.335938 C 50.707031 95.058594 52.828125 92.832031 55 90.660156 C 57.171875 88.484375 59.398438 86.367188 61.675781 84.304688 C 63.953125 82.238281 66.277344 80.234375 68.652344 78.285156 C 71.03125 76.335938 73.453125 74.445312 75.917969 72.613281 C 78.386719 70.78125 80.898438 69.015625 83.457031 67.304688 C 86.011719 65.597656 88.605469 63.957031 91.242188 62.375 C 93.878906 60.796875 96.550781 59.28125 99.261719 57.832031 C 101.972656 56.382812 104.714844 55.003906 107.492188 53.6875 C 110.273438 52.375 113.082031 51.128906 115.921875 49.953125 C 118.757812 48.777344 121.625 47.671875 124.519531 46.636719 C 127.414062 45.601562 130.328125 44.636719 133.269531 43.746094 C 136.210938 42.851562 139.171875 42.035156 142.152344 41.289062 C 145.132812 40.539062 148.132812 39.867188 151.144531 39.269531 C 154.160156 38.667969 157.1875 38.144531 160.226562 37.691406 C 163.265625 37.242188 166.316406 36.863281 169.375 36.5625 C 172.433594 36.261719 175.496094 36.035156 178.566406 35.886719 C 181.636719 35.734375 184.707031 35.660156 187.78125 35.660156 C 190.855469 35.660156 193.925781 35.734375 196.996094 35.886719 C 200.0625 36.035156 203.128906 36.261719 206.1875 36.5625 C 209.246094 36.863281 212.292969 37.242188 215.332031 37.691406 C 218.375 38.144531 221.402344 38.667969 224.414062 39.269531 C 227.429688 39.867188 230.425781 40.539062 233.40625 41.289062 C 236.386719 42.035156 239.347656 42.851562 242.289062 43.746094 C 245.230469 44.636719 248.148438 45.601562 251.042969 46.636719 C 253.933594 47.671875 256.800781 48.777344 259.640625 49.953125 C 262.480469 51.128906 265.289062 52.375 268.066406 53.6875 C 270.84375 55.003906 273.589844 56.382812 276.300781 57.832031 C 279.011719 59.28125 281.683594 60.796875 284.320312 62.375 C 286.953125 63.957031 289.550781 65.597656 292.105469 67.304688 C 294.660156 69.015625 297.171875 70.78125 299.640625 72.613281 C 302.109375 74.445312 304.53125 76.335938 306.90625 78.285156 C 309.28125 80.234375 311.609375 82.238281 313.886719 84.304688 C 316.164062 86.367188 318.386719 88.484375 320.5625 90.660156 C 322.734375 92.832031 324.851562 95.058594 326.917969 97.335938 C 328.980469 99.613281 330.988281 101.9375 332.9375 104.3125 C 334.886719 106.6875 336.777344 109.109375 338.605469 111.578125 C 340.4375 114.046875 342.207031 116.558594 343.914062 119.113281 C 345.621094 121.671875 347.265625 124.265625 348.84375 126.902344 C 350.425781 129.539062 351.941406 132.210938 353.386719 134.921875 C 354.835938 137.632812 356.21875 140.375 357.53125 143.152344 C 358.847656 145.933594 360.089844 148.742188 361.265625 151.578125 C 362.441406 154.417969 363.550781 157.285156 364.585938 160.179688 C 365.621094 163.074219 366.582031 165.988281 367.476562 168.929688 C 368.367188 171.871094 369.1875 174.832031 369.933594 177.8125 C 370.679688 180.792969 371.351562 183.792969 371.953125 186.804688 C 372.550781 189.820312 373.078125 192.847656 373.527344 195.886719 C 373.980469 198.925781 374.355469 201.976562 374.65625 205.035156 C 374.957031 208.09375 375.183594 211.15625 375.335938 214.226562 C 375.484375 217.296875 375.5625 220.367188 375.5625 223.441406 Z M 375.5625 223.441406"/></g><g clip-path="url(#b)"><path fill="#FFF" d="M 235.210938 236.195312 C 221.480469 247 204.191406 253.46875 185.40625 253.46875 C 167.085938 253.46875 150.175781 247.320312 136.613281 236.992188 C 92.363281 244.144531 58.558594 282.515625 58.558594 328.796875 C 58.558594 380.175781 100.199219 346.773438 151.5625 346.773438 L 226.59375 346.773438 C 277.960938 346.773438 319.605469 380.175781 319.605469 328.796875 C 319.605469 280.335938 282.535156 240.542969 235.210938 236.195312 Z M 235.210938 236.195312"/></g><g clip-path="url(#c)"><path fill="#FFF" d="M 185.40625 242.640625 C 223.9375 242.640625 255.285156 211.285156 255.285156 172.746094 C 255.285156 134.207031 223.9375 102.851562 185.40625 102.851562 C 146.871094 102.851562 115.523438 134.207031 115.523438 172.746094 C 115.523438 211.285156 146.875 242.640625 185.40625 242.640625 Z M 185.40625 242.640625"/></g></svg>