<svg xmlns="http://www.w3.org/2000/svg" width="375" viewBox="0 0 375 375" height="375" version="1.0"><path fill="#2D5DA7" d="M 368.75 50 C 365.296875 50 362.5 47.203125 362.5 43.75 L 362.5 12.5 L 331.25 12.5 C 327.796875 12.5 325 9.703125 325 6.25 C 325 2.796875 327.796875 0 331.25 0 L 368.75 0 C 372.203125 0 375 2.796875 375 6.25 L 375 43.75 C 375 47.203125 372.203125 50 368.75 50"/><path fill="#2D5DA7" d="M 6.25 50 C 2.796875 50 0 47.203125 0 43.75 L 0 6.25 C 0 2.796875 2.796875 0 6.25 0 L 43.75 0 C 47.203125 0 50 2.796875 50 6.25 C 50 9.703125 47.203125 12.5 43.75 12.5 L 12.5 12.5 L 12.5 43.75 C 12.5 47.203125 9.703125 50 6.25 50"/><path fill="#2D5DA7" d="M 368.75 375 L 331.25 375 C 327.796875 375 325 372.203125 325 368.75 C 325 365.296875 327.796875 362.5 331.25 362.5 L 362.5 362.5 L 362.5 331.25 C 362.5 327.796875 365.296875 325 368.75 325 C 372.203125 325 375 327.796875 375 331.25 L 375 368.75 C 375 372.203125 372.203125 375 368.75 375"/><path fill="#2D5DA7" d="M 43.75 375 L 6.25 375 C 2.796875 375 0 372.203125 0 368.75 L 0 331.25 C 0 327.796875 2.796875 325 6.25 325 C 9.703125 325 12.5 327.796875 12.5 331.25 L 12.5 362.5 L 43.75 362.5 C 47.203125 362.5 50 365.296875 50 368.75 C 50 372.203125 47.203125 375 43.75 375"/><path fill="#76D6FF" d="M 37.5 137.5 L 137.5 137.5 L 137.5 37.5 L 37.5 37.5 Z M 143.75 150 L 31.25 150 C 27.796875 150 25 147.203125 25 143.75 L 25 31.25 C 25 27.796875 27.796875 25 31.25 25 L 143.75 25 C 147.203125 25 150 27.796875 150 31.25 L 150 143.75 C 150 147.203125 147.203125 150 143.75 150"/><path fill="#FF5050" d="M 118.75 118.75 L 56.25 118.75 L 56.25 56.25 L 118.75 56.25 L 118.75 118.75"/><path fill="#FCEE84" d="M 118.75 318.75 L 56.25 318.75 L 56.25 256.25 L 118.75 256.25 L 118.75 318.75"/><path fill="#76D6FF" d="M 318.75 118.75 L 256.25 118.75 L 256.25 56.25 L 318.75 56.25 L 318.75 118.75"/><path fill="#FF5050" d="M 237.5 137.109375 L 337.5 137.109375 L 337.5 37.5 L 237.5 37.5 Z M 343.75 149.609375 L 231.25 149.609375 C 227.796875 149.609375 225 146.8125 225 143.359375 L 225 31.25 C 225 27.796875 227.796875 25 231.25 25 L 343.75 25 C 347.203125 25 350 27.796875 350 31.25 L 350 143.359375 C 350 146.8125 347.203125 149.609375 343.75 149.609375"/><path fill="#FF5050" d="M 37.5 337.5 L 137.5 337.5 L 137.5 237.5 L 37.5 237.5 Z M 143.75 350 L 31.25 350 C 27.796875 350 25 347.203125 25 343.75 L 25 231.25 C 25 227.796875 27.796875 225 31.25 225 L 143.75 225 C 147.203125 225 150 227.796875 150 231.25 L 150 343.75 C 150 347.203125 147.203125 350 143.75 350"/><path fill="#76D6FF" d="M 168.75 75 C 165.296875 75 162.5 72.203125 162.5 68.75 L 162.5 31.25 C 162.5 27.796875 165.296875 25 168.75 25 L 181.25 25 C 184.703125 25 187.5 27.796875 187.5 31.25 C 187.5 34.703125 184.703125 37.5 181.25 37.5 L 175 37.5 L 175 68.75 C 175 72.203125 172.203125 75 168.75 75"/><path fill="#FCEE84" d="M 212.5 31.25 C 212.5 34.703125 209.703125 37.5 206.25 37.5 C 202.796875 37.5 200 34.703125 200 31.25 C 200 27.796875 202.796875 25 206.25 25 C 209.703125 25 212.5 27.796875 212.5 31.25"/><path fill="#FF5050" d="M 206.25 75 L 193.75 75 C 190.296875 75 187.5 72.203125 187.5 68.75 C 187.5 65.296875 190.296875 62.5 193.75 62.5 L 200 62.5 L 200 56.25 C 200 52.796875 202.796875 50 206.25 50 C 209.703125 50 212.5 52.796875 212.5 56.25 L 212.5 68.75 C 212.5 72.203125 209.703125 75 206.25 75"/><path fill="#FF5050" d="M 193.75 131.25 C 190.296875 131.25 187.5 128.453125 187.5 125 L 187.5 100 C 187.5 96.546875 190.296875 93.75 193.75 93.75 L 206.25 93.75 C 209.703125 93.75 212.5 96.546875 212.5 100 C 212.5 103.453125 209.703125 106.25 206.25 106.25 L 200 106.25 L 200 125 C 200 128.453125 197.203125 131.25 193.75 131.25"/><path fill="#FCEE84" d="M 206.25 150 L 168.75 150 C 165.296875 150 162.5 147.203125 162.5 143.75 L 162.5 93.75 C 162.5 90.296875 165.296875 87.5 168.75 87.5 C 172.203125 87.5 175 90.296875 175 93.75 L 175 137.5 L 206.25 137.5 C 209.703125 137.5 212.5 140.296875 212.5 143.75 C 212.5 147.203125 209.703125 150 206.25 150"/><path fill="#FF5050" d="M 218.75 350 L 193.75 350 C 190.296875 350 187.5 347.203125 187.5 343.75 C 187.5 340.296875 190.296875 337.5 193.75 337.5 L 212.5 337.5 L 212.5 306.25 C 212.5 302.796875 215.296875 300 218.75 300 C 222.203125 300 225 302.796875 225 306.25 L 225 343.75 C 225 347.203125 222.203125 350 218.75 350"/><path fill="#FCEE84" d="M 162.5 343.75 C 162.5 340.296875 165.296875 337.5 168.75 337.5 C 172.203125 337.5 175 340.296875 175 343.75 C 175 347.203125 172.203125 350 168.75 350 C 165.296875 350 162.5 347.203125 162.5 343.75"/><path fill="#FF5050" d="M 168.75 325 C 165.296875 325 162.5 322.203125 162.5 318.75 L 162.5 306.25 C 162.5 302.796875 165.296875 300 168.75 300 L 193.75 300 C 197.203125 300 200 302.796875 200 306.25 C 200 309.703125 197.203125 312.5 193.75 312.5 L 175 312.5 L 175 318.75 C 175 322.203125 172.203125 325 168.75 325"/><path fill="#76D6FF" d="M 168.75 237.5 C 165.296875 237.5 162.5 234.703125 162.5 231.25 L 162.5 193.75 C 162.5 190.296875 165.296875 187.5 168.75 187.5 L 187.5 187.5 C 190.953125 187.5 193.75 190.296875 193.75 193.75 C 193.75 197.203125 190.953125 200 187.5 200 L 175 200 L 175 231.25 C 175 234.703125 172.203125 237.5 168.75 237.5"/><path fill="#FF5050" d="M 212.5 212.5 C 209.046875 212.5 206.25 209.703125 206.25 206.25 L 206.25 175 L 168.75 175 C 165.296875 175 162.5 172.203125 162.5 168.75 C 162.5 165.296875 165.296875 162.5 168.75 162.5 L 212.5 162.5 C 215.953125 162.5 218.75 165.296875 218.75 168.75 L 218.75 206.25 C 218.75 209.703125 215.953125 212.5 212.5 212.5"/><path fill="#FF5050" d="M 68.75 212.5 L 31.25 212.5 C 27.796875 212.5 25 209.703125 25 206.25 L 25 193.75 C 25 190.296875 27.796875 187.5 31.25 187.5 C 34.703125 187.5 37.5 190.296875 37.5 193.75 L 37.5 200 L 68.75 200 C 72.203125 200 75 202.796875 75 206.25 C 75 209.703125 72.203125 212.5 68.75 212.5"/><path fill="#FCEE84" d="M 56.25 187.5 C 52.796875 187.5 50 184.703125 50 181.25 L 50 175 L 31.25 175 C 27.796875 175 25 172.203125 25 168.75 C 25 165.296875 27.796875 162.5 31.25 162.5 L 56.25 162.5 C 59.703125 162.5 62.5 165.296875 62.5 168.75 L 62.5 181.25 C 62.5 184.703125 59.703125 187.5 56.25 187.5"/><path fill="#76D6FF" d="M 118.75 187.5 L 81.25 187.5 C 77.796875 187.5 75 184.703125 75 181.25 L 75 168.75 C 75 165.296875 77.796875 162.5 81.25 162.5 C 84.703125 162.5 87.5 165.296875 87.5 168.75 L 87.5 175 L 118.75 175 C 122.203125 175 125 177.796875 125 181.25 C 125 184.703125 122.203125 187.5 118.75 187.5"/><path fill="#FCEE84" d="M 143.75 212.5 L 93.75 212.5 C 90.296875 212.5 87.5 209.703125 87.5 206.25 C 87.5 202.796875 90.296875 200 93.75 200 L 137.5 200 L 137.5 168.75 C 137.5 165.296875 140.296875 162.5 143.75 162.5 C 147.203125 162.5 150 165.296875 150 168.75 L 150 206.25 C 150 209.703125 147.203125 212.5 143.75 212.5"/><path fill="#FF5050" d="M 343.75 187.5 C 340.296875 187.5 337.5 184.703125 337.5 181.25 L 337.5 175 L 306.25 175 C 302.796875 175 300 172.203125 300 168.75 C 300 165.296875 302.796875 162.5 306.25 162.5 L 343.75 162.5 C 347.203125 162.5 350 165.296875 350 168.75 L 350 181.25 C 350 184.703125 347.203125 187.5 343.75 187.5"/><path fill="#FCEE84" d="M 237.5 237.5 C 234.046875 237.5 231.25 234.703125 231.25 231.25 C 231.25 227.796875 234.046875 225 237.5 225 C 240.953125 225 243.75 227.796875 243.75 231.25 C 243.75 234.703125 240.953125 237.5 237.5 237.5"/><path fill="#FCEE84" d="M 318.75 212.5 L 287.5 212.5 C 284.046875 212.5 281.25 209.703125 281.25 206.25 C 281.25 202.796875 284.046875 200 287.5 200 L 312.5 200 L 312.5 193.75 C 312.5 190.296875 315.296875 187.5 318.75 187.5 C 322.203125 187.5 325 190.296875 325 193.75 L 325 206.25 C 325 209.703125 322.203125 212.5 318.75 212.5"/><path fill="#FCEE84" d="M 318.75 300 C 315.296875 300 312.5 297.203125 312.5 293.75 L 312.5 287.5 L 293.75 287.5 C 290.296875 287.5 287.5 284.703125 287.5 281.25 C 287.5 277.796875 290.296875 275 293.75 275 L 318.75 275 C 322.203125 275 325 277.796875 325 281.25 L 325 293.75 C 325 297.203125 322.203125 300 318.75 300"/><path fill="#76D6FF" d="M 318.75 325 C 315.296875 325 312.5 322.203125 312.5 318.75 C 312.5 315.296875 315.296875 312.5 318.75 312.5 C 322.203125 312.5 325 315.296875 325 318.75 C 325 322.203125 322.203125 325 318.75 325"/><path fill="#FF5050" d="M 268.75 287.5 C 265.296875 287.5 262.5 284.703125 262.5 281.25 C 262.5 277.796875 265.296875 275 268.75 275 C 272.203125 275 275 277.796875 275 281.25 C 275 284.703125 272.203125 287.5 268.75 287.5"/><path fill="#FCEE84" d="M 293.746094 325 L 268.746094 325 C 265.292969 325 262.496094 322.203125 262.496094 318.75 L 262.496094 306.25 C 262.496094 302.796875 265.292969 300 268.746094 300 C 272.199219 300 274.996094 302.796875 274.996094 306.25 L 274.996094 312.5 L 293.746094 312.5 C 297.199219 312.5 299.996094 315.296875 299.996094 318.75 C 299.996094 322.203125 297.199219 325 293.746094 325"/><path fill="#FF5050" d="M 292.96875 237.5 L 262.5 237.5 C 259.046875 237.5 256.25 234.703125 256.25 231.25 L 256.25 193.75 C 256.25 190.296875 259.046875 187.5 262.5 187.5 C 265.953125 187.5 268.75 190.296875 268.75 193.75 L 268.75 225 L 292.96875 225 C 296.421875 225 299.21875 227.796875 299.21875 231.25 C 299.21875 234.703125 296.421875 237.5 292.96875 237.5"/><path fill="#76D6FF" d="M 237.5 212.5 C 234.046875 212.5 231.25 209.703125 231.25 206.25 L 231.25 168.75 C 231.25 165.296875 234.046875 162.5 237.5 162.5 L 281.25 162.5 C 284.703125 162.5 287.5 165.296875 287.5 168.75 C 287.5 172.203125 284.703125 175 281.25 175 L 243.75 175 L 243.75 206.25 C 243.75 209.703125 240.953125 212.5 237.5 212.5"/><path fill="#FCEE84" d="M 218.75 281.25 L 168.75 281.25 L 168.75 256.25 L 218.75 256.25 L 218.75 281.25"/><path fill="#76D6FF" d="M 250 337.5 L 337.5 337.5 L 337.5 262.5 L 250 262.5 Z M 343.75 350 L 243.75 350 C 240.296875 350 237.5 347.203125 237.5 343.75 L 237.5 256.25 C 237.5 252.796875 240.296875 250 243.75 250 L 343.75 250 C 347.203125 250 350 252.796875 350 256.25 L 350 343.75 C 350 347.203125 347.203125 350 343.75 350"/><path fill="#FF5050" d="M 212.5 237.5 L 200.78125 237.5 C 197.328125 237.5 194.53125 234.703125 194.53125 231.25 C 194.53125 227.796875 197.328125 225 200.78125 225 L 212.5 225 C 215.953125 225 218.75 227.796875 218.75 231.25 C 218.75 234.703125 215.953125 237.5 212.5 237.5"/><path fill="#76D6FF" d="M 343.75 237.5 L 318.75 237.5 C 315.296875 237.5 312.5 234.703125 312.5 231.25 C 312.5 227.796875 315.296875 225 318.75 225 L 337.5 225 L 337.5 206.25 C 337.5 202.796875 340.296875 200 343.75 200 C 347.203125 200 350 202.796875 350 206.25 L 350 231.25 C 350 234.703125 347.203125 237.5 343.75 237.5"/></svg>