<svg xmlns="http://www.w3.org/2000/svg" width="375" viewBox="0 0 375 375" height="375" version="1.0"><defs><clipPath id="a"><path d="M 74 89 L 301 89 L 301 292.734375 L 74 292.734375 Z M 74 89"/></clipPath><clipPath id="b"><path d="M 102 68.484375 L 130 68.484375 L 130 119 L 102 119 Z M 102 68.484375"/></clipPath><clipPath id="c"><path d="M 245 68.484375 L 272 68.484375 L 272 119 L 245 119 Z M 245 68.484375"/></clipPath></defs><path fill="#404040" d="M 187.5 18.75 C 280.554688 18.75 356.25 94.445312 356.25 187.5 C 356.25 280.554688 280.554688 356.25 187.5 356.25 C 94.445312 356.25 18.75 280.554688 18.75 187.5 C 18.75 94.445312 94.445312 18.75 187.5 18.75 M 187.5 0 C 83.945312 0 0 83.945312 0 187.5 C 0 291.054688 83.945312 375 187.5 375 C 291.054688 375 375 291.054688 375 187.5 C 375 83.945312 291.054688 0 187.5 0 Z M 187.5 0"/><path fill="#FFF" d="M 297.515625 263.558594 C 297.515625 277.828125 285.945312 289.382812 271.671875 289.382812 L 103.265625 289.382812 C 88.996094 289.382812 77.425781 277.828125 77.425781 263.558594 L 77.425781 119.140625 C 77.425781 104.882812 88.996094 93.320312 103.265625 93.320312 L 271.671875 93.320312 C 285.945312 93.320312 297.515625 104.882812 297.515625 119.140625 L 297.515625 263.558594"/><g clip-path="url(#a)"><path fill="#404040" d="M 297.515625 263.558594 L 294.167969 263.558594 C 294.167969 269.78125 291.652344 275.378906 287.578125 279.457031 C 283.496094 283.527344 277.894531 286.039062 271.671875 286.039062 L 103.265625 286.039062 C 97.042969 286.039062 91.441406 283.527344 87.359375 279.457031 C 83.285156 275.378906 80.777344 269.78125 80.773438 263.558594 L 80.773438 119.140625 C 80.777344 112.925781 83.285156 107.328125 87.359375 103.246094 C 91.441406 99.175781 97.042969 96.667969 103.265625 96.664062 L 271.671875 96.664062 C 277.894531 96.667969 283.496094 99.175781 287.578125 103.246094 C 291.652344 107.328125 294.167969 112.925781 294.167969 119.140625 L 294.167969 263.558594 L 300.863281 263.558594 L 300.863281 119.140625 C 300.863281 111.097656 297.589844 103.785156 292.3125 98.515625 C 287.039062 93.242188 279.722656 89.972656 271.671875 89.976562 L 103.265625 89.976562 C 95.214844 89.972656 87.898438 93.242188 82.628906 98.515625 C 77.347656 103.785156 74.074219 111.097656 74.078125 119.140625 L 74.078125 263.558594 C 74.074219 271.605469 77.347656 278.917969 82.628906 284.1875 C 87.898438 289.460938 95.214844 292.730469 103.265625 292.726562 L 271.671875 292.726562 C 279.722656 292.730469 287.039062 289.460938 292.3125 284.1875 C 297.589844 278.917969 300.863281 271.605469 300.863281 263.558594 L 297.515625 263.558594"/></g><path fill="#404040" d="M 124.125 195.542969 C 124.125 197.519531 122.519531 199.125 120.535156 199.125 L 97.144531 199.125 C 95.160156 199.125 93.554688 197.519531 93.554688 195.542969 L 93.554688 175.484375 C 93.554688 173.5 95.160156 171.894531 97.144531 171.894531 L 120.535156 171.894531 C 122.519531 171.894531 124.125 173.5 124.125 175.484375 L 124.125 195.542969"/><path fill="#404040" d="M 163.4375 195.542969 C 163.4375 197.519531 161.832031 199.125 159.851562 199.125 L 136.457031 199.125 C 134.476562 199.125 132.867188 197.519531 132.867188 195.542969 L 132.867188 175.484375 C 132.867188 173.5 134.476562 171.894531 136.457031 171.894531 L 159.851562 171.894531 C 161.832031 171.894531 163.4375 173.5 163.4375 175.484375 L 163.4375 195.542969"/><path fill="#404040" d="M 202.753906 195.542969 C 202.753906 197.519531 201.148438 199.125 199.167969 199.125 L 175.773438 199.125 C 173.792969 199.125 172.183594 197.519531 172.183594 195.542969 L 172.183594 175.484375 C 172.183594 173.5 173.792969 171.894531 175.773438 171.894531 L 199.167969 171.894531 C 201.148438 171.894531 202.753906 173.5 202.753906 175.484375 L 202.753906 195.542969"/><path fill="#404040" d="M 242.070312 195.542969 C 242.070312 197.519531 240.464844 199.125 238.480469 199.125 L 215.089844 199.125 C 213.109375 199.125 211.5 197.519531 211.5 195.542969 L 211.5 175.484375 C 211.5 173.5 213.109375 171.894531 215.089844 171.894531 L 238.480469 171.894531 C 240.464844 171.894531 242.070312 173.5 242.070312 175.484375 L 242.070312 195.542969"/><path fill="#404040" d="M 281.382812 195.542969 C 281.382812 197.519531 279.78125 199.125 277.796875 199.125 L 254.398438 199.125 C 252.421875 199.125 250.816406 197.519531 250.816406 195.542969 L 250.816406 175.484375 C 250.816406 173.5 252.421875 171.894531 254.398438 171.894531 L 277.796875 171.894531 C 279.78125 171.894531 281.382812 173.5 281.382812 175.484375 L 281.382812 195.542969"/><path fill="#404040" d="M 124.125 230.589844 C 124.125 232.570312 122.519531 234.175781 120.535156 234.175781 L 97.144531 234.175781 C 95.160156 234.175781 93.554688 232.570312 93.554688 230.589844 L 93.554688 210.535156 C 93.554688 208.550781 95.160156 206.945312 97.144531 206.945312 L 120.535156 206.945312 C 122.519531 206.945312 124.125 208.550781 124.125 210.535156 L 124.125 230.589844"/><path fill="#404040" d="M 163.4375 230.589844 C 163.4375 232.570312 161.832031 234.175781 159.851562 234.175781 L 136.457031 234.175781 C 134.476562 234.175781 132.867188 232.570312 132.867188 230.589844 L 132.867188 210.535156 C 132.867188 208.550781 134.476562 206.945312 136.457031 206.945312 L 159.851562 206.945312 C 161.832031 206.945312 163.4375 208.550781 163.4375 210.535156 L 163.4375 230.589844"/><path fill="#404040" d="M 202.753906 230.589844 C 202.753906 232.570312 201.148438 234.175781 199.167969 234.175781 L 175.773438 234.175781 C 173.792969 234.175781 172.183594 232.570312 172.183594 230.589844 L 172.183594 210.535156 C 172.183594 208.550781 173.792969 206.945312 175.773438 206.945312 L 199.167969 206.945312 C 201.148438 206.945312 202.753906 208.550781 202.753906 210.535156 L 202.753906 230.589844"/><path fill="#404040" d="M 242.070312 230.589844 C 242.070312 232.570312 240.464844 234.175781 238.480469 234.175781 L 215.089844 234.175781 C 213.109375 234.175781 211.5 232.570312 211.5 230.589844 L 211.5 210.535156 C 211.5 208.550781 213.109375 206.945312 215.089844 206.945312 L 238.480469 206.945312 C 240.464844 206.945312 242.070312 208.550781 242.070312 210.535156 L 242.070312 230.589844"/><path fill="#404040" d="M 281.382812 230.589844 C 281.382812 232.570312 279.78125 234.175781 277.796875 234.175781 L 254.398438 234.175781 C 252.421875 234.175781 250.816406 232.570312 250.816406 230.589844 L 250.816406 210.535156 C 250.816406 208.550781 252.421875 206.945312 254.398438 206.945312 L 277.796875 206.945312 C 279.78125 206.945312 281.382812 208.550781 281.382812 210.535156 L 281.382812 230.589844"/><path fill="#404040" d="M 124.125 265.636719 C 124.125 267.625 122.519531 269.230469 120.535156 269.230469 L 97.144531 269.230469 C 95.160156 269.230469 93.554688 267.625 93.554688 265.636719 L 93.554688 245.582031 C 93.554688 243.601562 95.160156 241.996094 97.144531 241.996094 L 120.535156 241.996094 C 122.519531 241.996094 124.125 243.601562 124.125 245.582031 L 124.125 265.636719"/><path fill="#404040" d="M 163.4375 265.636719 C 163.4375 267.625 161.832031 269.230469 159.851562 269.230469 L 136.457031 269.230469 C 134.476562 269.230469 132.867188 267.625 132.867188 265.636719 L 132.867188 245.582031 C 132.867188 243.601562 134.476562 241.996094 136.457031 241.996094 L 159.851562 241.996094 C 161.832031 241.996094 163.4375 243.601562 163.4375 245.582031 L 163.4375 265.636719"/><path fill="#404040" d="M 202.753906 265.636719 C 202.753906 267.625 201.148438 269.230469 199.167969 269.230469 L 175.773438 269.230469 C 173.792969 269.230469 172.183594 267.625 172.183594 265.636719 L 172.183594 245.582031 C 172.183594 243.601562 173.792969 241.996094 175.773438 241.996094 L 199.167969 241.996094 C 201.148438 241.996094 202.753906 243.601562 202.753906 245.582031 L 202.753906 265.636719"/><path fill="#404040" d="M 242.070312 265.636719 C 242.070312 267.625 240.464844 269.230469 238.480469 269.230469 L 215.089844 269.230469 C 213.109375 269.230469 211.5 267.625 211.5 265.636719 L 211.5 245.582031 C 211.5 243.601562 213.109375 241.996094 215.089844 241.996094 L 238.480469 241.996094 C 240.464844 241.996094 242.070312 243.601562 242.070312 245.582031 L 242.070312 265.636719"/><path fill="#404040" d="M 281.382812 265.636719 C 281.382812 267.625 279.78125 269.230469 277.796875 269.230469 L 254.398438 269.230469 C 252.421875 269.230469 250.816406 267.625 250.816406 265.636719 L 250.816406 245.582031 C 250.816406 243.601562 252.421875 241.996094 254.398438 241.996094 L 277.796875 241.996094 C 279.78125 241.996094 281.382812 243.601562 281.382812 245.582031 L 281.382812 265.636719"/><path fill="#FFF" d="M 297.515625 150.710938 L 297.515625 119.140625 C 297.515625 104.882812 285.945312 93.320312 271.671875 93.320312 L 103.265625 93.320312 C 88.996094 93.320312 77.425781 104.882812 77.425781 119.140625 L 77.425781 150.710938 L 297.515625 150.710938"/><path fill="#404040" d="M 297.515625 150.710938 L 300.863281 150.710938 L 300.863281 119.140625 C 300.863281 111.097656 297.589844 103.785156 292.3125 98.515625 C 287.039062 93.242188 279.722656 89.972656 271.671875 89.976562 L 103.265625 89.976562 C 95.214844 89.972656 87.898438 93.242188 82.628906 98.515625 C 77.347656 103.785156 74.074219 111.097656 74.078125 119.140625 L 74.078125 154.054688 L 300.863281 154.054688 L 300.863281 150.710938 L 297.515625 150.710938 L 297.515625 147.367188 L 80.773438 147.367188 L 80.773438 119.140625 C 80.777344 112.925781 83.285156 107.328125 87.359375 103.246094 C 91.441406 99.175781 97.042969 96.667969 103.265625 96.664062 L 271.671875 96.664062 C 277.894531 96.667969 283.496094 99.175781 287.578125 103.246094 C 291.652344 107.328125 294.167969 112.925781 294.167969 119.140625 L 294.167969 150.710938 L 297.515625 150.710938 L 297.515625 147.367188 L 297.515625 150.710938"/><path fill="#FFF" d="M 125.847656 105.046875 C 125.847656 110.4375 121.472656 114.8125 116.078125 114.8125 C 110.683594 114.8125 106.316406 110.4375 106.316406 105.046875 L 106.316406 81.59375 C 106.316406 76.207031 110.683594 71.832031 116.078125 71.832031 C 121.472656 71.832031 125.847656 76.207031 125.847656 81.59375 L 125.847656 105.046875"/><g clip-path="url(#b)"><path fill="#404040" d="M 125.847656 105.046875 L 122.5 105.046875 C 122.496094 106.832031 121.785156 108.414062 120.617188 109.585938 C 119.445312 110.753906 117.863281 111.464844 116.078125 111.464844 C 114.292969 111.464844 112.710938 110.753906 111.539062 109.585938 C 110.375 108.414062 109.664062 106.832031 109.664062 105.046875 L 109.664062 81.59375 C 109.664062 79.8125 110.375 78.226562 111.539062 77.058594 C 112.710938 75.890625 114.292969 75.179688 116.078125 75.179688 C 117.863281 75.179688 119.445312 75.890625 120.617188 77.058594 C 121.785156 78.230469 122.496094 79.8125 122.5 81.59375 L 122.5 105.046875 L 129.195312 105.046875 L 129.195312 81.59375 C 129.195312 77.988281 127.722656 74.691406 125.351562 72.328125 C 122.992188 69.960938 119.691406 68.484375 116.078125 68.488281 C 112.464844 68.484375 109.167969 69.960938 106.804688 72.328125 C 104.4375 74.691406 102.964844 77.988281 102.96875 81.59375 L 102.96875 105.046875 C 102.964844 108.65625 104.4375 111.953125 106.804688 114.316406 C 109.167969 116.683594 112.464844 118.160156 116.078125 118.15625 C 119.691406 118.15625 122.992188 116.683594 125.351562 114.316406 C 127.722656 111.957031 129.195312 108.65625 129.195312 105.046875 L 125.847656 105.046875"/></g><path fill="#FFF" d="M 268.625 105.046875 C 268.625 110.4375 264.253906 114.8125 258.863281 114.8125 C 253.464844 114.8125 249.097656 110.4375 249.097656 105.046875 L 249.097656 81.59375 C 249.097656 76.207031 253.464844 71.832031 258.863281 71.832031 C 264.253906 71.832031 268.625 76.207031 268.625 81.59375 L 268.625 105.046875"/><g clip-path="url(#c)"><path fill="#404040" d="M 268.625 105.046875 L 265.277344 105.046875 C 265.273438 106.832031 264.5625 108.414062 263.398438 109.585938 C 262.226562 110.753906 260.644531 111.464844 258.863281 111.464844 C 257.078125 111.464844 255.5 110.753906 254.328125 109.585938 C 253.160156 108.417969 252.449219 106.832031 252.445312 105.046875 L 252.445312 81.59375 C 252.449219 79.8125 253.160156 78.226562 254.328125 77.058594 C 255.5 75.890625 257.078125 75.179688 258.863281 75.179688 C 260.644531 75.179688 262.226562 75.890625 263.398438 77.058594 C 264.5625 78.226562 265.273438 79.8125 265.277344 81.59375 L 265.277344 105.046875 L 271.972656 105.046875 L 271.972656 81.59375 C 271.972656 77.988281 270.5 74.691406 268.132812 72.328125 C 265.773438 69.960938 262.472656 68.484375 258.863281 68.488281 C 255.25 68.484375 251.949219 69.960938 249.589844 72.328125 C 247.222656 74.691406 245.75 77.988281 245.75 81.59375 L 245.75 105.046875 C 245.75 108.65625 247.222656 111.953125 249.589844 114.316406 C 251.949219 116.683594 255.25 118.160156 258.863281 118.15625 C 262.472656 118.160156 265.769531 116.683594 268.132812 114.316406 C 270.5 111.953125 271.972656 108.65625 271.972656 105.046875 L 268.625 105.046875"/></g></svg>