<svg xmlns="http://www.w3.org/2000/svg" width="375" viewBox="0 0 375 375" height="375" version="1.0"><defs><clipPath id="a"><path d="M 17 111 L 292 111 L 292 337.605469 L 17 337.605469 Z M 17 111"/></clipPath><clipPath id="b"><path d="M 17 286 L 330 286 L 330 337.605469 L 17 337.605469 Z M 17 286"/></clipPath><clipPath id="c"><path d="M 17 285 L 114 285 L 114 337.605469 L 17 337.605469 Z M 17 285"/></clipPath><clipPath id="d"><path d="M 41.40625 125.523438 L 110 125.523438 L 110 270 L 41.40625 270 Z M 41.40625 125.523438"/></clipPath><clipPath id="e"><path d="M 58 273 L 152.4375 273 L 152.4375 275.53125 L 58 275.53125 Z M 58 273"/></clipPath><clipPath id="f"><path d="M 51 273 L 54 273 L 54 275.53125 L 51 275.53125 Z M 51 273"/></clipPath><clipPath id="g"><path d="M 57.710938 260.074219 L 217.460938 260.074219 L 217.460938 278 L 57.710938 278 Z M 57.710938 260.074219"/></clipPath><clipPath id="h"><path d="M 208.464844 277.9375 L 66.996094 277.9375 C 62.171875 277.9375 58.054688 274.183594 57.894531 269.363281 C 57.726562 264.324219 61.761719 260.183594 66.765625 260.183594 L 208.230469 260.183594 C 213.058594 260.183594 217.171875 263.9375 217.335938 268.757812 C 217.5 273.796875 213.46875 277.9375 208.464844 277.9375 Z M 208.464844 277.9375"/></clipPath></defs><path fill="#93DDFD" d="M 260.679688 261.390625 C 260.679688 289.121094 238.160156 311.691406 210.480469 311.691406 L 54.757812 311.691406 C 27.082031 311.691406 4.558594 289.121094 4.558594 261.390625 L 4.558594 148.707031 C 4.558594 120.976562 27.082031 98.414062 54.757812 98.414062 L 210.480469 98.414062 C 238.160156 98.414062 260.679688 120.976562 260.679688 148.707031 L 260.679688 261.390625"/><path stroke-linecap="round" transform="matrix(.138 0 0 -.13825 -109.741 480.965)" fill="none" stroke-linejoin="round" d="M 2684.37589 1588.298629 C 2684.37589 1387.709622 2521.180834 1224.474983 2320.59104 1224.474983 L 1192.096523 1224.474983 C 991.535037 1224.474983 828.311673 1387.709622 828.311673 1588.298629 L 828.311673 2403.398096 C 828.311673 2603.987104 991.535037 2767.193486 1192.096523 2767.193486 L 2320.59104 2767.193486 C 2521.180834 2767.193486 2684.37589 2603.987104 2684.37589 2403.398096 Z M 2684.37589 1588.298629" stroke="#2F3132" stroke-width="60" stroke-miterlimit="10"/><path fill="#93DDFD" d="M 21.738281 158.453125 C 21.738281 134.882812 40.816406 115.769531 64.347656 115.769531 L 244.320312 115.769531 C 267.855469 115.769531 286.929688 134.882812 286.929688 158.453125 L 286.929688 288.691406 C 286.929688 312.265625 267.855469 333.167969 244.320312 333.167969 L 64.347656 333.167969 C 41.527344 333.167969 21.738281 314.691406 21.738281 288.691406 L 21.738281 158.453125"/><g clip-path="url(#a)"><path stroke-linecap="round" transform="matrix(.138 0 0 -.13825 -109.741 480.965)" fill="none" stroke-linejoin="round" d="M 952.809827 2332.899494 C 952.809827 2503.395912 1091.065621 2641.652289 1261.592423 2641.652289 L 2565.822396 2641.652289 C 2736.377506 2641.652289 2874.604992 2503.395912 2874.604992 2332.899494 L 2874.604992 1390.817776 C 2874.604992 1220.293102 2736.377506 1069.095499 2565.822396 1069.095499 L 1261.592423 1069.095499 C 1096.217659 1069.095499 952.809827 1202.746155 952.809827 1390.817776 Z M 952.809827 2332.899494" stroke="#2F3132" stroke-width="60" stroke-miterlimit="10"/></g><path fill="#93DDFD" d="M 109.070312 290.328125 L 324.980469 290.328125 C 324.980469 313.980469 305.839844 333.148438 282.234375 333.148438 L 64.488281 333.429688 C 40.878906 333.429688 21.738281 313.980469 21.738281 290.328125"/><g clip-path="url(#b)"><path stroke-linecap="round" transform="matrix(.138 0 0 -.13825 -109.741 480.965)" fill="none" stroke-linejoin="round" d="M 1585.689594 1378.978532 L 3150.352266 1378.978532 C 3150.352266 1207.888739 3011.643546 1069.236779 2840.578894 1069.236779 L 1262.611507 1067.20235 C 1091.518547 1067.20235 952.809827 1207.888739 952.809827 1378.978532" stroke="#2F3132" stroke-width="60" stroke-miterlimit="10"/></g><g clip-path="url(#c)"><path stroke-linecap="round" transform="matrix(.138 0 0 -.13825 -109.741 480.965)" fill="none" stroke-linejoin="round" d="M 1585.548054 1378.978532 C 1585.548054 1207.32362 1446.414716 1070.112714 1274.812213 1070.112714 L 1258.39363 1070.112714 C 1086.791127 1070.112714 952.809827 1209.216769 952.809827 1380.899937" stroke="#2F3132" stroke-width="60" stroke-miterlimit="10"/></g><path fill="#404040" d="M 263.375 156.9375 C 263.375 166.539062 255.601562 174.324219 246.011719 174.324219 C 236.429688 174.324219 228.65625 166.539062 228.65625 156.9375 C 228.65625 147.328125 236.429688 139.542969 246.011719 139.542969 C 255.601562 139.542969 263.375 147.328125 263.375 156.9375"/><path stroke-linecap="round" transform="matrix(.138 0 0 -.13825 -109.741 480.965)" fill="none" stroke-linejoin="round" d="M 2578.079718 2343.862804 L 2828.831114 2594.606128" stroke="#2F3132" stroke-width="60" stroke-miterlimit="10"/><path fill="#FFF" d="M 294.96875 108.539062 C 309.3125 122.910156 314.511719 141 306.582031 148.945312 C 298.660156 156.886719 280.597656 151.675781 266.253906 137.304688 C 251.910156 122.929688 246.707031 104.84375 254.636719 96.902344 C 262.566406 88.957031 280.625 94.164062 294.96875 108.539062"/><path stroke-linecap="round" transform="matrix(.138 0 0 -.13825 -109.741 480.965)" fill="none" stroke-linejoin="round" d="M 2932.862654 2693.954057 C 3036.809271 2590.000407 3074.487089 2459.147091 3017.022047 2401.674483 C 2959.613622 2344.230131 2828.717883 2381.923572 2724.771266 2485.877222 C 2620.82465 2589.859128 2583.118524 2720.684188 2640.583565 2778.12854 C 2698.048607 2835.601148 2828.916038 2797.935963 2932.862654 2693.954057 Z M 2932.862654 2693.954057" stroke="#2F3132" stroke-width="60" stroke-miterlimit="10"/><path fill="#FFF" d="M 276.484375 120.316406 C 271.960938 115.792969 271.96875 108.449219 276.484375 103.917969 L 311.066406 69.269531 C 315.589844 64.742188 322.921875 64.738281 327.4375 69.269531 L 334.667969 76.511719 C 339.1875 81.035156 339.1875 88.378906 334.667969 92.910156 L 300.082031 127.558594 C 295.566406 132.085938 288.230469 132.085938 283.710938 127.558594 L 276.484375 120.316406"/><path stroke-linecap="round" transform="matrix(.138 0 0 -.13825 -109.741 480.965)" fill="none" stroke-linejoin="round" d="M 2798.909662 2608.76236 C 2766.129111 2641.482753 2766.185727 2694.603944 2798.909662 2727.380849 L 3049.519519 2978.011149 C 3082.30007 3010.759798 3135.434002 3010.788054 3168.157937 2978.011149 L 3220.555863 2925.624613 C 3253.308106 2892.90422 3253.308106 2839.783029 3220.555863 2807.006124 L 2969.917698 2556.375824 C 2937.193763 2523.627175 2884.031523 2523.627175 2851.279281 2556.375824 Z M 2798.909662 2608.76236" stroke="#2F3132" stroke-width="60" stroke-miterlimit="10"/><path fill="#FFF" d="M 342.570312 60.851562 C 361.40625 79.730469 368.242188 103.488281 357.828125 113.921875 C 347.414062 124.355469 323.699219 117.507812 304.851562 98.636719 C 286.015625 79.757812 279.179688 55.996094 289.59375 45.5625 C 300.007812 35.128906 323.722656 41.972656 342.570312 60.851562"/><path stroke-linecap="round" transform="matrix(.138 0 0 -.13825 -109.741 480.965)" fill="none" stroke-linejoin="round" d="M 3277.822749 3038.902727 C 3414.323453 2902.341708 3463.862282 2730.489004 3388.393415 2655.017354 C 3312.924548 2579.545705 3141.067274 2629.07839 3004.481647 2765.582897 C 2867.980943 2902.143916 2818.442114 3074.024876 2893.910981 3149.496526 C 2969.379848 3224.968176 3141.237122 3175.463746 3277.822749 3038.902727 Z M 3277.822749 3038.902727" stroke="#2F3132" stroke-width="60" stroke-miterlimit="10"/><path fill="#404040" d="M 182.003906 174.324219 C 185.925781 174.324219 189.105469 177.511719 189.105469 181.449219 L 189.105469 186.328125 C 189.105469 190.261719 185.925781 193.453125 182.003906 193.453125 L 126.464844 193.453125 C 122.542969 193.453125 119.363281 190.261719 119.363281 186.328125 L 119.363281 181.449219 C 119.363281 177.511719 122.542969 174.324219 126.464844 174.324219 L 182.003906 174.324219"/><path fill="#404040" d="M 193.957031 212.460938 C 197.882812 212.460938 201.0625 215.648438 201.0625 219.582031 L 201.0625 224.464844 C 201.0625 228.398438 197.882812 231.589844 193.957031 231.589844 L 114.710938 231.589844 C 110.785156 231.589844 107.605469 228.398438 107.605469 224.464844 L 107.605469 219.582031 C 107.605469 215.648438 110.785156 212.460938 114.710938 212.460938 L 193.957031 212.460938"/><g clip-path="url(#d)"><path fill="#404040" d="M 107.746094 130.5 C 107.527344 129.042969 109.484375 125.523438 109.417969 125.589844 C 108.617188 126.398438 106.652344 127.726562 105.523438 127.863281 C 96.378906 128.988281 88.328125 134.957031 86.507812 135.78125 C 73.515625 141.6875 52.265625 197.933594 50.53125 206.222656 C 48.5 215.960938 53.335938 213.726562 55.460938 219.785156 C 53.902344 218.582031 50.21875 211.558594 41.472656 216.089844 C 47.074219 217.691406 51.140625 220.625 53.648438 226.207031 C 53.851562 226.65625 53.703125 226.976562 53.703125 226.976562 C 53.703125 226.976562 53.6875 226.957031 53.652344 226.929688 C 47.273438 222.671875 41.53125 227.675781 41.472656 227.695312 C 46.496094 228.117188 50.546875 232.0625 51.140625 236.269531 C 48.808594 232.042969 44.582031 233.992188 43.355469 237.148438 C 44.582031 236.09375 51.949219 239.777344 51.949219 242.410156 C 50.867188 241.308594 45.960938 244.476562 44.644531 244.0625 C 45.605469 245.480469 50.199219 244.355469 52.65625 246.8125 C 51.015625 260.839844 51.144531 269.894531 51.144531 269.894531 C 55.828125 265.828125 56.09375 260.589844 56.09375 260.589844 C 55.671875 256.035156 55.585938 251.433594 55.785156 246.8125 C 62.121094 248.539062 69.34375 248.414062 71.324219 243.25 C 68.425781 244.597656 66.859375 243.460938 63.175781 242.757812 C 65.105469 241.007812 71.609375 244.738281 73.445312 239.644531 C 70.421875 240.207031 68.882812 241.636719 65.285156 240.480469 C 70.894531 240.128906 77.902344 236.699219 83.082031 236.289062 C 82.25 231.695312 74.394531 234.871094 72.296875 233.992188 C 80.578125 232.949219 87.84375 230.109375 86.59375 221.421875 C 86.066406 223.351562 85.804688 223.292969 74.050781 227.324219 C 85.28125 222.417969 95.453125 192.253906 91.417969 191.023438 C 105.800781 184.011719 105.800781 162.789062 107.207031 160.863281 C 104.75 161.039062 104.574219 162.613281 99.3125 164.894531 C 104.230469 162.601562 109.757812 144.078125 107.746094 130.5"/></g><g clip-path="url(#e)"><path fill="#404040" d="M 152.367188 275.53125 L 58.945312 275.53125 L 58.945312 273.472656 L 152.367188 273.472656 L 152.367188 275.53125"/></g><g clip-path="url(#f)"><path fill="#404040" d="M 53.507812 274.503906 C 53.507812 275.070312 53.046875 275.53125 52.480469 275.53125 C 51.910156 275.53125 51.449219 275.070312 51.449219 274.503906 C 51.449219 273.933594 51.910156 273.472656 52.480469 273.472656 C 53.046875 273.472656 53.507812 273.933594 53.507812 274.503906"/></g><g clip-path="url(#g)"><g clip-path="url(#h)"><path fill="#404040" d="M 57.726562 260.183594 L 57.726562 277.9375 L 217.460938 277.9375 L 217.460938 260.183594 Z M 57.726562 260.183594"/></g></g></svg>